<svg id="camera" data-name="Layer 1" xmlns="http://www.w3.org/2000/svg" viewBox="0 0 87.9 76">
  <title>camera</title>
  <g>
    <path d="M77.68,12.8H67.38l-2.3-6.2a8.44,8.44,0,0,0-3.2-3.9,7.84,7.84,0,0,0-4.7-1.6H33.68A7.84,7.84,0,0,0,29,2.7a9.1,9.1,0,0,0-3.2,3.9l-2.4,6.2H13.08a11.32,11.32,0,0,0-8.3,3.4,11.16,11.16,0,0,0-3.4,8.3V65.4a11.32,11.32,0,0,0,3.4,8.3,11.32,11.32,0,0,0,8.3,3.4h64.5a11.32,11.32,0,0,0,8.3-3.4,11.16,11.16,0,0,0,3.4-8.3V24.5a11.32,11.32,0,0,0-3.4-8.3A10.94,10.94,0,0,0,77.68,12.8ZM59.88,59.4a19.86,19.86,0,0,1-14.5,6,19.7,19.7,0,0,1-14.5-6,19.7,19.7,0,0,1-6-14.5,20.49,20.49,0,0,1,20.5-20.5,19.7,19.7,0,0,1,14.5,6,19.7,19.7,0,0,1,6,14.5A19.7,19.7,0,0,1,59.88,59.4Z" transform="translate(-1.38 -1.1)"/>
    <path d="M45.38,31.8A13.32,13.32,0,0,0,32.18,45a13.32,13.32,0,0,0,13.2,13.2A13.32,13.32,0,0,0,58.58,45a13.32,13.32,0,0,0-13.2-13.2Z" transform="translate(-1.38 -1.1)"/>
  </g>
</svg>
