<svg id="corner" data-name="Layer 1" xmlns="http://www.w3.org/2000/svg" viewBox="0 0 200 197">
  <defs>
    <style>
      .corner-cls-1 {
        fill: #fff;
      }
    </style>
  </defs>
  <title>corner</title>
  <g>
    <polygon class="corner-cls-1" points="73.33 0.92 2.9 0.92 2.9 18.53 2.92 18.53 2.92 73.28 20.53 73.28 20.53 18.53 73.33 18.53 73.33 0.92"/>
    <polygon class="corner-cls-1" points="197.1 71.32 197.1 0.88 179.49 0.88 179.49 0.9 124.74 0.9 124.74 18.51 179.49 18.51 179.49 71.32 197.1 71.32"/>
    <polygon class="corner-cls-1" points="126.67 196.08 197.1 196.08 197.1 178.47 197.08 178.47 197.08 123.72 179.47 123.72 179.47 178.47 126.67 178.47 126.67 196.08"/>
    <polygon class="corner-cls-1" points="2.9 125.68 2.9 196.12 20.51 196.12 20.51 196.1 75.26 196.1 75.26 178.49 20.51 178.49 20.51 125.68 2.9 125.68"/>
  </g>
</svg>
