<svg id="edit" data-name="Layer 1" xmlns="http://www.w3.org/2000/svg" viewBox="0 0 32.36 29.7">
  <title>edit</title>
  <g>
    <path d="M31.89,9.5a1,1,0,0,0-1,1v14a3,3,0,0,1-3,3h-22a3,3,0,0,1-3-3V5.5a3,3,0,0,1,3-3h16a1,1,0,0,0,0-2h-16a5,5,0,0,0-5,5v19a5,5,0,0,0,5,5h22a5,5,0,0,0,5-5v-14A1,1,0,0,0,31.89,9.5Z" transform="translate(-0.89 0.2)"/>
    <path d="M33,3.66,29.39.09A1,1,0,0,0,28,.09L10.8,17.27l0,0a1,1,0,0,0-.17.27.25.25,0,0,0,0,.07.14.14,0,0,0,0,.06L9,22.88a1,1,0,0,0,.25,1,1,1,0,0,0,.71.3,1.45,1.45,0,0,0,.29,0l5.19-1.56a1,1,0,0,0,.64-.6L33,5.07a1,1,0,0,0,.29-.7A1,1,0,0,0,33,3.66Zm-21.52,18L12,19.87l1.27,1.27Zm3.63-1.55L12.92,18,28.69,2.21l2.15,2.16Z" transform="translate(-0.89 0.2)"/>
  </g>
</svg>
