<svg id="header_phone" data-name="Layer 1" xmlns="http://www.w3.org/2000/svg" viewBox="0 0 296.13 299.78">
  <title>icon-phone</title>
  <path d="M154.89,231c-20,13-36-9-45-17-14-14-34-18-62,4-31,24-39,41-3,71,120,73,321-143,239-257-32-34-48-25-70,8-20,30-14,50,0,63,9,8,32,22,20,43C216.89,176,183.89,212,154.89,231Zm-2-227c13-1,14,19,1,20-73,3-128,62-127,135,1,14-19,14-20,1C5.89,75,67.89,8,152.89,4Zm4,101c13-1,15,19,2,20-21,3-29,12-30,32-1,13-20,13-20-1Q110.39,111,156.89,105Zm-3-51c13-1,15,19,2,20-50,6-76,33-78,84-1,13-21,12-20-1C59.89,97,93.89,61,153.89,54Z" transform="translate(-6.88 -3.96)"/>
</svg>
