<svg id="icon_phone" data-name="Layer 1" xmlns="http://www.w3.org/2000/svg" viewBox="0 0 50.89 58">
  <title>icon-phone-menu</title>
  <path d="M58.32,44l-.08-.18a6.85,6.85,0,0,0-.65-1.27l-.19-.29-11.69-4.5-.37.12a10.45,10.45,0,0,0-4.81,3.4A29.87,29.87,0,0,1,23.09,19.63a10.21,10.21,0,0,0,4.39-4.1l.19-.34L25.73,2.85l-.3-.26a12.58,12.58,0,0,0-1.2-.91A10.21,10.21,0,0,0,19.69.06,10.32,10.32,0,0,0,8.33,9.19c0,.24,0,.48-.05.71l0,.24A44.35,44.35,0,0,0,47.51,57.92a6.32,6.32,0,0,0,.74.06l.46,0a10.27,10.27,0,0,0,10.23-9.22A10.75,10.75,0,0,0,58.32,44ZM48.71,55.83v1.09l-.08-1.09h-.29a4.13,4.13,0,0,1-.56,0A42.15,42.15,0,0,1,10.43,10.32V10c0-.17,0-.34,0-.54A8.15,8.15,0,0,1,18.6,2.17a8.44,8.44,0,0,1,.87,0A8.1,8.1,0,0,1,23.05,3.5a8,8,0,0,1,.66.48l1.7,10.78A7.93,7.93,0,0,1,21.52,18l-.82.56.11.65a32,32,0,0,0,19.7,24.47l.83.32.48-.74a8.13,8.13,0,0,1,3.86-3.13L56,44a7.26,7.26,0,0,1,.32.72l.06.13a8.53,8.53,0,0,1,.45,3.68A8.11,8.11,0,0,1,48.71,55.83Z" transform="translate(-8.09 0)"/>
</svg>
