<svg id="icon_events" data-name="Layer 1" xmlns="http://www.w3.org/2000/svg" viewBox="0 0 59.47 58.08">
  <title>icon-events</title>
  <g>
    <path d="M63.28,13.4a7.71,7.71,0,0,0-7.71-7.7H51.64V1.54a1.54,1.54,0,0,0-3.08,0V5.7h-30V1.54a1.54,1.54,0,1,0-3.08,0V5.7H11.51a7.7,7.7,0,0,0-7.7,7.7v37a7.7,7.7,0,0,0,7.7,7.7H55.57a7.71,7.71,0,0,0,7.71-7.7ZM11.51,8.78h3.93v2.93a1.54,1.54,0,1,0,3.08,0V8.78h30v2.93a1.54,1.54,0,0,0,3.08,0V8.78h3.93A4.62,4.62,0,0,1,60.2,13.4v5.7H6.89V13.4A4.62,4.62,0,0,1,11.51,8.78ZM55.57,55H11.51a4.62,4.62,0,0,1-4.62-4.62V22.19H60.2V50.38A4.62,4.62,0,0,1,55.57,55Z" transform="translate(-3.81)"/>
    <path d="M43.94,30.74,30.23,42.83l-6.16-6.24a1.54,1.54,0,0,0-2.16,2.16L29,46.07a1.55,1.55,0,0,0,1.15.46,1.79,1.79,0,0,0,1-.39L46,33.05a1.71,1.71,0,0,0,.16-2.24A1.62,1.62,0,0,0,43.94,30.74Z" transform="translate(-3.81)"/>
  </g>
</svg>
