<svg id="icon_rewards" data-name="Layer 1" xmlns="http://www.w3.org/2000/svg" viewBox="0 0 50.25 58.02">
  <title>icon-rewards</title>
  <g>
    <path d="M57.14.37h-9a1.6,1.6,0,0,0-1.69,1.69,3.75,3.75,0,0,1-3.72,3.72h0a4.82,4.82,0,0,1-2.2-.68L39.39,1.22a1.83,1.83,0,0,0-2-1.19L28.57,2.4a1.83,1.83,0,0,0-1.18,2A3.78,3.78,0,0,1,24.85,9a3.69,3.69,0,0,1-4.56-2.53,1.84,1.84,0,0,0-2-1.19L9.63,7.81a1.84,1.84,0,0,0-1.18,2l14,47A1.68,1.68,0,0,0,24.17,58h.51l8.62-2.53a1.84,1.84,0,0,0,1.19-2A3.78,3.78,0,0,1,37,48.89a3.72,3.72,0,0,1,4.57,2.54,1.84,1.84,0,0,0,2,1.18l2.87-.84a.37.37,0,0,0,.34.34,1.56,1.56,0,0,0,1.18.5h9a1.59,1.59,0,0,0,1.69-1.69v-49A1.51,1.51,0,0,0,57.14.37ZM36,45.85A7.05,7.05,0,0,0,30.94,53l-5.58,1.69L22,43.48l1.69-.5a.81.81,0,0,0-.51-1.53L21.47,42,12.34,11l5.58-1.69A7.25,7.25,0,0,0,24,12.88a8.37,8.37,0,0,0,2-.34,7,7,0,0,0,5.08-7.1l5.58-1.69,9.13,30.94a.76.76,0,0,0-.51,1,1.14,1.14,0,0,0,.84.67h.17L49.7,47.54l-2.19.68h0l-3.39,1A7.25,7.25,0,0,0,36,45.85ZM55.28,49.4h-2a1.78,1.78,0,0,0,.17-1.35L41.76,9c.34,0,.67.17,1,.17h0a6.87,6.87,0,0,0,6.76-5.41h5.92Z" transform="translate(-8.42)"/>
    <path d="M29.58,39.43l-3.21,1a.75.75,0,0,0-.5,1,1.1,1.1,0,0,0,.84.68h.17l3.21-1a.76.76,0,0,0,.51-1C30.6,39.43,30.09,39.26,29.58,39.43Z" transform="translate(-8.42)"/>
    <path d="M36.18,37.4l-3.21,1a.76.76,0,0,0-.51,1,1.14,1.14,0,0,0,.84.67h.17l3.22-1a.76.76,0,0,0,.5-1C37,37.57,36.52,37.23,36.18,37.4Z" transform="translate(-8.42)"/>
    <path d="M42.6,35.54l-3.21,1c-.51,0-.68.51-.68,1a1.14,1.14,0,0,0,.85.67h.17l3.21-1a.76.76,0,0,0,.51-1C43.45,35.54,43.11,35.37,42.6,35.54Z" transform="translate(-8.42)"/>
  </g>
</svg>
