<svg id="icon_gallery" data-name="Layer 1" xmlns="http://www.w3.org/2000/svg" viewBox="0 0 57.92 57.92">
  <title>icon-gallery</title>
  <path d="M61,0H6.11A1.44,1.44,0,0,0,4.58,1.52V56.39a1.44,1.44,0,0,0,1.53,1.53H61a1.44,1.44,0,0,0,1.52-1.53V1.52A1.44,1.44,0,0,0,61,0ZM59.45,54.87H7.63V3.05H59.45ZM56.4,6.1H10.68V51.82H56.4Zm-3,3V36L46.8,29.42a1.47,1.47,0,0,0-2.13,0L38.11,36,23.94,21.79a1.49,1.49,0,0,0-2.13,0l-8.08,8.08V9.14ZM13.73,48.77V34.14L22.87,25,38.11,40.24l7.62-7.62,7.63,7.62v8.53ZM39.64,27.43A7.62,7.62,0,1,0,32,19.81,7.54,7.54,0,0,0,39.64,27.43Zm0-12.19a4.58,4.58,0,1,1-4.57,4.57A4.49,4.49,0,0,1,39.64,15.24Z" transform="translate(-4.58)"/>
</svg>
