<svg id="icon_shop" data-name="Layer 1" xmlns="http://www.w3.org/2000/svg" viewBox="0 0 57.68 58.15">
  <title>icon-shop</title>
  <path d="M61.3,10.52a4.57,4.57,0,0,0-3.79-1.9H23.86a1.63,1.63,0,0,0-1.73,1.73,1.63,1.63,0,0,0,1.73,1.72H57.51a1.48,1.48,0,0,1,1,.52A1.84,1.84,0,0,1,58.89,14L46.46,36.58l-.17.17H20.06a.59.59,0,0,1-.17-.34L15.4.17h-9A1.63,1.63,0,0,0,4.7,1.89,1.63,1.63,0,0,0,6.43,3.62h5.69l4.14,33.3a6.22,6.22,0,0,0-3.62,1.56,6.29,6.29,0,0,0-1.55,4.66,6.55,6.55,0,0,0,1.55,4.65,7.35,7.35,0,0,0,5.18,1.56h1.55a7.11,7.11,0,0,0-.69,2.76,6.21,6.21,0,0,0,12.42,0,5,5,0,0,0-.69-2.76H38a7.11,7.11,0,0,0-.69,2.76,6.21,6.21,0,1,0,7.07-6H18.51c-1.21,0-2.76,0-3.28-.52a2.88,2.88,0,0,1-.52-2.07,4.69,4.69,0,0,1,.52-2.24c.52-.52,1.9-.52,3.1-.52h35a1.73,1.73,0,1,0,0-3.45h-3.1L62.17,15.7l.17-.35A7.19,7.19,0,0,0,61.3,10.52ZM24.89,54.7a2.77,2.77,0,1,1,2.76-2.76A2.73,2.73,0,0,1,24.89,54.7Zm18.64,0a2.77,2.77,0,1,1,2.76-2.76A2.73,2.73,0,0,1,43.53,54.7Z" transform="translate(-4.7 -0.17)"/>
</svg>
