<svg id="Layer_1" data-name="Layer 1" xmlns="http://www.w3.org/2000/svg" xmlns:xlink="http://www.w3.org/1999/xlink" viewBox="0 0 1414.2 1516">
  <defs>
    <style>
      .cls-1 {
        fill: none;
      }

      .cls-2 {
        clip-path: url(#clip-path);
      }

      .cls-3 {
        fill: #ddb263;
      }

      .cls-4 {
        fill: #fff;
      }
    </style>
    <clipPath id="clip-path">
      <polygon class="cls-1" points="696.68 27.99 16.62 1205.89 1376.74 1205.89 696.68 27.99"/>
    </clipPath>
  </defs>
  <title>logo-final</title>
  <g class="cls-2">
    <path class="cls-3" d="M87.3,214.74c.35-.15.66-.3,1-.44l-.51.51Z"/>
    <path class="cls-3" d="M76.6,223l.61.09c-.25-.13-.51-.26-.79-.42C76.49,222.76,76.54,222.87,76.6,223Z"/>
    <path class="cls-3" d="M93,208.94c.18.27.33.52.48.75l-.13-.59Z"/>
    <path class="cls-3" d="M61,227.92l.2.31c0-.17-.08-.34-.13-.53C61,227.78,61,227.84,61,227.92Z"/>
    <path class="cls-3" d="M84.35,193.77l-.3-.26.28.51A2.29,2.29,0,0,1,84.35,193.77Z"/>
    <path class="cls-3" d="M70,197.33v.19c0-.08,0-.17.09-.26Z"/>
    <path class="cls-3" d="M63,196.93l.26-.08h-.19A.31.31,0,0,1,63,196.93Z"/>
    <g>
      <path class="cls-4" d="M772.65,454.18l-1.07-.46-14,61.26c2.83-2.32,12-4.79,14-6.64L819,588.82C814.9,577.12,796.18,523.87,772.65,454.18Z"/>
      <path class="cls-4" d="M771.42,453.65l-1-.44,1.2.16.1-.16,0,.17.75.1c-9-26.54-18.61-55.43-28.41-85.3-3.07,7.85-25.47,66.39-28.22,110,.31.41.6.82.92,1.23,6.31-5.46,11.73-10.28,17.61-15.37,12.3,28.42,17.33,40.07,23,51.16l.12-.1C758.09,509.29,763.09,466.35,771.42,453.65Z"/>
      <path class="cls-4" d="M743.93,368c-4.91-15-9.86-30.16-14.78-45.43-5.62,13.77-36.74,90.79-41.48,119.4-.24,2.08-.4,3.66-.5,4.69l.18.26c6-4.2,10.46-7.81,16-11.65,1.41,16.1,3,30,12.23,42.58C714.63,468.87,711.4,419.57,743.93,368Z"/>
      <path class="cls-4" d="M691.25,200.5c-7.87,9.46-61,74.4-75.62,122.35,5.63-19,27.7-83.9,75.53-122.67-7.86-26.53-15-51.71-21-74.44-12,15.65-63.48,84-81.94,134.38.14.24.25.48.41.71,5.85-1.51,11.32-2.84,17.15-4.34-.11,25.23-6.87,49,7.21,71.74l1.24-.45c.17-.63.51-1.92,1.06-3.81-.37,1.28-.73,2.55-1,3.8L630,322.05c1,23.72-2.21,45.3,10.22,68.56.66-3.17,19.07-89.39,65.09-139.24,0,0-39,58.56-65.09,139.25a.93.93,0,0,1,0,.1l26.44-9.62c-2.73,23.15,6.58,45.92,20.42,65.43.09-1.34.27-2.88.56-4.6C689.8,423.59,698.59,367,729,322,715.74,280.85,702.73,239.23,691.25,200.5Z"/>
      <path class="cls-4" d="M660.77,74.12l14.61,47.5c29.57-5,69.42,17.32,96.94,36.3-4.67-11.32-13.39-19.3-21.8-27.95-2.3-2.37-5.56-6.56-4.76-8.43,4-9.16,9.83-2.32-6.2-20.9-2.79-3.23-5.71-6.34-8.69-9.4C696.72,81.37,667.7,73.74,660.77,74.12Z"/>
      <path class="cls-4" d="M832.25,488.93c-10.35-11.54-39.45-25.64-53.74-32.13l40.74,132.41L827.39,603c-.35-37.66-2.83-75.19-9.57-113.06Z"/>
      <path class="cls-4" d="M1177,47.7,1092.36,11c1.36-1.9,2.47-10.16,4.18-12.54-9.82-3.58-20.07-6.57-45-13.87,3.63-5.42,7-10.44,10.9-16.26-11.83-7.22-24.14-7.12-38.25-6.6,2.63-5,4.93-9.11,7.8-14.55-17.75-9.61-37.08-14.92-57.39-10.5,1.91-8.32,3.48-15.22,5.27-23-19.46-7.71-37.93-2.94-57.6-1.29l3.38-14.79c-19.15-9.07-39.29-1.23-60.29,1.47.65-5,1.37-9.64,2-14.68-14.08-6.76-27,.73-40.17,3,.29-.9,1.4-5.48,1.68-6.39-4.53-1.9-9.94-1.8-14.43-1.71-11.81.28-23.56,2.17-35.34,3.37-2.09.21-4.2.17-6.78.27-.06-3.92-.11-7.26-.18-11.73-18.9-1.87-37,1.35-55.66,7.15.18-4,.3-6.62.52-11.7-15.36,2.51-29.7,5-44.11,7.07-3.17.45.52-6.08-2.8-6.44a27.2,27.2,0,0,0-9.6,1.15c-.41-1.62-.74-2.93-1.17-4.59,12.63,1.22,24.6.88,36.38-2.82-.55-2.85-1-5-1.44-7.49,1.66-.28,3-.58,4.35-.72,7.66-.8,15.39-1.15,22.94-2.54,2.87-.53,6.33-1.18,9-3-.3-.54-1.62-3.31-1.92-3.85,8.71-.3,17.9,2.76,26-3.4-1.08-3.13-2.15-6-3.23-9.08,13.73-1.06,27.58,1.27,38.57-7.05l-4.1-9c12.74-1.55,25.12-1,36.49-8.44l-6.39-13.94c13.51.11,25.11-5.82,35.14-14.28-2.55-3.09-4.56-5.42-6.89-8.24,9.05-1.53,16.9-3.1,23.48-9.26-3.25-3.19-6.07-5.93-9.09-8.91,14.9-7.94,21-11.2,26.8-14.78-1.4-1.29-3.2-6.4-4.32-7.43l49-34.55c-20.46,1.85-40.75,4.86-61,10.2l-1.24-8.2-32.21,9.21c-.1-2.82-.23-6.4-.4-11.09-14,1.84-25.66,7.07-36.29,17.54-.22-6-.42-11.1-.65-17-13.26,2.33-21.78,11-30.8,20.28-1.82-4.87-3.11-9.09-4.94-14-13.58,5.11-22.55,15.72-29.2,27.64-1.65-3.59-2.73-5.94-4.19-9.14-13.38,6-21.82,17-30.08,28.31-1.14-2.49-2-4.26-2.85-6.21-8.63,1.72-14.36,8.73-20,15.15-1.18,1.35-3.27,3.29-4.32,2.93-5.15-1.73-1.67-5.24-11.06,4.29-5.25,5.33-9.79,11.28-14.68,16.95-3.52-.14-7.79-.11-9.72,2.05-6,6.74-11.18,14.27-16.65,21.53-.91,1.21-1.62,2.55-2.67,4.21-3.49-3.47-7.05-4.15-9.68-.47-4.34,6.06-8.11,12.52-12.15,18.79a14.51,14.51,0,0,1-2.73,3.57c-2.43,1.93-5.64,3.11-7.55,5.41-.9,1.08-1.76,2.2-2.65,3.28l-.75-2.06-4.36,1.59c2.28-1.55,4.55-3.12,6.67-4.86,1.06-.88,1.15-2.89,1.15-4.56,2.77-2.19,5.66-4.22,8.28-6.59,4.68-4.25,3-2.68,2.24-5.14-.15-.5.8-1.45,1.46-2,3.14-2.53,6.56-5.1,7.53-9.14l-2.87-1.46c5.51-3.68,10.83-7.45,13.93-13.65l-4.23-2.15c5.75-2.91,10.93-6.94,13.6-13.25-2.27-1-4.24-1.65-6.5-2.6,4.55-4.08,8.8-7.94,10.16-14.14l-8-.64a28.34,28.34,0,0,0,9-16.78l-5.22-.4,5-15-3.85-.75a173.43,173.43,0,0,0,6-28.6l-17.24,22.45c-.46-.54-2.84-1.49-3.42-2.18-1.8,2.66-3.45,5.49-7.48,12.37-1.35-1.48-2.59-2.87-4-4.46-3,3-3.92,6.66-4.81,10.9-1.29-1.15-2.35-2.14-3.76-3.41-4.18,4.57-7.21,9.93-7.41,16.31l-6.45-3.29c-3.75,5.23-3.71,11.08-4.69,17.06-1.3-.66-2.52-1.27-4.15-2.11-4.13,5-3.3,11.62-4.06,18.07-1.44-.57-2.77-1.12-4.22-1.7-3.06,3.7-1.79,8.09-2.1,12.19-.25-.15-1.53-.83-1.78-1a11,11,0,0,0-1.59,4.18c-.79,3.53-1.11,7.18-1.63,10.77-.1.64-.26,1.27-.43,2l-3.5-.82a42.51,42.51,0,0,0-2,17.11l-3.45-1c-.4,4.77-.72,9.22-1.19,13.66-.1,1-1.77-.6-2.12.36-.85,2.31.06,5.62-.4,8s-.56,1.86-1.71,4.21a6.11,6.11,0,0,0-.39,1.12c-15.73-36.48-35.73-87.66-40.13-121.15a158.27,158.27,0,0,0-5.84,33.33c-.48,9.7,14.94,52.68,28.09,87.35-.18.2-.36.3-.58.08-3.22-3.1-6.33-6.31-9.69-9.7l-2,3a42.59,42.59,0,0,0-12.55-11.81L492.6-167c-.63-.49-1.15-.86-1.63-1.29-2.71-2.42-5.3-5-8.18-7.21a11,11,0,0,0-3.9-2.17c-.09.27-.64,1.61-.73,1.89-2.88-3-4.73-7.13-9.45-8-.74,1.37-1.4,2.65-2.14,4-4.73-4.45-8.33-10-14.72-11.22L450-186.68c-4.59-4-8.32-8.47-14.55-10.06-1,2.25-1.81,4.26-2.83,6.67-4.26-4.76-10-6.93-16.16-7.74-.26,1.87-.44,3.31-.68,5-3.42-2.68-6.46-4.92-10.7-5.26-.09,2.15-.15,4-.22,6-7.52-2.68-10.6-3.79-13.69-4.67,0,.91-1.22,3.16-1.22,3.88l-27.64-6.13a173.6,173.6,0,0,0,23,18.07l-2.47,3,13.46,8.32-3.75,3.67a28.38,28.38,0,0,0,17.66,7.09l-5.72,5.62c5,3.89,10.76,4.12,16.87,4.31-1.12,2.19-2.18,4-3.31,6.17,6.11,3.12,12.66,2.88,18.94,1.42-.74,1.71-1.21,2.83-1.86,4.36,6.36,2.76,12.86,2.23,19.44,1.51-.5,1.19-.86,2-1.26,3,3.34,2.47,7.61,2.24,11.64,2.15.85,0,2.19.1,2.4.58,1,2.35-1.31,2.25,5,2.5,3.53.14,7-.17,10.58-.26,1.07,1.27,2.44,2.75,3.81,2.74.81,0,1.62,0,2.43-.09l1.51,4.15a21.92,21.92,0,0,0-7.34-.76c-5.13.73-4.12,1.24-8.95.64S464-125.1,459.1-124.93c-2,.07-.07,4.19-2,3.78-8.64-1.85-17.21-4-26.41-6.18-.08,3.09-.12,4.7-.19,7.11-11-4.31-21.87-7-33.4-6.72-.24,2.7-.41,4.72-.61,7.09-1.56-.17-2.84-.24-4.09-.46-7.09-1.23-14.13-2.87-21.26-3.55-2.72-.26-6-.55-8.81.41.12.56.6,3.39.73,4-7.9-2-15.37-7-24.19-3.55.18,3.08.41,5.92.59,9-12.6-2.54-24.46-8.16-36.45-3.49.56,3.57,1,6.25,1.41,9.1-11.84-1.85-22.82-5.53-34.94-1.69.75,4.78,1.41,9,2.21,14.15-12.12-3.55-24.05-1.16-35.21,3.89,1.51,3.42,2.72,6,4.1,9.15-8.53-.92-16-1.51-23.45,2.35,2.1,3.69,3.94,6.88,5.9,10.32-15.41,3.35-21.75,4.71-27.85,6.46.94,1.52,1.25,6.57,2,7.78L144.4-37.47a342.8,342.8,0,0,0,57.43,6.35c-.23,1.86-.5,4-1,7.69l31.28-.08c-.63,2.56-1.42,5.81-2.46,10.06,13.08,1.92,24.85.17,37.06-6.53C265.43-14.55,264.31-9.9,263-4.57c12.5,1.28,22.36-4.34,32.83-10.39.4,4.84.48,9,.88,13.83C310.24-2.27,321-9.52,330-18.54c.56,3.64.94,6,1.44,9.27C345-11.29,355.36-19,365.66-27c.4,2.52.68,4.33,1,6.3,8.2.65,15.13-4.19,21.8-8.53,1.4-.92,3.77-2.12,4.63-1.54,4.18,2.87.16,5.14,11-1,6.07-3.45,11.66-7.65,17.49-11.49,3.13,1,7,2.08,9.26.63,7.14-4.52,13.68-10,20.43-15.11,1.12-.85,2.11-1.88,3.47-3.1,2.26,4,5.28,5.51,8.58,2.88,2.37-1.89,4.65-3.88,6.91-5.89-1.21,2-1.93,3-5.76,6.31-6,5.17-16.82,8-22,14.11-2.15,2.55,5,4.7,2.44,6.57-11.79,8.53-23.86,16.66-36.67,25.51l8.49,8.07c-17.44,8.75-32.73,19-45,33.46l8,8.57c-1.92,1.73-3.42,3.21-5.07,4.51-9.31,7.31-19.09,14.1-27.79,22.09-3.3,3-7.26,6.73-9.21,11.24.83.46,4.81,3,5.64,3.44-11.09,7.53-25.56,11.07-31,25.71,4,3.17,7.7,6,11.64,9.17-17,12.62-36.95,20.94-44.44,40.77l12.69,8.3c-15.31,12.45-31.92,21.83-40.59,40.89l19.75,12.91c-17.69,10.91-27.93,28.14-34.05,47.37,5.84,1.92,10.37,3.31,15.71,5.07-10.52,9.42-19.45,17.88-23,31.29l19.13,4.15c-12.89,22.55-18.2,31.81-22.78,41.21,2.88.53,9.41,5.71,11.71,6.12L202.62,438c25.11-19.17,49.06-39.71,71.1-63.28l8.34,9.65L316.44,346c2.45,3.59,5.54,8.14,9.6,14.11,16.78-13.9,27.61-30.23,32.86-52.56l14.76,21.55C389,315.23,393,297,397.13,277.49c6.37,4.85,11.51,9.29,17.89,14.15,13.5-17.77,16.48-38.94,15.37-59.89l12.94,8.46c12.47-18.82,14.5-40,16-61.49l8.8,5.75c9.83-9.31,11.54-23.13,13.58-36.08.43-2.73,1.56-7,3.22-7.36,8.13-2,6.47,5.47,10.89-14.64,2.47-11.25,3.49-22.7,5.21-34.09,4.7-2.69,10.24-6.24,11-10.63C514.3,68,514.84,53.93,516,40c.18-2.31,0-4.65,0-7.67C523.42,34,528.6,32,529,25c.69-11.44.3-22.93.43-34.41,0-2.3-.11-4.77.63-6.88,1.58-4.5,4.78-8.67,5.38-13.23,0-.18,0-.36.07-.54,0,4.75.35,8.87,1.4,11.89,3.34,9.6,4,7.52,4.64,17s-4.4,21.77-2.22,31.06c.91,3.88,8.09-1.44,8,2.39-.3,17.34-1.16,34.68-1.87,53.22l13.77-2.33c-4.12,22.9-5.27,44.81-.27,66.9l13.91-1.52c.26,3.07.61,5.56.67,8.06.32,14.11-.19,28.3,1.23,42.29.54,5.33,1.22,11.75,4.13,16.83,1-.46,6.29-2.46,7.32-2.93-.73,15.72-7.45,31.78,1.94,47.21C590,254,613.21,177.45,670,125c-8-30.48-14-56.51-16.77-75.44l7.56,24.58c4-.5,20.55-1.29,62.51,9.53-4.18-4.11-8.4-8.18-12.52-12.36.79-6.41,1.36-14.24-2.3-18.08C697,41.17,684,30.63,671.58,19.58c-2.07-1.84-4.42-3.36-7.29-5.52,6.85-5.86,8.61-12.26,2.29-17.62-10.42-8.83-21.67-16.68-32.52-25-2.19-1.68-4.64-3.3-6.13-5.51-3.16-4.73-4.86-10.77-8.78-14.6-10.76-10.54-21.8-21-33-31.1l.44-.16q13,11.15,26.31,21.8c3.6,2.87,8.8,3.65,13.06,5.8,2,1,3.61,2.88,5.23,4.52,8.05,8.17,15.75,16.72,24.18,24.48,5.12,4.71,10.26,2.58,14.43-3.73,2.1,2.17,3.6,4,5.34,5.5,10.5,9.22,20.61,18.94,31.81,27.21,3.58,2.65,10,1.36,15.28,0,9.14,7,17.82,14.55,27.4,20.93,17.13,11.42,10.79,7.23,18,3,1.47-.87,5.22,1.39,7.42,3.06,10.46,7.91,21.28,16.68,34.82,16.56.73-3.21,1.4-6.13,2.34-10.24,16,14.49,32.12,28.31,54.15,33.21,1.22-5.27,2.1-9.14,3.46-15.07,13.74,15.87,30.57,29,52.61,32.48,1.23-7.93,1.85-14.69,3.08-22.6,16.49,11.16,32,21.54,52.72,20.9-1.49-8.91-2.8-16.69-4.32-25.76,19.27,12.44,38.4,16.69,60.12,15.06-1.21-7.11-2.14-12.54-2.87-16.82l51.38,3.78c-.32-6.06-.52-9.66-.68-12.74C1114.07,53.14,1145.56,51.31,1177,47.7ZM552-106h.46l-.3.11Zm85.82-21.73c3.64-.2,7.32-.36,11-.52a26.83,26.83,0,0,1-4.29.64A28.78,28.78,0,0,1,637.77-127.75Z"/>
      <path class="cls-4" d="M845.7,361.88c-52-41.53-111.76-55.82-111.76-55.82,65,3.75,108.35,51.85,111.74,55.72-2.36-24.46-16.87-41.27-32.46-59.08,9.18-2.61,16.82-5.08,26-7.7-7.31-25.58-24.79-41.93-46.44-58.19l17.33-6.31c-47.38-28.15-94.34-32.07-111.25-32.51l17.19,55.88c78.38-5.71,122,40.47,122,40.47-49.58-33-110.93-39.35-122-40.24l37.48,121.79c36.16-5.42,83.58,49.73,86.9,53.65l.75,0c-1.28-25.93-9.12-47.94-26.67-68.91L845.71,362S845.7,361.92,845.7,361.88Z"/>
      <path class="cls-4" d="M763.54,173.19l11.77-4.29a46.76,46.76,0,0,0-1.42-6.59c-54.42-33.35-87.16-38.86-98.21-39.72l22.87,74.34c64.51-9.17,111.58,33.57,111.58,33.57C801.33,205.85,783.11,190.2,763.54,173.19Z"/>
      <path class="cls-4" d="M840.47,429.54C801.13,390.3,764.59,379.46,754,377l23.78,77.29c37.16,6.71,52.17,30.12,54.75,34.62l.49,0c-4.15-20.78-8.08-40.42-12-60.23Z"/>
    </g>
    <g>
      <path class="cls-4" d="M714.83,814.22C696.48,776,676,738.85,651.1,703.4l14.71-8.15a228.81,228.81,0,0,0-73.34-17.75c54.38,59.37,100,111.19,116.57,130.1C711,809.85,713,812.07,714.83,814.22Z"/>
      <path class="cls-4" d="M479.16,557.3l0,0-.44.12Z"/>
      <path class="cls-4" d="M645,630.06l1.28-.52c-13.85-26.25-32.61-45.25-60.92-58.5l32.87-13.65-.18-.29c-64.37-14.45-132.93-1-138.84.2,16.7,17.05,33.79,34.89,50.79,52.89C579.38,593,639.58,626.94,645,630.06Z"/>
      <path class="cls-4" d="M418.69,686l.55.43L442,663.68c8.3,25.11,28.72,44.11,52.26,57.61C492.49,718,466.64,666.86,483.6,576c-17.82-17.52-35-34.31-51-49.85C429.5,535.37,411.89,591.87,418.69,686Z"/>
      <path class="cls-4" d="M494.29,721.32l.86.51c4.2-7.26,7.07-13.15,10.91-19.78,9.53,16.51,18.15,30.55,34.74,39-2.58-8.11-16.26-55.42-5.23-113.62-17.49-17.41-34.9-34.61-51.75-51.19C483.19,590,480,673.57,494.29,721.32Z"/>
      <path class="cls-4" d="M624.73,638.4l20.13-8.3c-55.1-22.81-104-20.38-114.54-19.52,20.32,21.53,40.47,43.26,59.6,64.13a2.56,2.56,0,0,1,1.15,1c37.48-8.34,71.46,16.84,74.85,19.45l.38-.21C652,675.46,638.4,657,624.73,638.4Z"/>
      <path class="cls-4" d="M479.14,557.27c79.3-23.2,129.24-4.63,138.58-.61-14.29-23.81-37.28-34.16-61.84-45,7.85-6.81,14.34-12.81,22.09-19.56-49.44-3.29-112.47,18.44-136.37,27.54C453.72,531.53,466.31,544.17,479.14,557.27Z"/>
      <path class="cls-4" d="M714.83,814.22,709,807.6C679,773.54,635.39,728,588.41,680.47a2.83,2.83,0,0,1-1.34-.42l14,77.79c2.33-3.88,9.85-10.29,11-13l103.59,71.07C715.37,815.33,715.09,814.78,714.83,814.22Z"/>
      <path class="cls-4" d="M586.63,679.71a3,3,0,0,1-.88-1.94c-16.36-16.54-33.07-33.3-49.74-49.9,0,15.18.51,88.72,5,113.29l.26.14c3.9-8.7,7.19-16.31,10.82-24.42,26.47,23.49,37.31,33.13,48.55,41.87a7,7,0,0,1,.47-.89C600.59,756.3,583.57,702.3,586.63,679.71Z"/>
      <path class="cls-4" d="M440.69,518.76c74.69-38.83,127.25-29.44,137.66-27l.76-.66c-19.93-23-45.94-31.45-76.21-37.84l14.89-14.9c-.26-.27-.54-.51-.8-.78-49.34.33-108.61,31.24-108.61,31.24,43.64-36.36,100.78-32.11,108.49-31.35-20.87-20.59-46.94-27.93-75-36L452,391.39c-11.07-17.12-27.78-22-44.48-28.35-3.52-1.34-8.93-4.11-9-6.43-.34-11.4,9.06-7.16-16.53-18.66-14.3-6.42-29.32-11-44-16.49-2.28-7-5.47-15.41-11.11-17.62-17.66-6.94-36.21-11.57-54.45-17-3-.91-6.19-1.35-10.21-2.2,4.26-9.38,3-16.86-6.14-19.35-15.06-4.11-30.5-6.81-45.77-10.19-3.07-.68-6.4-1.18-9-2.75-5.57-3.37-10.24-8.8-16.16-10.88-16.23-5.72-32.7-11.18-49.21-16.26l.38-.38q18.8,5.28,37.79,9.87c5.11,1.23,10.87-.47,16.32-.31,2.56.08,5.13,1.24,7.6,2.16,12.3,4.58,24.4,9.72,36.88,13.68,7.57,2.41,11.87-2.28,13.15-10.84,3.21,1.24,5.64,2.37,8.18,3.12,15.33,4.47,30.5,9.66,46.09,12.82,5,1,11.05-3.44,15.86-7.34,12.84,2.84,25.48,6.45,38.49,8.44,23.26,3.55,14.66,2.27,20.09-5.6,1.11-1.6,6.08-1.07,9.17-.41,14.66,3.15,30.1,7,44.06.34-.79-3.68-1.5-7-2.51-11.74,23.55,7.28,46.94,13.81,72.13,8.24-1.29-6.05-2.24-10.49-3.7-17.28,17.33,7.75,35.85,12.8,55,11.06a8.82,8.82,0,0,1,.58-2.24q4.17-10.46,8.28-20.93c-.46-1.49-.91-3-1.37-4.56l3,.47c11.42-29,22.66-58.13,34.17-87.12,4.89-12.35,9.31-24.8,13.87-37.26,3.15-8.61,6.6-17.43,13-24.2a38,38,0,0,1,12.39-8.62c1-1.29,2-2.58,3-3.85q.72-3.75,1.5-7.48c-10.14,1.6-19.45,6.13-29.59,11.32.32-6.42.7-11.82,1-18.84-23-1.37-45.61,2.46-64.52,16.85L540.56,28.2c-23.89,1.42-40.71,15.27-60.29,26.49l-3.64-16.95c-24.22-.15-41.3,17.71-61.74,30.65-1.74-5.49-3.24-10.65-5-16.18C392,52,382.32,66,369.73,74.72c-.14-1.07-1.2-6.35-1.35-7.43-5.61.22-11.17,2.94-15.77,5.21-12.09,6-23.36,13.63-35,20.55-2.05,1.23-4.25,2.21-6.88,3.56-2-4-3.62-7.47-5.85-12.06-20.49,7.19-37.7,19.29-54.2,34.29-1.74-4.2-2.9-7-5.12-12.36-14.7,10-28.33,19.55-42.27,28.63-3.07,2-2.4-6.55-6-5.32a31,31,0,0,0-9.4,5.83l-3.42-4.19c13.67-4.84,25.9-11,36.32-20.49l-5.11-7.07c1.58-1.09,2.82-2.05,4.15-2.85,7.55-4.52,15.39-8.63,22.54-13.71,2.72-1.94,6-4.29,7.84-7.44-.57-.41-3.27-2.64-3.84-3.06,8.88-4.51,19.87-5.78,25.26-16.06C269,58,266.5,55.59,263.89,52.9c13.71-7.73,29.19-12,36.55-25.93l-8.58-7.3c12.45-7.76,25.56-13.13,33.73-26.38L312.23-18.06c14-6.41,23.2-18.16,29.5-31.77-4.13-2-7.34-3.41-11.11-5.2,8.63-6,16-11.38,19.84-20.94-4.9-1.74-9.15-3.21-13.72-4.84,11.6-15.42,16.37-21.76,20.63-28.26-2.08-.66-6.41-5.08-8.07-5.61l34.06-59.46c-20.29,11.8-39.86,24.72-58.29,40.06L319.81-142c-10,8.66-19.41,16.84-28.91,25.1l-5.78-11.3C271.47-119.48,262-108.44,256-92.47c-3.12-6.08-5.79-11.29-8.87-17.26-12.61,8.82-17.25,21.91-22.1,35.89-4.25-4.17-7.62-7.92-11.88-12.1-11.6,11.85-15.77,27.18-16.89,42.74l-8.76-7.44C176.57-37.92,173.11-22.52,170-6.79l-5.95-5c-8.12,6-10.66,16-13.37,25.34-.57,2-1.8,5-3.06,5.12-6.17.7-4.26-4.63-9.38,9.79-2.87,8.06-4.69,16.41-7,24.65-3.71,1.55-8.12,3.65-9.08,6.82-3,9.9-4.69,20.19-6.84,30.34-.36,1.69-.45,3.43-.74,5.65-5.29-1.9-9.3-.88-10.25,4.19-1.57,8.37-2.35,16.89-3.51,25.33a16.67,16.67,0,0,1-1.1,5c-1.59,3.17-4.33,5.94-5.21,9.25-.4,1.55-.79,3.1-1.18,4.65l-1.75-1.75-3.75,3.75c1.62-2.7,3.21-5.42,4.56-8.26.68-1.41-.2-3.54-1-5.27,1.8-3.61,3.82-7.11,5.39-10.83,2.79-6.66,1.77-4.2-.17-6.4-.39-.45.13-1.9.56-2.76,2-4.13,4.33-8.45,3.39-13.1l-3.69-.13c3.93-6.47,7.62-12.95,7.84-20.87l-5.42-.19c4.55-5.79,8-12.46,7.69-20.29-2.82.11-5.19.34-8,.45,2.75-6.43,5.29-12.48,3.69-19.56l-8.59,3.21A32.44,32.44,0,0,0,95.28,20.6l-5.61,2.1c-.7-5.9-1.39-11.76-2.12-17.95L83.21,5.83a198.13,198.13,0,0,0-7.62-32.51l-7,31.59c-.75-.35-3.66-.18-4.6-.61-.58,3.62-.93,7.35-1.78,16.43l-6.33-2.67c-1.7,4.56-.85,8.79.28,13.62-1.9-.58-3.47-1.09-5.54-1.72-2.13,6.75-2.67,13.77.21,20.47l-8.28-.28c-1.36,7.22,1.51,13.26,3.39,19.93l-5.32-.18c-1.85,7.2,2.19,13.62,4.52,20.67-1.77.12-3.41.18-5.19.29-1.39,5.3,2.05,9.24,3.71,13.64-.33,0-2-.12-2.31-.16a12.37,12.37,0,0,0,.37,5.09c.88,4,2.31,8,3.51,12,.21.7.34,1.43.55,2.31l-4,.85c.61,6.63,2.93,12.66,6.17,18.69l-4.06.61c1.88,5.12,3.7,9.89,5.37,14.72.37,1.07-2.13.23-2,1.4.23,2.8,2.78,5.79,3.45,8.48s.32,2.19.26,5.18A6.83,6.83,0,0,0,51,175c-33.93-30.2-79.37-73.55-100.1-106.12,0,0,2.79,19.52,10.05,37.35,4.19,10.28,40.93,47.35,71.29,76.91-.07.29-.21.49-.56.37-4.83-1.66-9.59-3.49-14.72-5.37-.26,1.76-.4,2.68-.6,4.06-6-3.24-12.07-5.56-18.7-6.17-.33,1.53-.57,2.68-.85,4-.88-.2-1.61-.34-2.31-.54-4-1.2-7.91-2.64-11.95-3.52a12.57,12.57,0,0,0-5.09-.37c0,.33.11,2,.15,2.31-4.4-1.66-8.34-5.1-13.64-3.71-.11,1.78-.18,3.43-.29,5.19-7-2.32-13.47-6.37-20.67-4.51.07,2.08.13,3.64.18,5.31-6.67-1.88-12.71-4.75-19.93-3.39.1,2.8.18,5.29.28,8.28-6.7-2.88-13.72-2.34-20.47-.21.63,2.07,1.14,3.65,1.72,5.54-4.83-1.13-9.06-2-13.62-.28,1,2.27,1.78,4.22,2.67,6.33-9.08.86-12.81,1.2-16.43,1.78.43.94.26,3.86.61,4.6l-31.59,7A198.13,198.13,0,0,0-121,217.49c-.26,1-.56,2.28-1.08,4.35,6.2.73,12,1.41,18,2.12-.54,1.42-1.22,3.23-2.11,5.6a32.5,32.5,0,0,0,21.72-1.18L-87.74,237c7.09,1.6,13.13-.94,19.56-3.68-.11,2.8-.34,5.17-.45,8,7.83.28,14.51-3.14,20.3-7.69.07,2.13.12,3.52.18,5.42,7.92-.22,14.4-3.91,20.87-7.84.05,1.49.09,2.54.13,3.69,4.65.94,9-1.36,13.1-3.39.87-.42,2.31-1,2.76-.56,2.2,1.94-.26,3,6.4.17,3.72-1.56,7.22-3.58,10.83-5.39,1.73.81,3.86,1.68,5.28,1,.83-.4,1.65-.83,2.46-1.27L17.25,229a24.6,24.6,0,0,0-8,2.76c-5,3.23-3.67,3.27-9,5s-12.9.54-17.85,3.07c-2.07,1,2,4.37-.22,4.86-9.84,2.25-19.76,4.18-30.34,6.35,1.4,3.24,2.14,4.93,3.23,7.46-13.51.87-26,3.27-37.84,9.17,1.06,2.92,1.86,5.09,2.79,7.65-1.69.58-3,1.12-4.45,1.5-7.93,2.15-16,3.84-23.75,6.59-2.93,1.05-6.46,2.33-8.92,4.69.4.52,2.26,3.21,2.67,3.73-9.13,1.8-19.33.14-26.78,8,1.67,3.1,3.29,5.93,4.95,9-14.27,3.46-29.28,3.37-39.43,14,2.3,3.43,4,6,5.85,8.75-13.16,3.8-26.31,5.29-37,15.12l9.12,13.6c-14.26,2.18-25.47,10.41-34.59,21,3.22,2.81,5.73,4.92,8.67,7.5-9.28,3.16-17.28,6.15-23.16,13.76,4,2.81,7.41,5.22,11.1,7.84-14.34,10.91-20.25,15.39-25.72,20.14,1.7,1.12,4.47,6.2,5.82,7.09l-45.72,44.76c21.23-5.44,42.1-12.07,62.56-21.16.66,2,1.42,4.42,2.71,8.43l32.36-15.2c.59,3,1.34,6.7,2.32,11.62,14.48-4.33,25.82-11.84,35.23-24.68,1.26,6.26,2.34,11.62,3.59,17.77,13.56-4.72,21.06-15.3,29-26.62,2.75,4.82,4.84,9.05,7.6,13.89,13.43-7.7,21.08-20.41,26-34.1l6,8.91c13.06-8.65,20.09-21.61,26.85-35l4.06,6.05c8.81-3.28,13.65-11.64,18.46-19.37,1-1.62,2.88-4,4.05-3.82,5.73.95,2.66,5.25,10.92-6.41,4.63-6.51,8.39-13.55,12.57-20.36,3.74-.44,8.23-1.21,9.9-3.81,5.21-8.14,9.35-17,13.86-25.53.75-1.42,1.28-3,2.1-4.89,4.27,3.06,8.13,3.16,10.28-1.16,1.54-3.09,2.94-6.26,4.31-9.44-.27,2.7-.56,4-2.92,9.32C16.85,315.15,7,323.29,4.62,332.13c-1,3.68,7.49,2.43,5.71,5.63-8.1,14.53-16.68,28.79-25.67,44.13,5.51,1.86,8.38,2.82,12.69,4.26-13.83,17.5-24.72,35.5-30.49,56.43l12.44,5c-1.17,2.71-2,5-3.08,7.11-6.11,12.08-13,23.84-18.11,36.32-2,4.74-4.27,10.47-4.11,16.09,1.08.07,6.42.76,7.51.84-7.86,13.15-21.13,23.81-19.71,41.6,5.64,1.38,10.89,2.52,16.49,3.89C-53.22,574.72-69.86,593-68,617.13l17.16,2.47c-9.85,20.3-22.52,38-22.29,62l26.69,3.83C-59.55,705.25-61.82,728-58.87,750.92c7-.83,12.34-1.58,18.72-2.34-6.35,14.84-11.51,27.92-8.68,43.51,7.8-1.75,14.56-3.31,21.83-4.94-2.46,29.58-3.49,41.74-3.7,53.69,3.24-.84,12.51,1.36,15.09.69l4.38,105.3c16.75-32,31.63-64.83,43.07-99.9l13.3,6,17.08-56.36,16.76,10c10.66-22.5,14-44.65,8.65-70.32,9,5.36,16.79,9.95,25.69,15.2,9.18-21.81,4.5-42.65-.63-64.82,8.94,1.94,16.41,4.06,25.38,6,5.39-24.93-1.75-48.29-13-69.46l17.5,2.51c3.83-25.52-4.29-48.41-13.18-71.41l11.89,1.71c5.69-14.39.78-29.53-3.36-43.94-.88-3-1.74-8-.22-9.17,7.48-6,9.35,2.53,4.2-20.43-2.87-12.84-7.34-25.2-11.06-37.83,3.57-5.06,7.59-11.41,6.24-16.31-4.22-15.34-10.44-30.13-16-45.11-.92-2.49-2.22-4.83-3.67-7.95,8.44-1.86,12.83-6.47,9.91-13.86-4.82-12.18-10.77-23.9-16.18-35.85-1.08-2.41-2.43-4.89-2.68-7.43-.54-5.43.77-11.3-.81-16.32-.06-.19-.13-.38-.19-.58,2.26,4.93,4.64,9,7.19,11.63,8.1,8.34,7.74,5.88,13,15.43s6,24.68,12.7,33.25c2.82,3.57,7.69-5.4,9.47-1.41,8.08,18.1,15.56,36.48,23.78,56L186.8,407c6.8,25.7,16.2,49,32,69.42l13.67-8.29c1.76,3,3.32,5.46,4.59,8,7.15,14.46,13.48,29.4,21.71,43.22,3.13,5.26,6.94,11.57,12.41,15.43.85-1,5.32-5.59,6.17-6.57,6.94,16.9,7.62,37.19,25.62,48.54,5.33-4.39,10.36-8.41,15.66-12.78,12.08,26.18,16.57,54.08,42.13,70.82l14.61-14.6c12.38,23.78,19.45,47.4,42.86,65.41-3.23-12.72-19.28-85.43,14.28-159.55-56.14-54.66-97.1-93.72-97.1-93.72C354.84,439.09,394.27,473.32,440.69,518.76ZM177.36,144.69a31.82,31.82,0,0,1-4.15,2.73,32.3,32.3,0,0,1-7,3.12C169.86,148.58,173.58,146.64,177.36,144.69Z"/>
    </g>
    <g>
      <path class="cls-4" d="M258.2,987.12s.12-1.21.36-3.35l-.49.54C258.12,985.25,258.15,986.17,258.2,987.12Z"/>
      <path class="cls-4" d="M121.9,1153.8c.61.11,1.24.2,1.87.3l.49-.57Z"/>
      <path class="cls-4" d="M194.82,1059.17s.09-1,.24-2.85l-.23.27C194.83,1057.45,194.82,1058.3,194.82,1059.17Z"/>
      <path class="cls-4" d="M270.35,980.17c1,0,2-.07,3-.11l.54-.62Z"/>
      <path class="cls-4" d="M438.31,788l.73-1.35c-33.55,20.59-65.85,43-96.15,69.47-2.21-3.14-4.78-6.82-9.12-13l-.94.86c-.1.21-1.05,2.23-2.51,5.57-5.21,15.64-13.63,58-16.46,72.68C379.16,850.19,429.76,796.94,438.31,788Z"/>
      <path class="cls-4" d="M387.52,953.28c.11-.3.24-.58.36-.88-8.3-2.71-15.53-5-23.26-7.5,18.84-26.33,26.57-37.12,33.45-48.18a6.31,6.31,0,0,1-.67-.25c-.38.32-.87.69-1.43,1.09-8.79,6.87-45.77,34.28-92.63,47.89,0,0,77.48-37.19,92.63-47.89l1.39-1.1c-3.72-1.64-10.43-8-13.06-8.81l53.79-99.27L273.88,979.44c17.8-3.72,97.66-20.48,111.59-25.18C386.75,953.66,387.44,953.32,387.52,953.28Z"/>
      <path class="cls-4" d="M312.89,927.22s.35-1.87,1-5l-2,2.15A17.52,17.52,0,0,0,312.89,927.22Z"/>
      <path class="cls-4" d="M311.9,924.33c-4.93-18.75,11.84-59.85,18.42-74.83a19.56,19.56,0,0,1,2.42-5.48L286.28,886.3l-10.12-18.71-1.21.84-.18.36c-5,12.86-14.28,97.1-16.21,115C277,963,294.93,943.06,311.9,924.33Z"/>
      <path class="cls-4" d="M532.33,1449.39l95.38-14.05c-30.7-12.18-62-22.58-95-29.62,1-3.06,2.18-6.65,4.16-12.67L484,1382.9l7.48-16.21c-21.49-7.54-42-8.45-64.8-1.13,4-8.75,7.44-16.23,11.37-24.83-20.72-6.27-39.23,0-58.91,6.77.91-8.32,2.12-15.31,3-23.65-23.2-2.52-43.77,6.21-61.95,18.49.24-6.35.4-10.5.61-16.15-23.58-1-43.62,8.53-63.7,18.81.17-4.4.29-7.54.42-11-13.64-3.8-26.94,2.12-39.65,7.26-2.68,1.09-7.08,2.35-8.33,1.08-6.13-6.23,1.41-8.74-19-1.87-11.41,3.84-22.23,9.1-33.35,13.69-5-2.76-11.11-5.82-15.45-4.12-13.55,5.31-26.4,12.38-39.5,18.83-2.18,1.08-4.18,2.48-6.89,4.1-2.49-7.51-7.11-11.06-13.55-7.69-10.62,5.54-20.71,12.09-31.07,18.15-2.08,1.21-4.21,2.67-6.5,3.14-4.89,1-10.35.39-14.76,2.3l-.52.23c4.27-2.52,7.76-5.08,9.9-7.65,6.8-8.17,4.6-7.61,12.78-13.35s21.88-7.78,29-14.74c3-2.9-5.65-6.47-2.19-8.47,15.69-9.08,31.7-17.65,48.69-27l-9.5-11.08c22.74-8.65,43-19.42,60.09-35.8l-8.85-11.64c2.61-1.89,4.65-3.54,6.86-4.94,12.47-7.89,25.46-15.08,37.24-23.89,4.48-3.35,9.86-7.42,12.85-12.76-1-.68-5.59-4.31-6.56-5,14.7-7.93,33.09-10.49,41.7-27.94-4.51-4.44-8.64-8.62-13.12-13,22.15-13.19,46.46-20,59.49-43.5-16.3,4.51-127.51,34.44-183.62,25.77L25.53,1268.4c44.37-63,106.57-139,169.3-211.81.21-92.09,11.56-135.89,16.24-150,.74-3.43,1.41-5.37,2-5.37,0,0-.76,1.69-2,5.37-5.41,25.15-14.44,131-16,149.78,21.17-24.58,42.39-48.78,63-72-3.28-71.92,12.91-108.12,16.7-115.52,0-.12.09-.22.13-.33-21.86,15-37,33.63-46.13,60.14L213.2,900c-20.78,15.3-28,37.42-35.63,61.06-7.28-6.82-13.61-12.34-20.91-19.18-.32.34-.59.68-.9,1l7.81,140.57s-15.62-52-7.82-140.56c-18.22,20.13-23.36,44.25-26.23,71.93l-15-12.13a90.66,90.66,0,0,0-10.1,15.3c3.62,26.56,9.59,67.37,15,91,3.93,11.37,6.81,18.71,6.81,18.71-2-.59-4.33-7.85-6.81-18.71-6.84-19.8-16.89-51.81-20.54-78.55-5.22,14-7.84,29.1-10.61,44.84-4.09-3.3-7-5.65-10.18-8.24-14.52,11.72-17.37,27.38-21.54,43.19-.13.5-.29,1-.47,1.6l24.14,70.56s-17.66-29.43-27.54-64a2.14,2.14,0,0,1-1.12.6c-10.33,1.4-7.37-7.56-15.39,16.82-4.48,13.62-7.22,27.72-10.79,41.62-6.17,2.75-13.49,6.45-15,11.8-4.62,16.72-7.06,34-10.26,51.16-.54,2.84-.63,5.76-1,9.5-9-3-15.63-1.11-17,7.44-2.3,14.09-3.28,28.4-4.89,42.61-.33,2.85-.46,5.93-1.64,8.45-2.53,5.38-7,10.15-8.36,15.74-3.64,15.31-7,30.82-10.08,46.33l-.38-.31c2-11.75,3.81-23.52,5.36-35.32.63-4.77-1.47-9.86-1.84-14.83-.17-2.33.64-4.78,1.24-7.12,3-11.62,6.5-23.12,8.91-34.85,1.47-7.13-3.21-10.59-11.11-10.93.81-3,1.61-5.36,2.05-7.74,2.6-14.37,5.87-28.67,7.25-43.16.44-4.63-4.18-9.72-8.2-13.72,1.36-12,3.44-23.8,4-35.83,1-21.49.67-13.55-7-17.74-1.57-.85-1.56-5.43-1.25-8.3,1.46-13.64,3.49-28-3.91-40.12L-58.18,1104c4.37-22.13,8.07-44,.6-66.42l-15.37,5c6.81-20.85,9.56-43,.77-64.64-7.78,3.18-14.17,6.26-21.91,9.42,1.12-20.79,2-40.3-9.67-58.51-7.19,6.14-13.45,11.5-20.76,17.76.77-24-5.73-43.41-18.89-62l-13.52,11.64-24.29-48.08-11,7.48c-15.84-29.79-34.44-57-54.58-83.21L-234.16,868c-2.43-.2-10.43,3.25-13.49,3,2.08,10.73,4.92,21.53,11.81,47.79-6.81-.33-13.14-.66-20.44-1-.1,14.5,6.62,25.47,14.68,37.83-5.87.33-10.82.5-17.23.86.95,21.08,6.6,41.25,21.49,57.08-8.47,2.77-15.51,5.08-23.44,7.66,3.57,21.6,17.79,35.58,29.87,52.32L-246,1078.5c2.18,22,20.06,35.87,33.79,53.23-4.84,2.11-9.39,4-14.25,6.1,1.53,16.26,15.17,23.77,24.33,34.38-1,.23-5.67,1.7-6.64,1.94.74,5.09,3.74,9.88,6.25,13.85,6.61,10.43,14.63,20,22.05,29.86,1.31,1.76,2.42,3.66,3.89,5.93l-10.41,6.47c8.5,18,21.15,32.45,36.38,46l-10.76,5.84c10.52,12.41,20.5,23.9,30.09,35.71,2.11,2.6-5.73,2.81-4.26,6a28.59,28.59,0,0,0,6.2,8l-3.48,3.52c-5.71-12-12.46-22.52-22.12-31.09l-5.94,5.33c-1.14-1.33-2.13-2.37-3-3.51-4.84-6.43-9.32-13.17-14.63-19.19-2-2.29-4.47-5-7.51-6.42-.32.56-2.09,3.23-2.42,3.79-5-7.65-7.16-17.53-17-21.44-2.22,2.65-4.2,5.15-6.4,7.78-8.34-11.73-13.72-25.4-27.09-30.77l-5.82,8.51c-8.25-10.58-14.39-22-27.22-28.16l-9,13.24c-7.17-12.17-18.74-19.37-31.72-23.8-1.39,4-2.4,7-3.67,10.61-6.25-7.28-11.88-13.47-20.95-16-1.11,4.63-2.05,8.63-3.09,12.95-15.14-9.08-21.36-12.82-27.68-16.06-.4,2-4,6.31-4.33,7.87l-57.35-25.29c12.68,17.33,26.3,33.89,42,49.19l-6.68,5.54,25.6,23.9-9.72,6.33c9.21,11.59,20.16,19.18,35.26,23.07l-14.86,9.72c9.24,10.63,21.58,13.6,34.77,16.68-3.39,4.26-6.47,7.69-9.87,12,11.89,9.42,26.24,11.74,40.5,11.28l-5.94,8.68c12.62,8.73,27,10.41,41.57,11.7-1.61,2.37-2.77,4-4,5.9,6.19,6.81,15.56,8.17,24.34,9.74,1.84.33,4.7,1.15,4.95,2.29,1.22,5.55-3.8,4.32,9.8,7.6,7.61,1.84,15.38,2.7,23.09,4,1.77,3.23,4.1,7,7.08,7.61,9.29,1.78,18.81,2.34,28.26,3.32,1.57.17,3.16.09,5.21.13-1.23,5,.08,8.55,4.79,8.93,7.76.62,15.58.52,23.38.77a15,15,0,0,1,4.67.52c3,1.14,5.83,3.37,8.92,3.85l4.34.63-1.42,1.76,3.77,3c-2.61-1.21-5.24-2.4-7.95-3.36-1.35-.48-3.2.52-4.7,1.42-3.45-1.3-6.83-2.8-10.36-3.87-6.34-1.9-4-1.2-5.82.77-.36.4-1.73.06-2.56-.25-3.95-1.45-8.1-3.13-12.24-1.83.07,1.06.14,2,.24,3.37-6.27-3-12.51-5.69-19.74-5.13.12,1.73.21,3,.35,4.95-5.7-3.59-12.1-6.06-19.2-5,.37,2.55.81,4.68,1.17,7.22-6.1-1.88-11.85-3.61-18.14-1.48,1.29,2.6,2.42,4.86,3.74,7.5a29.8,29.8,0,0,0-19.88,1c1,2.08,1.83,3.66,2.46,4.9l-16.13,3.65c.67,1.83,1.06,2.91,1.4,3.85a181.17,181.17,0,0,0-28.85,10l29.41,3.36c-.25.71.19,3.34-.11,4.24,3.35.18,6.77.14,15.11,0-.6,2-1.18,3.87-1.82,6,4.31,1.11,8.07-.07,12.36-1.56-.34,1.78-.66,3.26-1,5.21,6.35,1.29,12.79,1.11,18.61-2.15.19,2.73.36,5,.53,7.56,6.7.55,11.92-2.65,17.81-5,.11,1.52.22,2.94.35,4.85,6.73,1,12.18-3.3,18.37-6.09.27,1.6.49,3.09.76,4.69,5,.76,8.21-2.74,12-4.67,0,.3.08,1.81.08,2.11a11.39,11.39,0,0,0,4.6-.82c3.6-1.19,7-2.87,10.54-4.34.62-.26,1.27-.45,2.05-.72.38,1.2.71,2.22,1.16,3.59,6-1.2,11.23-3.88,16.41-7.41l.94,3.64c4.48-2.2,8.65-4.32,12.88-6.29.94-.44.41,1.91,1.46,1.71,2.53-.48,5-3.08,7.39-4s2-.5,4.69-.73a6.08,6.08,0,0,0,1.22-.26c-24.22,33.75-59.32,79.24-87,101.21,0,0,17.49-4.4,33-12.71,8.95-4.8,39.16-41.76,63.14-72.22.28,0,.47.15.39.48-1.05,4.55-2.25,9.06-3.48,13.91l3.76.15c-2.37,5.8-3.9,11.51-3.82,17.61l3.74.38c-.1.82-.15,1.5-.27,2.16-.71,3.73-1.64,7.44-2.06,11.21a11.66,11.66,0,0,0,.15,4.66c.3-.06,1.79-.29,2.09-.36-1.09,4.17-3.84,8.08-2.07,12.77,1.63-.07,3.13-.17,4.75-.24-1.44,6.63-4.51,12.86-2.13,19.24,1.89-.27,3.3-.47,4.82-.67-1.07,6.24-3.11,12-1.18,18.45l7.5-1c-2,6.38-.81,12.71,1.78,18.65,1.81-.77,3.2-1.39,4.87-2.1-.56,4.5-.93,8.43,1,12.42l5.5-3c1.65,8.18,2.32,11.54,3.19,14.78.81-.48,3.49-.61,4.13-1l9.39,28.06A181.27,181.27,0,0,0-25.28,1605l4.06.57c.07-5.7.13-11.09.21-16.54l5.3,1.39a29.72,29.72,0,0,0-3.16-19.65l8.12,2.1c.78-6.6-2.11-11.86-5.23-17.44,2.57-.17,4.74-.19,7.32-.36-.5-7.15-4.24-12.89-8.94-17.73l4.92-.68c-1-7.19-4.94-12.73-9.13-18.24l3.34-.47c.41-4.32-2.09-8-4.33-11.59-.48-.75-1.09-2-.78-2.46,1.55-2.19,2.72,0-.46-5.84-1.78-3.24-3.95-6.23-5.94-9.34.57-1.64,1.16-3.67.42-4.89-.45-.72-.92-1.42-1.39-2.12l2.9-3.59a22.65,22.65,0,0,0,3.27,7c3.41,4.21,3.33,3,5.39,7.68s1.73,11.69,4.5,16c1.15,1.78,3.79-2.19,4.44-.27,3,8.74,5.69,17.58,8.69,27l6.47-3.65c2.09,12.21,5.47,23.39,12,33.55l6.69-3.27c.69,1.48,1.31,2.67,1.79,3.91,2.71,7,5,14.2,8.26,21,1.24,2.56,2.74,5.65,5.12,7.67.44-.42,2.71-2.37,3.14-2.79,2.51,8.13,2,17.57,9.85,23.59,2.66-1.81,5.08-3.56,7.73-5.36,4.51,12.65,5.86,26.31,16.51,34.53l7.39-6.16c4.72,11.61,7.34,23.43,17.3,32.22l11.5-9.6c3.34,12.77,11.91,22.18,22.45,29.46,2.25-3.19,3.93-5.68,6-8.6,3.76,8.13,7.25,15.12,14.74,19.75l6.06-10.85c11.3,12,15.94,17,20.79,21.47.86-1.65,5.21-4.66,5.9-6L233,1743.62a359.37,359.37,0,0,0-25.24-54.89l7.41-3.27c-5.84-9.66-11.36-18.78-16.92-28l10.34-3.22c-5.32-12.75-13.23-22.36-25.81-29.69l15.82-5c-5.59-11.89-15.94-17.7-27-23.82,4.13-3,7.78-5.26,11.91-8.24-8.29-11.49-20.58-17.22-33.51-20.43l7.53-6.29c-9.11-11.06-21.57-16.21-34.37-21.09l5.12-4.27c-3.83-7.7-11.9-11.29-19.39-14.94-1.57-.76-3.93-2.23-3.86-3.32.31-5.29,4.52-2.91-6.87-9.32-6.37-3.58-13.14-6.33-19.73-9.48-.77-3.36-1.89-7.38-4.42-8.64-7.9-4-16.31-6.88-24.54-10.17-1.37-.55-2.83-.88-4.65-1.44,2.37-4.18,2.09-7.7-2-9.24-3-1.1-6-2.08-9-3,2.47,0,3.72.12,8.75,1.77,7.86,2.57,16.21,10.77,24.48,12.08,3.44.54,1.49-7.06,4.57-5.74,14,6,27.79,12.42,42.61,19.12,1.16-5.19,1.76-7.89,2.66-11.95,17.24,10.92,34.66,19.1,54.25,22.35,1.28-4.5,2.24-7.85,3.37-11.8,2.58.8,4.71,1.34,6.76,2.12,11.57,4.41,22.93,9.52,34.77,13,4.5,1.32,9.94,2.89,15,2.2,0-1,.08-5.92.05-6.91,12.72,5.89,23.68,16.94,39.73,13.95.72-5.27,1.25-10.15,2-15.38,20.46,8.44,38.66,21.83,60.46,17.87.24-6.22.41-10.87.61-15.84,19.41,7,36.75,16.84,58.5,14.35.31-8.34.59-15.74.93-24.65,19.31,10,40.26,9.86,60.79,5-1.42-6.27-2.61-11.07-3.91-16.81,14.1,4.36,26.5,7.8,40.41,3.73-2.35-6.92-4.4-12.92-6.59-19.38,27.15-.59,38.31-.82,49.2-1.77C532.07,1460.32,533.19,1451.68,532.33,1449.39Zm-272.4-264.34s-123,23.71-182.61,24.88ZM-48,1415.33l-.25-.41.26.21A1.41,1.41,0,0,1-48,1415.33Zm-72.1-74.81a28.61,28.61,0,0,1,2.88,3.51,29.59,29.59,0,0,1,3.52,6.1C-115.8,1347-117.92,1343.77-120.06,1340.52Z"/>
      <path class="cls-4" d="M308.29,1126.73l-14.68-11.89c20.73-13.72,41.86-22.44,56-46.19l-22.85-18.51c22.33-10.08,37.79-30.87,47.81-53.94l-1.4-.61c-11.11,5.28-88.65,41.21-150.57,43.62,0,0,127.5-34.78,150.44-43.68-6.3-2.75-11.58-4.72-17.51-7.36,14-10.13,25.77-19.23,32-34.79a6.84,6.84,0,0,1-2,.88c-9.83,4.6-54,23.71-112.13,25.8L124.26,1153.53c16.49-1.9,116.46-13.62,183.26-25.44C307.77,1127.63,308.05,1127.21,308.29,1126.73ZM183.1,1086.09s134.13-10.42,165.38-18.23C348.48,1067.86,286,1091.3,183.1,1086.09Z"/>
    </g>
    <g>
      <path class="cls-4" d="M1067.3,771.82l-.22-.07,0,0Z"/>
      <path class="cls-4" d="M1164.53,719.73c-.85-.4-1.73-.79-2.62-1.18l-1,.54Z"/>
      <path class="cls-4" d="M960.94,840.49a2.41,2.41,0,0,1-.48.3c8.69,57.75-39,104.66-39,104.66,27.92-38.66,35.77-87.91,37.66-104-15.3,7.94-30.5,15.76-45.44,23.41-12,38.06-55.15,75.44-65.49,84l-1.27,1-.08.07.06.26,71-28.8c.92,6.4,2.09,14.5,3.61,25.13,31.49-7.61,56.63-22.35,78.24-48.75,1.9,13,3.54,24.15,5.38,36.75,34.51-48.77,37.57-121.95,37.83-137.26C1016.11,811.67,988.4,826.24,960.94,840.49Z"/>
      <path class="cls-4" d="M912.19,865.6C813.61,916,727.44,958.11,709,967.1L705.72,970c46.07-9.2,91.5-21,136.34-38.09,1.16,4.38,2.51,9.51,4.76,18.08l.09-.07,1.27-1C867,932.62,902.82,879.7,912.19,865.6Z"/>
      <path class="cls-4" d="M1004.05,662.49c-28.46,6.71-55.33,7.83-80.65,27.72,19.21,0,176.28,1,238.51,28.34,56.94-32.23,86.62-49.61,90-51.57L992.7,643.42Z"/>
      <path class="cls-4" d="M922.28,691.09l18,30.16c-29.17,2.07-55.06,19-75.8,40.66l1,1c12.42-2.56,113.84-21.93,201.65,8.88Q1122.37,741,1161,719.09c-22.83-4.08-150.17-26.19-237.63-28.82C923,690.55,922.62,690.81,922.28,691.09Z"/>
      <path class="cls-4" d="M1251.87,667l.19,0c0-.07.11-.15.15-.22Z"/>
      <path class="cls-4" d="M1815.68,811.69l9.76-3.44-18.79-37.33,13.49-3.08c-5.52-16.78-14.65-29.79-30-40.38l20.65-4.75c-6-15.71-18.55-24.13-32-33,5.54-3.38,10.42-5.94,16-9.32-9.42-15.46-24.53-24-40.68-29.35l10.22-7.27c-10.52-15-25.89-22.79-41.71-30.26l7-5c-4.12-10.18-14-15.56-23.23-20.94-1.93-1.13-4.79-3.24-4.6-4.61.93-6.72,6-3.27-7.83-12.55-7.76-5.2-16.11-9.38-24.2-14-.64-4.35-1.68-9.58-4.78-11.45-9.67-5.82-20.1-10.37-30.27-15.38-1.69-.83-3.5-1.4-5.78-2.29,3.44-5.09,3.44-9.61-1.68-12-8.43-3.9-17.23-7-25.86-10.51a18.31,18.31,0,0,1-5-2.51c-2.93-2.53-5.12-6.18-8.39-8l-4.6-2.5,2.32-1.38-3-5c2.43,2.44,4.88,4.85,7.52,7,1.31,1.09,3.8.74,5.85.35,3.33,2.88,6.49,6,10,8.61,6.3,4.75,4,3,6.82,1.54.58-.29,2,.65,2.77,1.34,3.83,3.26,7.77,6.85,12.95,7.1.35-1.21.67-2.32,1.12-3.86,5.8,5.89,11.66,11.53,20,13.89.58-2,1-3.45,1.65-5.69,4.91,6.37,11.05,11.78,19.41,13.58.65-3,1-5.58,1.67-8.57,6.06,4.63,11.78,8.94,19.71,9.15-.37-3.45-.7-6.44-1.09-9.95a35.45,35.45,0,0,0,22.66,7.09c-.31-2.76-.54-4.85-.72-6.5l19.56,2.58c0-2.33,0-3.71,0-4.89a216.92,216.92,0,0,0,36.45.66L1737.47,503c.57-.69,1.17-3.82,1.88-4.7-3.68-1.58-7.53-2.95-16.91-6.29l4.53-6c-4.37-3-9.07-3.26-14.49-3.36,1.12-1.85,2.09-3.38,3.31-5.4-6.58-4.07-13.86-6.52-21.72-5.28.92-3.14,1.67-5.74,2.52-8.68-7.27-3.38-14.43-2-22-1.76.51-1.75,1-3.39,1.62-5.58-7.12-3.89-15-1.34-23.09-.77.36-1.9.73-3.66,1.1-5.56-5.24-2.9-10.33-.32-15.43.26.13-.34.66-2.07.78-2.41a13.66,13.66,0,0,0-5.48-1c-4.52-.15-9.06.31-13.59.51-.8,0-1.61,0-2.59,0,.06-1.5.11-2.78.18-4.49-7.19-1.13-14.19-.3-21.44,1.51.15-1.51.26-2.52.45-4.46-5.93.62-11.46,1.27-17,1.73-1.22.11.33-2.31-.93-2.51-3-.51-6.87,1.38-9.9,1.36s-2.4-.25-5.56-1.11a7.6,7.6,0,0,0-1.47-.22c41.06-27.78,99.13-64.23,139.15-77.42,0,0-21.4-2.29-42.22.61-12,1.67-61.08,30.59-100.51,54.79-.29-.17-.45-.36-.24-.7,3.06-4.66,6.27-9.22,9.64-14.13l-4.14-1.73c5-5.52,9.12-11.27,11.55-18.13l-4-2c.46-.89.79-1.62,1.2-2.31,2.33-3.88,4.91-7.66,6.93-11.7a13.72,13.72,0,0,0,1.75-5.29c-.35-.05-2.12-.41-2.49-.46,3-4.21,7.64-7.45,7.59-13.43-1.85-.6-3.57-1.11-5.41-1.7,4.35-6.83,10.36-12.54,10.33-20.66l-5.68-1.24c3.78-6.55,8.45-12.17,8.94-20.18-3-.64-5.64-1.22-8.83-1.92,4.84-6.32,6.15-13.88,5.71-21.61-2.35.12-4.16.24-6.32.34,2.49-4.81,4.52-9.05,3.95-14.33l-7.42,1.12c1.54-9.83,2.18-13.87,2.53-17.86-1.1.21-4.15-.76-5-.59l1.07-35.3a216.65,216.65,0,0,0-16.79,32.35l-4.31-2.31-7.06,18.43-5.37-3.74a35.51,35.51,0,0,0-4.58,23.3l-8.22-5.69c-3.6,7.06-2.53,14.14-1.35,21.68-2.94-.87-5.38-1.75-8.33-2.62-2.4,8.21-.58,16.19,2.68,23.53l-5.78-1.25c-1.9,8.43.26,16.28,2.69,24.18l-3.94-.85c-2.25,4.67-1,9.85.07,14.76.22,1,.39,2.71-.15,3.08-2.64,1.81-3.06-1.08-1.89,6.73.65,4.36,1.85,8.6,2.79,12.9-1.31,1.61-2.81,3.64-2.48,5.31.2,1,.44,2,.68,3l-4.74,2.82a26.78,26.78,0,0,0-.78-9.16c-2.08-6.12-2.47-4.77-2.86-10.83s2.89-13.8,1.55-19.71c-.56-2.47-5.15.89-5.09-1.54.26-11,.89-22,1.42-33.8l-8.76,1.42c2.71-14.54,3.54-28.45.46-42.51-3.38.34-5.89.61-8.84.9-.16-1.94-.37-3.53-.4-5.12-.14-9,.24-18-.59-26.88-.33-3.39-.73-7.47-2.57-10.71-.66.29-4,1.54-4.66,1.83.55-10.14,5-20.49-1.29-30.48-3.73.93-7.16,1.88-10.87,2.81.18-16,4.3-31.88-4.23-45.48l-10.82,3.85c-.49-14.95,1.46-29.26-6.07-43.22l-16.83,6c1.52-15.67-4.18-29.74-13-42.24-3.83,2.64-6.75,4.73-10.26,7.15-.85-10.66-1.87-19.93-8.34-28.19-4,3.44-7.52,6.43-11.28,9.64-7.69-18.11-10.84-25.56-14.4-32.63-1.65,1.5-7.76,3.07-9.07,4.26L1331.5-16.48c.06,23.92,1.47,47.78,5.6,71.87l-9.64.61,7.39,38.32-12.91-.67c.69,16.48,5.59,30.5,16.65,43.9l-19.77-1c1.36,15.62,10.54,26.39,20.39,37.81-5.84,1.62-10.87,2.69-16.73,4.31,4.54,16.28,15.94,27.78,29.09,36.71l-11,3.93c5.64,16.14,17.46,27.06,29.78,37.8l-7.5,2.67c1.11,10.2,8.66,17.56,15.54,24.73,1.45,1.5,3.48,4.13,3,5.31-2.54,5.8-6.26,1.4,3.84,13.28,5.66,6.63,12.1,12.51,18.17,18.76-.52,4.07-.92,9,1.39,11.49,7.21,7.7,15.42,14.44,23.28,21.52,1.31,1.18,2.8,2.15,4.61,3.53-4.38,3.7-5.53,7.76-1.53,11.19,2.86,2.46,5.83,4.79,8.83,7.1-2.78-1-4.12-1.67-9.08-5.59-7.73-6.13-13.69-18.76-22.41-23.63-3.63-2-4.59,7.28-7.49,4.53-13.21-12.47-26-25.37-39.81-39-3.44,5.33-5.23,8.11-7.91,12.28-14.8-19.34-30.92-35.69-51.52-47.41l-8.64,11.81c-2.56-1.95-4.73-3.44-6.7-5.16-11.13-9.71-21.74-20.12-33.56-28.9-4.49-3.34-9.94-7.34-15.92-8.68-.37,1.13-2.54,6.6-2.91,7.72-11.81-11.84-19.52-28.75-38.73-32-3,5.6-5.59,10.85-8.53,16.41-19.43-17.89-34.28-40.4-60.33-45-2.83,6.87-4.94,12-7.21,17.49-18.84-15.86-34.2-34-59.58-40.21l-11.22,27.21c-17.5-19.14-41-27.67-66-30.68-1,7.6-1.65,13.47-2.56,20.43-14-10.7-26.45-19.68-43.7-20.86-.24,8.72-.41,16.29-.63,24.42-30.64-10.54-43.23-14.9-55.81-18.33,0,3.66-4.81,12.87-4.78,15.79L762.29,165.73c29.34,26.31,60.1,50.88,94.13,72.39-2.38,3-5.18,6.53-9.89,12.46l55.05,33.21-15.06,15c21,17.32,43.49,26.79,72.08,28l-23,23.11c20.62,15.57,43.92,16.21,68.76,16.74-4.46,8.93-8.7,16.26-13.17,25.23,24.93,12.39,51.57,11.11,77,4.86l-7.35,17.84c26,10.9,52.37,8.46,79.09,5.23-2,4.86-3.43,8.32-5,12.12,13.7,9.88,31,8.75,47.39,8.24,3.45-.11,8.89.29,9.77,2.23,4.29,9.51-5.19,9.21,20.48,9.93,14.36.4,28.64-1,43-1.56,4.4,5.14,10,11.1,15.59,11,17.36-.35,34.68-3,52-4.78,2.88-.3,5.7-1.05,9.4-1.74-.3,9.43,3.4,15.31,12,14.2,14.18-1.82,28.18-5,42.28-7.49,2.83-.5,5.82-1.26,8.58-.84,5.88.89,11.74,3.84,17.48,3.52l.66,0c-5.82,1.06-10.78,2.49-14.23,4.48-11,6.34-8.3,6.62-19.83,9.66-11.37,3-27.71-.31-38.59,4.52-4.53,2,3.65,9.59-1.05,10.4-21.32,3.68-42.78,6.66-65.66,10.12,2.64,7.09,4,10.79,6.06,16.33-29,.29-56.15,4-82.06,15.27l5.11,16.69c-3.7,1-6.68,2-9.72,2.7-17.22,3.68-34.73,6.37-51.56,11.37-6.4,1.9-14.1,4.24-19.66,9,.81,1.16,4.49,7.13,5.3,8.29-19.75,2.81-41.39-1.92-58.24,14.08,3.22,6.82,6.12,13.21,9.32,20-30.94,5.76-61.66,3-86.24,25.57l.11.19c14.11-.5,205.38-6.53,285.63,26.07l-26.2-2.38c-12.15,17.78-73.35,55.5-150.7,98.45,28.3,63.59-15.83,146.14-15.83,146.14,26.86-82.65,19.3-129.75,15-145.7-18.13,10.07-37.15,20.41-56.62,30.86a2.5,2.5,0,0,1-.39.23c14.71,66.32-34,131.82-38.4,137.59l.24,1.65c29.58-8.55,46.85-30.32,65.1-53.65,5.34,10.64,10.15,19.43,15.5,30.1,29.64-14.93,45.61-40.17,60.5-70.48L1158.26,862c28.16-16.52,43.1-42.51,59.38-70.47l8,13.43c21.09-7.12,30.74-23.48,41.94-39.46,2.36-3.36,6.75-8.34,9.22-7.79,12.15,2.7,5.14,11.5,24.17-12.48,10.64-13.41,19.53-28.06,29.27-42.15,8-.53,17.77-1.66,21.63-7,12.08-16.82,22-35.2,32.61-53,1.77-3,3.09-6.19,5.06-10.22,8.79,7,17,7.7,22.13-1.3,8.39-14.83,15.39-30.45,23.06-45.69,1.55-3.06,3-6.45,5.33-8.79,5.06-5,12.06-8.47,15.85-14.17,10.4-15.64,20.6-31.6,30.41-47.71l.3.51Q1476,534.07,1466,552.92c-2.67,5.08-2.42,11.64-4.06,17.36-.76,2.68-2.69,5.09-4.32,7.46-8.14,11.78-16.83,23.2-24.37,35.34-4.59,7.37-.78,13.18,7.93,16.82-2.17,3.07-4,5.33-5.49,7.83-8.85,15-18.42,29.67-25.94,45.32-2.41,5,.68,12.61,3.52,18.75-6.46,12.83-13.68,25.23-19.27,38.46-10,23.66-6.34,14.91.53,22.76,1.4,1.6-.49,6.72-2,9.81-7.26,14.67-15.48,30-12.18,46.53l13.1.49c-14,23-27.22,46-28.09,74.11l19.28.73c-16.24,20.53-28.47,44.23-27.54,72.06,10-.35,18.44-1.16,28.42-1.5-9.84,22.81-18.93,44.28-13.33,69.49l30.56-11.31c-10.75,26.52-11.5,51-4.44,77.21l20-7.44c2.42,21,4.82,41.82,7.35,63.86l15.45-3.82c5.44,39.89,15,78.07,26.75,115.7l25.26-112.24c2.64,1.23,13,.67,16.34,2.2,2.1-12.86,3.38-26.13,6.51-58.38l22.47,9.57c6.09-16.19,3.1-31.25-.82-48.42,6.7,2.06,12.31,3.91,19.65,6.16,7.63-24,9.63-48.92-.51-72.79l29.41,1.1c4.92-25.65-5.23-47.17-11.84-70.9l18.91.7c6.66-25.59-7.65-48.45-15.86-73.55,6.28-.37,12.15-.57,18.47-.95,5-18.84-7.18-32.87-13-48.54,1.18.14,7,.44,8.23.57,1.28-6-.1-12.61-1.27-18.09-3.09-14.4-8.15-28.37-12.36-42.53-.75-2.51-1.2-5.1-1.92-8.24l14.34-3c-2.11-23.6-10.29-45.07-21.74-66.56L1582.5,663c-6.66-18.24-13.09-35.23-19-52.41-1.29-3.78,7.58-.78,7.24-4.94-.31-3.76-1.79-7.63-3.64-11.5l5.35-2.5c1.45,15.77,4.65,30.35,11.93,43.93l8.85-3.51c.73,2,1.41,3.54,1.89,5.16,2.77,9.2,5,18.6,8.46,27.53,1.33,3.4,2.93,7.48,5.77,10.29.59-.49,3.67-2.75,4.27-3.24,2.39,10.61.78,22.58,10.22,31,3.58-2.05,6.83-4,10.38-6.07,4.49,16.57,4.87,34.1,17.62,45.63,3.93-2.8,6.88-4.88,10-7.12,4.87,15.26,7,30.57,18.86,42.76L1696.37,767c3,16.58,13,29.42,25.7,39.74,3.18-3.85,5.57-6.85,8.49-10.36,4,10.73,7.73,20,16.82,26.61,3.15-4.72,5.86-8.82,8.8-13.22,13.21,16.42,18.63,23.17,24.37,29.41,1.25-2,7.1-5.41,8.1-7l53.77,52C1835.38,859.48,1827,835.31,1815.68,811.69ZM1558.6,575.46c-1.08-4.4-1.41-6.41-1.42-8.28q1.63,6.63,3.2,13.4A33.21,33.21,0,0,1,1558.6,575.46Z"/>
      <path class="cls-4" d="M865.52,763c6.06,5.85,11.26,10.29,16.91,15.8-19.77,5.58-36.74,10.87-50.08,25.71l.42-.06c13.75-2.15,84.16-11.69,165.08,3.87,0,0-133.67-8.2-165.08-3.87l-.42.06c-.3.33-.61.64-.9,1,8.16,6.46,15.33,12,22.94,18-32,21.7-45.07,30.58-57.34,40.13a7,7,0,0,1,.68.59c.73-.29,1.52-.57,2.37-.85,15.22-5.59,75.65-25.87,128.3-16.85,0,0-99,7.13-128.3,16.85-1,.35-1.75.65-2.34.87,3.48,3.39,8.34,13.29,11,15.22l-99.23,87.22c151.35-81,270.17-146.23,357.55-194.87C1061.26,770.65,956.37,750.68,865.52,763Z"/>
    </g>
    <g>
      <path class="cls-4" d="M627.79,1101.48,618,1089.74l-1.73,1.87-15.77,90.45,110.27-152.59C681.54,1051.27,653.62,1074.67,627.79,1101.48Z"/>
      <path class="cls-4" d="M612.4,1174.64l.83-.19.3-.42Z"/>
      <path class="cls-4" d="M600.46,1182.06l-.18.25c0,.34,0,.67,0,1Z"/>
      <path class="cls-4" d="M670.19,1128.33l44.15-101.57c-1.06.78-2.1,1.58-3.16,2.37-9.06,13.87-49.19,75-97.65,144.9L684,1135.84C680.42,1135,672.9,1128.87,670.19,1128.33Z"/>
      <path class="cls-4" d="M859.12,1655.39,949.53,1634c-30.49-9.13-61.42-16.51-93.69-20.53l2.94-12.51-51.64-5.34,5.82-16.18c-21.26-5.46-41-4.62-62.31,4.31l8.85-24.79c-20.42-4.29-37.67,3.25-56,11.41.19-8.06.77-14.88,1-23-22.49-.49-41.51,9.61-58,22.92-.3-6.12-.49-10.12-.76-15.56-22.73,1-41.17,11.82-59.59,23.37-.21-4.24-.36-7.26-.52-10.58-13.41-2.51-25.69,4.28-37.47,10.28-2.48,1.26-6.59,2.84-7.9,1.72-6.41-5.47.62-8.51-18.39-.21-10.63,4.64-20.58,10.59-30.88,15.92-5-2.24-11.15-4.66-15.17-2.67-12.57,6.23-24.33,14.09-36.37,21.37-2,1.22-3.81,2.73-6.27,4.51-3-7-7.75-10-13.65-6.25-9.74,6.21-18.89,13.33-28.32,20-1.9,1.34-3.83,2.92-6,3.57-4.6,1.37-9.9,1.23-14,3.43l-.47.27c3.89-2.78,7-5.53,8.86-8.18,5.86-8.41,3.79-7.69,11.17-13.88s20.36-9.29,26.65-16.57c2.62-3-6-5.75-2.81-8,14.31-10,29-19.58,44.51-30l-10-9.85c21.11-10.2,39.66-22.23,54.72-39.38l-9.47-10.44c2.35-2,4.17-3.79,6.18-5.32,11.32-8.61,23.19-16.6,33.76-26,4-3.59,8.86-7.95,11.28-13.33-1-.57-5.73-3.67-6.72-4.24,13.46-8.84,30.91-12.83,37.72-30.31-4.7-3.89-9-7.56-13.69-11.42,20.64-14.85,44-23.41,54.24-48.34L602,1354c18.76-14.91,38.32-25,49.93-49l-23.49-15.87c20.61-11.54,33.71-32.79,41.41-55.78-7-2.42-12.56-3.91-18.94-6.13,12.48-10.83,23-20.51,27.7-35.83-8.29,10.89-93.16,32.71-93.16,32.71,44.89-15,89.74-32.29,93.48-33.75a1,1,0,0,0,0-.16c-8.18-1.92-15.32-3.49-23-5.27,15.9-26.85,22.42-37.85,28.1-49l-.1,0c-4.29,3.18-45.27,33.17-70.83,38.59-52.55,75.74-114.83,161.6-158,208.54l145-200.68a348.24,348.24,0,0,1,15.22-89.91L576,1135.2c-2.87-4.36-6.5-9.88-11.28-17.12l-.25.21c-12.88,52-20.61,126.67-20.61,126.67-4.79-62.3,16.86-118,20.35-126.46-20.1,16.3-33.24,35.62-39.9,62.11l-17.06-25.75-15.47,108.33c-2.43-46,13.16-101,15.36-108.5l-.16-.24c-18.68,16.42-23.82,38.27-29.13,61.59-7.56-5.94-14.1-10.7-21.68-16.66-16.53,21.1-19.52,45-20,72.31l-15.39-10.4c-14.9,21.76-16.88,45.89-19.17,71.92l-10.46-7.06c-13,12.46-14.4,27.73-17.09,43.26-.57,3.27-2.06,8.41-4.06,8.86-9.8,2.21-7.71-6.63-13.37,17.43-3.17,13.46-4.63,27.23-6.9,40.87-5.69,3.16-12.41,7.32-13.39,12.58-3.05,16.44-3.94,33.27-5.59,50-.28,2.78-.13,5.59-.19,9.21-8.84-2.12-15.1.24-15.72,8.57-1,13.72-.78,27.54-1.15,41.31-.07,2.78.06,5.74-.87,8.26-2,5.38-5.9,10.34-6.71,15.81-2.22,15-4.19,30.17-5.82,45.32l-.39-.26q1.41-17.17,2.2-34.37c.21-4.63-2.23-9.33-3-14.08-.36-2.22.22-4.64.59-6.94,1.9-11.4,4.32-22.74,5.66-34.21.82-7-4-9.89-11.58-9.56.53-3,1.1-5.28,1.32-7.61,1.31-14,3.26-28,3.37-42,0-4.49-4.83-9-9-12.49.31-11.6,1.32-23.15.85-34.74-.82-20.73-.49-13.07-8.21-16.45-1.57-.69-1.95-5.08-1.89-7.87.26-13.21,1-27.22-7.1-38.19l-9.74,4.14c2.36-21.6,4.09-43-5-63.82l-14.33,6.1c4.8-20.59,5.59-42.11-4.65-62.13-7.2,3.7-13.08,7.19-20.26,10.87-.3-9.39-.64-18.5-2.21-27.24-7.88,4-17,5.34-25.76,5.76-16.92.81-33.75-3-50.63-3.62-20.36-.79-40.74-1.1-61.07-2.48-3.5-.24-7.65-.37-12.07-.62,2.27,3.32,4.8,6.61,7.47,10-5.61.8-10.35,1.38-16.48,2.26,2.67,20.16,9.77,39.06,25.4,53l-21.88,9.31c5.23,20.44,20.05,32.68,33,47.75l-14.06,6c3.93,21,22.25,32.77,36.88,48.3-4.47,2.43-8.68,4.59-13.17,7,2.82,15.48,16.54,21.55,26.22,31-.91.31-5.3,2.11-6.21,2.42,1.13,4.82,4.41,9.18,7.15,12.78,7.21,9.46,15.72,17.93,23.66,26.83,1.4,1.58,2.63,3.32,4.23,5.37l-9.46,7.08c9.66,16.53,23,29.4,38.77,41.17l-9.84,6.5c11.13,11,21.67,21.24,31.87,31.79,2.24,2.32-5.27,3.18-3.6,6.09a27.42,27.42,0,0,0,6.62,7.16l-3.05,3.67c-6.48-11-13.84-20.58-23.83-28l-5.26,5.61c-1.2-1.18-2.24-2.1-3.16-3.12-5.18-5.77-10-11.87-15.65-17.21-2.13-2-4.71-4.46-7.75-5.54-.26.57-1.74,3.28-2,3.84-5.4-6.93-8.34-16.23-18.14-19.17-1.91,2.74-3.61,5.3-5.5,8-9-10.56-15.29-23.25-28.57-27.29-1.91,3.4-3.35,5.94-4.88,8.66-8.81-9.48-15.65-19.93-28.49-24.77l-7.58,13.46c-7.9-11.09-19.61-17-32.44-20.21-1,3.91-1.72,6.93-2.65,10.49-6.6-6.47-12.52-11.94-21.44-13.66-.69,4.53-1.25,8.46-1.89,12.69-15.3-7.46-21.58-10.53-27.92-13.12-.22,1.91-3.33,6.4-3.5,7.92l-57.18-19.51c13.62,15.59,28.08,30.36,44.45,43.74l-6,5.87,26.57,20.82-8.81,6.89c9.81,10.36,21,16.74,35.78,19.21L-8.3,1587.45c9.75,9.43,21.86,11.25,34.77,13.11-2.89,4.37-5.57,7.93-8.48,12.31,12.21,8.06,26.18,9.09,39.83,7.46-2,3.47-3.23,5.74-5,8.83,12.84,7.33,26.75,7.75,40.89,7.77-1.35,2.41-2.32,4.12-3.38,6,6.51,6,15.62,6.55,24.18,7.32,1.8.16,4.61.72,4.94,1.79,1.64,5.23-3.29,4.47,10,6.48,7.46,1.13,15,1.31,22.51,1.94,2,3,4.53,6.43,7.43,6.72,9.07.93,18.26.67,27.41.83,1.53,0,3-.18,5-.3-.76,4.9.79,8.2,5.34,8.17,7.51-.05,15-.8,22.52-1.21a14.59,14.59,0,0,1,4.53.11c3,.84,5.87,2.75,8.88,3,1.41.1,2.82.17,4.22.25l-1.22,1.81,3.88,2.61c-2.61-.94-5.23-1.87-7.91-2.56-1.34-.35-3,.77-4.4,1.75-3.43-1-6.79-2.12-10.28-2.85-6.23-1.3-3.93-.82-5.51,1.22-.32.42-1.66.21-2.48,0-3.92-1.07-8-2.33-11.91-.74.16,1,.31,1.93.51,3.21-6.26-2.31-12.49-4.41-19.38-3.28.26,1.65.45,2.87.75,4.72-5.78-3-12.13-4.81-18.86-3.25.57,2.42,1.17,4.44,1.73,6.84-6-1.29-11.68-2.48-17.55.09l4.22,6.9a28.65,28.65,0,0,0-19,2.61l2.76,4.5-15.18,4.85c.79,1.7,1.26,2.71,1.67,3.57a175.75,175.75,0,0,0-26.87,12l28.52.78c-.18.7.46,3.19.24,4.08,3.23-.11,6.52-.43,14.52-1.22-.41,2-.81,3.81-1.25,5.93,4.23.71,7.75-.74,11.74-2.52-.18,1.73-.36,3.18-.56,5.08,6.21.71,12.37,0,17.69-3.61.41,2.6.76,4.77,1.14,7.21,6.48,0,11.22-3.53,16.68-6.28.24,1.46.45,2.81.74,4.64,6.54.39,11.42-4.19,17.14-7.38.39,1.51.72,2.92,1.11,4.44,4.83.32,7.66-3.32,11.19-5.5,0,.3.23,1.74.25,2a10.93,10.93,0,0,0,4.34-1.17c3.36-1.45,6.52-3.34,9.76-5,.58-.3,1.18-.53,1.91-.86.47,1.12.87,2.08,1.41,3.35a42.82,42.82,0,0,0,15.15-8.48l1.2,3.42c4.12-2.49,7.95-4.87,11.85-7.12.86-.5.55,1.8,1.54,1.52,2.39-.67,4.55-3.37,6.77-4.4s1.84-.65,4.44-1.1a6.16,6.16,0,0,0,1.15-.35c-20.45,34.43-50.36,81-75.07,104.43a159.4,159.4,0,0,0,30.64-15c8.2-5.35,34.13-43.36,54.62-74.6.27,0,.46.11.41.42-.62,4.46-1.4,8.9-2.17,13.65l3.61-.16a43,43,0,0,0-2.2,17.22l3.62,0c0,.8,0,1.46-.08,2.1-.37,3.64-.95,7.28-1,10.93a11.29,11.29,0,0,0,.54,4.47c.28-.09,1.69-.43,2-.52-.71,4.09-3,8.07-.93,12.43,1.56-.2,3-.42,4.54-.62-.83,6.49-3.26,12.73-.45,18.65l4.58-1c-.51,6.09-2,11.8.41,17.82l7.11-1.63c-1.36,6.28.28,12.26,3.26,17.75,1.68-.89,3-1.6,4.5-2.41-.17,4.37-.19,8.17,2,11.83l5-3.37c2.26,7.71,3.19,10.88,4.3,13.92.74-.53,3.29-.87,3.87-1.3l11.37,26.17a175.55,175.55,0,0,0,1.14-29.42l4,.21c-.41-5.49-.8-10.67-1.18-15.9l5.21.89a28.66,28.66,0,0,0-4.67-18.6l8,1.33c.2-6.4-3-11.21-6.47-16.31,2.45-.38,4.54-.57,7-.95-1.07-6.83-5.14-12-10.05-16.28l4.66-1.07c-1.52-6.82-5.8-11.81-10.29-16.75l3.17-.73c0-4.18-2.67-7.53-5.12-10.77-.52-.68-1.22-1.84-.95-2.29,1.3-2.24,2.61-.27-.93-5.57-2-3-4.31-5.65-6.48-8.48.41-1.62.8-3.62,0-4.73-.49-.65-1-1.29-1.51-1.92l2.49-3.69a21.53,21.53,0,0,0,3.72,6.43c3.63,3.76,3.45,2.63,5.82,6.93s2.62,11.08,5.64,14.94c1.26,1.61,3.46-2.42,4.25-.63,3.6,8.14,6.93,16.4,10.58,25.2l5.92-4c3,11.55,7.19,22,14.28,31.21l6.15-3.69c.79,1.37,1.48,2.45,2,3.6,3.19,6.51,6,13.22,9.68,19.45,1.4,2.36,3.1,5.2,5.55,6.94.39-.44,2.4-2.5,2.78-2.94,3.09,7.6,3.36,16.71,11.43,21.84,2.4-2,4.58-3.85,7-5.8,5.39,11.78,7.83,24.78,18.73,31.78l6.59-6.53c5.5,10.75,9,21.89,19.29,29.5l10.24-10.17c4.28,12,13.29,20.29,24,26.41,1.9-3.25,3.31-5.78,5-8.76,4.29,7.5,8.22,13.92,15.8,17.74,1.76-3.9,3.27-7.29,4.92-10.92,11.85,10.58,16.71,14.94,21.75,18.88.68-1.65,4.61-4.9,5.16-6.22l46.41,32.07a346.68,346.68,0,0,0-28.81-50.61l6.84-3.76L555.64,1883l9.67-4c-6.18-11.81-14.57-20.37-27.26-26.36l14.77-6.08c-6.36-11-16.77-15.67-27.9-20.63,3.71-3.19,7-5.7,10.75-8.9-8.92-10.34-21.2-14.82-33.88-16.83,2.63-2.62,4.35-4.33,6.71-6.66-9.68-9.86-22.07-13.77-34.77-17.39l4.56-4.53c-4.31-7.07-12.36-9.85-19.86-12.73-1.57-.6-4-1.82-4-2.86-.14-5.11,4.09-3.18-7.38-8.38-6.41-2.91-13.14-5-19.73-7.46-1-3.16-2.43-6.93-5-7.93-7.92-3.14-16.24-5.25-24.42-7.72-1.36-.41-2.78-.61-4.58-1,1.93-4.2,1.37-7.57-2.73-8.7-2.94-.81-5.91-1.5-8.89-2.15,2.37-.21,3.58-.19,8.55,1,7.76,1.82,16.46,9,24.51,9.56,3.35.23.85-6.9,3.91-5.89,13.94,4.57,27.72,9.61,42.51,14.81.68-5.08,1-7.72,1.56-11.69,17.46,9,34.87,15.45,53.95,16.93.86-4.42,1.5-7.72,2.25-11.6,2.54.55,4.64.89,6.67,1.47,11.48,3.26,22.81,7.22,34.47,9.58,4.43.9,9.78,1.95,14.62.86-.12-1-.42-5.68-.53-6.64,12.7,4.6,24.15,14.3,39.31,10.09.25-5.12.36-9.85.6-14.93,20.35,6.4,38.94,17.74,59.55,12.12-.29-6-.52-10.47-.74-15.26,19.22,5.12,36.69,13.11,57.37,8.9-.4-8-.74-15.16-1.16-23.74,19.37,8,39.48,6.12,58.78-.27-1.88-5.9-3.43-10.41-5.15-15.81,13.9,3,26.09,5.28,39.11.21-2.83-6.45-5.3-12-7.94-18.06,26-2.83,36.72-4,47.09-5.8C859.78,1665.91,860.14,1657.51,859.12,1655.39Zm-635.51-50.2a27.4,27.4,0,0,1,3.07,3.14,28.65,28.65,0,0,1,3.88,5.56C228.25,1611,225.94,1608.14,223.61,1605.19Z"/>
    </g>
    <g>
      <path class="cls-4" d="M1363.37,1140.32l-1.24.26,7.28,2.8C1367.59,1142.41,1365.57,1141.39,1363.37,1140.32Z"/>
      <path class="cls-4" d="M1251.15,1078.75c-.71.16-1.41.33-2.09.55.25,1.16,1.14,7,1.38,8.16-15.87-4.21-30.79-14.56-48.57-8.59,14.73,5,119.8,41.19,161.5,61.45,17.56-3.65,34.72-7.12,51.28-10.35Z"/>
      <path class="cls-4" d="M989.36,1138.69c-.54.23-1.09.44-1.64.68,3,7.1,5.7,12.48,8.42,19-17.14-2.17-32-3.64-47.22,3.46,12.32,1.74,103.06,14.94,166.05,34.83,26.88-6.47,54.83-13.1,83.18-19.69Z"/>
      <path class="cls-4" d="M1749.69,1225.33c.67-.35,2.16-2.58,3-3-2.33-2.43-4.87-4.76-11-10.42l5.47-3.16c-2.39-3.78-6-5.5-10.12-7.36,1.47-1.07,2.72-1.94,4.33-3.1-3.76-5.31-8.6-9.6-15.1-11.22l4.8-5.91c-4.53-5-10.55-6.26-16.48-8.59,1-1.19,1.87-2.31,3.09-3.79-4.24-5.36-11.19-6-17.65-8.18.9-1.36,1.77-2.6,2.68-4-3.12-4-7.91-3.63-12.05-4.86.21-.22,1.19-1.39,1.39-1.61a11.33,11.33,0,0,0-3.93-2.55c-3.45-1.61-7.13-2.74-10.7-4.07-.63-.24-1.24-.55-2-.89l1.62-3.42c-5.2-3.24-10.9-4.89-17.12-5.87.61-1.12,1-1.88,1.82-3.31-4.81-1.47-9.31-2.79-13.77-4.25-1-.32,1-1.68.1-2.26-2.18-1.38-5.78-1.18-8.12-2.19s-1.78-1-3.94-2.69a7.57,7.57,0,0,0-1.07-.65c40.95-8.06,97.95-17.25,133.32-14.33,0,0-15.84-8.81-32.94-13.4-9.85-2.64-57.41,3.66-95.93,9.48-.17-.22-.23-.43.05-.62,3.89-2.61,7.88-5.09,12.11-7.8l-2.64-2.69c5.72-2.62,10.77-5.75,14.9-10.27l-2.47-2.85c.64-.54,1.14-1,1.68-1.4,3.09-2.24,6.32-4.33,9.22-6.8a11.56,11.56,0,0,0,3.09-3.52c-.26-.15-1.51-1-1.78-1.17,3.67-2.3,8.37-3.27,10.3-7.93-1.24-1.07-2.41-2-3.64-3.09,5.62-3.87,12.15-6.33,14.79-12.63l-4-2.82c5.08-3.84,10.54-6.67,13.56-12.71l-6.22-4.39c5.83-3.32,9.33-8.75,11.52-14.88-1.86-.69-3.3-1.19-5-1.82,3.5-2.91,6.47-5.53,7.77-9.81l-6.13-1.57c4.42-7.12,6.24-10,7.83-13-.92-.2-3-2-3.7-2.11l12.42-27a182.64,182.64,0,0,0-23.65,19.57c-.63-.77-1.36-1.68-2.58-3.21l-11.53,12c-.74-1.19-1.69-2.69-2.93-4.66a29.81,29.81,0,0,0-11.2,16.56l-4.51-7.12c-5.11,4.3-6.61,10.14-8.17,16.37-2-1.64-3.6-3.12-5.6-4.77-4.56,5.58-5.76,12.36-5.65,19.13l-4.07-2.87c-4.24,5.92-5.14,12.71-5.86,19.64l-2.77-2c-3.27,2.88-4,7.32-4.79,11.47-.17.88-.59,2.23-1.13,2.34-2.64.54-2-1.84-3.67,4.59-.93,3.6-1.4,7.28-2.08,10.93-1.55.81-3.37,1.89-3.67,3.3-.17.83-.3,1.67-.44,2.51l-4.6.63a22.64,22.64,0,0,0,2.41-7.36c.39-5.43-.36-4.51,1.33-9.34s6.78-9.75,7.68-14.78c.38-2.09-4.29-1-3.44-2.86,3.82-8.46,7.92-16.79,12.2-25.74l-7.25-1.78c6.87-10.38,12.08-20.89,14.3-32.8l-7.15-2.21c.52-1.56.88-2.86,1.38-4.1,2.83-7,6.09-13.86,8.37-21,.86-2.73,1.88-6,1.53-9.14-.61,0-3.61-.13-4.22-.12,3.75-7.68,10.64-14.23,9-24.06-3.2-.5-6.17-.89-9.35-1.38,5.4-12.38,13.8-23.31,11.66-36.66l-9.66-.57c4.53-11.75,10.74-22.21,9.49-35.5l-15-.88c6.33-11.65,6.52-24.43,3.81-37-3.85.79-6.79,1.45-10.3,2.17,2.83-8.54,5.09-16.06,2.78-24.6l-11.9,3.77c0-16.56,0-23.37-.46-30-1.77.63-7-.17-8.43.33l-7.37-58.35c-7.81,18.57-14.55,37.53-19.26,57.57l-7.68-2.7c-2.37,11.09-4.6,21.57-6.86,32.14l-9.79-4.76c-4.87,13-5.68,25.49-1.51,39.51l-15-7.25c-4.08,12.56-.5,23.93,3.39,36-5.06-.66-9.31-1.49-14.39-2.15-1.83,14.11,3.24,26.77,10.5,38l-9.85-.57c-.92,14.37,4.66,26.71,10.68,39.09l-6.69-.39c-2.49,8.27,1,16.46,3.93,24.28.63,1.64,1.34,4.34.55,5.08-3.88,3.67-5.31-1-1.38,11.56,2.2,7,5.27,13.67,7.93,20.52-1.75,3-3.69,6.7-2.7,9.36,3.06,8.34,7.21,16.26,11,24.34.63,1.34,1.46,2.58,2.42,4.25-4.61,1.43-6.84,4.2-4.86,8.17,1.41,2.85,3,5.63,4.52,8.4-1.83-1.69-2.65-2.64-5.21-7.31-4-7.3-4.45-19-9.62-25.69-2.15-2.77-5.94,4.14-7.29,1.06-6.15-14-11.82-28.21-18.06-43.32l-10.17,6.93c-5.13-19.85-12.26-37.83-24.38-53.68L1475.15,914c-1.35-2.36-2.54-4.22-3.51-6.2-5.44-11.19-10.25-22.74-16.53-33.44-2.38-4.06-5.29-9-9.49-12-.66.75-4.13,4.28-4.79,5-5.27-13.06-5.7-28.7-19.52-37.55-4.14,3.37-7.89,6.58-12,9.92-9.19-20.25-13.31-42.58-32-54.68L1366,796.33c-9.39-18.49-15.34-37.63-33-50.75L1315.34,763c-7.28-20.59-22.71-34.92-41.1-45.46-3.27,5.56-5.7,9.9-8.69,15-7.34-12.89-14-23.94-27-30.53-3,6.69-5.67,12.5-8.51,18.73-20.29-18.24-28.63-25.75-37.26-32.54-1.18,2.84-8,8.4-8.89,10.67l-79.53-55.3c14.11,30,29.89,59.18,49.21,87L1141.77,737l31.78,43.82-16.62,6.73c10.55,20.31,24.92,35,46.69,45.4l-25.41,10.37c10.87,18.84,28.73,27,47.82,35.56-6.39,5.46-12.09,9.75-18.5,15.24,15.26,17.79,36.34,25.55,58.1,29.05l-11.56,11.42c16.56,17,37.83,23.75,59.61,30l-7.85,7.75c7.37,12.16,21.18,17,34,22,2.71,1,6.8,3.15,6.84,4.94.21,8.79-7,5.44,12.63,14.43,11,5,22.53,8.62,33.84,12.91,1.73,5.43,4.14,11.9,8.48,13.64,13.58,5.43,27.86,9.09,41.89,13.38,2.34.7,4.77,1.06,7.87,1.73-3.34,7.22-2.4,13,4.64,15,11.59,3.24,23.49,5.39,35.24,8.07,2.36.54,4.93.94,6.93,2.17,4.27,2.62,7.84,6.83,12.39,8.46l.54.19c-4.87-1.09-9.18-1.61-12.52-1.2-10.6,1.31-8.6,2.41-18.54,1s-21.38-9.34-31.41-9.16c-4.18.07-.31,8.63-4.22,7.71-17.75-4.14-35.36-8.88-54.24-13.71-.29,6.36-.44,9.67-.67,14.64-22.6-9.3-44.85-15.34-68.64-15.1-.58,5.57-1,9.73-1.52,14.61-3.21-.4-5.85-.6-8.42-1.09-14.57-2.8-29-6.47-43.71-8.12-4.9-.55-10.68-1.17-16-.06,13.81,3.74,112.11,30.45,171,49.78,56.67-10.92,105.9-18.88,139.91-21.58l-124,27c14.74,5.19,25,9.48,27.63,12.09l-34.11-10.68-103,22.4c16.39,6.63,38.26,23,53.21,35.2,10.47,7.07,17.81,12.77,17,14.4,0,0-6.93-6.23-17-14.4-17.8-12-44.65-28-55.89-34.61l-46.87,10.19c13.16,5.19,54.19,22.48,92.88,50.42l-93.76-50.23-57.93,12.61c24.87,7.52,46.45,27.8,55.7,37.51a20.91,20.91,0,0,1,4.83,5.32s-1.73-2.07-4.83-5.32c-13-11.35-47-31-57.79-37.06l-338.46,73.63s65.53-17.12,157.35-39.77c-53.34-9-120.93-16-134.19-17.29,1.21,4.31,1.76,11.8,3,13.88l-109.6,36.37c38.75,8,77.84,13.77,118.23,15.24-.55,3.82-1.19,8.28-2.28,15.8l64.52,1c-1.39,5.27-3.14,11.92-5.45,20.67,26.92,4.44,51.25,1.26,76.68-12.1-2.91,11.14-5.4,20.69-8.26,31.65,25.74,3.09,46.28-8.13,68.09-20.22.65,10,1.49,18.39,2.14,28.43,27.89-1.84,48.56-16.17,70.06-34.78,1,7.54,1.71,12.47,2.63,19.18,27.26-3.56,47.38-18.8,69.19-35.13.72,5.23,1.23,9,1.79,13,18.69,1.41,31.55-8.11,45.48-16.82,2.93-1.83,8-4.25,9.71-3,8.53,6.08.2,10.6,22.84-1.74,12.65-6.9,24.36-15.34,36.53-23.07,6.41,2.23,14.32,4.55,19.08,1.65,14.89-9.07,28.59-20.08,42.71-30.41,2.34-1.72,4.42-3.79,7.28-6.26,4.5,8.33,10.68,11.56,17.59,6.25,11.37-8.74,21.93-18.55,32.88-27.85,2.21-1.87,4.42-4,7-5.06,5.56-2.21,12.13-2.61,16.94-5.78,13.2-8.72,26.35-17.74,39.25-27l.07.49q-14.31,10.83-28.22,22.19c-3.74,3.06-5.7,8.22-8.85,12.12-1.48,1.83-3.76,3.06-5.8,4.37-10.18,6.46-20.67,12.46-30.51,19.4-6,4.21-4.92,10,.63,15.65-2.69,1.67-4.87,2.81-6.83,4.26-11.79,8.73-24,17-35,26.63-3.52,3.09-3.62,10-3.43,15.69-9.22,7.82-18.89,15.07-27.57,23.49-15.53,15.06-9.82,9.48-7.07,17.82.56,1.7-2.59,5.05-4.79,7-10.45,9-21.85,18.15-24.73,32.07,3.13,1.47,6,2.81,10,4.68-18.43,13.2-36.2,26.71-46.12,48.25l14.71,6.89c-19.34,10.59-36.6,24.95-45,46.83,7.88,3,14.68,5.15,22.53,8.17-15.13,14.45-29.22,28.11-33.16,49.5,9.49.45,17.76.83,27.41,1.27-17,17-25.65,35.74-28.8,58.41l17.92.78c-5,17.08-10,34-15.28,51.93l13.23,2.12c-8.88,32.71-14,65.46-17.25,98.49l56.44-78.74c1.65,1.83,9.88,4.8,12,7.08,5.86-9.28,11.2-19.15,24.22-43.13,4.76,4.92,9.17,9.52,14.28,14.8,10-10.55,12.67-23.21,15.27-37.82,4.52,3.8,8.26,7.08,13.21,11.23,13.8-16.09,23.54-34.76,23.51-56.6L1470.4,1558c12.23-18.28,11.43-38.29,14.1-58.87l14.43,6.76c13.57-17.65,10-40.08,11.86-62.24,5,1.78,9.6,3.55,14.63,5.33,10.06-13,5.23-27.84,5.82-41.92.87.5,5.33,2.66,6.2,3.14,3-4.23,4.06-9.81,5-14.44,2.33-12.18,3-24.68,4.39-37,.24-2.18.74-4.34,1.22-7l12.08,2.42c6.12-19,6.82-38.32,5-58.74l11.9,3.12c.83-16.32,1.42-31.61,2.52-46.86.24-3.35,6.13,1.88,7.23-1.45a28.59,28.59,0,0,0,1-10.11l5-.18c-4.05,12.7-6.36,25.06-5.18,38l8,.18c-.08,1.76-.07,3.21-.23,4.63-.88,8-2.23,16.06-2.48,24.12-.09,3.07-.18,6.77,1.09,9.87.62-.19,3.75-.92,4.38-1.11-1.63,9-6.81,17.77-2.27,27.42,3.45-.42,6.62-.88,10-1.3-2,14.33-7.42,28-1.32,41.17l10.12-2.23c-1.24,13.43-4.59,26,.57,39.35l15.74-3.47c-3.12,13.85.4,27.08,6.87,39.25,3.73-1.93,6.57-3.48,10-5.24-.43,9.63-.56,18,4.31,26.16,4-2.63,7.44-4.92,11.17-7.36,4.84,17.06,6.83,24.08,9.23,30.8,1.63-1.15,7.28-1.86,8.58-2.79l24.62,58c2.63-21.42,4-42.92,3.06-64.94l8.7.54c-.8-12.12-1.55-23.57-2.32-35.12l11.48,2c1.23-14.83-1.57-27.92-10-41.15l17.58,3.09c.54-14.13-6.46-24.8-14-36.12,5.4-.8,10-1.19,15.45-2-2.23-15.08-11.14-26.65-21.91-36.12l10.32-2.28c-3.24-15.07-12.59-26.17-22.4-37.16l7-1.55c.15-9.25-5.78-16.68-11.14-23.87-1.12-1.51-2.65-4.08-2-5.08,2.93-4.91,5.76-.55-2-12.31-4.31-6.58-9.41-12.56-14.15-18.83.93-3.58,1.84-8,.05-10.44-5.58-7.69-12.18-14.65-18.41-21.87-1-1.2-2.26-2.24-3.73-3.68,4.33-2.82,5.81-6.32,2.63-9.84-5.26-5.8-11.06-11.1-16.6-16.64a15.1,15.1,0,0,1-3.07-3.6c-1.44-2.92-2-6.47-3.88-9-.91-1.16-1.87-2.29-2.78-3.45l2.28-.31-.66-4.83c1.08,2.69,2.19,5.36,3.51,7.93.66,1.28,2.71,1.82,4.42,2.19,1.64,3.33,3.08,6.75,4.94,10,3.32,5.75,2.09,3.62,4.78,3.43.54,0,1.31,1.15,1.71,1.95,1.89,3.78,3.78,7.86,7.71,9.76l2.14-2.63c2.55,6.47,5.25,12.77,10.92,17.33,1.11-1.35,1.92-2.35,3.15-3.87,1.71,6.56,4.7,12.77,10.59,16.91,1.49-2.12,2.64-4,4.12-6.1,3.17,5.58,6.19,10.8,12.27,13.56.84-2.79,1.57-5.22,2.42-8.07a29.86,29.86,0,0,0,15.25,12.94c.66-2.23,1.17-3.93,1.57-5.28l14.32,8.43,1.62-3.79a182.19,182.19,0,0,0,28,12.49Zm-162.49-2.56a30.32,30.32,0,0,1,1.62-6.88q-.91,5.67-1.92,11.44A28,28,0,0,1,1587.2,1222.77Z"/>
      <path class="cls-4" d="M1056.88,1104.32s134.25,30.78,210.95,56.71c32-7.18,63.75-14.09,94.3-20.45l-160.37-61.68c-.36.13-.72.21-1.09.35.25,6.35.4,12.26.65,18.58-25.37-5.59-47.9-17.42-73.71-9,8.56,2.43,150.93,43,188,61.52l-188-61.51c-.51.16-1,.32-1.53.5,1,7.39,1.77,12.92,2.58,18.82-24.63-4.21-46.1-12.35-72.81-4.68,1.36,9.9,2.57,18.69,4,29.28-22.62-7.75-47.43-3.62-70.09,5.79,18.86,2.13,118.4,14,209.46,38.17,22.67-5.27,45.57-10.51,68.37-15.62Z"/>
      <path class="cls-4" d="M948.77,1161.88l-.92.42c4.21,7.69,7.95,14.33,11.88,21.49-31.91,6.33-45,8.92-57.64,12.3a7.62,7.62,0,0,1,.63,1.47c26.32-5.36,115.63,13.69,134.86,17.93,24.09-5.94,50-12.26,77-18.75Z"/>
      <path class="cls-4" d="M1037.58,1215.49l-.45.11,4.13.71Z"/>
    </g>
  </g>
  <path class="cls-4" d="M211.58,1443.69q-16.7-18.53-16.69-55.15t16.69-55.15q16.69-18.53,49.88-18.53,22,0,43.73,10.56v14.86a88.34,88.34,0,0,0-42-10.77q-27.13,0-39.64,14.22t-12.49,44.81q0,30.81,12.38,44.92t39.75,14.11a85.65,85.65,0,0,0,42-10.56v14.87q-22,10.33-43.73,10.34Q228.28,1462.22,211.58,1443.69Z"/>
  <path class="cls-4" d="M500.16,1316.8v143.69H484.65V1342l-52.35,73.46-49.12-73v118H367.67V1316.8h16.8l48.69,74.76,50.19-74.76Z"/>
  <path class="cls-4" d="M796.38,1316.8v143.69H780.87V1342l-52.35,73.46-49.12-73v118H663.89V1316.8h16.8l48.69,74.76,50.19-74.76Z"/>
  <path class="cls-4" d="M1022.8,1316.8h45q33.62,0,50.52,18t16.91,53.75q0,72-67.43,72h-45Zm44,129q27.35,0,40-13.78t12.6-43.52q0-29.73-12.6-43.52t-40-13.79h-28.44v114.61Z"/>
  <path class="cls-4" d="M1198.81,1316.8h15.51v143.69h-15.51Z"/>
  <polygon class="cls-4" points="581.14 1387.86 569.45 1408.11 592.83 1408.11 581.14 1387.86"/>
  <path class="cls-4" d="M102,1400.82a37.71,37.71,0,0,0,23.69-14.22q8.83-11.41,8.84-28,0-20.67-10.77-31.23T92.13,1316.8h-59v143.69H48.61v-58h.12V1388l.09-.07h-.21v-56.44H90.4q15.73,0,22.19,7.22t6.47,21q0,14-8.19,21.11-4.84,4.21-13,5.92l-18.71,4.09,7.9,14.53,35.69,55.17H141Z"/>
  <rect class="cls-4" x="896.38" y="1381" width="50.59" height="15.08"/>
  <polygon class="cls-4" points="956.01 1316.8 865.32 1316.8 865.32 1460.49 956.01 1460.49 956.01 1445.85 880.83 1445.85 880.83 1400.45 880.82 1400.45 880.82 1378.77 880.83 1378.77 880.83 1331.45 956.01 1331.45 956.01 1316.8"/>
  <g>
    <polygon class="cls-4" points="1342.07 1316.8 1326.56 1316.8 1269.25 1460.49 1286.06 1460.49 1303.29 1415.68 1309.11 1400.82 1334.31 1335.11 1359.52 1400.82 1365.34 1415.68 1382.57 1460.49 1399.16 1460.49 1342.07 1316.8"/>
    <rect class="cls-4" x="1284.33" y="1449.54" width="101.32" height="10.96"/>
  </g>
</svg>
