<svg id="logo_square" data-name="Layer 1" xmlns="http://www.w3.org/2000/svg" xmlns:xlink="http://www.w3.org/1999/xlink" viewBox="0 0 1128.29 1126.05">
  <defs>
    <style>
      .logo_square-cls-1 {
        fill: none;
      }

      .logo_square-cls-2 {
        clip-path: url(#clip-path);
      }

      .logo_square-cls-3 {
        fill: #ddb263;
      }

      .logo_square-cls-4 {
        fill: #fff;
      }
    </style>
    <clipPath id="clip-path" transform="translate(205.06 137.3)">
      <polygon class="logo_square-cls-1" points="354.31 27.99 16.62 612.88 691.99 612.88 354.31 27.99"/>
    </clipPath>
  </defs>
  <title>logo-square</title>
  <g class="logo_square-cls-2">
    <path class="logo_square-cls-3" d="M51.72,120.72l.47-.21-.25.25Z" transform="translate(205.06 137.3)"/>
    <path class="logo_square-cls-3" d="M46.41,124.82l.29,0-.38-.21A1.4,1.4,0,0,0,46.41,124.82Z" transform="translate(205.06 137.3)"/>
    <path class="logo_square-cls-3" d="M54.54,117.85l.24.37-.06-.3Z" transform="translate(205.06 137.3)"/>
    <path class="logo_square-cls-3" d="M38.63,127.27l.11.15c0-.08,0-.16-.07-.26A.49.49,0,0,1,38.63,127.27Z" transform="translate(205.06 137.3)"/>
    <path class="logo_square-cls-3" d="M50.25,110.31l-.15-.13.14.25S50.25,110.35,50.25,110.31Z" transform="translate(205.06 137.3)"/>
    <path class="logo_square-cls-3" d="M43.12,112.08v.09a.93.93,0,0,1,0-.13Z" transform="translate(205.06 137.3)"/>
    <path class="logo_square-cls-3" d="M39.64,111.88l.13,0h-.09S39.65,111.87,39.64,111.88Z" transform="translate(205.06 137.3)"/>
    <g>
      <path class="logo_square-cls-3" d="M392,239.62l-.53-.23-7,30.42c1.4-1.15,6-2.38,7-3.3l23.58,40C413,300.67,403.71,274.22,392,239.62Z" transform="translate(205.06 137.3)"/>
      <path class="logo_square-cls-3" d="M391.42,239.36l-.51-.22.6.08a.56.56,0,0,1,.05-.08l0,.08.37.05c-4.45-13.18-9.24-27.52-14.11-42.36-1.52,3.9-12.65,33-14,54.61l.46.61c3.13-2.72,5.82-5.11,8.74-7.63,6.11,14.11,8.61,19.89,11.43,25.4l.06,0C384.8,267,387.28,245.66,391.42,239.36Z" transform="translate(205.06 137.3)"/>
      <path class="logo_square-cls-3" d="M377.77,196.81c-2.44-7.43-4.9-15-7.34-22.56-2.79,6.83-18.25,45.08-20.6,59.29-.12,1-.2,1.81-.24,2.33l.08.12c3-2.08,5.2-3.87,7.93-5.78.7,8,1.49,14.92,6.07,21.14C363.22,246.92,361.62,222.43,377.77,196.81Z" transform="translate(205.06 137.3)"/>
      <path class="logo_square-cls-3" d="M351.61,113.65c-3.91,4.7-30.27,36.95-37.55,60.76,2.8-9.42,13.76-41.66,37.51-60.91-3.91-13.18-7.45-25.68-10.43-37-6,7.77-31.52,41.69-40.69,66.73.08.12.13.23.21.35,2.91-.75,5.62-1.41,8.51-2.15-.05,12.52-3.4,24.33,3.58,35.62l.62-.23c.08-.31.26-.95.53-1.89-.19.64-.36,1.27-.52,1.89l7.81-2.84c.51,11.78-1.1,22.49,5.07,34,.33-1.57,9.47-44.38,32.32-69.14a309.33,309.33,0,0,0-32.32,69.15l0,.05,13.12-4.78c-1.35,11.49,3.27,22.8,10.14,32.49.05-.67.14-1.43.28-2.28,1.06-9.11,5.42-37.21,20.51-59.57C363.77,153.55,357.31,132.88,351.61,113.65Z" transform="translate(205.06 137.3)"/>
      <path class="logo_square-cls-3" d="M336.47,50.9l7.26,23.58c14.68-2.48,34.47,8.61,48.14,18-2.32-5.62-6.65-9.58-10.83-13.88-1.14-1.17-2.76-3.26-2.36-4.18,2-4.55,4.88-1.16-3.08-10.38-1.39-1.61-2.84-3.15-4.31-4.67C354.32,54.5,339.92,50.71,336.47,50.9Z" transform="translate(205.06 137.3)"/>
      <path class="logo_square-cls-3" d="M421.63,256.88c-5.14-5.74-19.6-12.74-26.69-16l20.23,65.75,4,6.85a335.4,335.4,0,0,0-4.75-56.14Z" transform="translate(205.06 137.3)"/>
      <path class="logo_square-cls-3" d="M592.79,37.78l-42-18.22c.68-.94,1.23-5,2.08-6.23-4.88-1.77-10-3.26-22.35-6.88,1.8-2.69,3.49-5.19,5.42-8.08-5.88-3.58-12-3.53-19-3.28,1.3-2.46,2.44-4.52,3.86-7.22-8.81-4.77-18.4-7.41-28.49-5.21.95-4.13,1.73-7.56,2.62-11.42-9.67-3.83-18.84-1.47-28.61-.65.53-2.3,1-4.45,1.68-7.34-9.51-4.5-19.51-.61-29.93.73.32-2.48.68-4.79,1-7.29-7-3.35-13.39.36-19.95,1.49.14-.45.7-2.72.84-3.17-2.25-.95-4.94-.9-7.17-.85-5.86.14-11.7,1.08-17.55,1.67-1,.11-2.08.09-3.36.14,0-1.95-.06-3.61-.09-5.83-9.39-.93-18.39.67-27.64,3.55.09-2,.15-3.28.26-5.81-7.63,1.25-14.75,2.5-21.91,3.51-1.57.23.26-3-1.39-3.19a13.37,13.37,0,0,0-4.76.57c-.21-.81-.37-1.46-.58-2.28,6.27.6,12.21.43,18.06-1.4-.27-1.42-.47-2.48-.71-3.72.82-.14,1.48-.29,2.15-.36,3.81-.4,7.65-.57,11.4-1.26a11.56,11.56,0,0,0,4.45-1.49c-.15-.26-.8-1.64-.95-1.91,4.32-.15,8.88,1.37,12.89-1.69-.53-1.55-1.07-3-1.6-4.51,6.81-.52,13.7.64,19.15-3.49l-2-4.45c6.33-.77,12.48-.48,18.13-4.2-1.08-2.34-2-4.42-3.18-6.92C420.23-88.85,426-91.8,431-96c-1.27-1.53-2.26-2.69-3.42-4.09,4.49-.76,8.39-1.54,11.66-4.6-1.61-1.58-3-2.94-4.52-4.42,7.4-4,10.45-5.56,13.31-7.34-.69-.64-1.59-3.18-2.14-3.69l24.33-17.16a183.22,183.22,0,0,0-30.31,5.07c-.15-1-.32-2.14-.62-4.07l-16,4.57c0-1.4-.12-3.18-.2-5.51a30,30,0,0,0-18,8.71c-.11-3-.21-5.51-.32-8.42-6.59,1.16-10.82,5.45-15.3,10.07-.9-2.42-1.54-4.52-2.45-7-6.75,2.54-11.2,7.81-14.5,13.73l-2.08-4.54c-6.64,3-10.84,8.43-14.94,14.06-.56-1.24-1-2.12-1.41-3.08-4.29.85-7.13,4.33-9.92,7.52-.58.67-1.62,1.63-2.14,1.45-2.56-.86-.83-2.6-5.49,2.13-2.61,2.65-4.87,5.61-7.29,8.42-1.75-.07-3.87-.06-4.83,1-3,3.35-5.55,7.09-8.27,10.69-.45.6-.8,1.26-1.32,2.09-1.74-1.72-3.5-2.06-4.81-.24-2.16,3-4,6.22-6,9.33a6.86,6.86,0,0,1-1.35,1.78c-1.21,1-2.8,1.54-3.75,2.69-.44.53-.87,1.09-1.31,1.62l-.38-1-2.16.79c1.13-.77,2.26-1.55,3.31-2.42.53-.43.57-1.43.57-2.26,1.38-1.09,2.81-2.09,4.11-3.27,2.33-2.11,1.47-1.33,1.11-2.55-.07-.25.4-.72.73-1,1.56-1.25,3.26-2.53,3.74-4.53l-1.43-.73c2.74-1.82,5.38-3.7,6.92-6.77L312-90c2.86-1.44,5.43-3.44,6.75-6.57-1.12-.48-2.1-.82-3.22-1.29,2.26-2,4.37-4,5-7l-4-.31a14.1,14.1,0,0,0,4.45-8.34l-2.59-.2,2.46-7.45-1.91-.38a84.8,84.8,0,0,0,3-14.2l-8.56,11.15c-.23-.27-1.41-.74-1.7-1.08-.89,1.32-1.71,2.72-3.71,6.14l-2-2.21c-1.5,1.48-1.94,3.3-2.39,5.41-.64-.57-1.16-1.07-1.86-1.69a12.51,12.51,0,0,0-3.68,8.09l-3.21-1.63c-1.86,2.6-1.84,5.5-2.32,8.47l-2.06-1c-2.06,2.49-1.64,5.76-2,9-.72-.28-1.38-.56-2.1-.85-1.52,1.84-.89,4-1,6.06-.12-.08-.76-.41-.88-.49a5.42,5.42,0,0,0-.79,2.07c-.4,1.76-.55,3.57-.81,5.35-.05.32-.13.63-.21,1l-1.75-.4a21.19,21.19,0,0,0-1,8.49l-1.71-.51c-.2,2.37-.36,4.58-.59,6.79,0,.49-.88-.3-1,.18-.43,1.14,0,2.79-.2,4a5.41,5.41,0,0,1-.85,2.09,3.3,3.3,0,0,0-.2.56C267.42-79,257.49-104.4,255.31-121a78.55,78.55,0,0,0-2.9,16.56c-.24,4.81,7.42,26.15,13.94,43.37-.08.1-.17.15-.28,0-1.6-1.54-3.14-3.13-4.81-4.82-.43.65-.65,1-1,1.49A21.18,21.18,0,0,0,254-70.25L253-68.82c-.31-.24-.57-.43-.81-.64-1.35-1.2-2.63-2.49-4.06-3.58a5.58,5.58,0,0,0-1.94-1.08c0,.14-.32.8-.36.94-1.43-1.47-2.35-3.54-4.69-4-.37.68-.7,1.32-1.07,2-2.34-2.21-4.13-5-7.31-5.57l-.9,2.13c-2.28-2-4.14-4.21-7.23-5-.47,1.12-.9,2.11-1.41,3.31a12.53,12.53,0,0,0-8-3.84c-.13.93-.22,1.65-.34,2.5-1.69-1.33-3.2-2.44-5.31-2.61,0,1.06-.07,2-.11,3-3.73-1.33-5.26-1.88-6.79-2.32,0,.45-.61,1.57-.61,1.93l-13.72-3a85.69,85.69,0,0,0,11.4,9l-1.23,1.51,6.68,4.13-1.86,1.82a14.16,14.16,0,0,0,8.77,3.52c-1,1-1.85,1.83-2.84,2.79,2.5,1.93,5.35,2,8.38,2.14-.56,1.09-1.08,2-1.64,3.07,3,1.55,6.28,1.43,9.4.7l-.92,2.17c3.16,1.36,6.38,1.1,9.65.74l-.62,1.48c1.66,1.22,3.78,1.11,5.78,1.07.42,0,1.08,0,1.19.28.51,1.17-.65,1.12,2.49,1.25,1.75.06,3.5-.09,5.25-.13.53.63,1.21,1.36,1.89,1.36.4,0,.8,0,1.21,0L252-45.8a10.72,10.72,0,0,0-3.65-.38c-2.54.36-2,.61-4.44.31s-5.18-2.16-7.59-2.07c-1,0,0,2.08-1,1.87-4.29-.91-8.55-2-13.12-3.06,0,1.53-.06,2.33-.09,3.53a41.86,41.86,0,0,0-16.59-3.34c-.11,1.34-.2,2.34-.3,3.52-.77-.08-1.41-.12-2-.23-3.52-.61-7-1.42-10.56-1.76a10.79,10.79,0,0,0-4.37.2c.06.28.3,1.68.36,2-3.92-1-7.63-3.49-12-1.76.09,1.53.2,2.94.29,4.46-6.25-1.26-12.14-4.05-18.1-1.73.28,1.77.48,3.1.71,4.52-5.89-.92-11.34-2.75-17.36-.84.38,2.37.7,4.48,1.1,7-6-1.76-11.94-.57-17.48,1.94.75,1.69,1.35,3,2,4.54-4.23-.46-7.93-.75-11.64,1.17,1,1.83,2,3.41,2.93,5.12-7.65,1.66-10.8,2.34-13.83,3.21.46.75.62,3.26,1,3.86L80.07-4.51a171.7,171.7,0,0,0,28.52,3.15c-.12.92-.25,2-.48,3.82l15.53,0c-.31,1.27-.7,2.88-1.22,5a27.92,27.92,0,0,0,18.4-3.25L139,11.83c6.21.63,11.1-2.16,16.3-5.16.2,2.4.24,4.45.44,6.86,6.71-.56,12-4.17,16.52-8.64.28,1.81.47,3,.72,4.6,6.73-1,11.87-4.81,17-8.83.19,1.25.33,2.15.48,3.13,4.07.32,7.51-2.08,10.83-4.24.7-.45,1.87-1,2.3-.76,2.07,1.43.08,2.55,5.47-.52,3-1.71,5.79-3.79,8.69-5.7,1.55.5,3.46,1,4.6.31,3.54-2.25,6.79-5,10.14-7.5.56-.43,1.05-.94,1.73-1.54,1.12,2,2.62,2.73,4.26,1.43,1.17-.94,2.3-1.93,3.43-2.93A10.81,10.81,0,0,1,239-14.52c-3,2.56-8.36,3.95-10.91,7-1.06,1.27,2.51,2.34,1.22,3.27C223.46,0,217.46,4,211.11,8.41l4.21,4C206.66,16.77,199.07,21.85,193,29l4,4.25c-1,.86-1.7,1.59-2.52,2.24-4.62,3.63-9.48,7-13.8,11C179,48,177,49.84,176,52.08c.41.23,2.39,1.48,2.8,1.71-5.51,3.74-12.69,5.5-15.4,12.76,2,1.58,3.83,3,5.78,4.56-8.44,6.26-18.34,10.4-22.07,20.24l6.31,4.12c-7.61,6.19-15.85,10.84-20.16,20.31l9.81,6.41c-8.79,5.41-13.87,14-16.91,23.52,2.9,1,5.15,1.65,7.8,2.52-5.22,4.67-9.66,8.88-11.41,15.54l9.51,2.06c-6.41,11.19-9,15.79-11.32,20.46,1.43.26,4.68,2.83,5.82,3L109,231.59a281.08,281.08,0,0,0,35.3-31.42l4.14,4.79,17.08-19.05,4.77,7a46,46,0,0,0,16.31-26.1l7.33,10.7c7.62-6.9,9.6-16,11.65-25.64,3.17,2.41,5.72,4.61,8.89,7,6.7-8.83,8.18-19.34,7.63-29.74l6.42,4.2c6.2-9.34,7.2-19.85,7.93-30.53l4.37,2.85c4.88-4.62,5.73-11.48,6.74-17.91.22-1.36.78-3.46,1.6-3.66,4-1,3.22,2.72,5.41-7.27,1.22-5.58,1.73-11.27,2.59-16.92,2.33-1.34,5.08-3.1,5.45-5.28,1.16-6.82,1.42-13.78,2-20.69.1-1.15,0-2.31,0-3.81,3.66.83,6.24-.19,6.44-3.63.35-5.68.15-11.39.22-17.09A10.79,10.79,0,0,1,271.58,6c.78-2.23,2.37-4.3,2.67-6.57a2.34,2.34,0,0,0,0-.26,18.46,18.46,0,0,0,.69,5.9c1.66,4.77,2,3.73,2.31,8.47S275.1,24.36,276.18,29c.45,1.93,4-.71,4,1.19-.15,8.61-.58,17.22-.93,26.42l6.84-1.15c-2,11.37-2.62,22.25-.13,33.22l6.9-.76c.13,1.52.31,2.76.34,4,.15,7-.1,14,.61,21,.26,2.65.6,5.84,2.05,8.36.51-.23,3.12-1.22,3.63-1.45-.36,7.8-3.7,15.78,1,23.44.89-3,12.42-41,40.6-67.09-4-15.14-6.92-28.06-8.32-37.46l3.75,12.2c2-.24,10.21-.64,31,4.74-2.08-2-4.17-4.07-6.22-6.14.39-3.18.68-7.07-1.14-9-5.67-6-12.13-11.2-18.31-16.7-1-.91-2.19-1.66-3.62-2.74,3.41-2.91,4.28-6.08,1.14-8.74C334.18,7.94,328.6,4.05,323.21-.09a13.12,13.12,0,0,1-3-2.74c-1.57-2.34-2.41-5.34-4.36-7.25-5.34-5.23-10.82-10.4-16.39-15.43l.22-.08c4.29,3.68,8.64,7.3,13.06,10.82,1.79,1.42,4.37,1.81,6.49,2.88a11,11,0,0,1,2.59,2.24c4,4.06,7.82,8.31,12,12.16,2.54,2.34,5.09,1.28,7.17-1.85,1,1.07,1.78,2,2.65,2.73,5.21,4.57,10.23,9.4,15.79,13.51,1.78,1.31,5,.67,7.59,0,4.54,3.48,8.85,7.22,13.61,10.39,8.5,5.67,5.35,3.59,8.93,1.49.73-.43,2.6.69,3.69,1.52,5.19,3.93,10.56,8.28,17.29,8.22.36-1.59.69-3,1.16-5.08,7.94,7.19,15.95,14.06,26.89,16.49.6-2.62,1-4.54,1.72-7.48,6.82,7.87,15.17,14.42,26.12,16.13.61-3.94.92-7.3,1.53-11.23,8.19,5.55,15.9,10.7,26.18,10.38-.74-4.43-1.39-8.29-2.15-12.79a46,46,0,0,0,29.86,7.48c-.61-3.53-1.07-6.23-1.43-8.35L545.9,46c-.16-3-.26-4.79-.34-6.32A282.14,282.14,0,0,0,592.79,37.78ZM282.44-38.55h.23l-.15,0Zm42.62-10.79c1.8-.1,3.63-.18,5.47-.26a13.73,13.73,0,0,1-2.13.32A14.71,14.71,0,0,1,325.06-49.34Z" transform="translate(205.06 137.3)"/>
      <path class="logo_square-cls-3" d="M428.3,193.79c-25.84-20.62-55.49-27.72-55.49-27.72,32.27,1.86,53.8,25.75,55.49,27.67-1.18-12.15-8.38-20.5-16.12-29.34,4.55-1.3,8.35-2.52,12.92-3.82-3.64-12.7-12.32-20.82-23.06-28.9l8.6-3.13a118,118,0,0,0-55.24-16.14l8.54,27.75c38.91-2.84,60.6,20.09,60.6,20.09-24.62-16.41-55.09-19.54-60.57-20l18.61,60.47c18-2.69,41.5,24.7,43.15,26.64l.37,0c-.63-12.88-4.52-23.8-13.24-34.22l15.45.66S428.3,193.81,428.3,193.79Z" transform="translate(205.06 137.3)"/>
      <path class="logo_square-cls-3" d="M387.5,100.09,393.35,98a21.72,21.72,0,0,0-.71-3.27c-27-16.56-43.27-19.3-48.76-19.72l11.36,36.91c32-4.55,55.4,16.67,55.4,16.67C406.27,116.31,397.23,108.54,387.5,100.09Z" transform="translate(205.06 137.3)"/>
      <path class="logo_square-cls-3" d="M425.71,227.38c-19.54-19.48-37.68-24.86-43-26.08l11.81,38.38c18.45,3.33,25.9,14.95,27.18,17.19l.25,0c-2.07-10.32-4-20.07-6-29.91Z" transform="translate(205.06 137.3)"/>
    </g>
    <g>
      <path class="logo_square-cls-3" d="M363.32,418.4c-9.11-19-19.27-37.42-31.65-55l7.31-4.05a113.79,113.79,0,0,0-36.42-8.81c27,29.48,49.66,55.21,57.88,64.6Q361.93,416.79,363.32,418.4Z" transform="translate(205.06 137.3)"/>
      <path class="logo_square-cls-3" d="M246.3,290.82h0l-.21.06Z" transform="translate(205.06 137.3)"/>
      <path class="logo_square-cls-3" d="M328.62,327l.63-.26c-6.87-13-16.19-22.47-30.24-29l16.32-6.78-.09-.15c-32-7.17-66-.5-68.94.1,8.29,8.47,16.78,17.33,25.21,26.26C296.06,308.54,326,325.4,328.62,327Z" transform="translate(205.06 137.3)"/>
      <path class="logo_square-cls-3" d="M216.27,354.72l.27.21,11.29-11.28c4.12,12.46,14.26,21.9,25.95,28.6-.87-1.64-13.7-27-5.28-72.12-8.85-8.7-17.38-17-25.3-24.75C221.64,279.94,212.89,308,216.27,354.72Z" transform="translate(205.06 137.3)"/>
      <path class="logo_square-cls-3" d="M253.81,372.27l.43.25c2.08-3.6,3.51-6.53,5.41-9.82,4.73,8.2,9,15.17,17.25,19.37-1.28-4-8.07-27.52-2.6-56.42-8.68-8.64-17.32-17.19-25.69-25.41C248.3,307,246.72,348.56,253.81,372.27Z" transform="translate(205.06 137.3)"/>
      <path class="logo_square-cls-3" d="M318.58,331.1l10-4.13c-27.36-11.32-51.63-10.12-56.87-9.69,10.09,10.69,20.09,21.48,29.59,31.84a1.44,1.44,0,0,1,.58.51c18.61-4.14,35.48,8.37,37.16,9.66l.19-.1Z" transform="translate(205.06 137.3)"/>
      <path class="logo_square-cls-3" d="M246.28,290.81c39.38-11.52,64.18-2.3,68.82-.31-7.1-11.82-18.51-17-30.71-22.34,3.9-3.37,7.12-6.36,11-9.71-24.55-1.63-55.85,9.16-67.71,13.68C233.67,278,239.92,284.3,246.28,290.81Z" transform="translate(205.06 137.3)"/>
      <path class="logo_square-cls-3" d="M363.32,418.4l-2.88-3.29c-14.9-16.91-36.57-39.51-59.89-63.13a1.36,1.36,0,0,1-.67-.2l7,38.62c1.16-1.92,4.89-5.11,5.44-6.46l51.44,35.29C363.59,419,363.45,418.68,363.32,418.4Z" transform="translate(205.06 137.3)"/>
      <path class="logo_square-cls-3" d="M299.66,351.61a1.53,1.53,0,0,1-.44-1c-8.12-8.21-16.42-16.53-24.7-24.77,0,7.53.26,44.05,2.48,56.25l.13.07c1.93-4.32,3.57-8.1,5.37-12.13,13.14,11.67,18.53,16.45,24.11,20.79.06-.13.14-.28.23-.44C306.59,389.64,298.14,362.82,299.66,351.61Z" transform="translate(205.06 137.3)"/>
      <path class="logo_square-cls-3" d="M227.19,271.69c37.09-19.28,63.19-14.62,68.36-13.4l.38-.33c-9.9-11.4-22.81-15.62-37.85-18.79l7.4-7.4-.4-.38c-24.5.16-53.93,15.51-53.93,15.51,21.67-18.06,50-16,53.87-15.57-10.36-10.22-23.31-13.87-37.25-17.86l5-5c-5.5-8.5-13.79-10.93-22.09-14.08-1.75-.66-4.43-2-4.47-3.19-.17-5.66,4.5-3.55-8.2-9.26-7.1-3.2-14.56-5.48-21.86-8.19-1.13-3.49-2.72-7.65-5.52-8.76-8.77-3.44-18-5.74-27-8.44-1.51-.45-3.08-.67-5.08-1.09,2.12-4.66,1.49-8.37-3-9.61-7.47-2-15.14-3.38-22.72-5.06a14.65,14.65,0,0,1-4.47-1.37c-2.77-1.67-5.09-4.37-8-5.4-8.06-2.84-16.24-5.55-24.44-8.07l.19-.19c6.22,1.74,12.48,3.39,18.76,4.9,2.54.61,5.4-.23,8.11-.15a12.13,12.13,0,0,1,3.77,1.07c6.11,2.27,12.11,4.82,18.31,6.79,3.76,1.2,5.9-1.13,6.53-5.38,1.6.61,2.8,1.18,4.07,1.55,7.6,2.22,15.14,4.8,22.88,6.36,2.48.51,5.49-1.7,7.87-3.64,6.38,1.41,12.66,3.2,19.12,4.19,11.55,1.76,7.28,1.13,10-2.78.54-.8,3-.53,4.55-.2,7.28,1.56,14.94,3.47,21.88.16l-1.25-5.83c11.69,3.62,23.31,6.86,35.82,4.1-.64-3-1.12-5.21-1.84-8.58,8.6,3.84,17.8,6.35,27.29,5.49a5,5,0,0,1,.29-1.12q2.07-5.17,4.11-10.39L285.6,120l1.49.23c5.67-14.41,11.25-28.86,17-43.26,2.44-6.13,4.63-12.31,6.89-18.5,1.57-4.27,3.28-8.65,6.46-12a18.91,18.91,0,0,1,6.15-4.28c.49-.64,1-1.28,1.51-1.91.24-1.24.49-2.48.74-3.71-5,.79-9.65,3-14.69,5.62.16-3.19.35-5.87.52-9.36-11.43-.68-22.65,1.23-32,8.37-1-4.73-1.86-8.66-2.8-13.09-11.87.7-20.22,7.58-29.94,13.15L245,32.84c-12-.08-20.51,8.79-30.66,15.21-.86-2.72-1.61-5.29-2.48-8C203,39.92,198.21,46.86,192,51.2c-.07-.54-.6-3.16-.67-3.69-2.79.11-5.55,1.45-7.83,2.58-6,3-11.6,6.77-17.38,10.21-1,.61-2.11,1.1-3.42,1.77l-2.9-6c-10.17,3.58-18.72,9.58-26.91,17C132,71,131.41,69.63,130.3,67c-7.29,5-14.06,9.72-21,14.22-1.52,1-1.19-3.25-3-2.64a15.61,15.61,0,0,0-4.66,2.89c-.61-.73-1.09-1.32-1.71-2.08,6.79-2.4,12.87-5.44,18-10.17l-2.54-3.51c.79-.54,1.4-1,2.07-1.41,3.74-2.25,7.64-4.29,11.19-6.81a13.24,13.24,0,0,0,3.89-3.69c-.28-.21-1.62-1.32-1.91-1.52,4.41-2.25,9.87-2.88,12.54-8-1.3-1.35-2.54-2.56-3.84-3.9,6.81-3.84,14.5-6,18.15-12.88l-4.26-3.62C159.47,20,166,17.34,170,10.76L163.4,5.13c7-3.19,11.53-9,14.65-15.78-2.05-1-3.64-1.69-5.51-2.58,4.28-3,7.94-5.65,9.85-10.4L175.57-26c5.77-7.66,8.14-10.81,10.25-14-1-.32-3.18-2.52-4-2.78l16.92-29.53a209.29,209.29,0,0,0-28.95,19.9l-2.61-3.92L152.81-43.94,150-49.55a34.19,34.19,0,0,0-14.46,17.73l-4.4-8.57c-6.27,4.38-8.57,10.87-11,17.82-2.11-2.07-3.78-3.93-5.9-6-5.76,5.89-7.83,13.5-8.39,21.22L101.48-11C96-4.74,94.32,2.91,92.8,10.72l-3-2.51c-4,3-5.29,7.94-6.64,12.59-.28,1-.89,2.47-1.51,2.54-3.07.35-2.12-2.3-4.66,4.86-1.43,4-2.33,8.15-3.49,12.24-1.84.77-4,1.81-4.51,3.39-1.48,4.91-2.33,10-3.4,15.06-.17.84-.22,1.7-.36,2.81-2.63-1-4.62-.44-5.09,2.08-.78,4.16-1.17,8.38-1.75,12.58a7.91,7.91,0,0,1-.54,2.49c-.79,1.58-2.15,3-2.59,4.6-.2.77-.39,1.54-.59,2.31l-.86-.87L52,86.75a46.84,46.84,0,0,0,2.27-4.1c.33-.7-.1-1.76-.5-2.62.9-1.79,1.9-3.53,2.68-5.38,1.39-3.31.88-2.08-.09-3.18-.19-.22.07-.94.28-1.37,1-2,2.15-4.19,1.68-6.5l-1.83-.06c2-3.22,3.79-6.44,3.9-10.37l-2.7-.09c2.27-2.88,4-6.19,3.82-10.08-1.4.06-2.58.17-4,.23,1.37-3.19,2.63-6.2,1.83-9.72l-4.26,1.6a16.14,16.14,0,0,0,.59-10.79l-2.79,1.05c-.34-2.93-.69-5.84-1-8.92L49.69,17A98.82,98.82,0,0,0,45.9.84L42.42,16.53c-.37-.17-1.82-.09-2.29-.3-.28,1.8-.45,3.65-.88,8.16l-3.14-1.33c-.84,2.26-.42,4.36.14,6.76-.94-.28-1.73-.54-2.75-.85a14.31,14.31,0,0,0,.1,10.17L29.49,39c-.68,3.59.75,6.59,1.68,9.9l-2.64-.09c-.92,3.58,1.09,6.77,2.25,10.27l-2.58.14c-.69,2.63,1,4.59,1.84,6.77-.16,0-1-.06-1.15-.07a6.25,6.25,0,0,0,.19,2.52c.44,2,1.15,4,1.74,5.94.11.35.17.71.27,1.15l-2,.42a24.22,24.22,0,0,0,3.07,9.28l-2,.3c.93,2.55,1.84,4.92,2.67,7.31.18.53-1.06.12-1,.7.12,1.39,1.38,2.87,1.71,4.21a5.93,5.93,0,0,1,.13,2.57,3.32,3.32,0,0,0,.07.67C16.87,86-5.7,64.46-16,48.29a89.87,89.87,0,0,0,5,18.55C-8.92,71.94,9.32,90.35,24.4,105c0,.14-.11.24-.28.18-2.4-.82-4.77-1.73-7.31-2.67l-.3,2a24.08,24.08,0,0,0-9.29-3.06l-.42,2c-.44-.1-.8-.17-1.14-.27-2-.6-3.93-1.31-5.94-1.75a6.3,6.3,0,0,0-2.53-.18c0,.16.06,1,.08,1.15-2.19-.83-4.14-2.54-6.77-1.85-.06.89-.09,1.7-.15,2.58-3.5-1.15-6.69-3.16-10.26-2.24,0,1,.06,1.81.09,2.64-3.31-.93-6.32-2.36-9.9-1.68,0,1.38.09,2.62.14,4.1a14.42,14.42,0,0,0-10.17-.1c.32,1,.57,1.81.86,2.75-2.4-.56-4.5-1-6.76-.14l1.32,3.15c-4.51.42-6.36.59-8.16.88.22.47.13,1.92.31,2.28l-15.69,3.48a98.82,98.82,0,0,0,16.15,3.79c-.13.52-.29,1.13-.54,2.16l8.91,1c-.26.71-.6,1.6-1,2.78a16.1,16.1,0,0,0,10.78-.58l-1.59,4.26c3.52.79,6.52-.47,9.71-1.83-.05,1.39-.17,2.57-.22,4,3.89.14,7.2-1.56,10.08-3.82,0,1.06.06,1.75.09,2.69,3.93-.11,7.15-1.94,10.36-3.89,0,.74,0,1.26.06,1.83,2.32.47,4.46-.67,6.51-1.68.43-.21,1.15-.48,1.37-.28,1.1,1-.13,1.47,3.18.08,1.85-.77,3.59-1.78,5.38-2.67.85.4,1.92.83,2.62.5.41-.2.82-.42,1.22-.63l1.77,1.77A12.2,12.2,0,0,0,13,129.17c-2.47,1.6-1.82,1.62-4.45,2.47s-6.41.27-8.87,1.53c-1,.52,1,2.17-.11,2.41-4.89,1.12-9.81,2.07-15.06,3.16.7,1.6,1.06,2.44,1.6,3.7-6.71.43-12.94,1.62-18.79,4.55.53,1.45.93,2.53,1.39,3.8-.84.29-1.52.56-2.21.75-3.94,1.06-8,1.9-11.79,3.27a12.38,12.38,0,0,0-4.44,2.32c.2.26,1.13,1.6,1.33,1.86-4.53.89-9.6.07-13.3,4,.83,1.55,1.64,2.95,2.46,4.48-7.09,1.72-14.54,1.67-19.58,6.95l2.91,4.35c-6.54,1.89-13.07,2.63-18.38,7.51l4.53,6.75c-7.08,1.08-12.65,5.17-17.18,10.44,1.6,1.4,2.85,2.45,4.31,3.73-4.61,1.57-8.58,3.05-11.5,6.83l5.51,3.89c-7.12,5.42-10.06,7.64-12.77,10,.84.55,2.22,3.07,2.89,3.52l-22.71,22.22a194.29,194.29,0,0,0,31.07-10.51c.32,1,.7,2.2,1.35,4.19l16.07-7.55c.29,1.47.66,3.33,1.15,5.77A31.9,31.9,0,0,0-74.1,233.29c.62,3.11,1.16,5.77,1.78,8.82,6.74-2.34,10.46-7.59,14.39-13.22,1.37,2.4,2.4,4.5,3.77,6.9,6.68-3.82,10.47-10.14,12.94-16.93,1.16,1.74,1.93,2.87,3,4.42,6.48-4.29,10-10.73,13.33-17.36l2,3c4.37-1.63,6.77-5.78,9.16-9.62.5-.81,1.43-2,2-1.9,2.84.47,1.32,2.61,5.43-3.18C-4,191-2.14,187.5-.06,184.12c1.85-.22,4.08-.6,4.91-1.9,2.59-4,4.64-8.41,6.88-12.67.38-.71.64-1.47,1-2.43,2.12,1.52,4,1.57,5.1-.57.76-1.54,1.46-3.11,2.14-4.69-.13,1.34-.27,2-1.45,4.63-1.84,4.09-6.74,8.13-7.91,12.52-.49,1.83,3.72,1.21,2.83,2.8C9.47,189,5.22,196.1.75,203.72l6.3,2.12c-6.87,8.69-12.28,17.63-15.14,28l6.18,2.49c-.58,1.34-1,2.47-1.53,3.53-3,6-6.44,11.83-9,18-1,2.36-2.13,5.2-2,8,.53,0,3.18.38,3.72.42-3.9,6.53-10.49,11.82-9.78,20.66,2.8.68,5.4,1.25,8.19,1.93-5.72,10.56-14,19.63-13.08,31.62l8.52,1.23c-4.89,10.08-11.19,18.89-11.07,30.77l13.25,1.9c-6.48,9.86-7.61,21.18-6.14,32.53,3.46-.41,6.12-.78,9.29-1.15-3.15,7.36-5.71,13.86-4.31,21.6C-12,406.54-8.65,405.77-5,405c-1.22,14.69-1.73,20.73-1.84,26.67,1.61-.42,6.22.67,7.5.34l2.17,52.29a322.06,322.06,0,0,0,21.39-49.61l6.6,3c2.93-9.66,5.69-18.79,8.48-28l8.33,5c5.29-11.18,6.94-22.18,4.29-34.92l12.76,7.55C69.2,376.38,66.87,366,64.33,355c4.43,1,8.14,2,12.59,3,2.68-12.38-.86-24-6.46-34.49l8.68,1.25c1.91-12.67-2.13-24-6.54-35.46l5.9.85c2.83-7.15.39-14.66-1.66-21.82-.44-1.51-.87-3.95-.11-4.56,3.71-2.95,4.64,1.26,2.08-10.14-1.42-6.37-3.64-12.51-5.49-18.78,1.77-2.52,3.77-5.67,3.1-8.1-2.09-7.62-5.18-15-7.92-22.4-.46-1.24-1.1-2.4-1.82-3.95,4.19-.92,6.37-3.21,4.92-6.88-2.39-6.05-5.35-11.87-8-17.81A12.83,12.83,0,0,1,62.23,172c-.26-2.7.38-5.61-.4-8.1l-.09-.29a20.88,20.88,0,0,0,3.57,5.77c4,4.14,3.84,2.92,6.48,7.66s3,12.26,6.31,16.51c1.39,1.78,3.81-2.68,4.7-.7,4,9,7.72,18.12,11.8,27.82l6.53-4.49c3.37,12.76,8,24.31,15.91,34.47l6.78-4.12c.88,1.52,1.66,2.71,2.28,4,3.55,7.18,6.7,14.6,10.79,21.46,1.55,2.61,3.44,5.75,6.16,7.67.42-.49,2.64-2.78,3.06-3.26,3.45,8.39,3.78,18.46,12.72,24.1,2.65-2.19,5.14-4.18,7.78-6.35,6,13,8.23,26.85,20.92,35.17l7.25-7.26c6.15,11.81,9.66,23.54,21.29,32.48-1.61-6.31-9.58-42.42,7.09-79.22-27.88-27.14-48.22-46.54-48.22-46.54C184.56,232.12,204.15,249.12,227.19,271.69ZM96.44,85.94a15.12,15.12,0,0,1-2.06,1.35,16.44,16.44,0,0,1-3.5,1.56C92.71,87.87,94.56,86.91,96.44,85.94Z" transform="translate(205.06 137.3)"/>
    </g>
    <g>
      <path class="logo_square-cls-3" d="M136.58,504.25s.06-.6.17-1.66l-.23.27C136.54,503.33,136.55,503.78,136.58,504.25Z" transform="translate(205.06 137.3)"/>
      <path class="logo_square-cls-3" d="M68.9,587l.92.15.25-.28Z" transform="translate(205.06 137.3)"/>
      <path class="logo_square-cls-3" d="M105.11,540s0-.5.12-1.42l-.12.14Z" transform="translate(205.06 137.3)"/>
      <path class="logo_square-cls-3" d="M142.61,500.8l1.49-.05.26-.31Z" transform="translate(205.06 137.3)"/>
      <path class="logo_square-cls-3" d="M226,405.36l.37-.67a351.21,351.21,0,0,0-47.75,34.5c-1.09-1.56-2.37-3.39-4.53-6.46l-.46.42c0,.11-.52,1.11-1.25,2.76-2.59,7.77-6.77,28.83-8.18,36.1C196.64,436.26,221.77,409.82,226,405.36Z" transform="translate(205.06 137.3)"/>
      <path class="logo_square-cls-3" d="M200.79,487.45,201,487c-4.12-1.34-7.71-2.47-11.55-3.72,9.36-13.08,13.19-18.43,16.61-23.93l-.33-.12c-.19.16-.43.34-.71.54-4.37,3.41-22.73,17-46,23.78,0,0,38.48-18.47,46-23.78l.69-.55c-1.85-.81-5.18-4-6.49-4.37l26.71-49.29-81.54,94.87c8.84-1.85,48.5-10.17,55.41-12.5Z" transform="translate(205.06 137.3)"/>
      <path class="logo_square-cls-3" d="M163.73,474.51l.48-2.5c-.32.35-.64.71-1,1.06A9.73,9.73,0,0,0,163.73,474.51Z" transform="translate(205.06 137.3)"/>
      <path class="logo_square-cls-3" d="M163.24,473.07c-2.45-9.3,5.88-29.71,9.15-37.16a10.26,10.26,0,0,1,1.2-2.72l-23.07,21-5-9.29-.59.42-.1.17c-2.46,6.39-7.08,48.22-8.05,57.1C145.91,492.29,154.81,482.37,163.24,473.07Z" transform="translate(205.06 137.3)"/>
      <path class="logo_square-cls-3" d="M272.7,733.8l47.36-7a294.22,294.22,0,0,0-47.17-14.71c.49-1.52,1.08-3.3,2.06-6.29l-26.27-5c.95-2,2.14-4.64,3.71-8a48.07,48.07,0,0,0-32.17-.56c2-4.34,3.69-8.06,5.64-12.33-10.29-3.11-19.48,0-29.25,3.36.45-4.13,1-7.6,1.51-11.74-11.52-1.26-21.73,3.08-30.76,9.18.12-3.15.2-5.21.3-8C156,672.1,146,676.85,136,682c.08-2.19.14-3.74.21-5.45-6.77-1.89-13.38,1-19.69,3.61-1.33.53-3.51,1.16-4.13.53-3-3.09.7-4.34-9.43-.93-5.66,1.91-11,4.52-16.56,6.8-2.46-1.37-5.52-2.89-7.67-2-6.73,2.64-13.11,6.15-19.62,9.35-1.08.54-2.07,1.23-3.41,2-1.24-3.73-3.54-5.49-6.74-3.82-5.27,2.75-10.28,6-15.42,9a11.59,11.59,0,0,1-3.23,1.56c-2.43.5-5.14.19-7.33,1.15l-.26.11a19.52,19.52,0,0,0,4.92-3.8C31.05,696,30,696.29,34,693.44s10.86-3.86,14.41-7.32c1.48-1.44-2.8-3.21-1.09-4.21,7.8-4.51,15.75-8.76,24.18-13.4L66.81,663c11.29-4.3,21.34-9.65,29.83-17.78l-4.39-5.78c1.3-.94,2.31-1.76,3.41-2.45,6.19-3.92,12.64-7.49,18.49-11.86,2.22-1.67,4.9-3.69,6.38-6.34-.48-.34-2.78-2.14-3.26-2.48,7.3-3.94,16.43-5.21,20.71-13.88-2.24-2.2-4.29-4.28-6.52-6.47,11-6.55,23.07-9.92,29.54-21.6-8.09,2.24-63.31,17.1-91.18,12.8L21.05,643.92c22-31.28,52.91-69,84.06-105.17.1-45.73,5.74-67.48,8.06-74.51.37-1.7.7-2.66,1-2.66,0,0-.38.83-1,2.66-2.68,12.49-7.16,65-7.94,74.37,10.51-12.2,21-24.22,31.29-35.75-1.63-35.72,6.4-53.69,8.28-57.37a1.11,1.11,0,0,0,.07-.16A57.2,57.2,0,0,0,122,475.2c-2.72-5-5-9.29-7.73-14.2-10.32,7.59-13.92,18.58-17.69,30.32-3.62-3.39-6.76-6.13-10.38-9.52-.16.16-.3.33-.45.5l3.88,69.8s-7.76-25.85-3.89-69.79c-9,10-11.59,22-13,35.71l-7.44-6a44.89,44.89,0,0,0-5,7.6c1.8,13.18,4.76,33.45,7.44,45.2,2,5.64,3.38,9.29,3.38,9.29-1-.3-2.15-3.9-3.38-9.29-3.4-9.83-8.39-25.73-10.2-39-2.59,7-3.89,14.46-5.27,22.27L47.15,544c-7.21,5.82-8.63,13.59-10.7,21.44-.06.25-.14.52-.23.8l12,35a150.48,150.48,0,0,1-13.67-31.77,1,1,0,0,1-.56.3c-5.13.7-3.66-3.75-7.64,8.35C24.11,584.9,22.75,591.9,21,598.8c-3.06,1.37-6.7,3.21-7.43,5.86-2.3,8.31-3.51,16.9-5.1,25.4-.26,1.41-.31,2.86-.5,4.72-4.44-1.48-7.76-.55-8.45,3.7-1.14,7-1.63,14.1-2.43,21.15a13.51,13.51,0,0,1-.82,4.2c-1.25,2.67-3.49,5-4.14,7.81-1.81,7.61-3.5,15.31-5,23l-.19-.15c1-5.83,1.89-11.68,2.66-17.54.32-2.37-.73-4.89-.91-7.36a11.55,11.55,0,0,1,.61-3.54c1.49-5.77,3.23-11.48,4.43-17.31.73-3.53-1.59-5.25-5.52-5.42.41-1.51.8-2.66,1-3.85,1.29-7.13,2.92-14.23,3.6-21.43.22-2.3-2.08-4.82-4.07-6.81.67-5.94,1.71-11.82,2-17.79.51-10.67.34-6.73-3.48-8.81-.77-.42-.77-2.69-.62-4.12.73-6.77,1.73-13.93-1.94-19.92l-5.18,1.69c2.17-11,4-21.86.29-33l-7.63,2.5c3.39-10.36,4.75-21.37.38-32.1-3.86,1.58-7,3.11-10.88,4.68.56-10.33,1-20-4.8-29.05-3.57,3-6.67,5.71-10.3,8.81a48.09,48.09,0,0,0-9.38-30.78l-6.72,5.78-12.06-23.88L-87.1,439a295,295,0,0,0-27.1-41.31l6.29,47.45c-1.2-.1-5.18,1.62-6.69,1.49,1,5.33,2.44,10.69,5.86,23.74l-10.15-.51c0,7.2,3.29,12.65,7.29,18.79-2.92.16-5.37.25-8.56.42.47,10.47,3.28,20.49,10.68,28.35l-11.64,3.8c1.77,10.73,8.83,17.67,14.83,26l-7.49,2.45c1.08,11,10,17.81,16.78,26.43-2.4,1.05-4.66,2-7.07,3,.76,8.07,7.53,11.8,12.08,17.07-.48.12-2.82.84-3.3,1,.37,2.53,1.86,4.91,3.1,6.88,3.28,5.18,7.27,9.91,11,14.83.65.87,1.2,1.82,1.94,2.94L-84.48,625c4.23,8.91,10.51,16.11,18.07,22.85l-5.34,2.9c5.22,6.16,10.18,11.87,14.94,17.74,1.05,1.29-2.84,1.39-2.11,3a14.07,14.07,0,0,0,3.07,4l-1.73,1.75c-2.83-5.95-6.18-11.18-11-15.44l-3,2.65c-.57-.66-1.06-1.18-1.48-1.74-2.41-3.2-4.63-6.55-7.27-9.54A12.15,12.15,0,0,0-84,649.91c-.16.27-1,1.6-1.2,1.88-2.46-3.8-3.55-8.7-8.46-10.65-1.1,1.32-2.08,2.56-3.17,3.87-4.15-5.83-6.82-12.62-13.45-15.28l-2.89,4.22c-4.1-5.25-7.15-10.92-13.52-14l-4.49,6.58c-3.57-6-9.31-9.62-15.76-11.82-.69,2-1.19,3.47-1.82,5.26-3.1-3.61-5.9-6.68-10.4-8-.55,2.29-1,4.28-1.53,6.43-7.52-4.51-10.61-6.37-13.75-8-.2,1-2,3.14-2.15,3.91l-28.48-12.56a191.77,191.77,0,0,0,20.87,24.43c-.81.66-1.74,1.44-3.32,2.75l12.71,11.87-4.82,3.14a31.21,31.21,0,0,0,17.5,11.45l-7.37,4.83c4.58,5.28,10.71,6.75,17.26,8.28-1.68,2.12-3.21,3.82-4.9,5.94,5.91,4.68,13,5.83,20.11,5.6l-2.95,4.31c6.27,4.34,13.39,5.17,20.64,5.81l-2,2.93c3.08,3.39,7.73,4.06,12.09,4.84.91.16,2.33.57,2.46,1.13.6,2.76-1.89,2.15,4.86,3.78,3.78.91,7.64,1.34,11.47,2,.88,1.6,2,3.5,3.51,3.78,4.62.88,9.34,1.15,14,1.64.78.09,1.57,0,2.59.07-.61,2.48,0,4.24,2.38,4.43,3.86.31,7.74.26,11.61.38a7.73,7.73,0,0,1,2.32.26c1.51.57,2.89,1.68,4.43,1.91l2.16.32-.71.87,1.87,1.52a41.33,41.33,0,0,0-4-1.67c-.67-.24-1.59.26-2.33.7-1.72-.64-3.39-1.39-5.15-1.92-3.14-.94-2-.6-2.88.38-.19.2-.86,0-1.28-.12-2-.72-4-1.55-6.07-.91,0,.53.07,1,.11,1.67-3.11-1.46-6.21-2.82-9.79-2.55,0,.87.1,1.5.17,2.46-2.84-1.78-6-3-9.53-2.51.18,1.27.39,2.33.58,3.59-3-.93-5.89-1.79-9-.73l1.85,3.72a14.76,14.76,0,0,0-9.87.5l1.22,2.43-8,1.81.7,1.91a90.57,90.57,0,0,0-14.33,5l14.61,1.67c-.12.35.09,1.66-.06,2.1,1.66.09,3.37.07,7.51,0-.3,1-.59,1.91-.91,3,2.14.55,4,0,6.14-.77-.17.88-.33,1.62-.51,2.58a13.13,13.13,0,0,0,9.23-1.06c.1,1.35.18,2.48.27,3.75,3.33.27,5.92-1.31,8.84-2.48.06.76.11,1.47.17,2.41,3.34.5,6.05-1.64,9.13-3,.13.79.24,1.53.37,2.33,2.47.38,4.08-1.36,6-2.32,0,.15,0,.9,0,1.05a5.77,5.77,0,0,0,2.28-.41c1.79-.59,3.49-1.43,5.23-2.16.31-.12.63-.22,1-.35l.58,1.78a22.12,22.12,0,0,0,8.15-3.68c.16.61.26,1,.46,1.81,2.23-1.1,4.3-2.15,6.4-3.13.46-.21.21.95.73.85,1.25-.24,2.48-1.53,3.67-2a5.32,5.32,0,0,1,2.32-.36,3.94,3.94,0,0,0,.61-.13c-12,16.76-29.45,39.35-43.18,50.26a82.46,82.46,0,0,0,16.39-6.32c4.45-2.38,19.45-20.73,31.36-35.86.14,0,.23.08.19.24-.52,2.26-1.12,4.5-1.72,6.91l1.86.08a22,22,0,0,0-1.9,8.74l1.86.19c-.05.41-.07.74-.14,1.07-.35,1.85-.81,3.69-1,5.56a5.87,5.87,0,0,0,.08,2.32l1-.18c-.55,2.07-1.91,4-1,6.34l2.36-.12c-.72,3.3-2.24,6.39-1.06,9.55l2.39-.33c-.53,3.1-1.54,6-.58,9.17l3.72-.53a13.13,13.13,0,0,0,.88,9.26l2.42-1c-.28,2.24-.46,4.19.52,6.17l2.74-1.51c.81,4.06,1.14,5.73,1.58,7.34.4-.24,1.73-.3,2.05-.5l4.66,13.94a89.38,89.38,0,0,0,1.9-15.05l2,.28c0-2.83.07-5.51.1-8.21l2.63.69A14.76,14.76,0,0,0-1,794.06l4,1c.39-3.27-1-5.88-2.6-8.66,1.28-.08,2.36-.09,3.63-.17-.24-3.55-2.1-6.41-4.43-8.81l2.44-.34c-.48-3.56-2.45-6.32-4.53-9l1.66-.23c.2-2.15-1-4-2.16-5.76-.23-.37-.54-1-.38-1.22.77-1.09,1.35,0-.23-2.9-.88-1.61-2-3.09-2.95-4.64.28-.82.58-1.82.21-2.43-.22-.36-.46-.7-.69-1l1.44-1.78a11.3,11.3,0,0,0,1.62,3.46c1.7,2.09,1.66,1.5,2.68,3.82s.86,5.8,2.23,7.92c.58.88,1.89-1.09,2.21-.14,1.49,4.34,2.83,8.73,4.31,13.41l3.22-1.82c1,6.06,2.71,11.62,5.94,16.66L20,789.74c.34.74.65,1.33.89,2,1.35,3.48,2.5,7,4.1,10.41a11.46,11.46,0,0,0,2.54,3.81c.22-.21,1.35-1.18,1.56-1.38,1.25,4,1,8.72,4.89,11.71,1.33-.9,2.53-1.77,3.84-2.66,2.24,6.28,2.91,13.06,8.2,17.14l3.67-3.06c2.35,5.77,3.64,11.64,8.59,16L64,838.9c1.66,6.34,5.91,11,11.15,14.62,1.12-1.58,2-2.82,3-4.27,1.87,4,3.6,7.51,7.32,9.81,1.08-1.92,2-3.59,3-5.39,5.61,6,7.92,8.42,10.33,10.67.42-.82,2.58-2.32,2.92-3l22.39,18.53a177.5,177.5,0,0,0-12.53-27.26L115.2,851l-8.4-13.9,5.13-1.6a29.2,29.2,0,0,0-12.81-14.74l7.85-2.47c-2.77-5.9-7.91-8.78-13.4-11.82,2.05-1.48,3.86-2.62,5.91-4.09-4.12-5.71-10.22-8.56-16.64-10.15l3.74-3.12c-4.52-5.49-10.71-8-17.07-10.47l2.54-2.12c-1.9-3.83-5.9-5.61-9.62-7.42-.78-.38-2-1.11-1.92-1.65.16-2.63,2.24-1.45-3.41-4.63-3.17-1.78-6.53-3.14-9.8-4.71-.38-1.67-.94-3.66-2.19-4.29-3.92-2-8.1-3.42-12.19-5.05-.68-.27-1.4-.44-2.31-.71,1.18-2.08,1-3.83-1-4.59-1.47-.55-3-1-4.47-1.5a11.14,11.14,0,0,1,4.35.88c3.9,1.27,8,5.35,12.15,6,1.71.27.74-3.5,2.27-2.84,7,3,13.8,6.16,21.16,9.49.57-2.57.87-3.92,1.32-5.93,8.56,5.42,17.21,9.48,26.94,11.09.64-2.23,1.11-3.9,1.67-5.85,1.28.39,2.34.66,3.36,1,5.74,2.18,11.38,4.72,17.26,6.45,2.24.66,4.94,1.44,7.47,1.1,0-.5,0-2.94,0-3.44,6.32,2.93,11.76,8.42,19.73,6.93.36-2.61.62-5,1-7.63,10.16,4.18,19.2,10.84,30,8.87.11-3.09.2-5.4.3-7.87,9.63,3.48,18.25,8.37,29.05,7.13.15-4.14.29-7.82.46-12.24,9.59,5,20,4.9,30.18,2.48-.7-3.12-1.29-5.5-1.94-8.35,7,2.16,13.16,3.87,20.07,1.85-1.17-3.44-2.19-6.42-3.27-9.62,13.48-.3,19-.41,24.42-.88C272.57,739.22,273.13,734.93,272.7,733.8ZM137.44,602.54s-61.08,11.77-90.68,12.35ZM-15.45,716.88l-.12-.2.13.1S-15.45,716.85-15.45,716.88Zm-35.8-37.14a13.31,13.31,0,0,1,1.43,1.74,14.85,14.85,0,0,1,1.75,3Q-49.66,682.16-51.25,679.74Z" transform="translate(205.06 137.3)"/>
      <path class="logo_square-cls-3" d="M161.45,573.58l-7.29-5.91c10.3-6.81,20.79-11.14,27.81-22.93l-11.35-9.19c11.09-5,18.76-15.33,23.74-26.79l-.69-.3c-5.52,2.62-44,20.46-74.77,21.66,0,0,63.31-17.27,74.7-21.69-3.13-1.37-5.75-2.34-8.69-3.66,6.92-5,12.79-9.54,15.86-17.27a3.51,3.51,0,0,1-1,.44,151.34,151.34,0,0,1-55.67,12.81l-74,86.14c8.19-.95,57.83-6.77,91-12.64C161.19,574,161.33,573.81,161.45,573.58ZM99.29,553.4s66.6-5.18,82.12-9.06C181.41,544.34,150.37,556,99.29,553.4Z" transform="translate(205.06 137.3)"/>
    </g>
    <g>
      <path class="logo_square-cls-3" d="M538.34,397.35l-.11,0h0Z" transform="translate(205.06 137.3)"/>
      <path class="logo_square-cls-3" d="M586.62,371.48l-1.3-.59-.48.27Z" transform="translate(205.06 137.3)"/>
      <path class="logo_square-cls-3" d="M485.52,431.44a1.14,1.14,0,0,1-.23.15c4.31,28.68-19.37,52-19.37,52,13.86-19.2,17.76-43.65,18.7-51.64-7.6,3.93-15.15,7.82-22.56,11.62-6,18.9-27.39,37.46-32.52,41.7-.22.19-.43.35-.64.51l0,0,0,.13,35.26-14.3c.46,3.18,1,7.2,1.79,12.48,15.64-3.78,28.12-11.1,38.85-24.21.95,6.44,1.76,12,2.68,18.25,17.13-24.22,18.65-60.56,18.78-68.16C512.92,417.13,499.16,424.37,485.52,431.44Z" transform="translate(205.06 137.3)"/>
      <path class="logo_square-cls-3" d="M461.32,443.91c-48.95,25-91.74,45.94-100.92,50.4l-1.6,1.42c22.87-4.57,45.43-10.43,67.7-18.92.57,2.18,1.24,4.73,2.36,9l0,0,.64-.51C438.9,477.19,456.66,450.91,461.32,443.91Z" transform="translate(205.06 137.3)"/>
      <path class="logo_square-cls-3" d="M506.94,343.06c-14.14,3.33-27.48,3.88-40.05,13.76,9.54,0,87.53.48,118.43,14.07,28.27-16,43-24.63,44.67-25.6L501.3,333.59Z" transform="translate(205.06 137.3)"/>
      <path class="logo_square-cls-3" d="M466.33,357.26l8.91,15c-14.48,1-27.34,9.42-37.64,20.19l.5.48c6.17-1.27,56.53-10.89,100.13,4.41q27.45-15.29,46.61-26.15c-11.33-2-74.57-13-118-14.31Z" transform="translate(205.06 137.3)"/>
      <path class="logo_square-cls-3" d="M630,345.29h.09l.08-.12Z" transform="translate(205.06 137.3)"/>
      <path class="logo_square-cls-3" d="M910,417.14l4.85-1.71-9.33-18.53,6.7-1.53a37.28,37.28,0,0,0-14.88-20.05L907.55,373c-3-7.8-9.21-12-15.91-16.4,2.75-1.67,5.17-2.95,7.94-4.63-4.69-7.67-12.18-11.9-20.21-14.57l5.08-3.61c-5.22-7.44-12.86-11.31-20.71-15l3.45-2.45c-2.05-5.06-7-7.73-11.54-10.4-1-.56-2.38-1.61-2.28-2.29.46-3.34,3-1.62-3.89-6.23-3.85-2.59-8-4.66-12-7-.32-2.15-.84-4.75-2.38-5.68-4.8-2.89-10-5.15-15-7.63-.84-.42-1.74-.7-2.87-1.14,1.71-2.53,1.71-4.77-.83-5.95-4.19-1.94-8.56-3.49-12.84-5.22a8.88,8.88,0,0,1-2.5-1.25c-1.45-1.25-2.54-3.07-4.16-4l-2.29-1.24,1.15-.68-1.47-2.48c1.21,1.22,2.42,2.42,3.73,3.5.66.55,1.89.37,2.91.18,1.65,1.43,3.22,2.95,5,4.27,3.13,2.36,2,1.49,3.39.77.28-.15,1,.32,1.37.66,1.9,1.62,3.86,3.4,6.43,3.53.18-.61.33-1.15.56-1.92,2.88,2.92,5.79,5.72,9.92,6.9.29-1,.5-1.72.82-2.83,2.44,3.17,5.49,5.85,9.64,6.75.32-1.5.51-2.78.83-4.26,3,2.3,5.85,4.44,9.78,4.54-.18-1.71-.35-3.2-.54-4.94a17.6,17.6,0,0,0,11.26,3.52c-.16-1.37-.27-2.4-.37-3.23l9.72,1.28c0-1.15,0-1.83,0-2.42a108.56,108.56,0,0,0,18.1.33l-15.66-7.9c.28-.34.58-1.9.93-2.33-1.83-.79-3.74-1.47-8.4-3.13.75-1,1.45-1.9,2.25-3-2.17-1.5-4.5-1.61-7.19-1.67.55-.91,1-1.67,1.64-2.68-3.26-2-6.88-3.23-10.78-2.62.45-1.55.82-2.85,1.25-4.31-3.61-1.67-7.17-1-10.92-.87.25-.87.48-1.69.8-2.77-3.54-1.94-7.45-.67-11.47-.38.18-.95.37-1.82.55-2.77-2.6-1.44-5.13-.16-7.66.13.06-.17.32-1,.39-1.19a6.85,6.85,0,0,0-2.73-.48c-2.24-.08-4.5.15-6.75.25-.39,0-.79,0-1.28,0,0-.74,0-1.38.09-2.22a26.22,26.22,0,0,0-10.65.75c.08-.76.13-1.26.23-2.22-2.95.31-5.7.63-8.46.86-.6,0,.17-1.15-.46-1.25-1.5-.25-3.41.69-4.92.68a6.42,6.42,0,0,1-2.75-.56,4.77,4.77,0,0,0-.73-.1c20.38-13.8,49.22-31.9,69.09-38.45a97.74,97.74,0,0,0-21,.31c-6,.83-30.33,15.19-49.91,27.2-.15-.08-.23-.18-.12-.34,1.52-2.32,3.11-4.58,4.78-7l-2.05-.86a26.27,26.27,0,0,0,5.73-9l-2-1c.22-.44.39-.81.59-1.15,1.16-1.93,2.44-3.8,3.44-5.81a6.83,6.83,0,0,0,.88-2.62c-.18,0-1.06-.21-1.24-.23,1.46-2.09,3.79-3.7,3.77-6.67-.92-.3-1.78-.55-2.69-.85,2.16-3.39,5.14-6.22,5.13-10.25l-2.82-.62c1.88-3.25,4.19-6,4.44-10l-4.39-1c2.41-3.14,3.06-6.9,2.84-10.73l-3.14.16c1.24-2.38,2.25-4.49,2-7.11l-3.68.56c.76-4.89,1.08-6.89,1.26-8.87-.55.1-2.07-.38-2.5-.3l.53-17.53a106.7,106.7,0,0,0-8.34,16.07l-2.14-1.15c-1.21,3.16-2.35,6.14-3.51,9.15l-2.66-1.85a17.54,17.54,0,0,0-2.27,11.57L770,150.81c-1.78,3.51-1.25,7-.67,10.76-1.46-.43-2.67-.86-4.13-1.3-1.2,4.08-.29,8,1.33,11.69l-2.87-.62c-.94,4.19.13,8.08,1.33,12l-1.95-.43c-1.12,2.32-.49,4.89,0,7.33.11.52.19,1.35-.07,1.53-1.31.9-1.52-.53-.94,3.34.32,2.17.92,4.27,1.38,6.41-.65.8-1.39,1.8-1.23,2.64.1.49.22,1,.34,1.46l-2.35,1.4a13.33,13.33,0,0,0-.39-4.55c-1-3-1.23-2.37-1.42-5.38s1.44-6.85.77-9.79c-.28-1.22-2.56.45-2.53-.76.13-5.47.44-10.94.71-16.78l-4.35.7c1.34-7.21,1.75-14.13.22-21.1l-4.39.44c-.08-1-.18-1.75-.19-2.54-.07-4.45.11-8.93-.3-13.35a13.42,13.42,0,0,0-1.27-5.31c-.33.14-2,.76-2.32.9.27-5,2.51-10.17-.64-15.13-1.85.46-3.55.93-5.39,1.39.08-8,2.13-15.83-2.1-22.58l-5.38,1.91c-.24-7.42.73-14.53-3-21.46l-8.36,3c.76-7.78-2.08-14.77-6.44-21-1.91,1.32-3.35,2.35-5.1,3.56-.42-5.3-.93-9.9-4.14-14L698.61,50c-3.82-9-5.39-12.69-7.15-16.2-.82.75-3.86,1.52-4.51,2.12l-17.42-30a213.14,213.14,0,0,0,2.78,35.69l-4.79.3c1.27,6.57,2.47,12.77,3.67,19l-6.41-.33a34.85,34.85,0,0,0,8.27,21.79l-9.81-.48c.67,7.76,5.23,13.11,10.12,18.78-2.9.8-5.4,1.33-8.31,2.14,2.26,8.08,7.92,13.79,14.44,18.23L674,123c2.8,8,8.67,13.43,14.79,18.77l-3.73,1.32c.55,5.07,4.3,8.72,7.72,12.28.72.75,1.72,2.05,1.47,2.64-1.26,2.88-3.11.7,1.91,6.59,2.8,3.3,6,6.21,9,9.32-.26,2-.46,4.48.69,5.71,3.58,3.82,7.65,7.17,11.56,10.68.65.59,1.39,1.07,2.29,1.76-2.18,1.83-2.75,3.85-.76,5.55,1.42,1.22,2.89,2.38,4.38,3.52-1.38-.5-2-.82-4.51-2.77-3.84-3-6.79-9.32-11.12-11.73-1.81-1-2.28,3.61-3.72,2.24-6.56-6.19-12.91-12.59-19.77-19.36l-3.93,6.1C673,166,665,157.91,654.73,152.09c-1.64,2.23-2.86,3.9-4.29,5.86-1.27-1-2.35-1.71-3.33-2.56-5.53-4.82-10.79-10-16.66-14.35-2.24-1.66-4.94-3.65-7.91-4.31-.18.56-1.26,3.27-1.44,3.83-5.87-5.88-9.7-14.27-19.23-15.9-1.48,2.78-2.78,5.39-4.24,8.15-9.65-8.88-17-20.06-30-22.33-1.4,3.41-2.45,6-3.58,8.69-9.35-7.88-17-16.9-29.58-20-1.89,4.57-3.56,8.62-5.57,13.51-8.69-9.51-20.37-13.74-32.78-15.24-.49,3.78-.81,6.69-1.27,10.15-6.94-5.31-13.13-9.77-21.7-10.36-.12,4.33-.2,8.09-.31,12.13-15.21-5.24-21.47-7.4-27.72-9.1,0,1.81-2.38,6.39-2.37,7.84L386.88,96.39a351.76,351.76,0,0,0,46.75,35.94c-1.19,1.5-2.57,3.25-4.91,6.19L456.05,155l-7.48,7.48c10.4,8.6,21.6,13.3,35.8,13.91-4,4-7.47,7.5-11.41,11.48,10.23,7.72,21.8,8,34.14,8.3-2.22,4.44-4.32,8.08-6.54,12.53,12.38,6.16,25.6,5.52,38.23,2.42-1.44,3.48-2.37,5.75-3.65,8.86,12.89,5.41,26,4.19,39.27,2.59l-2.48,6c6.8,4.91,15.41,4.35,23.53,4.09,1.71-.05,4.41.15,4.85,1.11,2.13,4.72-2.58,4.57,10.17,4.93,7.13.2,14.22-.5,21.35-.77,2.18,2.55,5,5.51,7.74,5.45,8.62-.17,17.22-1.47,25.82-2.37,1.43-.15,2.84-.52,4.67-.87-.15,4.69,1.69,7.61,6,7.06,7-.91,14-2.48,21-3.72a13.54,13.54,0,0,1,4.26-.42c2.93.44,5.84,1.91,8.68,1.75l.33,0a22.84,22.84,0,0,0-7.07,2.22c-5.45,3.15-4.11,3.29-9.84,4.8s-13.76-.16-19.16,2.25c-2.25,1,1.81,4.75-.52,5.16-10.59,1.83-21.24,3.31-32.61,5l3,8.11c-14.41.15-27.88,2-40.74,7.59,1,3.15,1.68,5.51,2.53,8.28-1.84.52-3.31,1-4.83,1.34-8.55,1.83-17.24,3.17-25.6,5.65-3.17.94-7,2.1-9.76,4.46.4.58,2.23,3.54,2.63,4.12-9.8,1.39-20.55-.95-28.91,7,1.59,3.39,3,6.56,4.62,9.93-15.36,2.86-30.62,1.5-42.82,12.7l.05.09c7-.24,102-3.24,141.83,13l-13-1.18c-6,8.83-36.42,27.56-74.83,48.88,14.06,31.58-7.86,72.57-7.86,72.57,13.34-41,9.59-64.43,7.47-72.35-9,5-18.45,10.14-28.12,15.32a1.22,1.22,0,0,1-.19.12c7.3,32.93-16.87,65.45-19.07,68.32l.12.82c14.69-4.25,23.26-15.06,32.32-26.64,2.66,5.28,5,9.64,7.7,14.94,14.72-7.41,22.65-19.94,30-35,2.3,3.85,3.8,6.37,5.84,9.81,14-8.21,21.41-21.11,29.49-35,1.6,2.67,2.73,4.58,4,6.67,10.48-3.54,15.27-11.67,20.83-19.6,1.17-1.67,3.35-4.14,4.58-3.87,6,1.34,2.55,5.71,12-6.19,5.28-6.66,9.7-13.94,14.53-20.93,4-.27,8.83-.83,10.74-3.5,6-8.34,10.91-17.47,16.2-26.33.88-1.47,1.53-3.08,2.51-5.08,4.36,3.5,8.46,3.83,11-.64,4.17-7.37,7.64-15.12,11.45-22.69a16.25,16.25,0,0,1,2.65-4.36c2.51-2.48,6-4.21,7.87-7,5.16-7.77,10.23-15.69,15.1-23.69l.15.25q-5.28,9.18-10.22,18.54c-1.33,2.52-1.21,5.78-2,8.62a13.73,13.73,0,0,1-2.15,3.7c-4,5.85-8.35,11.52-12.1,17.55-2.27,3.66-.38,6.54,3.94,8.36-1.07,1.52-2,2.64-2.72,3.88-4.4,7.45-9.15,14.74-12.88,22.51-1.2,2.48.33,6.26,1.74,9.3-3.2,6.38-6.79,12.53-9.56,19.1-5,11.75-3.15,7.4.26,11.31.69.79-.25,3.33-1,4.87-3.61,7.28-7.69,14.88-6.05,23.1l6.51.25c-7,11.4-13.52,22.82-13.95,36.8l9.57.36c-8.06,10.19-14.13,22-13.68,35.78,5-.18,9.16-.58,14.12-.75-4.89,11.33-9.4,22-6.62,34.51l15.18-5.62c-5.34,13.17-5.71,25.31-2.21,38.34l9.91-3.69c1.2,10.42,2.39,20.76,3.64,31.71l7.68-1.9a351.37,351.37,0,0,0,13.28,57.45l12.54-55.73c1.31.61,6.47.33,8.12,1.09,1-6.39,1.67-13,3.23-29l11.16,4.75c3-8,1.54-15.51-.41-24,3.33,1,6.11,1.94,9.76,3.06,3.79-11.91,4.78-24.29-.26-36.14l14.61.54c2.44-12.74-2.6-23.42-5.88-35.21l9.39.35c3.31-12.7-3.8-24.06-7.88-36.52,3.12-.18,6-.28,9.17-.47,2.49-9.35-3.56-16.32-6.47-24.1.58.07,3.5.22,4.08.28.63-3,0-6.26-.63-9-1.54-7.15-4-14.09-6.14-21.12-.37-1.24-.59-2.53-1-4.09l7.12-1.47c-1-11.72-5.11-22.37-10.79-33l7.17-1c-3.3-9.05-6.49-17.49-9.4-26-.64-1.88,3.76-.39,3.59-2.45a16.75,16.75,0,0,0-1.81-5.71l2.66-1.24c.72,7.82,2.31,15.07,5.92,21.81l4.4-1.74c.36,1,.7,1.75.94,2.56,1.37,4.57,2.48,9.23,4.2,13.67a14.5,14.5,0,0,0,2.86,5.11c.29-.25,1.83-1.37,2.12-1.61,1.19,5.27.39,11.21,5.08,15.41,1.77-1,3.39-2,5.15-3,2.23,8.23,2.42,16.94,8.75,22.66,2-1.39,3.42-2.42,5-3.54,2.42,7.58,3.49,15.19,9.37,21.24l7.74-5.51c1.49,8.24,6.45,14.61,12.76,19.74,1.58-1.91,2.77-3.4,4.21-5.15,2,5.33,3.85,9.93,8.36,13.22l4.37-6.57c6.56,8.15,9.25,11.51,12.1,14.61.62-1,3.52-2.69,4-3.49l26.7,25.82A228.69,228.69,0,0,0,910,417.14ZM782.3,299.84a17.74,17.74,0,0,1-.71-4.11q.81,3.28,1.59,6.66A16.44,16.44,0,0,1,782.3,299.84Z" transform="translate(205.06 137.3)"/>
      <path class="logo_square-cls-3" d="M758.43,246c0,.1,0,.2.05.29l-.1-.17Z" transform="translate(205.06 137.3)"/>
      <path class="logo_square-cls-3" d="M438.14,392.94c3,2.91,5.59,5.11,8.4,7.85-9.81,2.77-18.24,5.4-24.86,12.77l.2,0a255,255,0,0,1,82,1.92s-66.37-4.07-82-1.92l-.21,0c-.14.16-.3.32-.44.49,4,3.2,7.61,5.95,11.39,8.94-15.87,10.77-22.38,15.18-28.47,19.93a2.73,2.73,0,0,1,.33.28l1.18-.42c7.56-2.77,37.57-12.84,63.71-8.36,0,0-49.16,3.54-63.71,8.36l-1.16.44c1.73,1.68,4.14,6.6,5.44,7.56l-49.27,43.3c75.15-40.24,134.15-72.61,177.54-96.76C535.34,396.76,483.26,386.85,438.14,392.94Z" transform="translate(205.06 137.3)"/>
    </g>
    <g>
      <path class="logo_square-cls-3" d="M320.1,561l-4.88-5.83-.86.93-7.83,44.91,54.75-75.77A335.42,335.42,0,0,0,320.1,561Z" transform="translate(205.06 137.3)"/>
      <path class="logo_square-cls-3" d="M312.46,597.37l.41-.1.15-.21Z" transform="translate(205.06 137.3)"/>
      <path class="logo_square-cls-3" d="M306.53,601.05l-.09.12c0,.17,0,.34,0,.51Z" transform="translate(205.06 137.3)"/>
      <path class="logo_square-cls-3" d="M341.15,574.37l21.92-50.43-1.56,1.17C357,532,337.08,562.37,313,597.06l35-19C346.23,577.67,342.5,574.64,341.15,574.37Z" transform="translate(205.06 137.3)"/>
      <path class="logo_square-cls-3" d="M435,836.09l44.89-10.65a283.69,283.69,0,0,0-46.52-10.19c.35-1.5.76-3.26,1.46-6.22l-25.65-2.65,2.9-8a46.29,46.29,0,0,0-30.94,2.14c1.54-4.34,2.87-8,4.39-12.31-10.14-2.13-18.71,1.61-27.81,5.66.09-4,.38-7.38.47-11.4-11.16-.24-20.61,4.77-28.77,11.38-.15-3-.24-5-.38-7.73-11.28.48-20.44,5.87-29.59,11.61-.1-2.11-.18-3.61-.26-5.25-6.65-1.25-12.75,2.12-18.6,5.1-1.23.63-3.28,1.41-3.92.85-3.19-2.71.31-4.22-9.13-.1-5.28,2.3-10.22,5.25-15.34,7.9-2.47-1.11-5.54-2.31-7.53-1.32-6.24,3.09-12.08,7-18.06,10.61-1,.6-1.89,1.36-3.11,2.24-1.5-3.48-3.85-5-6.79-3.1-4.83,3.08-9.37,6.61-14.06,9.93a10.92,10.92,0,0,1-3,1.77c-2.28.68-4.92.61-6.94,1.71l-.24.13a18.67,18.67,0,0,0,4.41-4.06c2.9-4.18,1.88-3.82,5.54-6.89s10.11-4.62,13.23-8.23c1.3-1.51-3-2.85-1.39-4,7.11-5,14.38-9.73,22.1-14.89l-5-4.89c10.48-5.06,19.7-11,27.17-19.55l-4.7-5.18c1.17-1,2.07-1.89,3.07-2.65,5.62-4.27,11.51-8.24,16.76-12.92,2-1.79,4.4-4,5.6-6.62-.49-.29-2.84-1.82-3.33-2.11,6.68-4.39,15.34-6.37,18.73-15.05-2.34-1.93-4.48-3.75-6.8-5.67,10.25-7.37,21.86-11.62,26.93-24l-7.49-5.06c9.32-7.4,19-12.43,24.79-24.34l-11.66-7.88c10.23-5.73,16.74-16.29,20.56-27.7-3.46-1.2-6.24-1.94-9.41-3,6.2-5.38,11.44-10.19,13.76-17.8-4.12,5.41-46.26,16.25-46.26,16.25,22.29-7.43,44.56-16,46.42-16.76a.31.31,0,0,0,0-.08c-4.06-1-7.61-1.73-11.39-2.62,7.89-13.33,11.13-18.79,13.95-24.35l0,0c-2.13,1.58-22.48,16.47-35.17,19.16-26.09,37.61-57,80.25-78.44,103.55l72-99.65A173.46,173.46,0,0,1,314,556.53l-19.63,21.25c-1.43-2.16-3.23-4.9-5.6-8.5l-.13.11c-6.4,25.84-10.23,62.89-10.23,62.89-2.38-30.93,8.37-58.56,10.1-62.79-10,8.1-16.5,17.69-19.81,30.84l-8.47-12.78-7.68,53.79c-1.21-22.85,6.53-50.16,7.62-53.88l-.08-.12c-9.27,8.16-11.82,19-14.46,30.59-3.75-2.95-7-5.32-10.76-8.28-8.21,10.48-9.7,22.36-9.93,35.91l-7.64-5.17c-7.4,10.81-8.38,22.79-9.52,35.72l-5.19-3.51c-6.44,6.19-7.15,13.77-8.49,21.48-.28,1.62-1,4.18-2,4.4-4.87,1.1-3.83-3.29-6.64,8.66-1.57,6.68-2.3,13.52-3.43,20.29-2.82,1.57-6.16,3.64-6.65,6.25-1.51,8.16-2,16.52-2.77,24.81-.14,1.38-.07,2.78-.1,4.57-4.38-1-7.49.12-7.8,4.26-.52,6.81-.39,13.67-.57,20.51a13.21,13.21,0,0,1-.44,4.1c-1,2.67-2.93,5.13-3.33,7.85-1.1,7.45-2.08,15-2.89,22.51l-.19-.13c.46-5.69.84-11.38,1.09-17.07.11-2.3-1.11-4.63-1.49-7a11,11,0,0,1,.3-3.45c.94-5.66,2.14-11.29,2.81-17,.4-3.46-2-4.92-5.76-4.75.27-1.49.55-2.62.66-3.78.65-7,1.62-13.91,1.67-20.88,0-2.22-2.39-4.46-4.47-6.2.15-5.76.65-11.49.42-17.25-.41-10.29-.24-6.49-4.07-8.17-.79-.34-1-2.52-.94-3.9.13-6.56.5-13.52-3.53-19l-4.84,2.06c1.18-10.73,2-21.33-2.46-31.69l-7.12,3c2.39-10.22,2.78-20.91-2.3-30.85-3.58,1.83-6.5,3.57-10.06,5.39a93.9,93.9,0,0,0-1.1-13.52,32.08,32.08,0,0,1-12.79,2.86c-8.4.4-16.76-1.48-25.14-1.8C68,628.86,57.92,628.7,47.82,628c-1.74-.12-3.79-.18-6-.31,1.13,1.65,2.38,3.28,3.71,5-2.79.4-5.14.69-8.19,1.12,1.33,10,4.86,19.4,12.62,26.33L39.1,664.75c2.6,10.15,10,16.23,16.41,23.71l-7,3c1.95,10.42,11,16.27,18.31,24-2.22,1.21-4.31,2.28-6.54,3.5,1.4,7.69,8.22,10.7,13,15.38-.45.16-2.63,1.05-3.08,1.2.56,2.4,2.19,4.56,3.55,6.35,3.58,4.7,7.8,8.9,11.75,13.32.69.79,1.3,1.65,2.1,2.67l-4.7,3.52c4.8,8.2,11.43,14.59,19.25,20.44L97.3,785c5.53,5.48,10.77,10.54,15.83,15.78,1.11,1.15-2.62,1.58-1.79,3a13.85,13.85,0,0,0,3.29,3.55l-1.52,1.82c-3.21-5.47-6.87-10.22-11.83-13.9l-2.61,2.78c-.6-.59-1.11-1-1.57-1.55-2.57-2.87-5-5.89-7.77-8.55a11.68,11.68,0,0,0-3.85-2.74c-.13.27-.86,1.62-1,1.9-2.68-3.44-4.14-8.06-9-9.52-1,1.36-1.79,2.63-2.73,4-4.46-5.25-7.59-11.54-14.19-13.55l-2.42,4.3c-4.37-4.71-7.77-9.9-14.15-12.3l-3.76,6.68c-3.92-5.5-9.74-8.46-16.11-10-.5,1.94-.85,3.44-1.31,5.21-3.28-3.22-6.22-5.93-10.65-6.79-.34,2.25-.62,4.2-.94,6.3-7.59-3.7-10.72-5.22-13.86-6.51-.11,1-1.66,3.18-1.74,3.93l-28.39-9.69A183.49,183.49,0,0,0-12.7,770.88l-3,2.92,13.2,10.34-4.38,3.42a30.19,30.19,0,0,0,17.77,9.54l-6.68,5.25c4.84,4.68,10.85,5.59,17.26,6.51C20.08,811,18.75,812.8,17.3,815c6.06,4,13,4.52,19.78,3.71l-2.47,4.38c6.38,3.64,13.28,3.85,20.3,3.86l-1.67,3c3.23,3,7.75,3.25,12,3.63.89.09,2.29.36,2.46.89.81,2.6-1.64,2.22,5,3.22,3.71.56,7.45.65,11.18,1,1,1.47,2.25,3.19,3.69,3.34,4.5.46,9.07.33,13.61.41.76,0,1.51-.09,2.49-.15-.38,2.43.39,4.07,2.65,4.06,3.73,0,7.46-.4,11.18-.6a7.35,7.35,0,0,1,2.25.05c1.5.42,2.92,1.37,4.41,1.47.7.05,1.4.08,2.1.12l-.61.9,1.93,1.3c-1.3-.47-2.6-.93-3.93-1.27-.66-.18-1.51.38-2.18.87-1.7-.48-3.38-1.05-5.11-1.42-3.09-.64-2-.41-2.73.61-.16.2-.83.1-1.24,0-1.94-.53-4-1.16-5.91-.37l.25,1.59c-3.1-1.14-6.2-2.19-9.62-1.63.13.83.22,1.43.37,2.35-2.87-1.48-6-2.39-9.36-1.61.28,1.2.58,2.2.86,3.39-3-.64-5.8-1.23-8.72,0l2.1,3.42a14.22,14.22,0,0,0-9.44,1.3c.59.94,1,1.66,1.38,2.23l-7.54,2.41.82,1.77a87.1,87.1,0,0,0-13.34,6l14.16.38c-.08.35.23,1.59.13,2,1.6-.05,3.23-.22,7.2-.61-.2,1-.4,1.9-.62,2.95,2.1.35,3.85-.37,5.83-1.25-.09.86-.17,1.58-.27,2.52a12.66,12.66,0,0,0,8.78-1.79c.2,1.29.37,2.37.56,3.58,3.22,0,5.58-1.76,8.29-3.12.12.72.22,1.4.36,2.3,3.25.2,5.68-2.08,8.51-3.66.2.75.36,1.45.56,2.2,2.39.16,3.8-1.64,5.55-2.73,0,.15.12.87.13,1a5.54,5.54,0,0,0,2.15-.58c1.67-.72,3.24-1.66,4.85-2.51.29-.15.59-.26,1-.42.23.55.43,1,.7,1.66a21.41,21.41,0,0,0,7.52-4.21l.6,1.69c2-1.23,3.94-2.41,5.88-3.53.43-.25.28.9.77.75,1.18-.33,2.26-1.67,3.36-2.18a5.37,5.37,0,0,1,2.2-.55,2.8,2.8,0,0,0,.57-.17c-10.15,17.09-25,40.23-37.27,51.86a79.92,79.92,0,0,0,15.21-7.43c4.07-2.66,17-21.53,27.12-37.05.14,0,.23.06.21.21-.31,2.22-.7,4.42-1.08,6.78l1.79-.08a21.28,21.28,0,0,0-1.09,8.55l1.8,0c0,.4,0,.72,0,1-.18,1.81-.47,3.62-.52,5.43a5.49,5.49,0,0,0,.27,2.22c.14,0,.84-.22,1-.26-.35,2-1.5,4-.46,6.17l2.25-.31c-.41,3.22-1.61,6.32-.22,9.26l2.27-.52c-.25,3-1,5.86.21,8.85l3.53-.81a12.62,12.62,0,0,0,1.62,8.82l2.23-1.2c-.08,2.17-.09,4,1,5.87l2.51-1.67c1.12,3.83,1.58,5.4,2.13,6.91.36-.26,1.63-.43,1.92-.64L175,948a85.55,85.55,0,0,0,.57-14.61l2,.1c-.2-2.72-.39-5.29-.58-7.89l2.58.44a14.24,14.24,0,0,0-2.31-9.24l3.95.67c.1-3.18-1.49-5.57-3.21-8.1,1.21-.19,2.25-.29,3.47-.47a13.54,13.54,0,0,0-5-8.09l2.31-.53c-.75-3.38-2.87-5.86-5.1-8.32l1.57-.36c0-2.08-1.33-3.74-2.54-5.34-.26-.34-.61-.92-.48-1.14.65-1.11,1.3-.14-.46-2.77-1-1.47-2.14-2.81-3.21-4.21.2-.81.4-1.8,0-2.35-.24-.32-.5-.64-.75-1L169,873a10.9,10.9,0,0,0,1.84,3.19c1.81,1.86,1.72,1.3,2.89,3.44s1.31,5.5,2.81,7.42c.62.8,1.71-1.21,2.1-.31,1.79,4,3.44,8.14,5.26,12.51l2.94-2a42.26,42.26,0,0,0,7.09,15.5l3-1.84c.39.68.74,1.22,1,1.79,1.58,3.23,3,6.57,4.81,9.66a10.79,10.79,0,0,0,2.76,3.44c.19-.21,1.19-1.24,1.38-1.45,1.53,3.77,1.67,8.29,5.67,10.84,1.19-1,2.28-1.91,3.46-2.88,2.68,5.85,3.89,12.3,9.3,15.78l3.27-3.24c2.73,5.34,4.47,10.86,9.58,14.65l5.09-5.06c2.12,6,6.59,10.08,11.92,13.12.94-1.62,1.64-2.87,2.5-4.35,2.13,3.72,4.08,6.91,7.85,8.81.87-1.94,1.62-3.62,2.44-5.43,5.88,5.26,8.3,7.43,10.8,9.38.34-.82,2.29-2.43,2.56-3.09l23.05,15.92a172.78,172.78,0,0,0-14.31-25.12l3.4-1.87-9.23-12.64,4.8-2a28.07,28.07,0,0,0-13.53-13.08l7.33-3c-3.15-5.44-8.33-7.78-13.85-10.24,1.84-1.59,3.49-2.84,5.34-4.43-4.43-5.13-10.53-7.36-16.83-8.35l3.33-3.31c-4.8-4.9-11-6.84-17.26-8.63l2.27-2.25c-2.15-3.51-6.14-4.9-9.87-6.32-.78-.3-2-.91-2-1.43-.06-2.54,2-1.57-3.66-4.16-3.18-1.44-6.52-2.47-9.79-3.7-.51-1.57-1.21-3.44-2.47-3.94-3.93-1.56-8.06-2.61-12.12-3.83-.68-.21-1.38-.31-2.28-.5,1-2.09.68-3.76-1.35-4.32-1.46-.4-2.94-.74-4.42-1.06a10.88,10.88,0,0,1,4.25.47c3.85.91,8.17,4.47,12.17,4.75,1.66.12.42-3.42,1.94-2.92,6.92,2.27,13.76,4.77,21.11,7.35.33-2.52.51-3.83.77-5.81,8.67,4.5,17.32,7.68,26.79,8.41.43-2.19.75-3.83,1.12-5.76,1.26.28,2.3.44,3.31.73,5.7,1.62,11.33,3.59,17.12,4.76,2.2.45,4.86,1,7.26.43-.06-.47-.21-2.83-.27-3.3,6.31,2.28,12,7.1,19.52,5,.13-2.54.18-4.89.3-7.41,10.1,3.17,19.34,8.81,29.57,6-.14-3-.25-5.2-.37-7.58,9.55,2.54,18.22,6.51,28.49,4.42-.2-4-.37-7.53-.58-11.79,9.62,4,19.61,3,29.19-.14-.93-2.93-1.7-5.17-2.56-7.85,6.91,1.5,13,2.63,19.42.11-1.4-3.21-2.63-6-3.94-9,12.92-1.4,18.24-2,23.39-2.88C435.3,841.31,435.47,837.14,435,836.09ZM119.4,811.16a12.35,12.35,0,0,1,1.52,1.56,13.67,13.67,0,0,1,1.93,2.76C121.7,814.06,120.56,812.62,119.4,811.16Z" transform="translate(205.06 137.3)"/>
      <path class="logo_square-cls-3" d="M156.88,843.85l-.14-.19.13.09S156.88,843.81,156.88,843.85Z" transform="translate(205.06 137.3)"/>
    </g>
    <g>
      <path class="logo_square-cls-3" d="M722.49,577.14c-2.41-.85-5.07-1.75-7.91-2.68l-3.76.73,8.45,2.65Z" transform="translate(205.06 137.3)"/>
      <path class="logo_square-cls-3" d="M685.36,580.33l-.62.13,3.62,1.39C687.45,581.36,686.45,580.86,685.36,580.33Z" transform="translate(205.06 137.3)"/>
      <path class="logo_square-cls-3" d="M629.63,549.75c-.35.08-.7.17-1,.27.13.58.57,3.48.69,4.06-7.88-2.09-15.29-7.23-24.12-4.27,7.31,2.5,59.49,20.46,80.2,30.52,8.72-1.82,17.23-3.54,25.46-5.14Z" transform="translate(205.06 137.3)"/>
      <path class="logo_square-cls-3" d="M499.64,579.52l-.81.33c1.47,3.53,2.82,6.2,4.18,9.43-8.51-1.08-15.91-1.81-23.45,1.72,6.11.86,51.17,7.41,82.45,17.29,13.35-3.21,27.23-6.5,41.3-9.78Z" transform="translate(205.06 137.3)"/>
      <path class="logo_square-cls-3" d="M877.19,622.54c.33-.18,1.07-1.28,1.49-1.51-1.16-1.2-2.42-2.36-5.49-5.17l2.72-1.57c-1.19-1.88-3-2.73-5-3.66.73-.53,1.35-1,2.15-1.53a13.17,13.17,0,0,0-7.5-5.58l2.39-2.93c-2.25-2.49-5.24-3.11-8.18-4.27l1.53-1.88c-2.11-2.66-5.56-3-8.76-4.06.44-.67.87-1.29,1.32-2-1.54-2-3.92-1.81-6-2.42.11-.11.59-.69.7-.8a5.9,5.9,0,0,0-2-1.27c-1.71-.79-3.54-1.36-5.31-2-.32-.12-.62-.27-1-.44.26-.57.49-1.05.8-1.7a22.36,22.36,0,0,0-8.5-2.91c.3-.56.51-.93.9-1.64-2.38-.73-4.62-1.39-6.84-2.11-.48-.16.51-.84.06-1.13-1.09-.68-2.88-.58-4-1.08s-.88-.49-2-1.34a2.85,2.85,0,0,0-.53-.32c20.34-4,48.64-8.57,66.2-7.12A82.7,82.7,0,0,0,870,555.47c-4.89-1.31-28.51,1.82-47.63,4.7-.09-.11-.12-.21,0-.3,1.93-1.3,3.91-2.53,6-3.87l-1.31-1.34a22.25,22.25,0,0,0,7.4-5.1l-1.23-1.42c.32-.27.57-.49.84-.69,1.53-1.12,3.14-2.15,4.57-3.38a5.54,5.54,0,0,0,1.54-1.75c-.13-.07-.75-.5-.88-.58,1.82-1.14,4.16-1.62,5.11-3.93-.62-.53-1.2-1-1.81-1.54,2.79-1.92,6-3.14,7.35-6.27l-2-1.4c2.52-1.91,5.23-3.31,6.73-6.31-1-.74-2-1.4-3.09-2.18a13.18,13.18,0,0,0,5.72-7.39l-2.48-.9c1.74-1.45,3.21-2.75,3.86-4.88l-3-.77c2.2-3.54,3.1-5,3.89-6.47-.46-.1-1.47-1-1.84-1.05l6.17-13.42A91.62,91.62,0,0,0,852.2,495l-1.29-1.59-5.72,5.95L843.74,497a14.83,14.83,0,0,0-5.57,8.22c-.79-1.24-1.46-2.31-2.23-3.53-2.54,2.14-3.29,5-4.06,8.13-1-.81-1.79-1.55-2.78-2.37-2.26,2.77-2.86,6.14-2.81,9.5l-2-1.43c-2.1,2.94-2.55,6.32-2.91,9.75l-1.37-1c-1.63,1.44-2,3.64-2.38,5.7-.09.43-.29,1.1-.56,1.16-1.31.27-1-.91-1.83,2.28-.46,1.79-.69,3.62-1,5.43-.77.4-1.67.94-1.82,1.64-.08.41-.15.83-.22,1.24l-2.28.32a11.31,11.31,0,0,0,1.19-3.66c.2-2.7-.17-2.24.66-4.64s3.37-4.84,3.82-7.33c.18-1-2.13-.5-1.71-1.42,1.89-4.21,3.93-8.34,6.06-12.79l-3.61-.88c3.42-5.15,6-10.38,7.11-16.29L819.84,494c.26-.78.43-1.43.68-2,1.41-3.48,3-6.88,4.16-10.45a11.63,11.63,0,0,0,.76-4.54l-2.1-.06c1.87-3.81,5.28-7.06,4.48-11.94-1.59-.25-3.07-.44-4.65-.69,2.69-6.14,6.86-11.58,5.79-18.2l-4.79-.28c2.24-5.84,5.33-11,4.71-17.63l-7.46-.44c3.14-5.79,3.24-12.13,1.89-18.38-1.91.39-3.37.72-5.11,1.08,1.41-4.24,2.53-8,1.38-12.22l-5.91,1.88c0-8.23,0-11.61-.23-14.91-.88.31-3.49-.09-4.18.16l-3.67-29A180.69,180.69,0,0,0,796,384.91l-3.81-1.34c-1.18,5.51-2.29,10.71-3.41,16L784,397.17a29.33,29.33,0,0,0-.75,19.61l-7.45-3.59c-2,6.23-.25,11.88,1.69,17.88-2.52-.33-4.63-.74-7.15-1.07-.91,7,1.61,13.3,5.21,18.88l-4.88-.29c-.46,7.14,2.31,13.27,5.3,19.41l-3.32-.19c-1.24,4.11.47,8.17,1.95,12.06.31.81.66,2.15.27,2.52-1.92,1.82-2.64-.48-.68,5.74,1.09,3.48,2.61,6.79,3.93,10.19-.87,1.48-1.83,3.32-1.34,4.65,1.52,4.14,3.58,8.07,5.45,12.08.32.67.73,1.28,1.2,2.11-2.29.71-3.39,2.09-2.41,4.06.7,1.41,1.46,2.8,2.24,4.17a11.33,11.33,0,0,1-2.58-3.63c-2-3.62-2.21-9.46-4.78-12.75-1.06-1.38-3,2.05-3.62.52-3.05-6.95-5.87-14-9-21.51l-5,3.44c-2.54-9.86-6.08-18.78-12.1-26.65L740.86,468c-.67-1.18-1.26-2.1-1.74-3.08-2.7-5.56-5.09-11.3-8.21-16.61-1.18-2-2.63-4.44-4.71-5.93-.33.37-2.06,2.12-2.38,2.5-2.62-6.49-2.83-14.26-9.69-18.65-2.06,1.67-3.92,3.27-6,4.93-4.57-10.06-6.61-21.15-15.9-27.15l-5.63,5.55c-4.66-9.18-7.61-18.68-16.38-25.2-3,2.93-5.59,5.53-8.76,8.65-3.61-10.22-11.27-17.34-20.4-22.58-1.63,2.77-2.83,4.92-4.32,7.45-3.64-6.4-7-11.88-13.42-15.15-1.52,3.32-2.82,6.2-4.23,9.3-10.08-9.06-14.22-12.79-18.5-16.16-.59,1.41-4,4.17-4.41,5.3l-39.5-27.47a295.56,295.56,0,0,0,24.44,43.23l-5.84,3.18,15.78,21.77-8.25,3.34A48.32,48.32,0,0,0,606,427.71l-12.62,5.15c5.4,9.35,14.27,13.4,23.75,17.65-3.18,2.72-6,4.85-9.19,7.57,7.58,8.84,18,12.69,28.85,14.43l-5.74,5.67c8.23,8.43,18.79,11.79,29.6,14.91l-3.9,3.85c3.66,6,10.52,8.43,16.9,10.9,1.35.52,3.38,1.56,3.4,2.45.1,4.36-3.5,2.7,6.27,7.16,5.46,2.5,11.19,4.29,16.8,6.42.86,2.69,2.06,5.91,4.21,6.77,6.75,2.7,13.84,4.51,20.81,6.64,1.15.35,2.36.53,3.9.86-1.66,3.59-1.19,6.45,2.31,7.43,5.75,1.61,11.66,2.68,17.49,4a11.57,11.57,0,0,1,3.45,1.07c2.12,1.31,3.89,3.4,6.15,4.21l.26.09a19.14,19.14,0,0,0-6.21-.59c-5.26.64-4.27,1.19-9.21.48s-10.62-4.64-15.59-4.55c-2.08,0-.16,4.29-2.1,3.83-8.81-2.06-17.56-4.41-26.93-6.81-.15,3.16-.22,4.81-.33,7.28-11.23-4.62-22.27-7.62-34.09-7.5-.28,2.76-.5,4.83-.75,7.25-1.6-.2-2.91-.3-4.19-.54-7.23-1.39-14.41-3.21-21.7-4a25.75,25.75,0,0,0-7.94,0c6.86,1.85,55.67,15.12,84.89,24.72,28.14-5.43,52.59-9.38,69.48-10.72l-61.57,13.4c7.32,2.57,12.42,4.7,13.72,6l-16.94-5.3L668.14,589c8.13,3.29,19,11.45,26.42,17.48,5.2,3.51,8.84,6.34,8.44,7.15,0,0-3.45-3.1-8.44-7.15-8.84-6-22.18-13.9-27.76-17.19l-23.27,5.06a224.42,224.42,0,0,1,46.12,25l-46.56-24.94-28.76,6.26c12.35,3.73,23.06,13.8,27.66,18.62a10.54,10.54,0,0,1,2.4,2.65s-.87-1-2.4-2.65c-6.48-5.63-23.35-15.36-28.7-18.4L445.23,637.46s32.54-8.51,78.13-19.75c-26.49-4.49-60.05-7.93-66.63-8.59.6,2.14.87,5.86,1.48,6.89l-54.42,18.06a352.76,352.76,0,0,0,58.71,7.57c-.27,1.89-.59,4.11-1.13,7.85l32,.49-2.71,10.27c13.37,2.2,25.45.62,38.08-6-1.45,5.53-2.69,10.27-4.11,15.71,12.79,1.54,23-4,33.82-10,.32,5,.74,9.14,1.06,14.12,13.84-.91,24.11-8,34.78-17.27.52,3.74.85,6.19,1.31,9.53,13.54-1.77,23.53-9.34,34.36-17.45.35,2.59.61,4.44.89,6.47,9.28.7,15.66-4,22.58-8.35,1.46-.91,4-2.11,4.82-1.5,4.24,3,.1,5.27,11.34-.86,6.29-3.43,12.1-7.62,18.14-11.46,3.19,1.11,7.12,2.26,9.48.82,7.39-4.5,14.19-10,21.2-15.1,1.17-.85,2.2-1.88,3.62-3.11,2.24,4.14,5.3,5.74,8.73,3.11,5.65-4.34,10.89-9.21,16.33-13.83a13.82,13.82,0,0,1,3.49-2.52c2.76-1.09,6-1.29,8.41-2.87,6.56-4.32,13.08-8.8,19.49-13.41l0,.25q-7.09,5.38-14,11c-1.86,1.52-2.83,4.09-4.39,6a11.61,11.61,0,0,1-2.89,2.16c-5,3.21-10.26,6.19-15.14,9.64-3,2.09-2.45,4.94.31,7.77-1.34.83-2.42,1.39-3.39,2.11-5.86,4.34-11.93,8.43-17.38,13.23-1.74,1.53-1.8,5-1.7,7.79-4.58,3.88-9.38,7.48-13.69,11.66-7.71,7.48-4.87,4.71-3.51,8.85.28.85-1.29,2.51-2.38,3.45-5.19,4.46-10.85,9-12.28,15.93l5,2.32c-9.14,6.56-18,13.26-22.9,24l7.31,3.42c-9.6,5.26-18.18,12.39-22.36,23.25,3.92,1.5,7.29,2.56,11.19,4.06-7.51,7.18-14.51,14-16.46,24.58l13.61.63a48.28,48.28,0,0,0-14.3,29l8.89.39c-2.49,8.48-5,16.89-7.58,25.79l6.57,1a296.42,296.42,0,0,0-8.57,48.91l28-39.1c.82.9,4.9,2.38,5.93,3.51,2.91-4.61,5.56-9.51,12-21.41l7.09,7.35c5-5.24,6.29-11.53,7.58-18.78,2.25,1.89,4.1,3.51,6.56,5.57,6.85-8,11.69-17.26,11.67-28.1l11.15,5.22c6.08-9.08,5.68-19,7-29.23l7.17,3.35c6.74-8.76,5-19.9,5.89-30.9,2.48.88,4.77,1.76,7.26,2.64,5-6.43,2.6-13.82,2.89-20.81.44.24,2.65,1.32,3.08,1.56,1.47-2.1,2-4.87,2.46-7.17,1.16-6,1.49-12.26,2.18-18.39.12-1.09.37-2.16.6-3.49l6,1.2c3-9.43,3.39-19,2.49-29.17l5.91,1.55c.41-8.11.7-15.69,1.25-23.27.12-1.66,3,.94,3.59-.72a14.35,14.35,0,0,0,.47-5l2.47-.09c-2,6.31-3.16,12.45-2.57,18.86l4,.09c0,.88,0,1.59-.11,2.3-.44,4-1.11,8-1.24,12a12.16,12.16,0,0,0,.55,4.9c.3-.09,1.86-.46,2.17-.55-.81,4.47-3.38,8.82-1.13,13.61,1.72-.21,3.29-.44,5-.64-1,7.11-3.69,13.92-.65,20.44l5-1.11c-.62,6.67-2.28,12.92.28,19.54l7.82-1.72c-1.55,6.88.2,13.44,3.41,19.49,1.85-1,3.26-1.73,5-2.61-.22,4.79-.28,9,2.13,13l5.55-3.65c2.41,8.47,3.39,12,4.58,15.3.82-.58,3.62-.93,4.27-1.39l12.22,28.79A192,192,0,0,0,857,754.14l4.32.27c-.4-6-.77-11.7-1.15-17.44l5.7,1a31.39,31.39,0,0,0-5-20.43l8.72,1.53c.28-7-3.2-12.31-7-17.94,2.69-.39,5-.58,7.68-1-1.11-7.49-5.54-13.23-10.88-17.93l5.12-1.13c-1.6-7.49-6.25-13-11.12-18.46l3.48-.77c.07-4.59-2.87-8.28-5.53-11.85-.56-.75-1.32-2-1-2.52,1.45-2.44,2.86-.28-1-6.11-2.14-3.27-4.67-6.24-7-9.36.46-1.77.91-4,0-5.18-2.77-3.82-6-7.27-9.14-10.86-.52-.59-1.12-1.11-1.85-1.82,2.15-1.4,2.88-3.14,1.3-4.89-2.61-2.88-5.49-5.51-8.24-8.27a7.09,7.09,0,0,1-1.52-1.78c-.72-1.45-1-3.22-1.93-4.45-.46-.57-.93-1.13-1.38-1.71l1.13-.15-.33-2.4c.54,1.33,1.09,2.66,1.75,3.94.32.63,1.34.9,2.19,1.09.81,1.65,1.53,3.35,2.45,4.94,1.65,2.86,1,1.81,2.38,1.71.27,0,.65.57.84,1,1,1.87,1.88,3.9,3.83,4.84l1.07-1.3c1.27,3.21,2.61,6.34,5.42,8.6L842,613.4c.85,3.26,2.33,6.34,5.25,8.4.74-1.06,1.31-2,2-3,1.57,2.77,3.07,5.36,6.09,6.73.42-1.38.78-2.59,1.2-4a14.84,14.84,0,0,0,7.57,6.42c.33-1.11.59-1.95.78-2.62l7.12,4.18c.38-.89.61-1.42.8-1.88a89.85,89.85,0,0,0,13.93,6.2Zm-80.69-1.27a14.86,14.86,0,0,1,.8-3.42q-.45,2.82-.95,5.68A14.88,14.88,0,0,1,796.5,621.27Z" transform="translate(205.06 137.3)"/>
      <path class="logo_square-cls-3" d="M795.67,571.69a2,2,0,0,0,0,.24l0-.17Z" transform="translate(205.06 137.3)"/>
      <path class="logo_square-cls-3" d="M533.17,562.45s66.66,15.28,104.75,28.16c15.88-3.56,31.65-7,46.82-10.15l-79.63-30.63c-.18.06-.36.1-.54.17.12,3.16.2,6.09.32,9.23-12.6-2.78-23.79-8.66-36.6-4.48,4.25,1.2,74.94,21.35,93.34,30.55l-93.35-30.55-.76.25c.5,3.67.88,6.42,1.28,9.35-12.23-2.09-22.89-6.14-36.15-2.33.67,4.92,1.27,9.28,2,14.54-11.23-3.85-23.55-1.8-34.81,2.87,9.37,1.06,58.8,7,104,19,11.26-2.61,22.64-5.22,34-7.76Z" transform="translate(205.06 137.3)"/>
      <path class="logo_square-cls-3" d="M479.48,591l-.45.21c2.09,3.82,4,7.11,5.89,10.67-15.84,3.14-22.34,4.43-28.62,6.11a3.61,3.61,0,0,1,.32.73c13.07-2.66,57.41,6.8,67,8.9,12-2.95,24.82-6.09,38.22-9.31Z" transform="translate(205.06 137.3)"/>
      <path class="logo_square-cls-3" d="M523.58,617.65l-.22.06,2,.35Z" transform="translate(205.06 137.3)"/>
    </g>
  </g>
  <path class="logo_square-cls-4" d="M113.43,731q-8.3-9.21-8.29-27.39t8.29-27.39q8.29-9.2,24.77-9.2a49.26,49.26,0,0,1,21.71,5.25v7.38a43.82,43.82,0,0,0-20.86-5.35q-13.47,0-19.68,7.06t-6.21,22.25q0,15.3,6.15,22.3t19.74,7a42.59,42.59,0,0,0,20.86-5.24V735a50.68,50.68,0,0,1-21.71,5.14Q121.72,740.17,113.43,731Z" transform="translate(205.06 137.3)"/>
  <path class="logo_square-cls-4" d="M256.72,668v71.35H249V680.47L223,717l-24.39-36.26v58.62h-7.71V668h8.35l24.17,37.12L248.38,668Z" transform="translate(205.06 137.3)"/>
  <path class="logo_square-cls-4" d="M403.81,668v71.35h-7.7V680.47l-26,36.48-24.4-36.26v58.62H338V668h8.35l24.17,37.12L395.47,668Z" transform="translate(205.06 137.3)"/>
  <path class="logo_square-cls-4" d="M516.24,668H538.6q16.7,0,25.09,8.93t8.39,26.69q0,35.73-33.48,35.73H516.24ZM538.07,732q13.57,0,19.84-6.85t6.26-21.61q0-14.76-6.26-21.61t-19.84-6.85H523.94V732Z" transform="translate(205.06 137.3)"/>
  <path class="logo_square-cls-4" d="M603.64,668h7.7v71.35h-7.7Z" transform="translate(205.06 137.3)"/>
  <polygon class="logo_square-cls-4" points="501.99 840.54 496.19 850.6 507.8 850.6 501.99 840.54"/>
  <path class="logo_square-cls-4" d="M59,709.68a18.73,18.73,0,0,0,11.77-7.06,22.08,22.08,0,0,0,4.39-13.91q0-10.28-5.35-15.51T54.11,668H24.8v71.35h7.7V710.53h.06v-7.24l0,0H32.5v-28H53.26q7.8,0,11,3.58c2.13,2.4,3.21,5.87,3.21,10.43s-1.36,8.13-4.07,10.49A14.22,14.22,0,0,1,57,702.67l-9.29,2,3.92,7.21,17.72,27.4h9.1Z" transform="translate(205.06 137.3)"/>
  <rect class="logo_square-cls-4" x="658.53" y="837.13" width="25.12" height="7.49"/>
  <polygon class="logo_square-cls-4" points="688.14 805.25 643.1 805.25 643.1 876.61 688.14 876.61 688.14 869.33 650.8 869.33 650.8 846.79 650.8 846.79 650.8 836.03 650.8 836.03 650.8 812.53 688.14 812.53 688.14 805.25"/>
  <g>
    <polygon class="logo_square-cls-4" points="879.84 805.25 872.13 805.25 843.68 876.61 852.02 876.61 860.58 854.36 863.47 846.98 875.99 814.35 888.5 846.98 891.39 854.36 899.95 876.61 908.18 876.61 879.84 805.25"/>
    <rect class="logo_square-cls-4" x="851.17" y="871.17" width="50.31" height="5.44"/>
  </g>
</svg>
