<svg id="rcm_logo" data-name="Layer 1" xmlns="http://www.w3.org/2000/svg" xmlns:xlink="http://www.w3.org/1999/xlink" viewBox="0 0 2245.09 636.96">
  <defs>
    <style>
      .rcm_logo-cls-1 {
        fill: none;
      }

      .rcm_logo-cls-2 {
        clip-path: url(#clip-path);
      }

      .rcm_logo-cls-3 {
        fill: #ddb263;
      }

      .rcm_logo-cls-4 {
        fill: #fff;
      }
    </style>
    <clipPath id="clip-path">
      <polygon class="rcm_logo-cls-1" points="375.31 27.99 37.62 612.88 713 612.88 375.31 27.99"/>
    </clipPath>
  </defs>
  <title>Artboard 1</title>
  <g class="rcm_logo-cls-2">
    <path class="rcm_logo-cls-3" d="M72.72,120.72l.48-.21-.26.25Z"/>
    <path class="rcm_logo-cls-3" d="M67.41,124.82l.3,0-.39-.21Z"/>
    <path class="rcm_logo-cls-3" d="M75.54,117.85c.09.13.17.25.24.37l-.06-.3Z"/>
    <path class="rcm_logo-cls-3" d="M59.64,127.27l.1.15c0-.08,0-.16-.07-.26Z"/>
    <path class="rcm_logo-cls-3" d="M71.25,110.31l-.15-.13.14.25S71.25,110.35,71.25,110.31Z"/>
    <path class="rcm_logo-cls-3" d="M64.12,112.08v.09a.93.93,0,0,1,0-.13A.1.1,0,0,1,64.12,112.08Z"/>
    <path class="rcm_logo-cls-3" d="M60.64,111.88l.13,0h-.09S60.65,111.87,60.64,111.88Z"/>
    <g>
      <path class="rcm_logo-cls-3" d="M413,239.62l-.53-.23-7,30.42c1.41-1.15,6-2.38,7-3.3l23.58,40C434,300.67,424.72,274.22,413,239.62Z"/>
      <path class="rcm_logo-cls-3" d="M412.42,239.36l-.51-.22.6.08a.56.56,0,0,1,.05-.08l0,.08.37.05c-4.45-13.18-9.24-27.52-14.11-42.36-1.52,3.9-12.64,33-14,54.61.16.2.3.4.46.61,3.13-2.72,5.83-5.11,8.74-7.63,6.11,14.11,8.61,19.89,11.43,25.4l.06,0C405.8,267,408.28,245.66,412.42,239.36Z"/>
      <path class="rcm_logo-cls-3" d="M398.77,196.81c-2.44-7.43-4.89-15-7.34-22.56-2.79,6.83-18.24,45.08-20.6,59.29-.12,1-.19,1.81-.24,2.33l.09.12c3-2.08,5.19-3.87,7.92-5.78.7,8,1.49,14.92,6.07,21.14C384.22,246.92,382.62,222.43,398.77,196.81Z"/>
      <path class="rcm_logo-cls-3" d="M372.61,113.65c-3.91,4.7-30.27,36.95-37.55,60.76,2.8-9.42,13.76-41.66,37.51-60.91-3.91-13.18-7.45-25.68-10.42-37-6,7.77-31.53,41.69-40.69,66.73.07.12.12.23.2.35,2.91-.75,5.62-1.41,8.52-2.15-.06,12.52-3.41,24.33,3.58,35.62l.61-.23c.09-.31.26-.95.53-1.89-.19.64-.36,1.27-.52,1.89l7.81-2.84c.51,11.78-1.1,22.49,5.07,34,.33-1.57,9.47-44.38,32.32-69.14a309.06,309.06,0,0,0-32.31,69.15s0,0,0,.05l13.13-4.78c-1.36,11.49,3.27,22.8,10.14,32.49a22.41,22.41,0,0,1,.27-2.28c1.06-9.11,5.43-37.21,20.52-59.57C384.77,153.55,378.31,132.88,372.61,113.65Z"/>
      <path class="rcm_logo-cls-3" d="M357.48,50.9l7.25,23.58c14.69-2.48,34.47,8.61,48.14,18-2.32-5.62-6.65-9.58-10.83-13.88-1.14-1.17-2.76-3.26-2.36-4.18,2-4.55,4.88-1.16-3.08-10.38-1.39-1.61-2.83-3.15-4.31-4.67C375.33,54.5,360.92,50.71,357.48,50.9Z"/>
      <path class="rcm_logo-cls-3" d="M442.63,256.88c-5.14-5.74-19.59-12.74-26.69-16l20.23,65.75,4,6.85a335.4,335.4,0,0,0-4.75-56.14Z"/>
      <path class="rcm_logo-cls-3" d="M613.79,37.78l-42-18.22c.68-.94,1.23-5,2.08-6.23-4.87-1.77-10-3.26-22.34-6.88l5.41-8.08c-5.88-3.58-12-3.53-19-3.28,1.3-2.46,2.44-4.52,3.87-7.22-8.82-4.77-18.41-7.41-28.5-5.21,1-4.13,1.73-7.56,2.62-11.42-9.67-3.83-18.84-1.47-28.61-.65.53-2.3,1-4.45,1.69-7.34-9.51-4.5-19.52-.61-29.94.73.32-2.48.68-4.79,1-7.29-7-3.35-13.38.36-19.94,1.49.14-.45.69-2.72.83-3.17-2.25-.95-4.94-.9-7.17-.85-5.86.14-11.7,1.08-17.55,1.67-1,.11-2.08.09-3.36.14,0-1.95-.06-3.61-.09-5.83-9.38-.93-18.38.67-27.64,3.55.09-2,.15-3.28.26-5.81-7.63,1.25-14.75,2.5-21.9,3.51-1.58.23.26-3-1.39-3.19a13.4,13.4,0,0,0-4.77.57c-.21-.81-.37-1.46-.58-2.28,6.27.6,12.21.43,18.06-1.4-.27-1.42-.47-2.48-.71-3.72.82-.14,1.48-.29,2.16-.36,3.8-.4,7.64-.57,11.39-1.26a11.5,11.5,0,0,0,4.45-1.49c-.15-.26-.8-1.64-.95-1.91,4.33-.15,8.89,1.37,12.89-1.69-.53-1.55-1.06-3-1.6-4.51,6.82-.52,13.7.64,19.15-3.49-.8-1.75-1.39-3.06-2-4.45,6.33-.77,12.48-.48,18.13-4.2-1.08-2.34-2-4.42-3.18-6.92C441.23-88.85,447-91.8,452-96c-1.26-1.53-2.26-2.69-3.42-4.09,4.5-.76,8.39-1.54,11.66-4.6l-4.52-4.42c7.4-4,10.45-5.56,13.32-7.34-.7-.64-1.59-3.18-2.15-3.69l24.33-17.16a183.4,183.4,0,0,0-30.31,5.07c-.15-1-.32-2.14-.62-4.07l-16,4.57c0-1.4-.12-3.18-.2-5.51a30,30,0,0,0-18,8.71c-.11-3-.21-5.51-.32-8.42-6.58,1.16-10.81,5.45-15.29,10.07-.91-2.42-1.55-4.52-2.46-7-6.74,2.54-11.2,7.81-14.5,13.73-.81-1.78-1.35-3-2.08-4.54-6.64,3-10.83,8.43-14.93,14.06l-1.42-3.08c-4.29.85-7.13,4.33-9.92,7.52-.58.67-1.62,1.63-2.14,1.45-2.56-.86-.83-2.6-5.49,2.13-2.61,2.65-4.86,5.61-7.29,8.42-1.75-.07-3.87-.06-4.83,1-3,3.35-5.55,7.09-8.26,10.69-.46.6-.81,1.26-1.33,2.09-1.74-1.72-3.5-2.06-4.81-.24-2.15,3-4,6.22-6,9.33a7.12,7.12,0,0,1-1.36,1.78c-1.2,1-2.8,1.54-3.75,2.69-.44.53-.87,1.09-1.31,1.62l-.37-1-2.17.79c1.13-.77,2.26-1.55,3.31-2.42.53-.43.58-1.43.58-2.26,1.37-1.09,2.81-2.09,4.11-3.27,2.32-2.11,1.46-1.33,1.11-2.55-.08-.25.4-.72.72-1,1.56-1.25,3.26-2.53,3.74-4.53l-1.42-.73c2.73-1.82,5.37-3.7,6.91-6.77L333-90a13.43,13.43,0,0,0,6.76-6.57c-1.13-.48-2.11-.82-3.23-1.29,2.26-2,4.37-4,5-7l-4-.31a14.12,14.12,0,0,0,4.46-8.34l-2.6-.2,2.46-7.45-1.9-.38a86.84,86.84,0,0,0,3-14.2l-8.57,11.15c-.22-.27-1.4-.74-1.7-1.08-.89,1.32-1.71,2.72-3.71,6.14l-2-2.21c-1.51,1.48-1.95,3.3-2.4,5.41-.64-.57-1.16-1.07-1.86-1.69a12.51,12.51,0,0,0-3.68,8.09l-3.21-1.63c-1.86,2.6-1.84,5.5-2.32,8.47l-2.06-1c-2.05,2.49-1.64,5.76-2,9L307.32-96c-1.53,1.84-.9,4-1.05,6.06-.12-.08-.76-.41-.88-.49a5.42,5.42,0,0,0-.79,2.07c-.39,1.76-.55,3.57-.81,5.35-.05.32-.13.63-.21,1l-1.74-.4a21.19,21.19,0,0,0-1,8.49l-1.71-.51c-.2,2.37-.36,4.58-.59,6.79,0,.49-.88-.3-1,.18-.42,1.14,0,2.79-.2,4a5.41,5.41,0,0,1-.85,2.09,2.62,2.62,0,0,0-.19.56C288.42-79,278.49-104.4,276.31-121a78.55,78.55,0,0,0-2.9,16.56c-.24,4.81,7.42,26.15,13.95,43.37-.09.1-.18.15-.29,0-1.6-1.54-3.14-3.13-4.81-4.82-.43.65-.65,1-1,1.49a21.14,21.14,0,0,0-6.22-5.86L274-68.82c-.31-.24-.57-.43-.81-.64-1.34-1.2-2.63-2.49-4.06-3.58a5.58,5.58,0,0,0-1.94-1.08c0,.14-.31.8-.36.94-1.43-1.47-2.35-3.54-4.69-4-.37.68-.7,1.32-1.06,2-2.35-2.21-4.14-5-7.31-5.57-.36.83-.62,1.46-.91,2.13-2.28-2-4.13-4.21-7.23-5l-1.4,3.31a12.56,12.56,0,0,0-8-3.84c-.13.93-.21,1.65-.34,2.5-1.69-1.33-3.2-2.44-5.31-2.61,0,1.06-.07,2-.11,3-3.73-1.33-5.26-1.88-6.79-2.32,0,.45-.61,1.57-.61,1.93l-13.72-3a86.34,86.34,0,0,0,11.4,9l-1.23,1.51,6.69,4.13-1.86,1.82a14.11,14.11,0,0,0,8.76,3.52l-2.83,2.79c2.49,1.93,5.34,2,8.37,2.14-.55,1.09-1.08,2-1.64,3.07a13.42,13.42,0,0,0,9.4.7l-.92,2.17c3.16,1.36,6.39,1.1,9.66.74-.26.6-.43,1-.63,1.48,1.66,1.22,3.78,1.11,5.78,1.07.42,0,1.08,0,1.19.28.51,1.17-.65,1.12,2.49,1.25,1.75.06,3.5-.09,5.25-.13.53.63,1.21,1.36,1.89,1.36.4,0,.81,0,1.21,0L273-45.8a10.67,10.67,0,0,0-3.64-.38c-2.55.36-2.05.61-4.45.31s-5.18-2.16-7.59-2.07c-1,0,0,2.08-1,1.87-4.29-.91-8.55-2-13.11-3.06-.05,1.53-.07,2.33-.1,3.53a41.85,41.85,0,0,0-16.58-3.34c-.12,1.34-.21,2.34-.31,3.52-.77-.08-1.41-.12-2-.23-3.52-.61-7-1.42-10.56-1.76a10.8,10.8,0,0,0-4.37.2c.06.28.3,1.68.36,2-3.92-1-7.63-3.49-12-1.76.09,1.53.21,2.94.29,4.46-6.25-1.26-12.14-4.05-18.09-1.73.27,1.77.48,3.1.7,4.52-5.88-.92-11.33-2.75-17.35-.84.37,2.37.7,4.48,1.09,7-6-1.76-11.94-.57-17.48,1.94.75,1.69,1.35,3,2,4.54-4.23-.46-7.93-.75-11.64,1.17,1,1.83,2,3.41,2.93,5.12-7.65,1.66-10.8,2.34-13.83,3.21.47.75.62,3.26,1,3.86L101.07-4.51a171.7,171.7,0,0,0,28.52,3.15c-.12.92-.25,2-.48,3.82l15.53,0c-.31,1.27-.7,2.88-1.22,5a27.92,27.92,0,0,0,18.4-3.25L160,11.83c6.21.63,11.11-2.16,16.3-5.16.2,2.4.25,4.45.44,6.86,6.71-.56,12-4.17,16.52-8.64.28,1.81.47,3,.72,4.6,6.73-1,11.87-4.81,17-8.83.2,1.25.34,2.15.49,3.13,4.07.32,7.51-2.08,10.82-4.24.7-.45,1.87-1,2.3-.76,2.08,1.43.08,2.55,5.47-.52,3-1.71,5.79-3.79,8.69-5.7,1.55.5,3.46,1,4.6.31,3.54-2.25,6.79-5,10.14-7.5.56-.43,1.05-.94,1.73-1.54,1.12,2,2.62,2.73,4.26,1.43,1.17-.94,2.31-1.93,3.43-2.93A10.81,10.81,0,0,1,260-14.52c-3,2.56-8.35,3.95-10.91,7-1.06,1.27,2.51,2.34,1.22,3.27C244.46,0,238.47,4,232.11,8.41l4.21,4C227.66,16.77,220.07,21.85,214,29l4,4.25c-1,.86-1.7,1.59-2.52,2.24-4.62,3.63-9.48,7-13.79,11C200,48,198,49.84,197,52.08c.41.23,2.39,1.48,2.8,1.71-5.51,3.74-12.69,5.5-15.4,12.76,2,1.58,3.83,3,5.78,4.56-8.43,6.26-18.34,10.4-22.06,20.24l6.3,4.12c-7.61,6.19-15.85,10.84-20.16,20.31l9.81,6.41c-8.79,5.41-13.87,14-16.91,23.52,2.9,1,5.15,1.65,7.8,2.52-5.22,4.67-9.66,8.88-11.4,15.54l9.5,2.06c-6.4,11.19-9,15.79-11.32,20.46,1.43.26,4.68,2.83,5.82,3L130,231.59a281.87,281.87,0,0,0,35.31-31.42c1,1.16,2.17,2.51,4.14,4.79l17.07-19.05c1.22,1.78,2.75,4,4.77,7a46,46,0,0,0,16.31-26.1l7.33,10.7c7.62-6.9,9.6-16,11.66-25.64,3.16,2.41,5.71,4.61,8.88,7,6.7-8.83,8.18-19.34,7.63-29.74l6.43,4.2c6.19-9.34,7.2-19.85,7.92-30.53l4.37,2.85c4.88-4.62,5.73-11.48,6.74-17.91.22-1.36.78-3.46,1.6-3.66,4-1,3.22,2.72,5.41-7.27,1.23-5.58,1.74-11.27,2.59-16.92,2.33-1.34,5.08-3.1,5.45-5.28,1.16-6.82,1.43-13.78,2-20.69.1-1.15,0-2.31,0-3.81,3.67.83,6.24-.19,6.45-3.63.34-5.68.14-11.39.21-17.09A11.09,11.09,0,0,1,292.58,6c.79-2.23,2.38-4.3,2.68-6.57l0-.26a18.46,18.46,0,0,0,.69,5.9c1.66,4.77,2,3.73,2.31,8.47S296.1,24.36,297.19,29c.45,1.93,4-.71,4,1.19-.14,8.61-.57,17.22-.92,26.42l6.83-1.15c-2,11.37-2.61,22.25-.13,33.22l6.9-.76c.14,1.52.31,2.76.34,4,.16,7-.09,14,.61,21,.27,2.65.61,5.84,2.05,8.36.52-.23,3.12-1.22,3.64-1.45-.37,7.8-3.7,15.78,1,23.44.88-3,12.41-41,40.6-67.09-4-15.14-6.93-28.06-8.33-37.46l3.75,12.2c2-.24,10.21-.64,31,4.74-2.07-2-4.17-4.07-6.21-6.14.39-3.18.67-7.07-1.14-9-5.68-6-12.13-11.2-18.32-16.7-1-.91-2.19-1.66-3.62-2.74,3.41-2.91,4.28-6.08,1.14-8.74C355.19,7.94,349.6,4.05,344.21-.09a13.12,13.12,0,0,1-3-2.74c-1.57-2.34-2.41-5.34-4.36-7.25-5.34-5.23-10.82-10.4-16.39-15.43l.22-.08c4.29,3.68,8.64,7.3,13.06,10.82,1.79,1.42,4.37,1.81,6.49,2.88a11.21,11.21,0,0,1,2.6,2.24c4,4.06,7.82,8.31,12,12.16,2.54,2.34,5.09,1.28,7.17-1.85,1,1.07,1.78,2,2.65,2.73,5.21,4.57,10.23,9.4,15.79,13.51,1.78,1.31,5,.67,7.59,0,4.54,3.48,8.85,7.22,13.61,10.39,8.5,5.67,5.35,3.59,8.94,1.49.73-.43,2.59.69,3.68,1.52,5.2,3.93,10.57,8.28,17.29,8.22.36-1.59.7-3,1.16-5.08,7.94,7.19,15.95,14.06,26.89,16.49.6-2.62,1-4.54,1.72-7.48,6.82,7.87,15.18,14.42,26.12,16.13.61-3.94.92-7.3,1.53-11.23,8.19,5.55,15.91,10.7,26.18,10.38-.74-4.43-1.39-8.29-2.15-12.79a46,46,0,0,0,29.86,7.48c-.61-3.53-1.07-6.23-1.43-8.35L566.91,46c-.17-3-.26-4.79-.35-6.32A282.1,282.1,0,0,0,613.79,37.78ZM303.44-38.55h.23l-.15,0Zm42.62-10.79c1.81-.1,3.63-.18,5.48-.26a14,14,0,0,1-2.14.32A14.71,14.71,0,0,1,346.06-49.34Z"/>
      <path class="rcm_logo-cls-3" d="M449.3,193.79c-25.83-20.62-55.49-27.72-55.49-27.72,32.27,1.86,53.8,25.75,55.49,27.67-1.17-12.15-8.38-20.5-16.12-29.34,4.55-1.3,8.35-2.52,12.92-3.82-3.63-12.7-12.31-20.82-23.06-28.9l8.6-3.13a118,118,0,0,0-55.24-16.14l8.54,27.75c38.92-2.84,60.6,20.09,60.6,20.09-24.62-16.41-55.09-19.54-60.57-20l18.61,60.47c18-2.69,41.5,24.7,43.15,26.64l.38,0c-.64-12.88-4.53-23.8-13.25-34.22l15.45.66A.09.09,0,0,0,449.3,193.79Z"/>
      <path class="rcm_logo-cls-3" d="M408.51,100.09,414.35,98a23,23,0,0,0-.7-3.27c-27-16.56-43.28-19.3-48.77-19.72l11.36,36.91c32-4.55,55.4,16.67,55.4,16.67C427.28,116.31,418.23,108.54,408.51,100.09Z"/>
      <path class="rcm_logo-cls-3" d="M446.71,227.38c-19.54-19.48-37.68-24.86-43-26.08l11.81,38.38c18.45,3.33,25.91,14.95,27.19,17.19l.24,0c-2.06-10.32-4-20.07-6-29.91Z"/>
    </g>
    <g>
      <path class="rcm_logo-cls-3" d="M384.32,418.4c-9.11-19-19.27-37.42-31.64-55l7.3-4.05a113.79,113.79,0,0,0-36.42-8.81c27,29.48,49.66,55.21,57.89,64.6Z"/>
      <path class="rcm_logo-cls-3" d="M267.3,290.82h0l-.22.06Z"/>
      <path class="rcm_logo-cls-3" d="M349.62,327l.64-.26c-6.88-13-16.19-22.47-30.25-29l16.32-6.78-.09-.15c-32-7.17-66-.5-68.94.1,8.29,8.47,16.78,17.33,25.22,26.26C317.06,308.54,347,325.4,349.62,327Z"/>
      <path class="rcm_logo-cls-3" d="M237.27,354.72l.27.21,11.29-11.28c4.12,12.46,14.26,21.9,25.95,28.6-.86-1.64-13.7-27-5.28-72.12-8.84-8.7-17.37-17-25.3-24.75C242.64,279.94,233.89,308,237.27,354.72Z"/>
      <path class="rcm_logo-cls-3" d="M274.81,372.27l.43.25c2.08-3.6,3.51-6.53,5.42-9.82,4.73,8.2,9,15.17,17.25,19.37-1.28-4-8.08-27.52-2.6-56.42-8.69-8.64-17.33-17.19-25.7-25.41C269.3,307,267.73,348.56,274.81,372.27Z"/>
      <path class="rcm_logo-cls-3" d="M339.58,331.1l10-4.13c-27.36-11.32-51.64-10.12-56.88-9.69,10.09,10.69,20.1,21.48,29.6,31.84a1.48,1.48,0,0,1,.57.51c18.61-4.14,35.48,8.37,37.16,9.66l.19-.1Z"/>
      <path class="rcm_logo-cls-3" d="M267.29,290.81c39.38-11.52,64.17-2.3,68.81-.31-7.09-11.82-18.51-17-30.71-22.34,3.9-3.37,7.12-6.36,11-9.71-24.55-1.63-55.84,9.16-67.71,13.68C254.67,278,260.92,284.3,267.29,290.81Z"/>
      <path class="rcm_logo-cls-3" d="M384.32,418.4l-2.87-3.29c-14.9-16.91-36.58-39.51-59.9-63.13a1.39,1.39,0,0,1-.67-.2l7,38.62c1.15-1.92,4.88-5.11,5.44-6.46l51.43,35.29C384.59,419,384.45,418.68,384.32,418.4Z"/>
      <path class="rcm_logo-cls-3" d="M320.66,351.61a1.58,1.58,0,0,1-.44-1c-8.12-8.21-16.42-16.53-24.69-24.77,0,7.53.25,44.05,2.47,56.25l.13.07c1.93-4.32,3.57-8.1,5.37-12.13,13.14,11.67,18.53,16.45,24.11,20.79.06-.13.14-.28.23-.44C327.6,389.64,319.14,362.82,320.66,351.61Z"/>
      <path class="rcm_logo-cls-3" d="M248.2,271.69c37.09-19.28,63.18-14.62,68.35-13.4l.38-.33c-9.9-11.4-22.81-15.62-37.85-18.79l7.4-7.4-.4-.38c-24.49.16-53.93,15.51-53.93,15.51,21.67-18.06,50-16,53.87-15.57-10.36-10.22-23.31-13.87-37.25-17.86l5-5c-5.5-8.5-13.79-10.93-22.09-14.08-1.74-.66-4.43-2-4.46-3.19-.17-5.66,4.49-3.55-8.21-9.26-7.1-3.2-14.56-5.48-21.86-8.19-1.13-3.49-2.72-7.65-5.52-8.76-8.76-3.44-18-5.74-27-8.44-1.51-.45-3.08-.67-5.08-1.09,2.12-4.66,1.49-8.37-3-9.61-7.47-2-15.14-3.38-22.72-5.06a14.73,14.73,0,0,1-4.47-1.37c-2.76-1.67-5.08-4.37-8-5.4-8.06-2.84-16.24-5.55-24.44-8.07l.19-.19c6.22,1.74,12.48,3.39,18.76,4.9,2.54.61,5.4-.23,8.11-.15a12.13,12.13,0,0,1,3.77,1.07c6.11,2.27,12.12,4.82,18.31,6.79,3.77,1.2,5.9-1.13,6.53-5.38,1.6.61,2.8,1.18,4.07,1.55,7.61,2.22,15.14,4.8,22.88,6.36,2.48.51,5.49-1.7,7.88-3.64,6.38,1.41,12.65,3.2,19.11,4.19,11.55,1.76,7.28,1.13,10-2.78.55-.8,3-.53,4.55-.2,7.28,1.56,15,3.47,21.88.16l-1.25-5.83c11.7,3.62,23.31,6.86,35.82,4.1-.64-3-1.12-5.21-1.84-8.58,8.61,3.84,17.8,6.35,27.3,5.49a4.48,4.48,0,0,1,.28-1.12c1.39-3.45,2.75-6.92,4.12-10.39-.23-.74-.46-1.49-.68-2.26l1.48.23c5.67-14.41,11.25-28.86,17-43.26,2.43-6.13,4.62-12.31,6.88-18.5,1.57-4.27,3.28-8.65,6.46-12a19,19,0,0,1,6.15-4.28c.5-.64,1-1.28,1.51-1.91.24-1.24.49-2.48.75-3.71-5,.79-9.66,3-14.7,5.62.16-3.19.35-5.87.52-9.36-11.43-.68-22.65,1.23-32,8.37-1-4.73-1.86-8.66-2.8-13.09-11.86.7-20.22,7.58-29.94,13.15L266,32.84c-12-.08-20.5,8.79-30.65,15.21-.87-2.72-1.61-5.29-2.49-8C224,39.92,219.21,46.86,213,51.2c-.07-.54-.59-3.16-.67-3.69-2.79.11-5.55,1.45-7.83,2.58-6,3-11.6,6.77-17.37,10.21-1,.61-2.12,1.1-3.42,1.77l-2.91-6c-10.17,3.58-18.72,9.58-26.91,17C153,71,152.41,69.63,151.31,67c-7.3,5-14.07,9.72-21,14.22-1.53,1-1.19-3.25-3-2.64a15.73,15.73,0,0,0-4.66,2.89c-.6-.73-1.09-1.32-1.7-2.08,6.79-2.4,12.86-5.44,18-10.17-1-1.34-1.69-2.34-2.54-3.51.79-.54,1.41-1,2.07-1.41,3.75-2.25,7.64-4.29,11.19-6.81a13.24,13.24,0,0,0,3.89-3.69c-.28-.21-1.62-1.32-1.91-1.52,4.41-2.25,9.87-2.88,12.55-8-1.31-1.35-2.55-2.56-3.84-3.9,6.8-3.84,14.49-6,18.15-12.88l-4.27-3.62C180.48,20,187,17.34,191,10.76l-6.63-5.63c7-3.19,11.52-9,14.65-15.78-2.06-1-3.65-1.69-5.52-2.58,4.28-3,8-5.65,9.85-10.4L196.58-26c5.76-7.66,8.13-10.81,10.24-14-1-.32-3.18-2.52-4-2.78l16.91-29.53a209.29,209.29,0,0,0-28.95,19.9l-2.61-3.92L173.81-43.94c-.72-1.43-1.65-3.24-2.86-5.61a34.19,34.19,0,0,0-14.46,17.73c-1.55-3-2.87-5.61-4.4-8.57-6.26,4.38-8.57,10.87-11,17.82-2.1-2.07-3.78-3.93-5.9-6-5.76,5.89-7.82,13.5-8.38,21.22L122.48-11c-5.44,6.31-7.15,14-8.68,21.77l-3-2.51c-4,3-5.29,7.94-6.63,12.59-.29,1-.9,2.47-1.52,2.54-3.07.35-2.12-2.3-4.66,4.86-1.43,4-2.33,8.15-3.49,12.24-1.84.77-4,1.81-4.51,3.39-1.48,4.91-2.32,10-3.39,15.06-.18.84-.23,1.7-.37,2.81-2.63-1-4.62-.44-5.09,2.08-.78,4.16-1.17,8.38-1.75,12.58a7.91,7.91,0,0,1-.54,2.49c-.79,1.58-2.15,3-2.58,4.6-.21.77-.4,1.54-.59,2.31l-.87-.87L73,86.75c.8-1.34,1.59-2.69,2.26-4.1.34-.7-.1-1.76-.5-2.62.9-1.79,1.9-3.53,2.68-5.38,1.39-3.31.88-2.08-.08-3.18-.2-.22.06-.94.28-1.37,1-2,2.14-4.19,1.68-6.5l-1.83-.06c2-3.22,3.78-6.44,3.89-10.37l-2.69-.09c2.26-2.88,3.95-6.19,3.81-10.08-1.39.06-2.57.17-4,.23,1.36-3.19,2.62-6.2,1.83-9.72l-4.27,1.6a16.14,16.14,0,0,0,.59-10.79L73.9,25.37c-.35-2.93-.69-5.84-1.06-8.92L70.69,17A98.82,98.82,0,0,0,66.9.84L63.42,16.53c-.37-.17-1.82-.09-2.28-.3-.29,1.8-.46,3.65-.88,8.16l-3.15-1.33c-.84,2.26-.42,4.36.14,6.76-.94-.28-1.72-.54-2.75-.85a14.31,14.31,0,0,0,.1,10.17L50.49,39c-.67,3.59.75,6.59,1.68,9.9l-2.64-.09c-.92,3.58,1.09,6.77,2.25,10.27l-2.58.14c-.69,2.63,1,4.59,1.84,6.77-.16,0-1-.06-1.14-.07a6.07,6.07,0,0,0,.18,2.52c.44,2,1.15,4,1.74,5.94.11.35.17.71.27,1.15l-2,.42a24.22,24.22,0,0,0,3.07,9.28l-2,.3c.94,2.55,1.84,4.92,2.67,7.31.18.53-1.06.12-1,.7.12,1.39,1.38,2.87,1.71,4.21a5.93,5.93,0,0,1,.13,2.57,4.24,4.24,0,0,0,.07.67C37.87,86,15.3,64.46,5,48.29a89.87,89.87,0,0,0,5,18.55c2.08,5.1,20.32,23.51,35.4,38.19,0,.14-.11.24-.28.18-2.4-.82-4.76-1.73-7.31-2.67l-.3,2a24.09,24.09,0,0,0-9.28-3.06c-.17.76-.28,1.33-.42,2-.44-.1-.8-.17-1.15-.27-2-.6-3.93-1.31-5.94-1.75a6.28,6.28,0,0,0-2.53-.18c0,.16.06,1,.08,1.15-2.19-.83-4.14-2.54-6.77-1.85-.06.89-.09,1.7-.14,2.58C7.85,102,4.67,100,1.09,100.94c0,1,.06,1.81.09,2.64-3.31-.93-6.31-2.36-9.9-1.68.05,1.38.09,2.62.14,4.1a14.39,14.39,0,0,0-10.16-.1c.31,1,.57,1.81.85,2.75-2.4-.56-4.5-1-6.76-.14.47,1.13.88,2.1,1.33,3.15-4.51.42-6.37.59-8.16.88.21.47.13,1.92.3,2.28l-15.69,3.48a98.82,98.82,0,0,0,16.15,3.79c-.13.52-.28,1.13-.54,2.16l8.92,1c-.27.71-.61,1.6-1.05,2.78a16.1,16.1,0,0,0,10.78-.58l-1.59,4.26c3.52.79,6.52-.47,9.71-1.83,0,1.39-.17,2.57-.22,4,3.89.14,7.2-1.56,10.08-3.82,0,1.06.06,1.75.09,2.69,3.93-.11,7.15-1.94,10.36-3.89,0,.74,0,1.26.07,1.83,2.31.47,4.45-.67,6.5-1.68.43-.21,1.15-.48,1.37-.28,1.1,1-.13,1.47,3.18.08,1.85-.77,3.59-1.78,5.38-2.67.86.4,1.92.83,2.62.5.41-.2.82-.42,1.22-.63l1.78,1.77a12.18,12.18,0,0,0-4,1.37c-2.46,1.6-1.82,1.62-4.45,2.47s-6.41.27-8.87,1.53c-1,.52,1,2.17-.11,2.41-4.88,1.12-9.81,2.07-15.06,3.16l1.61,3.7c-6.71.43-12.94,1.62-18.79,4.55.52,1.45.92,2.53,1.38,3.8-.84.29-1.52.56-2.21.75-3.94,1.06-8,1.9-11.79,3.27a12.26,12.26,0,0,0-4.43,2.32c.2.26,1.12,1.6,1.32,1.86-4.53.89-9.6.07-13.29,4,.83,1.55,1.63,2.95,2.45,4.48-7.08,1.72-14.53,1.67-19.58,6.95l2.91,4.35c-6.53,1.89-13.06,2.63-18.38,7.51l4.53,6.75c-7.08,1.08-12.64,5.17-17.17,10.44,1.59,1.4,2.84,2.45,4.3,3.73-4.61,1.57-8.58,3.05-11.5,6.83l5.51,3.89c-7.12,5.42-10,7.64-12.77,10,.84.55,2.22,3.07,2.89,3.52l-22.7,22.22a194.51,194.51,0,0,0,31.06-10.51l1.35,4.19,16.07-7.55c.29,1.47.66,3.33,1.15,5.77A31.87,31.87,0,0,0-53.1,233.29c.63,3.11,1.16,5.77,1.78,8.82,6.74-2.34,10.46-7.59,14.39-13.22,1.37,2.4,2.41,4.5,3.78,6.9,6.67-3.82,10.46-10.14,12.93-16.93l3,4.42c6.48-4.29,10-10.73,13.33-17.36l2,3c4.37-1.63,6.77-5.78,9.16-9.62.51-.81,1.43-2,2-1.9,2.84.47,1.31,2.61,5.42-3.18,2.29-3.23,4.16-6.73,6.24-10.11,1.85-.22,4.09-.6,4.91-1.9,2.59-4,4.64-8.41,6.89-12.67.37-.71.63-1.47,1-2.43,2.12,1.52,4,1.57,5.1-.57.77-1.54,1.46-3.11,2.14-4.69-.13,1.34-.27,2-1.45,4.63-1.83,4.09-6.74,8.13-7.91,12.52-.49,1.83,3.72,1.21,2.84,2.8-4,7.22-8.28,14.29-12.75,21.91l6.31,2.12c-6.88,8.69-12.28,17.63-15.15,28l6.18,2.49c-.58,1.34-1,2.47-1.53,3.53-3,6-6.44,11.83-9,18-1,2.36-2.12,5.2-2,8,.54,0,3.19.38,3.73.42C6.35,272.85-.24,278.14.47,287c2.8.68,5.41,1.25,8.19,1.93-5.72,10.56-14,19.63-13.08,31.62l8.52,1.23C-.79,331.84-7.08,340.65-7,352.53l13.25,1.9C-.2,364.29-1.33,375.61.14,387c3.46-.41,6.12-.78,9.29-1.15-3.15,7.36-5.71,13.86-4.31,21.6C9,406.54,12.35,405.77,16,405c-1.22,14.69-1.73,20.73-1.84,26.67,1.62-.42,6.22.67,7.5.34l2.17,52.29a322.06,322.06,0,0,0,21.39-49.61l6.6,3c2.93-9.66,5.69-18.79,8.49-28l8.32,5c5.29-11.18,6.94-22.18,4.29-34.92l12.76,7.55C90.2,376.38,87.88,366,85.33,355c4.44,1,8.14,2,12.6,3,2.67-12.38-.87-24-6.47-34.49l8.69,1.25c1.9-12.67-2.13-24-6.55-35.46l5.91.85c2.82-7.15.39-14.66-1.67-21.82-.44-1.51-.87-3.95-.11-4.56,3.71-2.95,4.64,1.26,2.09-10.14-1.43-6.37-3.65-12.51-5.5-18.78,1.77-2.52,3.77-5.67,3.1-8.1-2.09-7.62-5.18-15-7.92-22.4-.46-1.24-1.1-2.4-1.82-3.95,4.19-.92,6.37-3.21,4.92-6.88-2.39-6.05-5.35-11.87-8-17.81A12.26,12.26,0,0,1,83.24,172c-.27-2.7.38-5.61-.41-8.1l-.09-.29a20.88,20.88,0,0,0,3.57,5.77c4,4.14,3.84,2.92,6.48,7.66s3,12.26,6.31,16.51c1.39,1.78,3.81-2.68,4.7-.7,4,9,7.72,18.12,11.81,27.82l6.52-4.49c3.37,12.76,8,24.31,15.91,34.47l6.79-4.12c.87,1.52,1.65,2.71,2.28,4,3.55,7.18,6.69,14.6,10.78,21.46,1.55,2.61,3.44,5.75,6.16,7.67.42-.49,2.64-2.78,3.06-3.26,3.45,8.39,3.79,18.46,12.72,24.1,2.65-2.19,5.15-4.18,7.78-6.35,6,13,8.23,26.85,20.92,35.17l7.26-7.26c6.14,11.81,9.65,23.54,21.28,32.48-1.61-6.31-9.57-42.42,7.09-79.22-27.88-27.14-48.22-46.54-48.22-46.54C205.57,232.12,225.15,249.12,248.2,271.69ZM117.44,85.94a14.53,14.53,0,0,1-2.06,1.35,16.66,16.66,0,0,1-3.49,1.56C113.71,87.87,115.56,86.91,117.44,85.94Z"/>
    </g>
    <g>
      <path class="rcm_logo-cls-3" d="M157.58,504.25s.06-.6.18-1.66l-.24.27C157.54,503.33,157.55,503.78,157.58,504.25Z"/>
      <path class="rcm_logo-cls-3" d="M89.9,587l.93.15.24-.28Z"/>
      <path class="rcm_logo-cls-3" d="M126.11,540s0-.5.12-1.42l-.12.14Z"/>
      <path class="rcm_logo-cls-3" d="M163.61,500.8l1.49-.05.27-.31Z"/>
      <path class="rcm_logo-cls-3" d="M247,405.36l.37-.67a351.83,351.83,0,0,0-47.75,34.5l-4.52-6.46-.47.42c0,.11-.52,1.11-1.25,2.76-2.59,7.77-6.77,28.83-8.17,36.1C217.64,436.26,242.77,409.82,247,405.36Z"/>
      <path class="rcm_logo-cls-3" d="M221.79,487.45,222,487c-4.12-1.34-7.71-2.47-11.55-3.72,9.36-13.08,13.2-18.43,16.61-23.93l-.33-.12c-.19.16-.43.34-.71.54-4.36,3.41-22.73,17-46,23.78,0,0,38.48-18.47,46-23.78.3-.23.53-.41.69-.55-1.85-.81-5.18-4-6.48-4.37l26.7-49.29-81.53,94.87c8.84-1.85,48.49-10.17,55.41-12.5Z"/>
      <path class="rcm_logo-cls-3" d="M184.74,474.51s.17-.93.48-2.5c-.33.35-.65.71-1,1.06A7.86,7.86,0,0,0,184.74,474.51Z"/>
      <path class="rcm_logo-cls-3" d="M184.25,473.07c-2.45-9.3,5.88-29.71,9.14-37.16a10.26,10.26,0,0,1,1.2-2.72c-7.94,7.24-15.48,14.09-23.07,21l-5-9.29-.6.42-.09.17c-2.46,6.39-7.09,48.22-8.05,57.1C166.91,492.29,175.82,482.37,184.25,473.07Z"/>
      <path class="rcm_logo-cls-3" d="M293.7,733.8l47.36-7a293.9,293.9,0,0,0-47.17-14.71l2.06-6.29-26.27-5c.95-2,2.14-4.64,3.71-8a48.07,48.07,0,0,0-32.17-.56c2-4.34,3.69-8.06,5.64-12.33-10.28-3.11-19.48,0-29.25,3.36.46-4.13,1.06-7.6,1.51-11.74-11.52-1.26-21.73,3.08-30.76,9.18.12-3.15.2-5.21.3-8C177,672.1,167,676.85,157,682c.08-2.19.14-3.74.2-5.45-6.77-1.89-13.37,1-19.69,3.61-1.33.53-3.51,1.16-4.13.53-3-3.09.7-4.34-9.43-.93-5.66,1.91-11,4.52-16.56,6.8-2.46-1.37-5.52-2.89-7.67-2-6.73,2.64-13.11,6.15-19.61,9.35-1.08.54-2.08,1.23-3.42,2-1.24-3.73-3.53-5.49-6.73-3.82-5.28,2.75-10.29,6-15.43,9a11.33,11.33,0,0,1-3.23,1.56c-2.42.5-5.14.19-7.33,1.15l-.25.11a19.27,19.27,0,0,0,4.91-3.8C52.05,696,51,696.29,55,693.44s10.86-3.86,14.41-7.32c1.48-1.44-2.8-3.21-1.08-4.21,7.79-4.51,15.74-8.76,24.18-13.4L87.81,663c11.29-4.3,21.35-9.65,29.84-17.78l-4.4-5.78c1.3-.94,2.31-1.76,3.41-2.45,6.19-3.92,12.64-7.49,18.49-11.86,2.23-1.67,4.9-3.69,6.38-6.34-.48-.34-2.78-2.14-3.26-2.48,7.31-3.94,16.44-5.21,20.71-13.88-2.24-2.2-4.29-4.28-6.52-6.47,11-6.55,23.08-9.92,29.54-21.6-8.09,2.24-63.31,17.1-91.17,12.8L42.05,643.92c22-31.28,52.91-69,84.06-105.17.11-45.73,5.74-67.48,8.07-74.51.36-1.7.7-2.66,1-2.66,0,0-.38.83-1,2.66-2.69,12.49-7.17,65-8,74.37,10.51-12.2,21-24.22,31.29-35.75-1.63-35.72,6.4-53.69,8.29-57.37l.06-.16A57.19,57.19,0,0,0,143,475.2c-2.73-5-5.06-9.29-7.73-14.2-10.32,7.59-13.93,18.58-17.7,30.32-3.61-3.39-6.76-6.13-10.38-9.52-.16.16-.3.33-.45.5l3.88,69.8s-7.75-25.85-3.88-69.79c-9,10-11.6,22-13,35.71l-7.43-6a45,45,0,0,0-5,7.6c1.8,13.18,4.76,33.45,7.44,45.2,2,5.64,3.38,9.29,3.38,9.29-1-.3-2.14-3.9-3.38-9.29-3.4-9.83-8.38-25.73-10.2-39-2.59,7-3.89,14.46-5.27,22.27l-5-4.09c-7.21,5.82-8.62,13.59-10.7,21.44-.06.25-.14.52-.23.8l12,35a150.21,150.21,0,0,1-13.68-31.77,1,1,0,0,1-.55.3c-5.13.7-3.67-3.75-7.64,8.35C45.11,584.9,43.75,591.9,42,598.8c-3.07,1.37-6.7,3.21-7.44,5.86-2.29,8.31-3.5,16.9-5.09,25.4-.27,1.41-.32,2.86-.51,4.72-4.44-1.48-7.76-.55-8.45,3.7-1.14,7-1.63,14.1-2.43,21.15a13.8,13.8,0,0,1-.81,4.2c-1.26,2.67-3.49,5-4.15,7.81-1.81,7.61-3.49,15.31-5,23l-.19-.15q1.5-8.75,2.67-17.54c.31-2.37-.73-4.89-.92-7.36a11.28,11.28,0,0,1,.62-3.54c1.48-5.77,3.23-11.48,4.42-17.31.73-3.53-1.59-5.25-5.52-5.42.41-1.51.8-2.66,1-3.85,1.3-7.13,2.92-14.23,3.6-21.43.22-2.3-2.08-4.82-4.07-6.81.68-5.94,1.71-11.82,2-17.79.5-10.67.33-6.73-3.48-8.81-.78-.42-.78-2.69-.63-4.12.73-6.77,1.74-13.93-1.94-19.92L.48,562.29c2.17-11,4-21.86.29-33l-7.63,2.5c3.39-10.36,4.75-21.37.39-32.1-3.86,1.58-7,3.11-10.88,4.68.55-10.33,1-20-4.8-29.05-3.57,3-6.68,5.71-10.31,8.81a48.09,48.09,0,0,0-9.38-30.78l-6.72,5.78c-4-7.86-7.9-15.64-12.06-23.88L-66.1,439a295,295,0,0,0-27.1-41.31l6.3,47.45c-1.21-.1-5.19,1.62-6.7,1.49,1,5.33,2.44,10.69,5.86,23.74l-10.15-.51c0,7.2,3.29,12.65,7.29,18.79-2.91.16-5.37.25-8.56.42.48,10.47,3.28,20.49,10.68,28.35l-11.64,3.8c1.77,10.73,8.83,17.67,14.83,26l-7.49,2.45c1.09,11,10,17.81,16.78,26.43-2.4,1.05-4.66,2-7.07,3,.76,8.07,7.53,11.8,12.08,17.07-.48.12-2.82.84-3.29,1,.36,2.53,1.85,4.91,3.1,6.88,3.28,5.18,7.26,9.91,10.94,14.83.66.87,1.21,1.82,1.94,2.94L-63.47,625c4.22,8.91,10.5,16.11,18.06,22.85l-5.34,2.9c5.22,6.16,10.18,11.87,14.94,17.74,1.05,1.29-2.84,1.39-2.11,3a14.07,14.07,0,0,0,3.07,4l-1.72,1.75c-2.84-5.95-6.19-11.18-11-15.44l-2.95,2.65c-.56-.66-1.06-1.18-1.48-1.74-2.4-3.2-4.63-6.55-7.27-9.54A12.15,12.15,0,0,0-63,649.91c-.16.27-1,1.6-1.2,1.88-2.46-3.8-3.55-8.7-8.45-10.65-1.11,1.32-2.09,2.56-3.18,3.87-4.14-5.83-6.81-12.62-13.45-15.28L-92.16,634c-4.1-5.25-7.15-10.92-13.52-14l-4.49,6.58c-3.56-6-9.31-9.62-15.76-11.82-.69,2-1.19,3.47-1.82,5.26-3.1-3.61-5.9-6.68-10.4-8-.55,2.29-1,4.28-1.53,6.43-7.52-4.51-10.61-6.37-13.75-8-.2,1-2,3.14-2.15,3.91l-28.48-12.56a191.77,191.77,0,0,0,20.87,24.43l-3.32,2.75,12.71,11.87-4.82,3.14a31.24,31.24,0,0,0,17.51,11.45l-7.38,4.83c4.58,5.28,10.72,6.75,17.26,8.28-1.68,2.12-3.21,3.82-4.9,5.94,5.91,4.68,13,5.83,20.11,5.6-1.16,1.69-1.91,2.8-2.94,4.31,6.26,4.34,13.38,5.17,20.64,5.81-.8,1.18-1.38,2-2,2.93,3.07,3.39,7.72,4.06,12.08,4.84.92.16,2.34.57,2.46,1.13.6,2.76-1.89,2.15,4.86,3.78,3.78.91,7.64,1.34,11.47,2,.88,1.6,2,3.5,3.51,3.78,4.62.88,9.35,1.15,14,1.64.78.09,1.56,0,2.58.07-.61,2.48,0,4.24,2.38,4.43,3.86.31,7.74.26,11.61.38a7.69,7.69,0,0,1,2.32.26c1.51.57,2.9,1.68,4.43,1.91l2.16.32-.71.87,1.87,1.52a42.27,42.27,0,0,0-3.94-1.67c-.67-.24-1.6.26-2.34.7-1.71-.64-3.39-1.39-5.15-1.92-3.14-.94-2-.6-2.88.38-.18.2-.86,0-1.27-.12-2-.72-4-1.55-6.08-.91,0,.53.07,1,.12,1.67-3.11-1.46-6.22-2.82-9.8-2.55.06.87.1,1.5.17,2.46-2.83-1.78-6-3-9.53-2.51.18,1.27.4,2.33.58,3.59-3-.93-5.89-1.79-9-.73l1.85,3.72a14.73,14.73,0,0,0-9.86.5c.51,1,.91,1.81,1.22,2.43l-8,1.81c.33.91.52,1.45.69,1.91a90.57,90.57,0,0,0-14.33,5l14.61,1.67c-.12.35.09,1.66-.06,2.1,1.67.09,3.37.07,7.51,0-.3,1-.59,1.91-.91,3,2.14.55,4,0,6.14-.77-.17.88-.33,1.62-.51,2.58a13.15,13.15,0,0,0,9.24-1.06c.09,1.35.17,2.48.26,3.75,3.33.27,5.92-1.31,8.84-2.48.06.76.11,1.47.18,2.41,3.34.5,6-1.64,9.12-3,.13.79.24,1.53.37,2.33,2.47.38,4.08-1.36,6-2.32,0,.15,0,.9,0,1.05a5.77,5.77,0,0,0,2.28-.41c1.79-.59,3.5-1.43,5.23-2.16.31-.12.64-.22,1-.35.2.59.36,1.1.58,1.78a22,22,0,0,0,8.15-3.68c.16.61.26,1,.47,1.81,2.22-1.1,4.29-2.15,6.39-3.13.47-.21.21.95.73.85,1.25-.24,2.48-1.53,3.67-2a5.35,5.35,0,0,1,2.33-.36,3.84,3.84,0,0,0,.6-.13c-12,16.76-29.45,39.35-43.18,50.26a82.67,82.67,0,0,0,16.4-6.32C-32.9,776.92-17.9,758.57-6,743.44c.14,0,.23.08.19.24-.52,2.26-1.11,4.5-1.72,6.91l1.86.08a22.19,22.19,0,0,0-1.9,8.74l1.86.19c0,.41-.07.74-.13,1.07-.36,1.85-.82,3.69-1,5.56a5.68,5.68,0,0,0,.07,2.32l1-.18c-.55,2.07-1.91,4-1,6.34l2.36-.12c-.72,3.3-2.24,6.39-1.06,9.55l2.39-.33c-.53,3.1-1.54,6-.58,9.17l3.72-.53a13.13,13.13,0,0,0,.88,9.26c.91-.38,1.6-.69,2.42-1-.28,2.24-.46,4.19.52,6.17l2.74-1.51c.82,4.06,1.15,5.73,1.58,7.34.4-.24,1.73-.3,2.05-.5l4.67,13.94a91.49,91.49,0,0,0,1.9-15.05l2,.28c0-2.83.07-5.51.1-8.21l2.64.69A14.83,14.83,0,0,0,20,794.06l4,1c.39-3.27-1.05-5.88-2.59-8.66,1.27-.08,2.35-.09,3.63-.17-.25-3.55-2.11-6.41-4.44-8.81l2.44-.34c-.47-3.56-2.45-6.32-4.53-9l1.66-.23c.2-2.15-1-4-2.15-5.76-.24-.37-.55-1-.39-1.22.77-1.09,1.35,0-.23-2.9-.88-1.61-2-3.09-2.95-4.64.28-.82.58-1.82.21-2.43-.22-.36-.46-.7-.69-1l1.44-1.78a11.3,11.3,0,0,0,1.62,3.46c1.7,2.09,1.66,1.5,2.68,3.82s.86,5.8,2.24,7.92c.57.88,1.88-1.09,2.2-.14,1.49,4.34,2.83,8.73,4.31,13.41l3.22-1.82c1,6.06,2.71,11.62,5.94,16.66L41,789.74c.34.74.65,1.33.89,2,1.35,3.48,2.5,7,4.11,10.41a11.31,11.31,0,0,0,2.54,3.81c.21-.21,1.34-1.18,1.55-1.38,1.25,4,1,8.72,4.9,11.71,1.32-.9,2.52-1.77,3.83-2.66,2.24,6.28,2.92,13.06,8.2,17.14l3.67-3.06c2.35,5.77,3.65,11.64,8.59,16L85,838.9c1.66,6.34,5.92,11,11.15,14.62,1.12-1.58,2-2.82,3-4.27,1.86,4,3.59,7.51,7.31,9.81l3-5.39c5.61,6,7.91,8.42,10.32,10.67.42-.82,2.59-2.32,2.92-3l22.4,18.53a178.51,178.51,0,0,0-12.54-27.26L136.2,851l-8.4-13.9,5.14-1.6a29.22,29.22,0,0,0-12.82-14.74l7.85-2.47c-2.77-5.9-7.91-8.78-13.4-11.82,2.05-1.48,3.86-2.62,5.91-4.09-4.11-5.71-10.22-8.56-16.64-10.15l3.74-3.12c-4.52-5.49-10.71-8-17.07-10.47,1-.86,1.75-1.46,2.55-2.12-1.9-3.83-5.91-5.61-9.63-7.42-.78-.38-2-1.11-1.92-1.65.16-2.63,2.24-1.45-3.41-4.63-3.16-1.78-6.52-3.14-9.8-4.71-.38-1.67-.93-3.66-2.19-4.29-3.92-2-8.1-3.42-12.19-5.05-.68-.27-1.4-.44-2.31-.71,1.18-2.08,1-3.83-1-4.59-1.47-.55-3-1-4.47-1.5a11.14,11.14,0,0,1,4.35.88c3.9,1.27,8.05,5.35,12.15,6,1.71.27.74-3.5,2.27-2.84,6.95,3,13.8,6.16,21.16,9.49.57-2.57.87-3.92,1.32-5.93,8.56,5.42,17.21,9.48,26.94,11.09.64-2.23,1.11-3.9,1.67-5.85,1.28.39,2.34.66,3.36,1,5.75,2.18,11.38,4.72,17.27,6.45,2.23.66,4.93,1.44,7.46,1.1,0-.5,0-2.94,0-3.44,6.32,2.93,11.76,8.42,19.73,6.93.36-2.61.62-5,1-7.63,10.16,4.18,19.2,10.84,30,8.87.12-3.09.2-5.4.3-7.87,9.64,3.48,18.25,8.37,29.05,7.13.15-4.14.29-7.82.46-12.24,9.59,5,20,4.9,30.19,2.48-.71-3.12-1.3-5.5-2-8.35,7,2.16,13.16,3.87,20.07,1.85-1.17-3.44-2.19-6.42-3.27-9.62,13.48-.3,19-.41,24.43-.88C293.57,739.22,294.13,734.93,293.7,733.8ZM158.44,602.54s-61.08,11.77-90.68,12.35ZM5.55,716.88l-.12-.2.13.1A.31.31,0,0,1,5.55,716.88Zm-35.8-37.14a13.31,13.31,0,0,1,1.43,1.74,14.36,14.36,0,0,1,1.75,3Q-28.66,682.16-30.25,679.74Z"/>
      <path class="rcm_logo-cls-3" d="M182.45,573.58l-7.29-5.91c10.3-6.81,20.79-11.14,27.81-22.93l-11.35-9.19c11.09-5,18.77-15.33,23.74-26.79l-.69-.3c-5.52,2.62-44,20.46-74.77,21.66,0,0,63.32-17.27,74.71-21.69-3.13-1.37-5.76-2.34-8.7-3.66,6.92-5,12.79-9.54,15.86-17.27a3.54,3.54,0,0,1-1,.44,151.48,151.48,0,0,1-55.68,12.81l-74,86.14c8.19-.95,57.83-6.77,91-12.64C182.2,574,182.33,573.81,182.45,573.58ZM120.29,553.4s66.6-5.18,82.12-9.06C202.41,544.34,171.37,556,120.29,553.4Z"/>
    </g>
    <g>
      <path class="rcm_logo-cls-3" d="M559.34,397.35l-.11,0h0Z"/>
      <path class="rcm_logo-cls-3" d="M607.62,371.48l-1.3-.59-.47.27Z"/>
      <path class="rcm_logo-cls-3" d="M506.53,431.44a1,1,0,0,1-.24.15c4.32,28.68-19.37,52-19.37,52,13.87-19.2,17.76-43.65,18.7-51.64-7.6,3.93-15.15,7.82-22.56,11.62-6,18.9-27.39,37.46-32.52,41.7-.22.19-.43.35-.63.51l-.05,0,0,.13,35.26-14.3c.46,3.18,1,7.2,1.8,12.48,15.63-3.78,28.12-11.1,38.85-24.21.94,6.44,1.75,12,2.67,18.25,17.13-24.22,18.65-60.56,18.78-68.16C533.92,417.13,520.16,424.37,506.53,431.44Z"/>
      <path class="rcm_logo-cls-3" d="M482.32,443.91c-48.95,25-91.74,45.94-100.91,50.4l-1.61,1.42c22.88-4.57,45.43-10.43,67.7-18.92.57,2.18,1.25,4.73,2.36,9l.05,0,.63-.51C459.9,477.19,477.67,450.91,482.32,443.91Z"/>
      <path class="rcm_logo-cls-3" d="M527.94,343.06c-14.14,3.33-27.48,3.88-40.05,13.76,9.54,0,87.53.48,118.43,14.07,28.27-16,43-24.63,44.67-25.6L522.3,333.59Z"/>
      <path class="rcm_logo-cls-3" d="M487.33,357.26l8.91,15c-14.48,1-27.33,9.42-37.63,20.19.16.17.33.32.49.48,6.17-1.27,56.53-10.89,100.13,4.41q27.46-15.29,46.62-26.15c-11.34-2-74.57-13-118-14.31Z"/>
      <path class="rcm_logo-cls-3" d="M651,345.29h.09l.08-.12Z"/>
      <path class="rcm_logo-cls-3" d="M931,417.14l4.85-1.71-9.33-18.53,6.7-1.53a37.27,37.27,0,0,0-14.87-20.05L928.55,373c-3-7.8-9.21-12-15.91-16.4,2.75-1.67,5.17-2.95,7.94-4.63-4.68-7.67-12.18-11.9-20.21-14.57l5.08-3.61c-5.22-7.44-12.85-11.31-20.71-15l3.45-2.45c-2-5.06-7-7.73-11.53-10.4-1-.56-2.38-1.61-2.29-2.29.46-3.34,3-1.62-3.89-6.23-3.85-2.59-8-4.66-12-7-.32-2.15-.84-4.75-2.38-5.68-4.8-2.89-10-5.15-15-7.63-.85-.42-1.74-.7-2.88-1.14,1.71-2.53,1.71-4.77-.83-5.95-4.19-1.94-8.56-3.49-12.84-5.22A8.82,8.82,0,0,1,822,263.5c-1.46-1.25-2.55-3.07-4.17-4l-2.29-1.24,1.16-.68-1.48-2.48c1.21,1.22,2.43,2.42,3.73,3.5.66.55,1.9.37,2.91.18,1.65,1.43,3.22,2.95,5,4.27,3.13,2.36,2,1.49,3.39.77.28-.15,1,.32,1.37.66,1.9,1.62,3.86,3.4,6.43,3.53.18-.61.34-1.15.56-1.92,2.88,2.92,5.79,5.72,9.92,6.9.29-1,.5-1.72.82-2.83,2.44,3.17,5.49,5.85,9.64,6.75.32-1.5.51-2.78.83-4.26,3,2.3,5.85,4.44,9.78,4.54-.18-1.71-.34-3.2-.54-4.94a17.6,17.6,0,0,0,11.26,3.52c-.16-1.37-.27-2.4-.36-3.23l9.71,1.28c0-1.15,0-1.83,0-2.42a108.56,108.56,0,0,0,18.1.33l-15.66-7.9c.28-.34.58-1.9.93-2.33-1.83-.79-3.74-1.47-8.39-3.13l2.24-3c-2.17-1.5-4.5-1.61-7.19-1.67.56-.91,1-1.67,1.64-2.68-3.26-2-6.88-3.23-10.78-2.62.45-1.55.83-2.85,1.25-4.31-3.61-1.67-7.17-1-10.92-.87.25-.87.48-1.69.8-2.77-3.54-1.94-7.45-.67-11.46-.38.17-.95.36-1.82.54-2.77-2.6-1.44-5.13-.16-7.66.13.06-.17.32-1,.39-1.19a6.85,6.85,0,0,0-2.73-.48c-2.24-.08-4.5.15-6.74.25-.4,0-.8,0-1.29,0,0-.74.06-1.38.09-2.22a26.23,26.23,0,0,0-10.65.75c.08-.76.13-1.26.23-2.22-2.95.31-5.69.63-8.45.86-.61,0,.16-1.15-.47-1.25-1.5-.25-3.41.69-4.91.68a6.44,6.44,0,0,1-2.76-.56,4.77,4.77,0,0,0-.73-.1c20.38-13.8,49.22-31.9,69.09-38.45a97.74,97.74,0,0,0-21,.31c-6,.83-30.33,15.19-49.91,27.2-.14-.08-.23-.18-.12-.34,1.52-2.32,3.11-4.58,4.79-7l-2.06-.86a26.45,26.45,0,0,0,5.74-9l-2-1c.23-.44.39-.81.6-1.15,1.16-1.93,2.43-3.8,3.44-5.81a6.82,6.82,0,0,0,.87-2.62c-.18,0-1.06-.21-1.24-.23,1.47-2.09,3.8-3.7,3.77-6.67-.92-.3-1.78-.55-2.69-.85,2.16-3.39,5.14-6.22,5.13-10.25l-2.82-.62c1.88-3.25,4.2-6,4.44-10l-4.38-1c2.4-3.14,3.05-6.9,2.83-10.73l-3.13.16c1.23-2.38,2.24-4.49,2-7.11-1.32.19-2.46.37-3.69.56.76-4.89,1.08-6.89,1.26-8.87-.55.1-2.06-.38-2.5-.3l.53-17.53a108.57,108.57,0,0,0-8.34,16.07l-2.14-1.15-3.5,9.15-2.67-1.85a17.6,17.6,0,0,0-2.27,11.57L791,150.81c-1.79,3.51-1.26,7-.67,10.76-1.46-.43-2.68-.86-4.14-1.3-1.2,4.08-.29,8,1.33,11.69l-2.87-.62c-.94,4.19.13,8.08,1.33,12l-1.95-.43c-1.12,2.32-.48,4.89,0,7.33.11.52.2,1.35-.07,1.53-1.31.9-1.52-.53-.94,3.34.32,2.17.92,4.27,1.38,6.41-.65.8-1.39,1.8-1.23,2.64.1.49.22,1,.34,1.46l-2.35,1.4a13.33,13.33,0,0,0-.39-4.55c-1-3-1.23-2.37-1.42-5.38s1.44-6.85.77-9.79c-.28-1.22-2.56.45-2.53-.76.13-5.47.44-10.94.71-16.78l-4.35.7c1.34-7.21,1.76-14.13.22-21.1l-4.39.44c-.07-1-.18-1.75-.19-2.54-.07-4.45.12-8.93-.3-13.35a13.42,13.42,0,0,0-1.27-5.31c-.33.14-2,.76-2.31.9.27-5,2.5-10.17-.65-15.13-1.85.46-3.55.93-5.39,1.39.09-8,2.13-15.83-2.1-22.58l-5.38,1.91c-.24-7.42.73-14.53-3-21.46l-8.36,3c.76-7.78-2.07-14.77-6.44-21-1.91,1.32-3.35,2.35-5.1,3.56-.42-5.3-.92-9.9-4.14-14L719.61,50c-3.82-9-5.38-12.69-7.15-16.2-.82.75-3.86,1.52-4.5,2.12l-17.43-30a213.14,213.14,0,0,0,2.78,35.69l-4.78.3c1.26,6.57,2.46,12.77,3.66,19l-6.41-.33a34.85,34.85,0,0,0,8.27,21.79l-9.81-.48c.67,7.76,5.23,13.11,10.12,18.78-2.9.8-5.4,1.33-8.31,2.14,2.26,8.08,7.92,13.79,14.45,18.23L695,123c2.8,8,8.67,13.43,14.79,18.77l-3.72,1.32c.54,5.07,4.29,8.72,7.71,12.28.72.75,1.73,2.05,1.47,2.64-1.26,2.88-3.11.7,1.91,6.59,2.81,3.3,6,6.21,9,9.32-.26,2-.46,4.48.69,5.71,3.58,3.82,7.65,7.17,11.56,10.68.65.59,1.39,1.07,2.29,1.76-2.18,1.83-2.75,3.85-.76,5.55,1.42,1.22,2.9,2.38,4.38,3.52-1.38-.5-2-.82-4.5-2.77-3.85-3-6.8-9.32-11.13-11.73-1.81-1-2.28,3.61-3.72,2.24-6.56-6.19-12.9-12.59-19.77-19.36l-3.93,6.1C694,166,686,157.91,675.73,152.09c-1.64,2.23-2.86,3.9-4.29,5.86-1.27-1-2.35-1.71-3.33-2.56-5.53-4.82-10.79-10-16.66-14.35-2.23-1.66-4.94-3.65-7.91-4.31-.18.56-1.26,3.27-1.44,3.83-5.86-5.88-9.7-14.27-19.23-15.9-1.48,2.78-2.78,5.39-4.24,8.15-9.65-8.88-17-20.06-30-22.33l-3.59,8.69c-9.35-7.88-17-16.9-29.58-20-1.88,4.57-3.56,8.62-5.57,13.51-8.69-9.51-20.36-13.74-32.78-15.24-.49,3.78-.81,6.69-1.27,10.15-6.94-5.31-13.13-9.77-21.7-10.36-.11,4.33-.2,8.09-.31,12.13-15.21-5.24-21.47-7.4-27.71-9.1,0,1.81-2.39,6.39-2.38,7.84l-55.9-11.74a351,351,0,0,0,46.74,35.94c-1.19,1.5-2.57,3.25-4.91,6.19L477.05,155l-7.47,7.48c10.4,8.6,21.59,13.3,35.79,13.91L494,187.88c10.23,7.72,21.81,8,34.14,8.3-2.21,4.44-4.32,8.08-6.54,12.53,12.38,6.16,25.61,5.52,38.23,2.42L556.14,220c12.9,5.41,26,4.19,39.27,2.59-1,2.42-1.7,4.13-2.48,6,6.8,4.91,15.41,4.35,23.53,4.09,1.71-.05,4.42.15,4.85,1.11,2.13,4.72-2.58,4.57,10.17,4.93,7.13.2,14.22-.5,21.35-.77,2.19,2.55,5,5.51,7.74,5.45,8.62-.17,17.22-1.47,25.82-2.37,1.44-.15,2.84-.52,4.67-.87-.15,4.69,1.69,7.61,6,7.06,7-.91,14-2.48,21-3.72a13.51,13.51,0,0,1,4.26-.42c2.92.44,5.83,1.91,8.67,1.75l.34,0a22.66,22.66,0,0,0-7.07,2.22c-5.46,3.15-4.12,3.29-9.85,4.8s-13.76-.16-19.16,2.25c-2.25,1,1.81,4.75-.52,5.16-10.59,1.83-21.24,3.31-32.61,5l3,8.11c-14.41.15-27.88,2-40.74,7.59,1,3.15,1.68,5.51,2.53,8.28-1.83.52-3.31,1-4.82,1.34-8.55,1.83-17.25,3.17-25.6,5.65-3.18.94-7,2.1-9.77,4.46.41.58,2.23,3.54,2.63,4.12-9.8,1.39-20.55-.95-28.91,7,1.6,3.39,3,6.56,4.62,9.93-15.36,2.86-30.62,1.5-42.82,12.7l.06.09c7-.24,102-3.24,141.82,13l-13-1.18c-6,8.83-36.42,27.56-74.83,48.88,14.06,31.58-7.85,72.57-7.85,72.57,13.33-41,9.58-64.43,7.46-72.35-9,5-18.45,10.14-28.12,15.32a1.22,1.22,0,0,1-.19.12c7.3,32.93-16.87,65.45-19.07,68.32l.12.82c14.69-4.25,23.27-15.06,32.33-26.64,2.65,5.28,5,9.64,7.69,14.94,14.72-7.41,22.65-19.94,30-35l5.84,9.81c14-8.21,21.4-21.11,29.49-35,1.59,2.67,2.72,4.58,4,6.67,10.47-3.54,15.26-11.67,20.82-19.6,1.18-1.67,3.35-4.14,4.58-3.87,6,1.34,2.55,5.71,12-6.19,5.29-6.66,9.7-13.94,14.54-20.93,4-.27,8.82-.83,10.74-3.5,6-8.34,10.9-17.47,16.19-26.33.88-1.47,1.53-3.08,2.51-5.08,4.37,3.5,8.46,3.83,11-.64,4.17-7.37,7.64-15.12,11.45-22.69a16.25,16.25,0,0,1,2.65-4.36c2.51-2.48,6-4.21,7.87-7,5.16-7.77,10.23-15.69,15.1-23.69l.15.25q-5.28,9.18-10.22,18.54c-1.33,2.52-1.2,5.78-2,8.62a13.69,13.69,0,0,1-2.14,3.7c-4,5.85-8.36,11.52-12.1,17.55-2.28,3.66-.39,6.54,3.94,8.36-1.08,1.52-2,2.64-2.73,3.88-4.4,7.45-9.15,14.74-12.88,22.51-1.2,2.48.33,6.26,1.74,9.3-3.2,6.38-6.79,12.53-9.56,19.1-5,11.75-3.15,7.4.26,11.31.69.79-.25,3.33-1,4.87-3.6,7.28-7.69,14.88-6.05,23.1l6.51.25c-7,11.4-13.52,22.82-13.95,36.8l9.57.36c-8.06,10.19-14.13,22-13.67,35.78,5-.18,9.15-.58,14.11-.75-4.89,11.33-9.4,22-6.62,34.51l15.18-5.62c-5.34,13.17-5.71,25.31-2.21,38.34l9.91-3.69,3.65,31.71,7.67-1.9a351.37,351.37,0,0,0,13.28,57.45l12.54-55.73c1.32.61,6.47.33,8.12,1.09,1-6.39,1.68-13,3.23-29l11.16,4.75c3-8,1.54-15.51-.41-24,3.33,1,6.12,1.94,9.76,3.06,3.79-11.91,4.78-24.29-.25-36.14l14.6.54c2.44-12.74-2.6-23.42-5.88-35.21l9.39.35c3.31-12.7-3.8-24.06-7.87-36.52,3.12-.18,6-.28,9.17-.47,2.48-9.35-3.57-16.32-6.48-24.1.58.07,3.5.22,4.08.28.64-3,0-6.26-.63-9-1.53-7.15-4-14.09-6.14-21.12-.37-1.24-.59-2.53-1-4.09l7.12-1.47c-1-11.72-5.11-22.37-10.79-33l7.18-1c-3.31-9.05-6.5-17.49-9.41-26-.64-1.88,3.76-.39,3.59-2.45a16.75,16.75,0,0,0-1.81-5.71l2.66-1.24c.72,7.82,2.31,15.07,5.93,21.81l4.39-1.74c.36,1,.7,1.75.94,2.56,1.37,4.57,2.48,9.23,4.2,13.67a14.66,14.66,0,0,0,2.86,5.11c.3-.25,1.83-1.37,2.12-1.61,1.19,5.27.39,11.21,5.08,15.41,1.78-1,3.39-2,5.15-3,2.23,8.23,2.42,16.94,8.75,22.66,2-1.39,3.42-2.42,5-3.54,2.42,7.58,3.49,15.19,9.37,21.24l7.74-5.51c1.49,8.24,6.45,14.61,12.76,19.74,1.58-1.91,2.77-3.4,4.22-5.15,2,5.33,3.84,9.93,8.35,13.22,1.57-2.34,2.91-4.38,4.37-6.57,6.56,8.15,9.25,11.51,12.1,14.61.62-1,3.52-2.69,4-3.49l26.7,25.82A227.7,227.7,0,0,0,931,417.14ZM803.3,299.84a17.74,17.74,0,0,1-.71-4.11q.81,3.28,1.59,6.66A16.44,16.44,0,0,1,803.3,299.84Z"/>
      <path class="rcm_logo-cls-3" d="M779.43,246c0,.1,0,.2.05.29l-.1-.17Z"/>
      <path class="rcm_logo-cls-3" d="M459.15,392.94c3,2.91,5.59,5.11,8.39,7.85-9.81,2.77-18.24,5.4-24.86,12.77l.2,0a255.09,255.09,0,0,1,82,1.92s-66.38-4.07-82-1.92l-.2,0-.45.49c4,3.2,7.61,5.95,11.39,8.94-15.87,10.77-22.38,15.18-28.47,19.93a3.84,3.84,0,0,1,.34.28q.54-.21,1.17-.42c7.56-2.77,37.57-12.84,63.71-8.36,0,0-49.16,3.54-63.71,8.36l-1.16.44c1.73,1.68,4.14,6.6,5.44,7.56l-49.27,43.3c75.15-40.24,134.15-72.61,177.54-96.76C556.35,396.76,504.26,386.85,459.15,392.94Z"/>
    </g>
    <g>
      <path class="rcm_logo-cls-3" d="M341.1,561l-4.88-5.83-.86.93-7.83,44.91,54.76-75.77A334.76,334.76,0,0,0,341.1,561Z"/>
      <path class="rcm_logo-cls-3" d="M333.46,597.37l.41-.1.15-.21Z"/>
      <path class="rcm_logo-cls-3" d="M327.53,601.05l-.09.12c0,.17,0,.34,0,.51Z"/>
      <path class="rcm_logo-cls-3" d="M362.15,574.37l21.93-50.43c-.53.38-1.05.78-1.57,1.17C378,532,358.08,562.37,334,597.06l35-19C367.24,577.67,363.5,574.64,362.15,574.37Z"/>
      <path class="rcm_logo-cls-3" d="M456,836.09l44.89-10.65a283.46,283.46,0,0,0-46.52-10.19c.35-1.5.77-3.26,1.46-6.22l-25.64-2.65c.73-2,1.67-4.63,2.89-8a46.29,46.29,0,0,0-30.94,2.14l4.39-12.31c-10.14-2.13-18.7,1.61-27.81,5.66.1-4,.38-7.38.48-11.4-11.17-.24-20.62,4.77-28.78,11.38-.15-3-.24-5-.37-7.73-11.29.48-20.45,5.87-29.6,11.61-.1-2.11-.17-3.61-.25-5.25-6.66-1.25-12.76,2.12-18.61,5.1-1.23.63-3.27,1.41-3.92.85-3.19-2.71.31-4.22-9.13-.1-5.28,2.3-10.22,5.25-15.34,7.9-2.47-1.11-5.54-2.31-7.53-1.32-6.24,3.09-12.08,7-18.06,10.61-1,.6-1.89,1.36-3.11,2.24-1.5-3.48-3.85-5-6.78-3.1-4.84,3.08-9.38,6.61-14.07,9.93a10.77,10.77,0,0,1-3,1.77c-2.28.68-4.91.61-6.94,1.71l-.23.13a18.8,18.8,0,0,0,4.4-4.06c2.9-4.18,1.88-3.82,5.54-6.89s10.11-4.62,13.23-8.23c1.31-1.51-3-2.85-1.39-4,7.11-5,14.39-9.73,22.1-14.89l-5-4.89c10.48-5.06,19.7-11,27.17-19.55l-4.7-5.18c1.17-1,2.07-1.89,3.07-2.65,5.62-4.27,11.51-8.24,16.77-12.92,2-1.79,4.39-4,5.6-6.62-.5-.29-2.85-1.82-3.34-2.11,6.68-4.39,15.35-6.37,18.73-15.05-2.34-1.93-4.48-3.75-6.8-5.67,10.25-7.37,21.86-11.62,26.93-24l-7.49-5.06c9.32-7.4,19-12.43,24.79-24.34l-11.66-7.88c10.23-5.73,16.74-16.29,20.56-27.7-3.46-1.2-6.23-1.94-9.41-3,6.2-5.38,11.44-10.19,13.76-17.8-4.11,5.41-46.26,16.25-46.26,16.25,22.29-7.43,44.56-16,46.42-16.76l0-.08c-4.07-1-7.61-1.73-11.4-2.62,7.89-13.33,11.13-18.79,13.95-24.35l0,0c-2.13,1.58-22.47,16.47-35.17,19.16-26.09,37.61-57,80.25-78.44,103.55l72-99.65A172.86,172.86,0,0,1,335,556.53l-19.64,21.25-5.6-8.5-.13.11c-6.39,25.84-10.23,62.89-10.23,62.89-2.38-30.93,8.37-58.56,10.11-62.79-10,8.1-16.51,17.69-19.82,30.84l-8.47-12.78-7.68,53.79c-1.2-22.85,6.53-50.16,7.63-53.88l-.08-.12c-9.28,8.16-11.83,19-14.47,30.59-3.75-2.95-7-5.32-10.76-8.28-8.21,10.48-9.7,22.36-9.92,35.91l-7.65-5.17c-7.4,10.81-8.38,22.79-9.52,35.72l-5.19-3.51c-6.44,6.19-7.15,13.77-8.48,21.48-.29,1.62-1,4.18-2,4.4-4.87,1.1-3.83-3.29-6.64,8.66-1.57,6.68-2.3,13.52-3.42,20.29-2.83,1.57-6.17,3.64-6.65,6.25-1.52,8.16-2,16.52-2.78,24.81-.14,1.38-.06,2.78-.09,4.57-4.39-1-7.5.12-7.81,4.26-.52,6.81-.39,13.67-.57,20.51a13.21,13.21,0,0,1-.43,4.1c-1,2.67-2.94,5.13-3.34,7.85-1.1,7.45-2.08,15-2.89,22.51l-.19-.13q.71-8.53,1.1-17.07c.1-2.3-1.11-4.63-1.5-7a11,11,0,0,1,.3-3.45c.94-5.66,2.14-11.29,2.81-17,.4-3.46-2-4.92-5.75-4.75.26-1.49.54-2.62.65-3.78.65-7,1.62-13.91,1.68-20.88,0-2.22-2.4-4.46-4.48-6.2.15-5.76.66-11.49.42-17.25-.4-10.29-.24-6.49-4.07-8.17-.78-.34-1-2.52-.94-3.9.13-6.56.5-13.52-3.53-19l-4.83,2.06c1.17-10.73,2-21.33-2.46-31.69l-7.12,3c2.38-10.22,2.77-20.91-2.31-30.85-3.58,1.83-6.5,3.57-10.06,5.39a93.9,93.9,0,0,0-1.1-13.52,32,32,0,0,1-12.79,2.86c-8.4.4-16.76-1.48-25.14-1.8C89,628.86,78.92,628.7,68.82,628c-1.73-.12-3.79-.18-6-.31,1.13,1.65,2.39,3.28,3.71,5-2.79.4-5.14.69-8.18,1.12,1.32,10,4.85,19.4,12.61,26.33l-10.86,4.62c2.59,10.15,10,16.23,16.4,23.71l-7,3c2,10.42,11,16.27,18.31,24-2.21,1.21-4.31,2.28-6.54,3.5,1.4,7.69,8.22,10.7,13,15.38-.45.16-2.63,1.05-3.08,1.2.56,2.4,2.19,4.56,3.55,6.35,3.58,4.7,7.8,8.9,11.75,13.32.7.79,1.3,1.65,2.1,2.67l-4.7,3.52c4.8,8.2,11.43,14.59,19.25,20.44L118.31,785c5.52,5.48,10.76,10.54,15.82,15.78,1.11,1.15-2.62,1.58-1.78,3a13.63,13.63,0,0,0,3.28,3.55l-1.51,1.82c-3.22-5.47-6.88-10.22-11.83-13.9l-2.62,2.78c-.6-.59-1.11-1-1.57-1.55-2.57-2.87-5-5.89-7.77-8.55a11.74,11.74,0,0,0-3.84-2.74c-.13.27-.87,1.62-1,1.9-2.68-3.44-4.14-8.06-9-9.52-1,1.36-1.79,2.63-2.73,4-4.46-5.25-7.59-11.54-14.19-13.55-.94,1.69-1.66,3-2.42,4.3-4.37-4.71-7.77-9.9-14.14-12.3l-3.77,6.68c-3.92-5.5-9.73-8.46-16.11-10-.5,1.94-.85,3.44-1.31,5.21-3.28-3.22-6.22-5.93-10.65-6.79-.34,2.25-.62,4.2-.94,6.3-7.59-3.7-10.71-5.22-13.86-6.51-.11,1-1.65,3.18-1.74,3.93l-28.39-9.69A183.49,183.49,0,0,0,8.3,770.88l-3,2.92,13.2,10.34-4.38,3.42a30.19,30.19,0,0,0,17.77,9.54l-6.68,5.25c4.84,4.68,10.85,5.59,17.26,6.51C41.08,811,39.75,812.8,38.3,815c6.06,4,13,4.52,19.78,3.71-1,1.72-1.6,2.85-2.47,4.38,6.38,3.64,13.29,3.85,20.3,3.86l-1.67,3c3.23,3,7.75,3.25,12,3.63.9.09,2.29.36,2.46.89.81,2.6-1.64,2.22,5,3.22,3.7.56,7.44.65,11.17,1,1,1.47,2.25,3.19,3.69,3.34,4.5.46,9.07.33,13.61.41.76,0,1.51-.09,2.49-.15-.38,2.43.39,4.07,2.66,4.06,3.72,0,7.45-.4,11.18-.6a7.36,7.36,0,0,1,2.25.05c1.49.42,2.91,1.37,4.41,1.47.69.05,1.39.08,2.09.12l-.6.9,1.92,1.3c-1.3-.47-2.6-.93-3.93-1.27-.66-.18-1.51.38-2.18.87-1.7-.48-3.37-1.05-5.1-1.42-3.1-.64-2-.41-2.74.61-.16.2-.83.1-1.24,0-1.94-.53-4-1.16-5.91-.37.08.5.16,1,.25,1.59-3.1-1.14-6.2-2.19-9.62-1.63.13.83.23,1.43.37,2.35a13.46,13.46,0,0,0-9.36-1.61c.28,1.2.58,2.2.86,3.39-3-.64-5.8-1.23-8.71,0l2.09,3.42a14.18,14.18,0,0,0-9.43,1.3L95.28,859l-7.54,2.41.83,1.77a87.22,87.22,0,0,0-13.35,6l14.17.38c-.09.35.22,1.59.12,2,1.6-.05,3.23-.22,7.21-.61l-.62,2.95c2.1.35,3.84-.37,5.83-1.25-.09.86-.18,1.58-.28,2.52a12.66,12.66,0,0,0,8.78-1.79c.2,1.29.38,2.37.57,3.58,3.21,0,5.57-1.76,8.28-3.12.12.72.23,1.4.37,2.3,3.25.2,5.67-2.08,8.51-3.66l.55,2.2c2.4.16,3.8-1.64,5.55-2.73,0,.15.12.87.13,1a5.58,5.58,0,0,0,2.16-.58c1.66-.72,3.23-1.66,4.84-2.51.29-.15.59-.26,1-.42.24.55.43,1,.7,1.66a21.41,21.41,0,0,0,7.52-4.21c.21.57.34,1,.6,1.69,2.05-1.23,4-2.41,5.88-3.53.43-.25.28.9.77.75,1.18-.33,2.26-1.67,3.36-2.18a5.38,5.38,0,0,1,2.21-.55,3.23,3.23,0,0,0,.57-.17c-10.16,17.09-25,40.23-37.28,51.86a79.85,79.85,0,0,0,15.22-7.43c4.07-2.66,16.94-21.53,27.12-37.05.13,0,.22.06.2.21-.31,2.22-.7,4.42-1.08,6.78l1.79-.08a21.46,21.46,0,0,0-1.09,8.55l1.8,0c0,.4,0,.72,0,1-.18,1.81-.47,3.62-.52,5.43a5.68,5.68,0,0,0,.27,2.22c.14,0,.84-.22,1-.26-.35,2-1.5,4-.46,6.17l2.26-.31c-.42,3.22-1.62,6.32-.22,9.26l2.27-.52c-.26,3-1,5.86.2,8.85l3.53-.81a12.62,12.62,0,0,0,1.62,8.82l2.23-1.2c-.08,2.17-.09,4,1,5.87l2.5-1.67c1.12,3.83,1.58,5.4,2.13,6.91.37-.26,1.64-.43,1.92-.64L196,948a87.64,87.64,0,0,0,.57-14.61l2,.1c-.2-2.72-.39-5.29-.58-7.89l2.58.44a14.24,14.24,0,0,0-2.31-9.24l3.95.67c.1-3.18-1.49-5.57-3.21-8.1,1.22-.19,2.25-.29,3.47-.47a13.54,13.54,0,0,0-5-8.09l2.32-.53c-.76-3.38-2.88-5.86-5.11-8.32l1.57-.36c0-2.08-1.33-3.74-2.54-5.34-.26-.34-.61-.92-.47-1.14.65-1.11,1.29-.14-.47-2.77-1-1.47-2.14-2.81-3.21-4.21.2-.81.4-1.8,0-2.35-.24-.32-.49-.64-.75-1L190,873a10.68,10.68,0,0,0,1.85,3.19c1.8,1.86,1.71,1.3,2.89,3.44s1.3,5.5,2.8,7.42c.62.8,1.72-1.21,2.11-.31,1.79,4,3.44,8.14,5.25,12.51l2.94-2a42.26,42.26,0,0,0,7.09,15.5l3.06-1.84c.39.68.73,1.22,1,1.79,1.59,3.23,3,6.57,4.81,9.66a10.92,10.92,0,0,0,2.76,3.44c.19-.21,1.19-1.24,1.38-1.45,1.53,3.77,1.67,8.29,5.67,10.84,1.2-1,2.28-1.91,3.46-2.88,2.68,5.85,3.89,12.3,9.3,15.78l3.27-3.24c2.74,5.34,4.47,10.86,9.59,14.65l5.08-5.06c2.12,6,6.6,10.08,11.92,13.12.94-1.62,1.64-2.87,2.5-4.35,2.13,3.72,4.09,6.91,7.85,8.81.87-1.94,1.62-3.62,2.44-5.43,5.89,5.26,8.3,7.43,10.8,9.38.34-.82,2.29-2.43,2.56-3.09l23.05,15.92a171.86,171.86,0,0,0-14.31-25.12l3.4-1.87-9.22-12.64,4.79-2a28.07,28.07,0,0,0-13.53-13.08l7.34-3c-3.16-5.44-8.33-7.78-13.86-10.24,1.84-1.59,3.49-2.84,5.34-4.43-4.43-5.13-10.53-7.36-16.83-8.35l3.34-3.31c-4.81-4.9-11-6.84-17.27-8.63l2.27-2.25c-2.14-3.51-6.14-4.9-9.86-6.32-.79-.3-2-.91-2-1.43-.07-2.54,2-1.57-3.67-4.16-3.18-1.44-6.52-2.47-9.79-3.7-.51-1.57-1.21-3.44-2.47-3.94-3.93-1.56-8.06-2.61-12.12-3.83-.68-.21-1.38-.31-2.28-.5,1-2.09.68-3.76-1.35-4.32-1.46-.4-2.94-.74-4.42-1.06a10.88,10.88,0,0,1,4.25.47c3.85.91,8.17,4.47,12.17,4.75,1.66.12.42-3.42,1.94-2.92,6.92,2.27,13.76,4.77,21.11,7.35.34-2.52.51-3.83.77-5.81,8.67,4.5,17.32,7.68,26.79,8.41.43-2.19.75-3.83,1.12-5.76,1.26.28,2.31.44,3.31.73,5.7,1.62,11.33,3.59,17.12,4.76,2.2.45,4.86,1,7.26.43-.06-.47-.21-2.83-.27-3.3,6.31,2.28,12,7.1,19.53,5,.12-2.54.17-4.89.29-7.41,10.11,3.17,19.34,8.81,29.57,6-.14-3-.25-5.2-.37-7.58,9.55,2.54,18.23,6.51,28.49,4.42-.19-4-.37-7.53-.57-11.79,9.61,4,19.6,3,29.19-.14-.94-2.93-1.71-5.17-2.56-7.85,6.9,1.5,12.95,2.63,19.42.11l-3.94-9c12.91-1.4,18.23-2,23.38-2.88C456.3,841.31,456.47,837.14,456,836.09ZM140.41,811.16a16.85,16.85,0,0,1,3.44,4.32Q142.14,813.35,140.41,811.16Z"/>
    </g>
    <g>
      <path class="rcm_logo-cls-3" d="M743.49,577.14c-2.41-.85-5.06-1.75-7.9-2.68l-3.77.73,8.45,2.65Z"/>
      <path class="rcm_logo-cls-3" d="M706.36,580.33l-.62.13,3.62,1.39C708.45,581.36,707.45,580.86,706.36,580.33Z"/>
      <path class="rcm_logo-cls-3" d="M650.63,549.75c-.35.08-.69.17-1,.27.12.58.56,3.48.68,4.06-7.88-2.09-15.29-7.23-24.12-4.27,7.32,2.5,59.49,20.46,80.2,30.52,8.72-1.82,17.24-3.54,25.46-5.14Z"/>
      <path class="rcm_logo-cls-3" d="M520.64,579.52l-.81.33c1.48,3.53,2.83,6.2,4.18,9.43-8.51-1.08-15.91-1.81-23.45,1.72,6.12.86,51.18,7.41,82.45,17.29,13.35-3.21,27.23-6.5,41.31-9.78Z"/>
      <path class="rcm_logo-cls-3" d="M898.19,622.54c.33-.18,1.07-1.28,1.49-1.51-1.16-1.2-2.42-2.36-5.49-5.17l2.72-1.57c-1.19-1.88-3-2.73-5-3.66.73-.53,1.36-1,2.16-1.53a13.24,13.24,0,0,0-7.5-5.58l2.38-2.93c-2.25-2.49-5.24-3.11-8.18-4.27l1.53-1.88c-2.11-2.66-5.56-3-8.76-4.06.44-.67.88-1.29,1.33-2-1.55-2-3.93-1.81-6-2.42.11-.11.59-.69.7-.8a6,6,0,0,0-1.95-1.27c-1.72-.79-3.54-1.36-5.32-2-.31-.12-.62-.27-1-.44.27-.57.5-1.05.8-1.7a22.36,22.36,0,0,0-8.5-2.91l.9-1.64c-2.38-.73-4.62-1.39-6.83-2.11-.49-.16.5-.84.05-1.13-1.08-.68-2.87-.58-4-1.08s-.88-.49-1.95-1.34a3.71,3.71,0,0,0-.53-.32c20.33-4,48.63-8.57,66.2-7.12A82.94,82.94,0,0,0,891,555.47c-4.89-1.31-28.51,1.82-47.63,4.7-.09-.11-.12-.21,0-.3,1.94-1.3,3.91-2.53,6-3.87-.56-.58-.86-.89-1.31-1.34a22.15,22.15,0,0,0,7.4-5.1c-.46-.54-.81-.95-1.23-1.42.32-.27.57-.49.84-.69,1.53-1.12,3.14-2.15,4.58-3.38a5.64,5.64,0,0,0,1.53-1.75c-.13-.07-.75-.5-.88-.58,1.82-1.14,4.16-1.62,5.11-3.93-.61-.53-1.19-1-1.81-1.54,2.8-1.92,6-3.14,7.35-6.27l-2-1.4c2.52-1.91,5.23-3.31,6.73-6.31-1-.74-2-1.4-3.09-2.18a13.2,13.2,0,0,0,5.73-7.39l-2.49-.9c1.74-1.45,3.22-2.75,3.86-4.88l-3-.77c2.19-3.54,3.1-5,3.88-6.47-.46-.1-1.47-1-1.84-1.05l6.17-13.42A91.62,91.62,0,0,0,873.2,495l-1.28-1.59-5.73,5.95L864.74,497a14.83,14.83,0,0,0-5.57,8.22l-2.23-3.53c-2.54,2.14-3.28,5-4.06,8.13-1-.81-1.79-1.55-2.78-2.37-2.26,2.77-2.86,6.14-2.8,9.5l-2-1.43c-2.1,2.94-2.55,6.32-2.9,9.75l-1.38-1c-1.63,1.44-2,3.64-2.38,5.7-.09.43-.29,1.1-.56,1.16-1.31.27-1-.91-1.83,2.28-.46,1.79-.69,3.62-1,5.43-.76.4-1.67.94-1.82,1.64-.08.41-.15.83-.22,1.24l-2.28.32a11.62,11.62,0,0,0,1.2-3.66c.19-2.7-.18-2.24.66-4.64s3.36-4.84,3.81-7.33c.19-1-2.13-.5-1.71-1.42,1.9-4.21,3.93-8.34,6.06-12.79l-3.6-.88c3.41-5.15,6-10.38,7.1-16.29L840.84,494c.26-.78.44-1.43.69-2,1.4-3.48,3-6.88,4.15-10.45a11.27,11.27,0,0,0,.76-4.54l-2.09-.06c1.86-3.81,5.28-7.06,4.47-11.94-1.59-.25-3.07-.44-4.64-.69,2.68-6.14,6.85-11.58,5.78-18.2l-4.79-.28c2.25-5.84,5.33-11,4.71-17.63l-7.46-.44c3.14-5.79,3.24-12.13,1.9-18.38-1.91.39-3.38.72-5.12,1.08,1.41-4.24,2.53-8,1.38-12.22l-5.91,1.88c0-8.23,0-11.61-.23-14.91-.87.31-3.48-.09-4.18.16l-3.66-29A179.71,179.71,0,0,0,817,384.91l-3.81-1.34c-1.17,5.51-2.28,10.71-3.4,16L805,397.17a29.27,29.27,0,0,0-.74,19.61l-7.45-3.59c-2,6.23-.25,11.88,1.68,17.88-2.51-.33-4.63-.74-7.15-1.07-.9,7,1.61,13.3,5.22,18.88l-4.89-.29c-.46,7.14,2.31,13.27,5.3,19.41l-3.32-.19c-1.24,4.11.47,8.17,1.95,12.06.31.81.66,2.15.27,2.52-1.92,1.82-2.64-.48-.68,5.74,1.09,3.48,2.61,6.79,3.93,10.19-.86,1.48-1.83,3.32-1.34,4.65,1.52,4.14,3.58,8.07,5.46,12.08.31.67.72,1.28,1.2,2.11-2.29.71-3.4,2.09-2.42,4.06.7,1.41,1.47,2.8,2.25,4.17a11.16,11.16,0,0,1-2.59-3.63c-2-3.62-2.21-9.46-4.77-12.75-1.07-1.38-3,2.05-3.63.52-3.05-6.95-5.86-14-9-21.51l-5,3.44c-2.55-9.86-6.09-18.78-12.11-26.65L761.86,468c-.67-1.18-1.26-2.1-1.74-3.08-2.7-5.56-5.09-11.3-8.21-16.61-1.18-2-2.63-4.44-4.71-5.93-.33.37-2.05,2.12-2.38,2.5-2.62-6.49-2.83-14.26-9.69-18.65-2.06,1.67-3.92,3.27-6,4.93-4.56-10.06-6.61-21.15-15.89-27.15l-5.64,5.55c-4.66-9.18-7.61-18.68-16.38-25.2L682.51,393c-3.62-10.22-11.28-17.34-20.41-22.58-1.63,2.77-2.83,4.92-4.32,7.45-3.64-6.4-7-11.88-13.42-15.15-1.52,3.32-2.82,6.2-4.23,9.3-10.07-9.06-14.21-12.79-18.5-16.16-.59,1.41-4,4.17-4.41,5.3l-39.5-27.47a296.49,296.49,0,0,0,24.44,43.23l-5.84,3.18,15.78,21.77-8.25,3.34A48.32,48.32,0,0,0,627,427.71l-12.61,5.15c5.39,9.35,14.26,13.4,23.74,17.65-3.17,2.72-6,4.85-9.19,7.57,7.58,8.84,18,12.69,28.85,14.43-2.25,2.23-3.73,3.68-5.73,5.67,8.22,8.43,18.78,11.79,29.59,14.91l-3.9,3.85c3.66,6,10.52,8.43,16.91,10.9,1.34.52,3.37,1.56,3.39,2.45.11,4.36-3.5,2.7,6.27,7.16,5.46,2.5,11.19,4.29,16.81,6.42.85,2.69,2.05,5.91,4.21,6.77,6.74,2.7,13.83,4.51,20.8,6.64,1.16.35,2.37.53,3.9.86-1.65,3.59-1.19,6.45,2.31,7.43,5.75,1.61,11.66,2.68,17.5,4a11.6,11.6,0,0,1,3.44,1.07c2.12,1.31,3.89,3.4,6.15,4.21l.27.09a19.22,19.22,0,0,0-6.22-.59c-5.26.64-4.27,1.19-9.21.48s-10.61-4.64-15.59-4.55c-2.08,0-.16,4.29-2.1,3.83-8.81-2.06-17.56-4.41-26.93-6.81-.14,3.16-.22,4.81-.33,7.28-11.22-4.62-22.27-7.62-34.09-7.5-.28,2.76-.5,4.83-.75,7.25-1.6-.2-2.91-.3-4.18-.54-7.23-1.39-14.41-3.21-21.71-4a25.75,25.75,0,0,0-7.94,0c6.86,1.85,55.67,15.12,84.9,24.72,28.14-5.43,52.58-9.38,69.47-10.72l-61.57,13.4c7.32,2.57,12.42,4.7,13.72,6l-16.94-5.3L689.14,589c8.13,3.29,19,11.45,26.42,17.48,5.2,3.51,8.84,6.34,8.44,7.15,0,0-3.45-3.1-8.44-7.15-8.84-6-22.17-13.9-27.76-17.19l-23.27,5.06a224.42,224.42,0,0,1,46.12,25l-46.56-24.94-28.76,6.26c12.35,3.73,23.06,13.8,27.66,18.62a10.54,10.54,0,0,1,2.4,2.65s-.86-1-2.4-2.65c-6.48-5.63-23.34-15.36-28.7-18.4L466.23,637.46s32.54-8.51,78.13-19.75c-26.49-4.49-60.05-7.93-66.63-8.59.6,2.14.87,5.86,1.49,6.89L424.8,634.07a352.64,352.64,0,0,0,58.7,7.57c-.27,1.89-.59,4.11-1.13,7.85l32,.49-2.71,10.27c13.37,2.2,25.45.62,38.08-6-1.45,5.53-2.68,10.27-4.1,15.71,12.78,1.54,23-4,33.81-10,.32,5,.74,9.14,1.06,14.12,13.85-.91,24.11-8,34.79-17.27.51,3.74.85,6.19,1.3,9.53,13.54-1.77,23.53-9.34,34.36-17.45.36,2.59.61,4.44.89,6.47,9.28.7,15.67-4,22.58-8.35,1.46-.91,4-2.11,4.82-1.5,4.24,3,.11,5.27,11.34-.86,6.29-3.43,12.1-7.62,18.15-11.46,3.18,1.11,7.11,2.26,9.47.82,7.4-4.5,14.2-10,21.21-15.1,1.16-.85,2.19-1.88,3.61-3.11,2.24,4.14,5.31,5.74,8.73,3.11,5.65-4.34,10.89-9.21,16.33-13.83a14,14,0,0,1,3.49-2.52c2.76-1.09,6-1.29,8.41-2.87,6.56-4.32,13.09-8.8,19.49-13.41l0,.25q-7.09,5.38-14,11c-1.86,1.52-2.83,4.09-4.39,6a11.56,11.56,0,0,1-2.88,2.16c-5.06,3.21-10.27,6.19-15.15,9.64-3,2.09-2.45,4.94.31,7.77-1.33.83-2.42,1.39-3.39,2.11-5.85,4.34-11.93,8.43-17.38,13.23-1.74,1.53-1.79,5-1.7,7.79-4.58,3.88-9.38,7.48-13.69,11.66-7.71,7.48-4.87,4.71-3.51,8.85.28.85-1.28,2.51-2.38,3.45-5.19,4.46-10.85,9-12.28,15.93l5,2.32c-9.15,6.56-18,13.26-22.9,24l7.3,3.42c-9.6,5.26-18.17,12.39-22.35,23.25,3.91,1.5,7.28,2.56,11.18,4.06-7.51,7.18-14.51,14-16.46,24.58l13.61.63a48.34,48.34,0,0,0-14.3,29l8.89.39c-2.49,8.48-5,16.89-7.58,25.79l6.57,1a296.42,296.42,0,0,0-8.57,48.91l28-39.1c.82.9,4.91,2.38,5.93,3.51,2.91-4.61,5.56-9.51,12-21.41l7.09,7.35c5-5.24,6.29-11.53,7.58-18.78,2.25,1.89,4.11,3.51,6.56,5.57,6.85-8,11.69-17.26,11.68-28.1l11.14,5.22c6.08-9.08,5.68-19,7-29.23l7.17,3.35c6.74-8.76,5-19.9,5.89-30.9,2.48.88,4.77,1.76,7.26,2.64,5-6.43,2.6-13.82,2.9-20.81.43.24,2.64,1.32,3.07,1.56,1.47-2.1,2-4.87,2.46-7.17,1.16-6,1.49-12.26,2.18-18.39.12-1.09.37-2.16.61-3.49l6,1.2c3-9.43,3.38-19,2.48-29.17l5.91,1.55c.41-8.11.7-15.69,1.25-23.27.12-1.66,3,.94,3.59-.72a13.89,13.89,0,0,0,.47-5l2.47-.09c-2,6.31-3.15,12.45-2.57,18.86l4,.09c0,.88,0,1.59-.11,2.3-.44,4-1.11,8-1.23,12a12.15,12.15,0,0,0,.54,4.9c.31-.09,1.86-.46,2.17-.55-.81,4.47-3.38,8.82-1.12,13.61,1.71-.21,3.28-.44,5-.64-1,7.11-3.68,13.92-.65,20.44l5-1.11c-.61,6.67-2.28,12.92.29,19.54l7.81-1.72c-1.55,6.88.2,13.44,3.41,19.49,1.85-1,3.26-1.73,5-2.61-.22,4.79-.28,9,2.14,13l5.54-3.65c2.41,8.47,3.4,12,4.59,15.3.81-.58,3.61-.93,4.26-1.39l12.22,28.79A192,192,0,0,0,878,754.14l4.32.27c-.4-6-.77-11.7-1.15-17.44l5.7,1a31.39,31.39,0,0,0-5-20.43l8.73,1.53c.27-7-3.21-12.31-7-17.94,2.68-.39,5-.58,7.67-1-1.11-7.49-5.53-13.23-10.88-17.93l5.12-1.13c-1.6-7.49-6.25-13-11.12-18.46l3.48-.77c.08-4.59-2.87-8.28-5.53-11.85-.56-.75-1.31-2-1-2.52,1.46-2.44,2.86-.28-1-6.11-2.13-3.27-4.67-6.24-7-9.36.46-1.77.91-4,0-5.18-2.77-3.82-6-7.27-9.14-10.86-.52-.59-1.12-1.11-1.85-1.82,2.15-1.4,2.89-3.14,1.3-4.89-2.61-2.88-5.49-5.51-8.24-8.27a7.53,7.53,0,0,1-1.52-1.78c-.72-1.45-1-3.22-1.93-4.45-.45-.57-.93-1.13-1.38-1.71l1.13-.15-.33-2.4c.54,1.33,1.09,2.66,1.75,3.94.33.63,1.34.9,2.19,1.09.82,1.65,1.53,3.35,2.45,4.94,1.66,2.86,1,1.81,2.38,1.71.27,0,.65.57.85,1,.94,1.87,1.87,3.9,3.83,4.84l1.06-1.3c1.27,3.21,2.61,6.34,5.42,8.6L863,613.4c.85,3.26,2.33,6.34,5.26,8.4.73-1.06,1.3-2,2-3,1.58,2.77,3.08,5.36,6.09,6.73.42-1.38.78-2.59,1.21-4a14.76,14.76,0,0,0,7.57,6.42c.32-1.11.58-1.95.78-2.62l7.11,4.18c.38-.89.61-1.42.8-1.88a89.85,89.85,0,0,0,13.93,6.2Zm-80.69-1.27a14.71,14.71,0,0,1,.81-3.42q-.46,2.82-1,5.68A14.88,14.88,0,0,1,817.5,621.27Z"/>
      <path class="rcm_logo-cls-3" d="M816.67,571.69a2,2,0,0,1,0,.24l0-.17Z"/>
      <path class="rcm_logo-cls-3" d="M554.17,562.45s66.66,15.28,104.75,28.16c15.88-3.56,31.65-7,46.82-10.15l-79.63-30.63c-.18.06-.36.1-.54.17.12,3.16.2,6.09.32,9.23-12.6-2.78-23.78-8.66-36.6-4.48,4.25,1.2,75,21.35,93.34,30.55l-93.35-30.55-.76.25c.5,3.67.88,6.42,1.28,9.35-12.23-2.09-22.89-6.14-36.15-2.33.67,4.92,1.27,9.28,2,14.54-11.23-3.85-23.55-1.8-34.8,2.87,9.36,1.06,58.79,7,104,19,11.25-2.61,22.63-5.22,33.95-7.76Z"/>
      <path class="rcm_logo-cls-3" d="M500.48,591l-.45.21c2.09,3.82,4,7.11,5.9,10.67-15.85,3.14-22.34,4.43-28.62,6.11a4.32,4.32,0,0,1,.31.73c13.07-2.66,57.42,6.8,67,8.9,12-2.95,24.81-6.09,38.21-9.31Z"/>
      <path class="rcm_logo-cls-3" d="M544.59,617.65l-.23.06,2,.35Z"/>
    </g>
  </g>
  <path class="rcm_logo-cls-4" d="M946.81,404.14Q929,384.42,929,345.43t17.78-58.71Q964.57,267,999.9,267q23.39,0,46.55,11.24v15.83a94,94,0,0,0-44.72-11.47q-28.89,0-42.2,15.13t-13.3,47.71q0,32.79,13.19,47.81t42.31,15A91.2,91.2,0,0,0,1046.45,397v15.82q-23.39,11-46.55,11Q964.58,423.86,946.81,404.14Z"/>
  <path class="rcm_logo-cls-4" d="M1254,269.06V422h-16.51V295.89l-55.73,78.2-52.29-77.74V422H1113v-153h17.89l51.82,79.58,53.44-79.58Z"/>
  <path class="rcm_logo-cls-4" d="M1569.33,269.06V422h-16.51V295.89l-55.73,78.2-52.29-77.74V422h-16.51v-153h17.88L1498,348.64l53.44-79.58Z"/>
  <path class="rcm_logo-cls-4" d="M1810.35,269.06h47.93q35.78,0,53.78,19.15t18,57.22q0,76.59-71.79,76.59h-47.93Zm46.79,137.37q29.11,0,42.54-14.68t13.41-46.32q0-31.65-13.41-46.33t-42.54-14.68h-30.27v122Z"/>
  <path class="rcm_logo-cls-4" d="M1997.72,269.06h16.51V422h-16.51Z"/>
  <polygon class="rcm_logo-cls-4" points="1340.2 344.7 1327.75 366.26 1352.65 366.26 1340.2 344.7"/>
  <path class="rcm_logo-cls-4" d="M830.19,358.5q15.82-3,25.23-15.14t9.4-29.81q0-22-11.47-33.25t-33.71-11.24H756.8V422h16.52V360.33h.12V344.81l.1-.07h-.22V284.65h44.49q16.74,0,23.62,7.69t6.88,22.36q0,14.91-8.72,22.47-5.16,4.49-13.87,6.3l-19.92,4.35,8.41,15.47,38,58.73H871.7Z"/>
  <rect class="rcm_logo-cls-4" x="1675.78" y="337.4" width="53.85" height="16.05"/>
  <polygon class="rcm_logo-cls-4" points="1739.26 269.06 1642.71 269.06 1642.71 422.02 1739.26 422.02 1739.26 406.43 1659.22 406.43 1659.22 358.11 1659.22 358.11 1659.22 335.03 1659.22 335.03 1659.22 284.65 1739.26 284.65 1739.26 269.06"/>
  <g>
    <polygon class="rcm_logo-cls-4" points="2150.22 269.06 2133.71 269.06 2072.71 422.02 2090.59 422.02 2108.94 374.32 2115.13 358.5 2141.97 288.55 2168.8 358.5 2174.99 374.32 2193.34 422.02 2210.99 422.02 2150.22 269.06"/>
    <rect class="rcm_logo-cls-4" x="2088.76" y="410.36" width="107.86" height="11.66"/>
  </g>
</svg>
