<svg id="pc_bg" data-name="Layer 1" xmlns="http://www.w3.org/2000/svg" viewBox="0 0 900.01 385.53">
  <defs>
    <style>
      .pc_bg-cls-1 {
        fill: #223242;
      }
    </style>
  </defs>
  <title>pc_bg</title>
  <path class="pc_bg-cls-1" d="M885.8,361.74,813.54,57.42a7.59,7.59,0,1,0-9.62-8.77L589.43,69.94a7.59,7.59,0,0,0-14.66-1.16L199,18a6.62,6.62,0,0,0,0-.77,7.59,7.59,0,1,0-14.63,2.82L92.91,75.29a7.59,7.59,0,1,0-11.86,9.3L25.84,139.81a7.48,7.48,0,0,0-3.92-1.1,7.59,7.59,0,0,0,0,15.18,7.79,7.79,0,0,0,2.66-.48l57.34,196a7.59,7.59,0,1,0,10.85,6.85,5.63,5.63,0,0,0,0-.71l140.61-41.17a7.58,7.58,0,0,0,14-1.7l272.24-11.11a7.58,7.58,0,0,0,14.54,1.9l173.49,33.55a2.46,2.46,0,0,0,0,.26,7.58,7.58,0,0,0,14.72,2.58l153.58,29.7a7.59,7.59,0,1,0,9.88-7.87ZM806.43,55.91a7.46,7.46,0,0,0,2.43,1.4L772.2,166.65a7.59,7.59,0,0,0-6.3,6.41l-78.34-6.42a7.52,7.52,0,0,0,.21-7.43ZM589.54,71.24v0L803.78,49.94c0,.07,0,.14,0,.21A7.56,7.56,0,0,0,805.53,55L687.08,158.14a7.57,7.57,0,0,0-11.57-.56L587.94,75.9A7.59,7.59,0,0,0,589.54,71.24Zm-390.78-52L574.47,70a7,7,0,0,0-.11,1.22,7.59,7.59,0,0,0,1.27,4.2L408,191.74a7.56,7.56,0,0,0-11-2.17L196.75,22.68A7.47,7.47,0,0,0,198.76,19.27ZM94,79.25a7.4,7.4,0,0,0-.56-2.83L185,21.22a7.76,7.76,0,0,0,2.21,2.32L128.57,216.07a7.43,7.43,0,0,0-1.64-.19,7.58,7.58,0,0,0-3.64.94L88,86.67A7.6,7.6,0,0,0,94,79.25ZM82,85.41a7.53,7.53,0,0,0,4.42,1.43c.21,0,.41,0,.6,0l35.37,130.58a7.7,7.7,0,0,0-1.32,1.23L29.35,147.86a7.31,7.31,0,0,0,.16-1.56,7.55,7.55,0,0,0-2.63-5.74Zm3.16,263.31a7.84,7.84,0,0,0-2.07.29L25.73,152.86A7.6,7.6,0,0,0,29,149.15l91.41,70.51a7.58,7.58,0,0,0,3.8,10.88L88,349.27A7.68,7.68,0,0,0,85.18,348.72Zm147.26-37.88a7.44,7.44,0,0,0,.4,2.42L92.51,354.35a7.58,7.58,0,0,0-3.35-4.49l36.22-119a7.21,7.21,0,0,0,1.55.16,7.58,7.58,0,0,0,5.36-2.21l101.24,78.09A7.5,7.5,0,0,0,232.44,310.84Zm1.83-4.93-101.17-78a7.58,7.58,0,0,0-3.32-11.44L188.32,24.17a7.65,7.65,0,0,0,2.34.64L237,303.87A7.54,7.54,0,0,0,234.27,305.91Zm10.51-1a7.49,7.49,0,0,0-6.53-1.46L191.94,24.82a7.52,7.52,0,0,0,3.82-1.32L396,190.42a7.57,7.57,0,0,0-.44,9.94Zm274.77-4.57-272,11.1c0-.21,0-.41,0-.62a7.57,7.57,0,0,0-1.91-5l150.7-104.53a7.57,7.57,0,0,0,11.18-1.18L521.75,295.3A7.56,7.56,0,0,0,519.55,300.36ZM408.25,199a7.51,7.51,0,0,0,.8-3.38,7.69,7.69,0,0,0-.52-2.76L576.42,76.43a7.61,7.61,0,0,0,4.27,2.28L528.15,293.12a8.47,8.47,0,0,0-1-.06,7.52,7.52,0,0,0-4.4,1.41Zm120.88,94.31L581.7,78.81l.25,0a7.57,7.57,0,0,0,5.13-2l87.64,81.75a7.56,7.56,0,0,0,.94,9.51l-144.73,126A7.52,7.52,0,0,0,529.13,293.33Zm178.65,42.48L534.53,302.3a7.45,7.45,0,0,0,.19-1.65,7.61,7.61,0,0,0-2.72-5.83L676.63,168.91a7.6,7.6,0,0,0,4.42,1.43c.18,0,.35,0,.53,0L713.36,330A7.59,7.59,0,0,0,707.78,335.81Zm7.43-6.07-.6,0L682.83,170.12a7.63,7.63,0,0,0,4.06-2.53l78.93,6.47v.07a7.54,7.54,0,0,0,2.11,5.25L717.41,330.07A7.6,7.6,0,0,0,715.21,329.74Zm160.71,38.59L722.68,338.69a7.6,7.6,0,0,0-4.1-8.15L769,180.28a7.59,7.59,0,0,0,7.84.64L880.31,362.07A7.56,7.56,0,0,0,875.92,368.33Zm7.55-7a7.9,7.9,0,0,0-2,.26L777.88,180.26a7.58,7.58,0,0,0-4.31-13.71L810.09,57.63a7.59,7.59,0,0,0,1.27.11,7.3,7.3,0,0,0,.94-.06l72.13,303.76A7.48,7.48,0,0,0,883.47,361.37Z"/>
</svg>
