<svg id="Layer_1" data-name="Layer 1" xmlns="http://www.w3.org/2000/svg" viewBox="0 0 1080 1080">
  <defs>
    <style>
      .cls-1 {
        fill: none;
        stroke: #27bdbf;
        stroke-miterlimit: 10;
        stroke-width: 4px;
      }
    </style>
  </defs>
  <title>punchcard_pattern</title>
  <g>
    <path class="cls-1" d="M3.84-85.3s36-18,36,24v42.05s18,18,54.07,12c0,0,24-18,42.05,0,0,0,30,0,48.06-42,0,0,42.05-54.06,96.12-48.06,0,0,102.12,12,102.12,48.06L418.35-7.21s66.08,36.05,72.08,0l-18-54.06s-12-42,0-72.09l18-54.07,18-42,12-54.06s42-48.06,96.12,0l30-6s-24,30-72.08,54.06v48.06l-6,42.05,6,36.05s96.11,36,90.11,120.15l-42,42.05-36.05,60.07-18,42.05L520.47,239.1l-48.06,24-60.07,12-36-30-36-48.06s-6-12-54.07,18l-42.05,24s-30,36-6,66.08l30,48.06,12,48.05,6,36,30,30s36,12-12,78.09l-6,30-18,30s-48.06,78.1,84.1,72.09l36-24h54.07l66.08,6,24,30-18,42.05,12,48.06,12,36h66.08l48.06-12,48.06,12s36-42,60.07-12c0,0,30-12,30,42.05,0,0,78.09,30,66.08,114.14,0,0,96.11,0,174.21,42,0,0,42.05-6,42.05-66.08,0,0,0-108.13,48.06-18L1181.28,984l18,36,66.08,66.08,60.08,6,42,36s30,24,66.08-12c0,0,54.06-114.14,60.07-54.07s0,48.06,0,48.06l18,42s30,36,72.09-12,42-72.09,42-72.09"/>
    <path class="cls-1" d="M21.86,22.83l42.05,24H130l48.06,18,18-42,30-54.07,30-12s60.07,0,84.1,12l30,30,30,12,24,36,18,36v24s96.12-78.09,96.12-120.14c0,0,6-48.06-42.05-78.1,0,0,18-78.09,30,0,0,0,66.08,12,72.09,96.12,0,0-108.14,150.18-96.12,180.22,0,0-36.05,48.06-102.13,0,0,0-36-18-60.07-90.11,0,0-18-30-48.06,24,0,0-12,60.07-114.14,102.12v36.05l18,60.07,24,48.06v48.06l6,30,36,42,6,18-18,36v30l-54.07,54.07v60.07l12,24,36,18s78.1,12,102.13,24c0,0,42.05-6,66.08-36,0,0,42.05-30,60.07-6V833.82l24,24,54.07,30H676.66l18-18s0,36,72.09,18l36.05,30V972s-36.05,84.11,84.1,60.08l96.12,6,30,12s48.06,24,84.11,0c0,0,42-120.15,54.06,12,0,0,84.11,54.07,90.11,102.13,0,0,72.09-18,84.11,6,0,0,42,54.06,90.11,12,0,0,42-36,66.08,12l24,36s0,24,54.06-24l72.09-24s6-42,24-60.07"/>
    <path class="cls-1" d="M-266.49,485.4l24-30,18-42.05h54.06c120.15-12,30-30,30-30-126.15-12-78.09-96.12-78.09-96.12v-42c30-6,0-54.06,0-54.06l48.05-18,48.06-42c36.05-24,60.08-66.08,60.08-66.08,24,6,66.08,12,66.08,12C63.91,70.89,63.91,131,63.91,131c72.09-60.07,114.14-18,114.14-18,84.1,0,60.07-60.07,60.07-60.07,36.05-126.16,132.17,0,132.17,0-114.14-66.08-102.13,36-102.13,36C268.16,143,214.1,149,214.1,149,148,155,130,179,130,179V239.1l24,48,18,96.12c-24,66.08,30,102.13,30,102.13,42,108.13-72.09,96.12-72.09,96.12l-18,48.05v54.07s-66.08,30,0,60.07c0,0,102.13,12,114.14,42.06l78.1,6s36,24,84.1,0c0,0,48.06-36,42.05,30V899.9s66.08-12,60.07,48.06c0,0,108.14,6,126.16,18,0,0,72.09-48.06,108.13,0,0,0,24,48,0,90.11,0,0,48.06,18,78.1,60.07,0,0,84.1-66.08,120.14,12,0,0,18,6,54.07-36,0,0,36,0,42.05,54.07,0,0,12,6,48.06-36,0,0,84.1-18,120.15,66.08,0,0-36,144.18,48.06,90.11,0,0,66.08-66.08,60.07,0,0,0,6,18,42-12l66.08-6s60.08-36,48.06,30c0,0,18,114.14,60.07,30,0,0,42.06-84.11,204.25-90.12,0,0,18-36-6-42,0,0,60.07,6,54.06,48.06,0,0,30,30-48.06,66.08l-90.11,30,12,114.14"/>
    <path class="cls-1" d="M947-145.38s-180.22-6-204.25,0c0,0-30-18-18,102.13l12,66.08-12,72.09s60.07-24,84.1,30l42,108.13s-18,6-72.08-66.08c0,0-42,54.06-114.14,30l-54.07,60.08v72.09s-18,30-60.07,42.05c0,0-114.14,18-150.19,24,0,0,18,72.09,0,150.18h84.11s18,18,102.12,0,84.1,36,84.1,36l54.07-48.06s18-36.05,48.06-30,72.09-6,72.09-6,30-36,66.08-24c0,0,36,84.11,0,132.16,0,0-24,48.06,6,90.11,0,0,78.09,180.23,126.15,54.07,0,0,66.08-84.1,90.11-36,0,0-36,36,48.06,108.13,0,0,48.06-18,60.07,60.07,0,0,66.08,60.08,84.11,90.11s84.1-12,84.1-12,42-156.19,102.12-78.1"/>
    <path class="cls-1" d="M965-91.31H814.83s-90.11-54.07-24,114.14c0,0,84.1-12,72.09,66.08,0,0,30,90.11,90.11,72.09,0,0,132.16,0,144.18-18,0,0,48.06-24,66.08,18,0,0-48.06,12-78.1,60.07,0,0-18,54.07-96.12,42.06,0,0-66.08,42.05-132.16,42.05,0,0-78.09,0-90.11-30,0,0-90.11,0-114.14,54.07l-24,54.06s-36,36.05-42.05,54.07c0,0-156.19,36,0,54.06,0,0,48.06,6,114.14-24,0,0,72.09-36.05,96.12-24S923,347.23,923,347.23s120.15-54.07,126.16,60.07v84.1l18,54.07,6,42s12,42.05,36,60.08h102.13v42s-36,42.05,12,72.09c0,0,66.08,6,66.08,66.08,0,0,72.09,168.2,102.13,0,0,0,66.08-48.06,78.09-96.12"/>
    <path class="cls-1" d="M-122.32,347.23s-162.2-36.05-12-138.17c0,0,60.07,24,102.12-90.11l-18,84.1-72.09,72.09s66.08-42,108.14,24c0,0,66.08-84.1,126.15,0l18,84.1s-48.06,54.07,36,120.15v30l-90.11,36s-24,84.1-54.07,96.12l-36,18s30,66.08,66.08,84.1c0,0,0,60.08,54.06,42,0,0,54.07-18,72.09,24,0,0,24,12,60.07,0,0,0,60.08-18,84.11,12,0,0,96.12-18,30,36,0,0-30,18-84.1,18L208.09,936s-24,30,24,12c0,0,66.08-6,66.08,6,0,0,54.06,6,72.09,0,0,0,24-24,18,72.09,0,0,42.05,18,54.06,0,0,0,30-18,60.08,0,0,0,54.06-6,54.06,12,0,0,48.06-6,60.08-18,0,0,78.09-42,48.06,18,0,0-36,24-36,72.09,0,0,108.14-18,78.1,24,0,0-12,48.06,54.06,48.06,0,0,54.07,6,90.11-30,0,0,24-24,30,42.06,0,0,30,6,54.07-6,0,0,54.06-24,12,42"/>
    <path class="cls-1" d="M39.88,359.24s-114.14-6,12-54.06c0,0,60.07,24,24,114.14,0,0-18,48.06,12,84.1,0,0,18,24-48.06,24,0,0-24,24-18,66.08,0,0-48.06,54.07-108.13-12,0,0-42-24,12,72.08l48.06,96.12s-6,48.06,48.06,72.09c0,0-30,84.1,42.05,78.09,0,0,84.1-60.07,120.15,0,0,0-48.06,6-36.05,84.11,0,0-66.08,36,48.06,36H316.22s-24,30-6,60.08-24,48,60.08,30c0,0,60.07,60.08,78.09-18,0,0,60.08-42.05,66.08,0,0,0,6,12,54.07,6,0,0-90.11,150.18,30,96.12,0,0,48-72.09,72.08,24l132.17,24s-36.05,48.06-102.13,48.06"/>
    <path class="cls-1" d="M39.88,365.25l-30,84.1-42,42s-12,24-48.06,0c0,0-78.09-42-120.14,72.09,0,0-78.1,48.06-78.1,78.1v42s-60.07,24-60.07,54.07c0,0-96.12,102.12-186.23,24,0,0-66.08-54.07-120.15-18"/>
    <path class="cls-1" d="M959-19.22s-18-42.05-102.13-24c0,0,36,12,48.06,54.07,0,0,18,72.08,54.07,90.11,0,0,96.12,12,120.14,0"/>
    <path class="cls-1" d="M-74.26,797.78l18,66.08S-14.18,917.93-20.19,936L3.84,984s24,42,42.05,12c0,0,66.08-66.08,18,18l-12,36-12,42.05,18,30s48.06,12,72.09,42c0,0,24,6,30-18,0,0,6-36,30-6,0,0,30-30,42.05,0l-42.05,48.06s24,30,84.1,42"/>
    <path class="cls-1" d="M21.86-193.43l12,30,30,30,18,42.05,24,18H148l12-30,30-30,42.05-12,72.09,12h54.06l42.05,24,18-24,42-96.12,24-90.11,42.05-36s12-24,48.06,0l36,24h72.09s42.05,6,42.05,18l12,42.05,24,18,48.06,12,66.08,24s96.12-12,12-54.07c0,0-6-42.05,36-6l18,6,18,18v36l-18,24-36,12-42.05,6-72.09-6-54.06-12-42.06-24-24-18-48,18-18,18v30l12,18,36,18,24,30,6,42,12,36V10.82l-18,48.05-18,36.05-30,18-30,42.05-24,60.08-24,54.06-12,36.05-54.06,12-48.06,12H388.31l-48.06-24s-66.08-54.07-36,24l18,36,18,30v30l18,24,18,30-12,48.06-12,42s-42.05,36,30,30h90.11l36,12h48.05s60.08-18,54.07,24l-18,54.07V731.7h36l42,18H706.7l24-30s18-54.06,36-6l42.05,18,30,6s30,6,18,42l24,36,24,42.05,18,36,24,12,42,12s30,12,48.06-30l18-54.07s42-36,54.06-6"/>
  </g>
</svg>
