<svg id="Layer_1" data-name="Layer 1" xmlns="http://www.w3.org/2000/svg" viewBox="0 0 1080 1080">
  <defs>
    <style>
      .cls-1 {
        fill: #27bdbf;
      }
    </style>
  </defs>
  <title>punchcard_pattern</title>
  <g>
    <path class="cls-1" d="M1710.28,1146.45h-.53c-20.34-.24-32.67-14.75-33.18-15.37l-.8-1.31-18.69-43.62,9.63-4.46a4.28,4.28,0,0,0-4-1.91,4.45,4.45,0,0,0-3.79,2.5c.32-1,1.73-7.77-2.25-47.55-1.21-12.1-4-13.33-4-13.33-7.05-1.07-29.66,32-48.21,71.16l-.39.84-.65.64c-40.28,40.29-75.28,13.15-75.63,12.87l-42.5-36.43-62.55-6.25-70.5-70.51-18.88-37.77-50-68.82c-18.94-35.51-27.36-34.56-28.25-34.32-6.83,1.7-11.59,28-11.6,50.51,0,66.16-47.71,73.74-48.19,73.82l-1.73.24-1.54-.82c-78.93-42.5-177.23-43-178.22-43h-6.12l.87-6.06c11.7-81.9-62.07-111.49-65.22-112.71l-3.39-1.31v-3.64c0-24.53-6.07-33.78-11.16-37.23-5.93-4-12.66-1.49-12.72-1.46l-3.66,1.46-2.46-3.08c-4.87-6.1-10.39-9.11-16.85-9.22h-.35C877.8,760.3,861,776,855.8,782.13l-2.14,2.49-51.75-12.94L752.05,784H679.67L666,743l-13-52,18.15-42.35-21.53-26.9-66.3-6-54,0L492,640.57l-1.47.06c-51.33,2.31-83.67-7.21-96.12-28.36-14.24-24.17,3.35-53.28,4.1-54.51l18.19-30.32L423,496l.69-.94c25.19-34.64,26.85-53.22,23.8-62.72-2.52-7.88-8.66-10.12-8.72-10.14l-1.19-.4-33.25-33.25-6.51-39.07-12.18-48.63L355.08,252c-21.57-27.29-5.21-61,6.49-75l.61-.74,44.46-25.41c27.19-17,46.41-24.17,57-21.19a10.44,10.44,0,0,1,6.09,4.07l36.92,49.21,35,29.14,59.14-11.82,47.78-23.89,48.91-85.6,18.9-44,38.2-63.35,42.2-42.2c4.26-81-89.22-117-90.17-117.34l-2.87-1.08-6.87-41.23,6.29-44.06v-52.77l2.94-1.46a256.86,256.86,0,0,0,61.74-42.84L750.5-356.1l-2-1.76c-16.65-14.8-33.63-21.76-50.62-20.71-21.72,1.36-37,15.53-40.7,19.31l-12.45,55.61L626.05-260l-18.54,55.68c-11.73,29.36,0,71.23.07,71.65l19,57.12-.22,1.3c-1.41,8.46-5.81,14.72-12.72,18.08-22.4,10.92-65.06-11.68-69.85-14.29l-.86-.47-39.3-45.86v-2c0-26.67-75-41.5-101.25-44.59-49.79-5.54-90.09,41.94-94.51,47.35-19.88,45.64-53,46.17-54.45,46.17h-2.2l-1.55-1.55c-15.28-15.27-35.82-.16-36.69.49l-1,.78-1.28.21C171.06-63.3,150.84-83,150-83.86l-1.56-1.55v-45.83c0-11.22-2.57-18.5-7.65-21.64-8.32-5.14-21.92,1.39-22,1.46l-4.75-9.5c.76-.38,18.94-9.3,32.38-1,8.42,5.2,12.7,15.52,12.7,30.67V-90c4.84,3.82,20.89,14.12,48.69,9.85,10.06-7,31.12-14.87,47.63-.43,6.6-.87,28.51-6.3,43.06-40.25l.68-1.16c1.86-2.39,46.15-58.36,104.5-51.88C414.8-172.6,511-160.14,514.22-120.84l35.55,41.49c12.39,6.59,44.77,20.68,59.27,13.61,3.53-1.72,5.67-4.61,6.66-9.05l-18.26-54.77c-.6-2.07-12.88-46,.11-78.44l18.58-55.79,18.66-43.58,12.65-56.94.9-1c.78-.9,19.57-22,48.9-23.84,19.17-1.2,38.1,6.07,56.33,21.62l42.9-8.58-9.11,11.39c-1,1.28-25.26,31.15-73.63,56l-.05,47.35-6.12,42.81,5.62,33.68c16.71,7.19,99.85,47.25,94,128.8l-.14,2L762.5-9.53,725.63,51.92,706.8,95.76,656.15,184.4l-52.63,26.11-64.82,13-40.19-33.68L461.17,140c-1.24-.56-11.41-3.6-49.08,19.94l-42.93,24.53c-4,5.17-26,35.64-5.59,61.13l.35.51,31.81,51.38,12.47,49.86,6,36.13,29.23,29.22a26.93,26.93,0,0,1,14.14,16.43c5.46,17-2.84,41-24.65,71.26l-6.18,30.92-19.17,32c-.18.29-15,25-4,43.65,10.07,17,39.45,25,85,23.16l37.5-25h57.7l71.29,6.46L683.4,647l-19.25,44.91,12,48.12,11.14,33.37H751.4l50.51-12.63,48.08,12c6.16-6.43,23.91-23.07,42.74-23.07h.54c8.63.15,16.24,3.69,22.67,10.54a24.92,24.92,0,0,1,18.79,3.59c10,6.75,15.28,21.06,15.79,42.55,15.26,7.16,76.76,40.95,69.26,116.69,22.79.72,105.11,5.91,175.58,43.24,7.39-1.8,37.49-12.22,37.49-63,0-13.11,1.42-56.25,19.65-60.81,11.6-2.93,24,9.22,40,39.29l50.1,69,18.31,36.62,66.6,66.6,62.1,6.21,44.89,38.49c1,.74,27.6,21,60.71-11.56,11.76-24.72,40.32-79.43,59.21-76.24,10.7,1.85,12.27,17.58,12.79,22.74,3.5,35,3.34,47.79,1.54,52.82l16.41,38.28c2.09,2.2,11.29,11,24.83,11.07,13.24.28,27.33-8,41.42-24.12,41.19-47.08,42.31-71.12,42.31-71.36l10.62.07c0,1.1-.5,27.51-44.93,78.29C1743.33,1137.12,1726.79,1146.45,1710.28,1146.45Z"/>
    <path class="cls-1" d="M1681.46,1220.28a13.49,13.49,0,0,1-5.65-1.17,11.49,11.49,0,0,1-6.52-8.54l-24.55-36.9c-6.44-12.88-14.68-20.43-24.49-22.43-17.71-3.58-35.68,11.48-35.86,11.64-15.21,13.29-31.5,19.25-48.43,17.62-30.65-2.94-51.81-29.73-52.7-30.87l-.56-.89c-7.69-15.38-53.89-10.27-81.21-3.45l-5.81,1.46-.75-6c-5.85-46.82-90.24-101.59-91.09-102.14l-2.17-1.4-.24-2.59c-5.14-56.52-15-59.36-16.14-59.5l-.38,0c-7.3,0-21.16,25.17-29.27,48.33l-.59,1.68-1.48,1c-39.49,26.33-90.42,1.4-92.57.33l-30-12-98.17-6.14c-44.8,8.87-74.8,4.39-89.13-13.26-16.28-20.07-6.14-49.41-3.79-55.43V887.11l-33.43-27.86c-31.69,7.55-54.48,6.12-67.78-4.26a28.9,28.9,0,0,1-8.28-10.1l-13.88,13.88H682.12l-58.47-32.72-26.48-26.48V668.38c-15-16.82-48.59,5-53.37,8.28-26,31.89-69.59,38.45-71.45,38.71l-1.64.24-1.49-.74c-23.9-12-103.57-24.31-104.38-24.44l-1.56-.49-39-19.49-13.82-27.64V577L366.57,521V490.73l18.28-36.54-5.21-15.63L342,394.67l-6.61-33.56V312.5l-24.7-49.58-18.92-63.85V158.12l3.28-1.35C396.68,114.93,410.18,55.27,410.3,54.67l.57-1.52c13.25-23.86,26.55-36.07,39.52-36.29,12.74-.34,19.25,10.74,19.53,11.21l.48,1.05c23.79,71.36,59.33,90.24,59.69,90.43l.72.44c56.73,41.26,89.58,11.28,97,3-6.13-36.39,79.43-158.38,100.1-187.2-6.66-80.16-67.69-92.48-70.31-93l-3.7-.7-.58-3.72c-3.55-23.06-7.12-29.43-8.52-31.12-3.07,2.82-8,15-11.34,27.91,47.1,31.61,43.4,78.84,42.88,83.74C675.89-35.38,578.81,44,574.66,47.39l-8.66,7V19.59l-18-36L524.18-52.13,493.54-64.39l-31.3-31.3c-22.32-10.58-75.16-11.46-83.12-11.53L350.68-95.84l-30.11,54.2L300,6.39l-53.7-20.13h-69L132.42-39.37l5.27-9.23L180.1-24.37h68.1l46,17.26,16.94-39.46,32.08-57.73,33.86-13.55h1c2.59,0,63.87.15,89.62,13l.77.38,31,31,31.68,12.67,26.18,39.34,19.26,38.51V31.9c31.09-26.67,89.09-82.73,89.09-113.28l0-.66c.23-1.89,5.06-47-41.17-75.85l-3.21-2,.85-3.69c4.27-18.54,11.9-40.43,23-40.12,8.41.31,13.7,11.09,18,37a98.81,98.81,0,0,1,33.65,17.29c17.19,13.45,38.39,39.36,41.75,86.38l.14,1.92-1.13,1.56C695-.25,630.28,101.59,638.57,122.31l1.11,2.77-1.8,2.39A66.86,66.86,0,0,1,608.12,148c-17.49,6.08-46.12,7.68-83.24-19.19-4.57-2.47-40.14-23.63-64.33-95.66-1-1.37-4.46-5.74-10.07-5.67-5,.13-15.41,4.22-30,30.17-2,8.13-19.21,65.74-118.11,107.57v33.07l18.34,61.14L346,310v50.58l5.86,29.29,37.17,43.36L396.31,455l-19.12,38.24v32.11L321.1,581.44v58.87l11.11,22.22,35.07,17.53c8.93,1.4,79.32,12.66,105.09,24.53,7.72-1.44,42.9-9.27,63.64-35.19l1.06-1c1.95-1.4,48.1-33.84,69.65-5.1l1.07,1.42V795.17L630.63,818l54.24,30.14H812.18l26.2-26.21v12.82c0,.21.27,6.83,7.12,12,7.58,5.76,24.35,10.69,61.07,1.52l2.61-.66,41.38,34.48v59.66l-.43,1c-.12.29-11.94,28.67,1.88,45.65,11.56,14.22,39,17.47,79.45,9.39l.68-.14.69,0L1133.4,1004l31.95,12.79c.85.4,46.67,22.74,80.88,1.45,5.47-15.24,21.85-55.89,40.36-53.62,13.14,1.63,20.93,22.17,25.18,66.52,13.46,9,81.89,56.48,92.66,102.55,18.87-4.14,74.65-14.09,87.49,9.74,2.44,3,20.77,24.2,45.12,26.49,13.84,1.32,27.46-3.77,40.4-15.09.92-.8,22.08-18.65,44.86-14,13.12,2.65,23.81,12,31.79,27.8l25.64,38.46v1.61h0s.08.59.47.75c.93.38,10.23,2.85,46.78-29.64l.82-.73,72.77-24.26c1.89-10.81,9-45.2,25.9-62l7.51,7.51c-17.25,17.24-23.37,58.9-23.42,59.32l-.47,3.25-76.87,25.62C1703.92,1214.38,1689.5,1220.28,1681.46,1220.28Z"/>
    <path class="cls-1" d="M1806.25,1421.14l-12.92-122.65,97.26-32.42c39.55-18.31,50.14-34.19,52-44.3a18.32,18.32,0,0,0-4-15.59l-1.79-1.87.33-2.6c1.28-9-.57-16.45-5.66-23-6.89-8.8-18.42-14-28.17-17,4.67,14.79-4.86,34.58-6,36.9l-1.41,2.82-3.15.11c-85.14,3.16-137,27.66-165.52,47.66-30.79,21.58-41.72,42.7-41.82,42.91-12.67,25.33-24.83,36.75-37.31,34.8-23.75-3.68-33.33-56.89-35-67.52l-.15-.89.17-.89c3.13-17.24,1.55-28.59-4.58-32.83-9.64-6.66-30.7,3.2-37.33,7.18l-1,.62-68.13,6.19c-17.82,14.61-31.28,20.33-41.22,17.53a14,14,0,0,1-9.55-8.52l-.36-1,.1-1.11c1.21-13.27-.57-22-4.88-24.06-9.43-4.46-34,13.89-48.4,28.29l-.88.71c-22,14.17-39.12,17.13-50.74,8.78-26.79-19.2-11.08-91.6-7.58-106.25-33.11-74.8-104-66.24-116.24-64.15-36.33,41.93-51.3,39.14-55,37.26l-2.58-1.29-.32-2.87c-4.79-43.09-28.54-50-36.11-51.16-37.46,42.82-57.78,37.66-60,36.91l-2.18-.72-1-2.09c-8.94-19.36-21.61-31.14-37.66-35-36.1-8.71-78.45,24.16-78.88,24.48l-4.37,3.44-3.23-4.52c-29.87-41.83-78.08-60.26-78.57-60.44l-5.84-2.19,3.1-5.42c22-38.56,2.25-83.34,0-88.07-34.1-44.62-104,1.18-104.67,1.64l-3,2-2.94-2c-12.84-8.55-83.72-15.33-128.23-17.81l-5.54-.31.55-5.52c1.55-15.5-1.76-27.13-9.82-34.57-16.06-14.82-46-9.58-46.27-9.54l-6.26,1.14V784.9c1.71-19-.84-31.22-7.15-34.75-8.15-4.58-23.31,4.36-28,7.84l-.8.5c-47.51,23.76-84.1,4.75-91.33.45l-83-6.39L342,749.48c-9.26-23.14-85.5-37-114.1-40.32l-1.57-.45c-22.29-10.12-33.59-21.84-33.59-34.83,0-18.11,21.86-31.19,30.47-35.63V584.51l20.48-54.6,4.08.42c.5,0,49.6,4.82,69.79-21.65,11.71-15.35,11.72-38.7.05-69.42-8.9-6.72-54.82-45.33-32.25-109.75l-18.3-97.57-25.15-50.31V116.28l1.06-1.41c.82-1.1,20.92-26.89,91-33.27,2-.23,51.07-6.46,51.26-56.75-.45-4.3-3.76-43,20.93-59.28,15.51-10.19,38.11-8.86,67.37,3.9-17.61-17.53-44.7-39-68.41-34.56C387.73-61.8,374.22-44.27,365-13c2,6.19,7.45,26.81-4.24,44.07C350.1,46.83,328.68,54.81,297.1,54.81h-2.2l-1.56-1.56c-1.64-1.61-41.41-39.18-111.26,19l-8.66,7.23,0-11.29c0-.26-.28-25.58-16.68-40.36-9.56-8.63-23-12.16-39.8-10.46l-.64.07-.64-.1c-1.7-.24-40.07-5.75-65.26-11.64-6.77,11-29.51,45.17-61.63,66.7l-50.33,44-44.89,16.83c5.64,10.37,15.63,32.14,9.47,46.42a19.9,19.9,0,0,1-11.89,10.91v41l-.7,1.23c-.17.3-16.61,29.84-3.58,54.85,10.64,20.45,37.72,32.88,80.49,37l.54.08c25.57,5.11,38.33,12,37.91,20.42-.35,7.26-6,14.88-69.59,21.23l-53.11,0-18,41.63-24.93,31.16-8.3-6.63,24.48-30.6L-124,355.8h59.6c43-4.32,55.19-9.05,58.6-11.18-3.91-2.85-16-6.94-28.22-9.41-46.48-4.47-76.31-18.83-88.67-42.67-14.13-27.24-.31-57.05,3.12-63.65V182.25l4.27-.85c5.83-1.17,7.64-3.93,8.49-5.9,4.8-11.12-7.33-34.76-12-42.17l-3.44-5.5,55-20.64,49.68-43.41C18.41,39.86,43-2.57,43.2-3l2-3.48,3.9,1C71.86.18,111.07,6,116.49,6.76,136.19,4.9,152.12,9.38,163.87,20,176.63,31.57,181.3,47.61,183,58c64.8-49.24,107-21.07,116-13.78,26.71-.3,44.5-6.68,52.88-19,10.49-15.42,2.63-35.85,2.55-36l-.66-1.68.49-1.74c10.43-36.49,26.88-57.1,48.9-61.25C448.36-84,498.63-18.82,500.75-16L516.84,5.07l-23-13.3C456.24-30,427.94-36,412-25.55c-20.2,13.27-16.23,49.14-16.19,49.5l0,.62c0,60.15-60.21,67.53-60.81,67.6-56.27,5.12-77.74,23.13-82.53,27.93v59l24.84,50.14,19,101.14-.49,1.36c-23.24,63.9,28.58,99.37,29.11,99.72l1.39.93L327,434c13.67,35.14,13.34,62.45-1,81.18-20.28,26.55-61.86,26.72-75.18,26.05l-17,45.23V645l-3.11,1.42c-7.61,3.48-27.37,15.2-27.36,27.5,0,8.21,9.21,16.78,26.62,24.82,14,1.7,102.87,13.59,120.37,43.74l79.39,6.11,1.16.76c1.41.93,35.42,22.69,81.52-.13,3.81-2.77,24.17-16.66,39.12-8.32,10.65,5.94,14.76,20.5,12.58,44.51l0,74.54c11-.93,34.09-.9,49.11,13,9.6,8.86,14.15,21.59,13.57,37.92,23.16,1.43,102.13,7,125,17.56,14.33-8.6,80.93-44.65,116.62,2.94l.5.81c1,2.06,24,49.07,2.66,93.2,13.57,6,49,24.06,74.73,57.58,12.54-8.74,49.4-31.45,83.53-23.24,18.56,4.47,33.18,17.28,43.49,38.11,5.17-.32,21.38-4.15,48.56-35.85l1.59-1.86H1126c14.07,0,41.55,11.84,48.26,55.91,5.26-1.59,17.94-8.23,41.2-35.35l1.16-1.37,1.75-.37c.93-.2,92-18.58,130.64,71.65l.7,1.65-.43,1.73c-5.57,22.33-15.9,83.24,3,96.81,9.5,6.83,26-.92,38.33-8.78,7.57-7.49,40.93-39,60-30,8.84,4.14,12.48,14.94,11.1,33a4.46,4.46,0,0,0,2.27,1.22c3,.72,12,.48,32.53-16.6l1.27-1.06,69-6.27c6.2-3.54,32-17,47.76-6.17,9.81,6.78,12.88,21.1,9.14,42.55,3.8,23.22,14.23,56,26,57.81,6.74,1,16.41-9.53,26.18-29.06,1.83-3.66,46.4-89,213.17-96.29,3-7,7.07-20,3.57-27.57-1.35-3-3.78-4.77-7.61-5.73l1.82-10.43c1.48.15,36.54,3.88,53,24.86,6.42,8.19,9.15,17.83,8.11,28.67a29.2,29.2,0,0,1,5.19,22.57c-3.29,18.43-22.92,36.06-58.36,52.42l-.54.21-89.44,29.82,12,114.16Zm-635-304.72Z"/>
    <path class="cls-1" d="M1510.28,957.22a41.53,41.53,0,0,1-9.52-1,27.28,27.28,0,0,1-17.86-12.75c-18.09-30.14-85.59-91.67-86.27-92.29l-1.39-1.26L1395,848c-4.34-28.23-13.62-46.74-27.59-55a34.41,34.41,0,0,0-27.64-3.15l-2.91,1.06-2.38-2c-38.55-33-58.61-63.4-59.64-90.24-.51-13.18,3.91-22,6.89-26.45-3.59-5.82-8-8.94-13.58-9.5-22.16-2.3-56.75,34.76-68.89,50-12.41,32.19-28.24,48.73-47,49.15h-.71c-45.11,0-88.52-96.37-92.44-105.28-32.15-45.58-7.4-96.34-6.33-98.48l.5-.81c31.91-42.56,5.65-115.84.27-129.59-32.43-8.91-60.21,23.66-60.5,24L991.9,453l-1.57.45c-1.83.52-45.23,12.74-77.28,6.33-26.75-5.34-43.9,28-44.08,28.34l-.45.9-65.69,58.4V535.61A35.53,35.53,0,0,0,789.58,510c-13.61-10.89-37-13.19-67.58-6.63-76,16.29-101.94,4.83-108.87.12H521l1.5-6.51c18.2-78.86.21-152.58,0-153.32l-1.4-5.58,5.67-.95c36-6,148.62-23.79,155.53-24.88,36.25-10.46,54.38-34.47,58.17-40V197l59.78-66.42,3.3,1.1c70.4,23.46,112.12-28.85,112.54-29.38l4.27-5.49,4.17,5.56c32.76,43.69,52.14,58.71,61.78,63.87L946.53,63.89c-22.43-50.44-78-29.09-80.34-28.15l-8.74,3.46L871.3-43.95,859-111.59c-6.56-65.44-2.57-101.58,12.17-110.93a14.23,14.23,0,0,1,12.3-1.51c31.15-5.7,204,0,211.52.23l-.35,10.62c-64.41-2.14-191.28-4.95-210.44-.16l-2.13.54-1.89-1.13a3.51,3.51,0,0,0-3.48.49c-3.78,2.58-15.49,17.45-7.2,100.37l12.57,69L870.87,23.24c19-4.79,64.53-10.53,85.47,36.57l45.74,117.61-5.29,1.76c-5.1,1.69-25.5,1.85-76.85-65.3-13.24,13.45-54.64,47.88-116.38,29l-52.43,58.26v74.22l-.76,1.26c-.81,1.35-20.29,33.11-65.42,46l-.63.14c-1.13.18-108.33,17.11-150.22,24,3.84,18.45,14.14,79.16.19,146.17h82.85l1.56,1.55s19.55,16,101.07-1.43c34.45-7.39,60.22-4.4,76.63,8.87a45.85,45.85,0,0,1,15.37,23.38L860,482.43c3.38-6.27,22.94-39.52,55.15-33,26.38,5.26,63-3.7,70.81-5.73,6.25-6.94,36.46-37.5,73.17-25.27l2.26.76.94,2.19c1.57,3.67,38,90.18-.3,142-2.13,4.6-21.51,49.17,6,87.65l.55,1c12,27.75,50.27,99.39,82.9,99.39h.5c14.21-.32,26.88-14.81,37.65-43.08l.78-1.39c4.67-5.94,46.45-57.94,78.81-54.66,10.15,1,18.08,7.15,23.6,18.18l1.71,3.42-2.7,2.71c-.26.26-7.08,7.56-6.36,22.28.79,16,10.82,42.85,53.76,80.24a45.39,45.39,0,0,1,33.4,4.77c16.61,9.72,27.57,30.17,32.58,60.79,10.09,9.25,69.22,64,86.84,93.42a16.81,16.81,0,0,0,11.19,7.87c21.74,5.13,58.62-16,67-21.05,4.15-14.55,29.35-97,69.19-104.94,15.54-3.11,30.83,5,45.52,24.13l-8.42,6.47c-12-15.62-23.78-22.41-35-20.19-30.19,6-54.68,73.76-61.58,99.35l-.54,2-1.73,1.11C1575.81,933.83,1538.7,957.22,1510.28,957.22Z"/>
    <path class="cls-1" d="M1514.74,874c-33.94,0-65.94-72.32-69.56-80.78l-.43-1v-1.09c0-56.64-61.13-63-63.73-63.26l-1.26-.12-1.07-.67c-16.27-10.17-25.66-22.77-27.91-37.45-3.14-20.52,8.88-38.35,13-43.69V609.48H1261.32l-1.41-1.07c-26.06-19.54-38.79-63.26-39.32-65.11l-.15-.71-6.16-43.15L1195.46,443V354.88c-1.58-29.93-11.3-50.68-28.9-61.41-33.48-20.43-86,.34-93.56,3.53-26.37,27.86-110.2,113.11-136.36,100-18.5-9.24-74.82,14.86-95,24.93-69.29,31.5-119.35,25.7-121.44,25.45-66.61-7.69-76.13-18.22-76.65-27.5-1-18.42,48.91-32.57,73.38-38.39,8.21-18.84,38-49.43,43.1-54.61l24.53-55.2c26-58.57,119.31-59.24,123.27-59.24h3.59l1.34,3.33c9.11,22.8,67,27.82,88.55,27.83,66.16,0,133.59-42.37,134.26-42.8l1.68-1.07,2,.31c75.27,11.55,93.15-38,93.87-40.08l.53-1.11a153.45,153.45,0,0,1,78-62.73c-4.27-7.36-10.05-12.4-17.22-15-16.53-6-36,1.84-40.47,3.85-16.88,18.11-119.23,19.68-152.15,19.71-65.92,19-98.95-77.44-99.28-78.42l-.4-1.22.19-1.27c3.25-21.13-.39-37.2-10.82-47.74-19.73-19.95-57.58-14.8-58-14.75l-4.16.59L927.84-42c-28-71.27-32.88-113.3-14.92-128.5,15.21-12.86,40.12-.51,46.2,2.83h154.4v10.62H956.25l-1.27-.75c-6.63-4-25.87-12.5-35.21-4.58-7.67,6.51-15.58,29.83,16.5,112.74,11.47-.9,43.4-1.37,62.79,18.23C1011.75-18.62,1016.44,0,1013,24c3.77,10.35,33.42,86.13,86.51,70.23l1.52-.22c66,0,138.34-6.12,145.16-16.34l.78-1.17,1.26-.63c1.09-.54,26.84-13.2,49.83-4.77,11.64,4.26,20.38,13,26,26.12l2.46,5.72-6,1.53c-.48.12-48,12.58-77.54,59.55-2.62,6.66-25.44,57.84-103.34,46.78-11.3,6.9-74.14,43.4-138.26,43.4-8.36,0-79.7-.9-96.77-31.07-16.42.68-89.59,6.32-110.27,52.85L769,333l-.7.69c-10.16,10.16-37.56,39.67-42.35,54l-.94,2.82-2.9.68c-38.62,8.91-68.22,22.42-67.9,28.08,0,.1,1.32,9.94,67.31,17.55.53.06,49.43,5.6,115.61-24.48,7.72-3.87,77.73-38.12,104.29-24.85,13.22,6.64,75-46,124.64-98.61l.73-.77,1-.43c2.58-1.16,63.65-28.15,104.38-3.31,20.76,12.66,32.19,36.28,34,70.2v86.67l18.65,56.2,6.17,43.24c1.17,3.88,12.79,41,34,58.15h109.44v50.9l-1.28,1.49c-.14.17-14.76,17.62-11.78,36.84,1.74,11.18,9.15,21,22,29.36,10,1.36,71.28,12.21,72,72.57,13,30,40.74,75.54,60.85,73.28,8.21-.95,23.61-11.69,34.57-73.1l.37-2.1,1.74-1.26c.66-.49,67.14-49.33,79-96.71l10.3,2.58c-11.81,47.24-70.22,93.08-81.32,101.44-9.42,51.35-23.64,77.43-43.44,79.69A21.9,21.9,0,0,1,1514.74,874Z"/>
    <path class="cls-1" d="M1099.3,1211.54l-9-5.7c19.91-31.28,15.54-37.93,15-38.59-2.53-2.94-13.83-.43-20.81,2.67-26,13-57.94,6.86-59.29,6.59l-3.89-.78-.35-4c-3.3-36.26-11.69-42-14.19-42.92-3.77-1.37-7.89,2.53-7.93,2.57-37.72,37.72-92.42,33.23-97.52,32.72-25.23-.05-43.15-6.65-53.27-19.6-12.66-16.22-7.9-36-7.69-36.86l.25-1,.58-.82c2.87-4,5.85-9.5,3.77-12.83-6.64-10.65-50.54-8.61-79.59-3.77l-6.19,1v-6.27c0-47.53,31.74-73.36,38.54-78.35,6.74-13.85,6.92-21,4.76-23.1-5.15-5-28.48,2.3-47.31,12.31-14.12,13-59.6,19-64.81,19.62l-6,.75v-6a3.18,3.18,0,0,0-1.31-2.59c-7.24-6.48-33.82-6.25-48.89-4.59l-1.78.2-1.54-.93c-25.48-15.3-50.8-3.27-56-.5-15.2,20-57,2.88-61.81.83l-3.44-1.47.23-3.74c4.07-65-5.63-71.32-6.75-71.83-1-.4-2.69.93-2.89,1.13l-.89.89-1.19.39c-19.57,6.53-74.71.5-77,.24l-4.73-.52v-3.89c-5.11-3.62-32.82-4.48-62.06-1.87-20.39,7.56-31.11,8-35.8,1.57C313,915,321.41,903.36,324.11,900l.6-.74,64.4-38.64h1.47c50.89,0,80.94-15.94,84.23-17.77,24.24-19.92,21.73-26.16,21.61-26.41-2.58-5.54-27.88-5.3-48.77-1.38l-3.14.59-2-2.49c-22.38-28-81-10.88-81.58-10.69-38.87,12.95-65.12.2-66.22-.34l-1.74-.87-.76-1.79c-6.89-16.06-20.27-24.68-39.78-25.61A88.25,88.25,0,0,0,224,777.47c-17.75,5.92-32.34,4.89-43.37-3.06-16-11.51-19-33.92-19.58-42.34C123.72,711,94.1,646.56,92.83,643.76l-2.12-4.66,42-21c24-9.6,46.62-72.85,53.36-96.42l.72-2.51,92.56-37v-25C247.73,431.8,230.48,405.1,228,377.75a72.55,72.55,0,0,1,13.48-49.14L223.58,244.9c-16.82-23.21-35.48-35.2-55.46-35.66-36.39-.87-66,36.36-66.28,36.74l-4.63,5.89-4-6.32C53,182.38-9,220.59-11.67,222.25L-52,247.78,55.41,140.33l8.38-39.12c-14.43,24.65-31.17,41.29-50,49.68-18.61,8.29-33.78,5.78-39.86,4.16-44.34,30.57-65.48,58.61-61.16,81.18,6.87,35.85,73.23,51,73.9,51.14l-2.31,10.37c-3-.67-73.85-16.88-82-59.51C-103,210.43-80.23,179-30,144.82l2.34-1.59,2.62,1.05c.58.23,15.12,5.65,34.81-3.25C35,129.64,57.18,99.5,74,53.89l10.18,3-19,88.79-57,57c24.4-6.8,61.55-8,90,31.43,10.48-11.31,37.27-36.24,70.17-35.38,23.76.54,45.47,14.33,64.51,41l.63.9L253,331.46l-1.79,2A62,62,0,0,0,238.64,377c2.3,24.82,18.88,49.52,49.27,73.4l2,1.59v37.34l-94.42,37.77c-4.9,16.48-27.88,88.43-58.49,100.67L104.72,644c7.64,15.44,34.06,65.19,63.88,80.09l2.92,1.46v3.28c0,.27.25,26.18,15.33,37,8.1,5.83,19.47,6.35,33.77,1.59,20.63-6.89,63.49-10.07,80.45,25.89,5.86,2.26,27.21,8.84,56.66-1,2.77-.84,63.06-18.46,91,11.74,14.86-2.53,50.45-6.9,57.33,7.88,4.44,9.54-3.23,21.69-24.86,39.39l-.63.44c-1.31.78-32.52,19.13-88.5,19.44l-60.21,36.13c-2.36,3.17-4.37,7.14-4.52,8.9,1.42.38,7,.94,24-5.44l1.39-.32c14.06-1.29,60.78-4.71,71.27,4.87a10.12,10.12,0,0,1,1.51,1.71c16.94,1.71,54.08,4.3,68.38.2,2.94-2.35,8.19-4.78,13.67-2.3,7.42,3.34,16.77,15.17,13.21,78.31,12.52,4.68,38.76,11.65,46.15.57l.66-1,1-.61c1.37-.82,33.27-19.51,66.23-.91,9-.86,43.33-3.37,55.38,7.41a14.77,14.77,0,0,1,3.52,4.61c18.92-2.77,47.09-9.06,54.59-16.55l1.24-.92c7.69-4.14,46.73-24.13,60.36-10.92,6.83,6.64,5.78,18.63-3.24,36.67l-.64,1.26-1.17.78c-.32.22-31.91,22-34.81,64.14,20.76-3,72.68-8.44,84,9.62,4,6.45,2.85,14.41-3.48,23.67-.61,3.44-2.23,16.54,6,27,8.06,10.23,23.24,15.43,45.11,15.43l.58,0c.54.06,54.07,5.44,89.15-29.64,3.26-3.25,10.95-8,19.06-5.05,10.9,4,17.7,19.6,20.74,47.8,8.75,1.11,30.8,2.67,48.83-6.35,4.22-1.88,24.57-10.23,33.38,0C1120.64,1168.77,1116.17,1185,1099.3,1211.54Z"/>
    <path class="cls-1" d="M-132.93,497.3h-87.25V486.68h87.25c5.24,0,9.31-1.72,12.43-5.26,8.64-9.76,8.15-31.2,7.23-38.64l-.15-1.19.38-1.14c18.73-56.19,50.31-54.2,55.31-53.49H59.34c19.48-7.08,29.88-15.2,30.08-23.49.36-14.79-30.4-33-49.87-41.07L36.27,321v-3.55c0-15.39-3.7-26.36-11-32.62C16.53,277.41,5.14,279.09,5,279.1L3.31,268.62c.65-.11,16.18-2.55,28.71,8.07C41.25,284.51,46.23,297,46.82,314c12.8,5.67,53.79,25.72,53.22,49.76-.33,13.57-12.75,24.54-38,33.55l-.87.31-120.37-.1c-1-.18-26.61-4-43.41,45.24.58,6.06,2.25,31.92-9.94,45.72C-117.71,494.32-124.58,497.3-132.93,497.3Z"/>
    <path class="cls-1" d="M839.3,1276.32V1265.7c50,0,83-27.85,95.74-41l-131.22-23.86-.83-3.32c-7.27-29.08-17.38-45.53-29.24-47.6-14.46-2.47-30.88,16.71-36,24.33l-.85,1.27-1.39.62c-33.63,15.14-55.17,16.68-65.83,4.7-19.1-21.5,9.79-79.55,22.71-102.89-40.73,3.43-49.34-6.79-51.06-10.22L641,1067l-.12-.85c-1-7.17-3.71-11.6-8.21-13.55-13.23-5.72-39.43,8.71-50.41,16-5.89,23.88-16.37,38.14-31.15,42.38-23.25,6.64-48.69-14.32-56.17-21.13-38.6,8.18-51.05,8.91-57.22,3.56-4.46-3.87-4.07-9.52-3.69-15,.43-6.2,1-13.93-4.35-22.78-14.39-24-5.69-47.51,1.05-59.74H315.79c-61.79,0-72.28-10.09-74.52-18.87-2.94-11.52,11.6-22.12,18.9-26.62-4.14-30.54,0-54.26,12.29-70.55a50.93,50.93,0,0,1,22.35-17,46.92,46.92,0,0,0-28.29-18.09c-37.46-7.8-84.28,25.19-84.75,25.52l-1.19.85-1.45.12c-21.31,1.81-36.86-3.49-46.2-15.64-16-20.84-8-55.37-4.34-67.84-48.7-24.05-49.25-67.36-48.79-76.54L30.59,612.78C-3.7,551.83-1,536.93,5.18,530.78c7.08-7,19-.54,20.33.22l1.3,1c19.5,21.46,39.54,32.34,59.57,32.34h.3c22-.13,37.83-13.44,42.78-18.18-5.21-44.1,19.47-69.36,20.54-70.43l1.56-1.56h2.19c38.21,0,45.17-8,46.39-10.42,1.43-2.85-.75-6-.78-6-32.59-39.1-14-90.15-13.19-92.3,31.5-78.74-10.83-105.91-20.17-110.78-56.06,21.6-56.21,31.72-56,32.81.81,5.22,21.82,11,44.06,12.21l-.56,10.6c-12-.63-51.31-4-54-21.16-1.41-9,4.68-22.27,64.86-45.19l1.94-.74,1.92.77c.67.27,66.81,28,27.89,125.32-.13.35-17.14,47.37,11.61,81.87,2.48,3.29,5.45,10.36,1.95,17.35-5.35,10.69-22.86,16-53.52,16.28-4.94,5.83-20.79,27.63-15.81,62.51l.35,2.44L139,551.61c-.84.94-21,23.21-52.29,23.39-23.09,0-45.63-11.69-67.17-35.14-3.06-1.54-6.38-2.07-6.91-1.54-.31.31-7.14,8.24,27.31,69.48l50.7,101.38-.2,1.59c-.22,1.87-4.87,46.33,46.75,69.28l4.49,2-1.65,4.64c-.15.42-14.59,41.79,1.3,62.43,6.81,8.85,18.75,12.77,35.48,11.62,8.17-5.57,53-34.48,91.81-26.41,16.61,3.45,29.81,13.17,39.23,28.87l4.2,7-8.09,1c-.51.07-13.3,2-23.22,15.28-10.85,14.55-14.08,36.72-9.59,65.89l.57,3.69-3.27,1.78c-8.76,4.8-17.85,12.9-16.92,16.56.29,1.11,4.51,10.86,64.23,10.86h135.7l-6.91,8.63c-.91,1.16-22.35,28.74-5.82,56.27,7,11.72,6.31,22.11,5.83,29-.15,2.2-.37,5.52.08,6.26,3.81,3.54,39.14-4.05,50.74-6.53l2.82-.61,2,2c.27.27,26.9,26.48,47.88,20.45,11.21-3.23,19.35-15.53,24.21-36.58l.46-2,1.67-1.17c4.09-2.86,40.54-27.67,62.37-18.19,7.65,3.31,12.43,10.1,14.23,20.18,2.29,1.81,13.13,8,50.43,3.32l10.83-1.35-5.62,9.36c-18.3,30.52-42.39,84.52-29.1,99.46,6.75,7.61,25.27,5.2,52.2-6.73,4.43-6.18,23.86-31.36,45.7-27.6,16,2.78,28.42,20.32,36.89,52.16l142.22,25.86-5.15,6.87C947.9,1226.47,909.7,1276.32,839.3,1276.32Zm-188.72-213.8Z"/>
    <path class="cls-1" d="M-355.77,758.25c-25.56,0-52.94-8.4-79.78-31.66-.54-.43-66.08-53-118.22-18.29l-5.9-8.84c58.67-39.12,128,16.61,131,19,37.19,32.23,79.58,38,126.13,17.18,30.53-13.65,52.9-34.72,58.49-40.27,2.33-29.15,49.06-51.58,62.23-57.34V597.93c0-31.66,68.34-76,82-84.57,15.79-42,38.09-68.64,66.29-79.32,34.18-12.94,64,2.74,65.22,3.41,13.06,8.68,24.13,12,32.4,9.78a16.77,16.77,0,0,0,10.19-7.48l.38-.77L118,395.59l30.76-86.12,10,3.57-31.57,88.38-44,44a27.8,27.8,0,0,1-16.47,12.1c-11.46,3.06-25.12-.63-40.59-10.94h0C26.1,446.55-.51,432.8-30,444c-25.52,9.73-45.9,34.87-60.58,74.72l-.63,1.73-1.57,1c-21.83,13.44-78.49,53.38-78.49,76.49v47.23l-3.34,1.33c-16.41,6.57-59,28.58-59,51.16v2.11l-1.45,1.53C-235.75,702.08-289.68,758.24-355.77,758.25Z"/>
    <path class="cls-1" d="M1187.73,47.93c-34.59,0-74.47-4.8-81.1-5.63l-.91-.11-.81-.41c-39.12-19.56-58.08-93.79-58.86-96.94-11.52-40.29-46-52.22-46.39-52.34l-18.46-6.15,19-4.08c90.52-19.38,111.12,26.08,112,28l-9.75,4.22c-.67-1.5-16.37-34.46-84.61-24.63a90.54,90.54,0,0,1,38.5,52.2c.22.89,18.31,71.73,52.56,89.79,28,3.44,101.63,9.93,120.69.4l4.75,9.5C1225.06,46.4,1207.24,47.93,1187.73,47.93Z"/>
    <path class="cls-1" d="M-44.39,1213.84l-2.57-10.3c42.4-10.6,61.16-40.18,64.53-46.06V1109l-6.34-75.83.67-1.33C35,985.59-42.78,888.94-43.57,888l-2.07-2.56,1.36-3c29.83-65.62,6.45-119.75,6.22-120.29C-56.88,705.78-69.5,624.49-69.62,623.67l-.3-1.95,1-1.67c12.36-19.77,20.38-26.76,27.7-24.17s8.1,14.42,7.43,23.39C9.92,638,39.21,747.59,40.48,752.39L30.21,755.1C21.75,723-7.52,637.51-40.9,628l-4.37-1.25.56-4.51c.74-6,.59-12.69-.26-15.61-1.86,1.28-6.1,5.24-13.85,17.41,2,12.66,13.9,84.06,30.65,134.28.86,1.88,24.65,57-5.11,125.54,12.79,16.32,77.59,102.76,55.34,151.35l6.11,73.36,0,51.55-.56,1.12C26.82,1162.83,7.25,1200.94-44.39,1213.84Z"/>
    <path class="cls-1" d="M395.77,1213.9c-63.49-12.7-89.29-44.18-90.35-45.51l-2.78-3.47,44.3-50.63c-2.23-4.27-5-6.7-8.34-7.39-8.94-1.88-21.28,8.09-25.29,12.07l-4.19,4.17-3.7-4.61c-8.59-10.74-13-10.62-14.15-10.31-3.73,1-6.76,9-7.63,14.11-6,24.19-27.27,25.57-37.69,23l-1.74-.43-1.12-1.4c-23.54-29.43-71.45-41.67-71.93-41.8l-2.13-.53-21-35,13.09-45.84,13-38.57c11.93-20.87,15.78-30.64,17-35.09-5.79,3.27-16.83,12.36-26.86,22.33-5.48,8.86-12.34,13.11-19.89,13.23-17.1-.18-31-23.68-32.55-26.36l-26-52.09.69-2.09c3.68-11-19.15-47.48-36.54-69.84L49.2,831l-19-69.58,10.25-2.79,18.42,67.53c8.51,11,41.58,55.54,38.15,76.54l24.07,48.15c3,5.16,14,20.65,23.31,20.75,3.91.08,7.55-2.87,11-8.65l.8-1c33-33,40.12-27.62,42.78-25.58,5.81,4.44,5.14,14.1-15.45,50.21l-12.3,36.9-11.77,41.18,16.41,27.35c10,2.79,50.94,15.6,74.24,43.36,5,.76,19,1.33,23.11-15.14.24-1.58,3.5-19.13,15.34-22.21,6.72-1.73,13.78,1.42,21.47,9.69,6.39-5.26,18.77-13.59,30.66-11.15,7.73,1.58,13.59,7.22,17.4,16.75l1.2,3L316.73,1165c8.17,8,33.38,29,81.12,38.53Z"/>
    <path class="cls-1" d="M1148.55,891.45a37.81,37.81,0,0,1-11.68-1.76l-44.42-12.79-26.51-13.25-19.49-39-24.79-43.36-26.18-39.25.82-2.47c3.62-10.86,3.56-19.67-.16-26.19-4.81-8.4-14.47-10.53-14.57-10.55l-32.18-6.55-45.71-19.59-.8-2.12c-6.18-16.49-10.9-17.32-11.78-17.21-4.65.09-12,12.32-15.6,23.25l-.3.9-27.12,33.9h-41l-43.63-18.7H721.81v-49.8l18.82-56.44c1-8-.44-13.65-4.59-17.22-10.48-9-35.89-4.08-44.79-1.41l-1.52.22H639l-37.39-12.46H509c-28.44,2.39-43.86-1.2-48.08-11.31-4.67-11.18,7.52-23.79,12.24-28.11l12-42.14,11.88-47.55-17.42-29-19.6-26.12V343.88L442.12,314l-18.9-37.75c-10.68-27.71-11.46-42.68-2.73-49,12.91-9.37,39.25,10.29,47.77,17.2l48.22,24.11h47.95l49.22-12.31,53.29-11.84,11.52-34.54,25.11-56.57L729,90l31.8-44.53L791.61,27,809.5-8.72l18.26-48.69V-93l-12.42-37.51-6-42.19L786-201.79,748.42-220.6l-14.15-21.21v-35l21.07-21.06L809-318l27,20.25,42.63,24.36,55,12.22,73.84,6.15,42.55-6.08,35.37-11.79L1102-295v-33.43l-16.26-16.25-18.49-6.17-.79-.67c-18.7-16-24.78-14-25.79-13.46-2.51,1.38-3.35,7.37-3.13,12.25,26.52,13.64,37.93,25.67,35.86,37.74-3.41,19.88-44.49,26-52.69,27l-1.27.15-69.49-25.27-50.64-12.66-27.21-20.41L858.92-393c0-3.14-16.23-10.12-38.7-13.39h-76L705.48-432.2c-12.64-8.42-23.71-11.72-32-9.52a16.77,16.77,0,0,0-10.19,7.48l-.48,1-43.19,37-24.77,92.65L550.63-202.84l-21.51,28.68-46.47-26.55-55.55-.08L353.49-213,312.34-201.3l-29.41,29.42-13.4,33.49h-49L193.06-159l-18.85-44L143-234.2l-12.87-32.17,9.86-3.95,12.06,30.15L183.16-209l18.54,43.26L224.08-149h38.26l11.54-28.84,32.9-32.9,46.1-13.17,75.53,12.59h57.07L526.25-188l15.52-20.69L585-307.5l25.25-94.68,44.2-37.89A27.84,27.84,0,0,1,670.78-452c11.46-3,25.13.63,40.59,11l36.06,24,73.92.06c14.21,2,46.91,8.3,48.15,23.08l11.81,41.32,22.64,17L953.3-323.2l67.33,24.49c16.64-2.29,40.79-9.41,42.28-18.12.42-2.46-.7-11.74-32.78-27.78l-2.49-1.25-.4-2.75c-.28-2-2.49-19.8,8.29-25.72,8.47-4.64,20.24-.2,37,14l18.91,6.3,21.14,21.14v41.37l-20.76,27.67L1052-250.62l-44.22,6.31-76.1-6.39-57.57-13L829.89-289l-22.61-17L761.22-288.7l-16.33,16.32V-245l10.8,16.18,37.17,18.59L819.43-177l6.36,44.59L838.38-94.7v39.21L819.12-4.22,799.73,34.56,768.19,53.48,738.05,95.69l-24.7,61.73-25,56.27-13.23,39.77-59,13.12-51,12.59H514L462,253c-13.09-10.7-31-20.32-35.29-17.2-.25.18-5.86,4.71,6.22,36.11l18.49,36.93,19.26,32.06V371.8l17.94,24,19.83,33.05-13,52L482.5,526.13l-1.21,1c-5.32,4.59-12.15,13.3-10.58,17.05.54,1.28,4.88,7.54,37.84,4.8l94.79,0,37.39,12.46H689c6.35-1.81,38.09-9.93,54,3.76,7.09,6.1,9.81,15.27,8.11,27.24l-.23.92-18.42,55.27v37.46H765.6l43.63,18.69H843l22.76-28.44c2.31-6.62,11.24-29.34,25.16-29.6,8.3,0,15.15,7,21.1,22l41.06,17.6,30.62,6.12c.58.12,14.31,3,21.58,15.53,5.06,8.72,5.7,19.63,1.91,32.47l23.52,35.29,25.12,43.93,18,36.07,22.91,11.45,43.66,12.5c1.06.41,26.7,9.73,43-28.31l19-57.08,1.12-.95c2.88-2.48,28.74-24,48.44-19.21,5.07,1.24,12,4.86,16,15l-9.86,3.94c-2-4.86-4.79-7.7-8.7-8.66-11.66-2.84-30.32,9.84-37.89,16l-18.23,54.67C1180.21,885.81,1160.94,891.45,1148.55,891.45Z"/>
  </g>
</svg>
