<svg id="share" data-name="Layer 1" xmlns="http://www.w3.org/2000/svg" viewBox="0 0 467 646">
  <title>share</title>
  <g>
    <path d="M130.06,124.67a10.38,10.38,0,0,0,7.34-3L223.63,35.4V534.54a10.37,10.37,0,0,0,20.74,0V35.4l85.81,85.81a10.37,10.37,0,0,0,14.67-14.67L241.34,3A9.91,9.91,0,0,0,238,.79,10.43,10.43,0,0,0,226.64,3L122.73,107a10.38,10.38,0,0,0,7.33,17.71Z"/>
    <path d="M346.61,196a10.37,10.37,0,0,0,0,20.74h94.85V621.25H26.54V216.7h94.85a10.37,10.37,0,0,0,0-20.74H5.79V642H462.21V196Z"/>
  </g>
</svg>
