<svg id="yelp" data-name="Layer 1" xmlns="http://www.w3.org/2000/svg" xmlns:xlink="http://www.w3.org/1999/xlink" viewBox="0 0 73.82 94.46">
  <defs>
    <style>
      .yelp-cls-1 {
        fill: url(#linear-gradient-yelp);
      }
    </style>
    <linearGradient id="linear-gradient-yelp" x1="36.88" y1="93.8" x2="36.88" y2="0.29" gradientUnits="userSpaceOnUse">
      <stop offset="0" stop-color="#c42628"/>
      <stop offset="1" stop-color="#df5756"/>
    </linearGradient>
  </defs>
  <title>sm</title>
  <path class="yelp-cls-1" d="M3.07,45.31C1.55,47.75.91,55.41,1.44,60.5a11.82,11.82,0,0,0,.93,3.91A3.31,3.31,0,0,0,5.16,66.3c.75,0,1.21-.09,15.25-4.61l6.26-2A3.79,3.79,0,0,0,29.38,56a4.06,4.06,0,0,0-2.46-4.13l-4.41-1.79C7.43,43.9,6.75,43.65,6,43.65a3.27,3.27,0,0,0-2.92,1.66M36.81,91.67c.25-.71.28-1.2.32-15.94,0,0,0-6.52,0-6.58a3.79,3.79,0,0,0-2.63-3.71,4.06,4.06,0,0,0-4.67,1.06s-3.08,3.65-3.09,3.65c-10.56,12.42-11,13-11.26,13.72a3,3,0,0,0-.17,1.36,3.57,3.57,0,0,0,.86,1.91c2.45,2.91,14.2,7.24,17.95,6.59a3.28,3.28,0,0,0,2.65-2.06m23.84-5.14c3.55-1.41,11.27-11.24,11.82-15a3.32,3.32,0,0,0-1.13-3.18c-.6-.45-1-.62-15.08-5.23,0,0-6.15-2-6.23-2.07A3.8,3.8,0,0,0,45.7,62.4a4,4,0,0,0-.42,4.8l2.48,4c8.32,13.52,9,14.48,9.56,15a3.21,3.21,0,0,0,3.33.35M53.4,51.72C69.35,47.86,70,47.65,70.59,47.24A3.27,3.27,0,0,0,72,44.18.65.65,0,0,0,72,44C71.55,40.13,64.69,30,61.31,28.29a3.33,3.33,0,0,0-3.39.13c-.62.4-1.07,1-9.6,12.69,0,0-3.86,5.25-3.91,5.3a3.76,3.76,0,0,0,0,4.52,4,4,0,0,0,4.36,1.9l-.08.14a48.91,48.91,0,0,1,4.74-1.25m-16-13.16C37.13,32.24,35.22,4.1,35,2.8A3.36,3.36,0,0,0,32.43.44c-4.07-1-19.62,3.35-22.51,6.32a3.45,3.45,0,0,0-1,3.21c.46.94,19.73,31.26,19.73,31.26,2.85,4.62,5.17,3.9,5.94,3.66s3.06-1,2.8-6.33"/>
</svg>
