<svg id="google" data-name="Layer 1" xmlns="http://www.w3.org/2000/svg" xmlns:xlink="http://www.w3.org/1999/xlink" viewBox="0 0 148.15 93.62">
  <defs>
    <style>
      .google-cls-1 {
        fill: url(#linear-gradient-google);
      }
    </style>
    <linearGradient id="linear-gradient-google" x1="24.56" y1="3.93" x2="110.67" y2="90.04" gradientUnits="userSpaceOnUse">
      <stop offset="0" stop-color="#1caaa9"/>
      <stop offset="1" stop-color="#79ced7"/>
    </linearGradient>
  </defs>
  <title>sm</title>
  <path class="google-cls-1 " d="M91.66,40.38c.89,12.43-.75,25.66-8.39,35.94-11.56,16.27-34.78,21-52.9,14.05S-.69,64.24.85,44.66C1.25,20.71,23.27-.27,47.22.53,58.7,0,69.49,5,78.28,12A167.9,167.9,0,0,1,66.49,24.22c-10.57-7.3-25.6-9.39-36.16-1C15.21,33.72,14.52,58.4,29.06,69.66,43.2,82.49,69.93,76.12,73.84,56.47c-8.86-.13-17.74,0-26.6-.29,0-5.28,0-10.56,0-15.85C62,40.29,76.83,40.27,91.66,40.38Zm42.18-.11c-.05-4.42-.07-8.86-.09-13.28H120.54c0,4.42-.09,8.84-.11,13.28-4.44,0-8.86,0-13.27.09V53.57l13.27.13c0,4.42,0,8.83.09,13.25h13.23c0-4.42,0-8.83.09-13.27,4.44,0,8.86-.07,13.27-.11V40.36C142.7,40.31,138.26,40.31,133.84,40.27Z"/>
</svg>
