<svg id="weed_icon" xmlns="http://www.w3.org/2000/svg" viewBox="0 0 403.01 359.05">
  <defs>
    <style>
      .weed_icon-cls-1 {
        fill: #00c3c3;
      }
    </style>
  </defs>
  <title>Asset 1</title>
  <g id="Layer_2" data-name="Layer 2">
    <g id="Isolation_Mode" data-name="Isolation Mode">
      <g>
        <g>
          <path class="weed_icon-cls-1" d="M200.92,292h-.24l.33.13Z"/>
          <path class="weed_icon-cls-1" d="M240.12,156l-6.73-.9c3.64-9,9.44-16.49,7.67-26.6l-6.94-.22c3-8.62,7.27-15.85,6.14-25.95L229.47,102c4.3-7.91,4.21-17.42,2-26.39-2.74.64-4.84,1.29-7.35,1.87,1.87-6.18,3.34-11.56,1.53-17.64-3,1-5.65,2-8.48,3-.32-11.88-.46-16.75-.9-21.52-1.25.48-5,0-6,.4L203.85,0a259.35,259.35,0,0,0-12.72,41.67l-5.56-1.79c-1.48,8-2.89,15.56-4.3,23.19l-7.12-3.23a42.39,42.39,0,0,0-.32,28.37l-10.9-4.92c-2.69,9.09.09,17.18,3.12,25.78-3.65-.38-6.72-.59-10.38-1-1,10.16,2.86,18.48,8.25,27.37l-7.08-.23c-.38,10,3.88,18.22,8.43,27.08l-4.8-.15c-1.65,6.65,1,11.86,3.27,17.42.49,1.17,1,3.13.5,3.68-2.72,2.7-3.84-.58-.77,8.33,1.71,5,4,9.72,6.07,14.58-1.19,2.17-2.51,4.88-1.76,6.77,2.36,5.92,5.49,11.53,8.35,17.25.47,1,1.09,1.83,1.81,3-3.28,1.11-4.82,3.14-3.33,5.95,2.45,4.64,5.34,9,8,13.55a10.28,10.28,0,0,1,1.4,2.84c.45,2.14.19,4.53,1,6.46,3.14,7.12,6.49,14.24,10,21.18,1.48,2.92,3.59,5.54,5.83,9l4.32.14c.46-2,2.07-4.67,2.89-6.8,2.17-5.68,10.36-17.12,10.61-22.62.18-3.9-.34-3.25.78-6.75s4.67-7.13,5.22-10.75c.23-1.51-3.09-.64-2.52-2,2.58-6.14,5.36-12.2,8.26-18.71l-5.24-1.13c4.74-7.58,8.28-15.23,9.64-23.81l-5.17-1.44c.35-1.14.58-2.08.91-3,1.9-5.08,4.11-10.06,5.6-15.26a16.41,16.41,0,0,0,.93-6.58c-.44,0-2.59,0-3,0C236.67,167.89,241.48,163.06,240.12,156Z"/>
        </g>
        <g>
          <path class="weed_icon-cls-1" d="M205.49,292.84l-.12-.17c0,.09,0,.18.08.29A.56.56,0,0,1,205.49,292.84Z"/>
          <path class="weed_icon-cls-1" d="M316.48,250.8c-1-1.7-1.89-3.25-2.84-4.94,7.86-2.07,16.15-2.19,21.66-8.18L332,232.91c7.23-2.26,14.49-3.23,20.3-8.79-1.76-2.5-3.32-4.73-5.2-7.42,7.87-1.36,14-6,18.9-12-1.81-1.52-3.22-2.66-4.87-4.05,5.09-1.86,9.48-3.6,12.65-7.88-2.22-1.5-4.16-2.8-6.23-4.21,7.81-6.19,11-8.74,14-11.43-1-.6-2.55-3.38-3.31-3.86L403,148a216.6,216.6,0,0,0-34.38,12.41c-.38-1.12-.83-2.43-1.59-4.63l-17.73,8.76c-.36-1.63-.82-3.69-1.41-6.4a35.55,35.55,0,0,0-19.22,14c-.76-3.45-1.42-6.4-2.18-9.79-7.45,2.77-11.48,8.7-15.74,15.06-1.57-2.64-2.77-5-4.35-7.6-7.35,4.41-11.43,11.53-14,19.15l-3.4-4.86c-7.14,4.93-10.88,12.18-14.47,19.64l-2.31-3.3c-4.84,1.91-7.42,6.59-10,10.92-.54.91-1.55,2.26-2.19,2.16-3.18-.46-1.53-2.87-6,3.67-2.49,3.65-4.49,7.59-6.73,11.4-2.06.29-4.54.77-5.43,2.23-2.79,4.55-5,9.48-7.38,14.27-.4.8-.68,1.65-1.11,2.73-2.39-1.64-4.53-1.66-5.67.76-1.88,4-3.38,8.13-5.07,12.2a8.2,8.2,0,0,1-1.2,2.36c-1.21,1.38-2.94,2.41-3.81,3.95q-4.8,8.53-9.12,17.34a77.16,77.16,0,0,0-3,8.38l2.08,3c1.75-.82,4.12-.92,6-1.44,4.9-1.4,16.67-1.63,20.49-4.23,2.71-1.84,2-1.85,4.91-2.86s7.13-.44,9.84-1.89c1.13-.61-1.13-2.4.07-2.7,5.42-1.36,10.88-2.53,16.71-3.86l-1.87-4.08c7.46-.64,14.38-2.11,20.83-5.5l-1.63-4.2c.93-.34,1.68-.66,2.45-.88,4.36-1.28,8.82-2.31,13.06-3.91a13.81,13.81,0,0,0,4.88-2.69c-.23-.29-1.29-1.75-1.52-2C306.78,254.43,312.44,255.24,316.48,250.8Z"/>
        </g>
        <g>
          <path class="weed_icon-cls-1" d="M198.28,292.05c0-.11.05-.2.07-.29l-.11.17S198.27,292,198.28,292.05Z"/>
          <path class="weed_icon-cls-1" d="M101.79,255.1c-.23.29-1.28,1.76-1.51,2a13.69,13.69,0,0,0,4.9,2.67c4.24,1.59,8.71,2.59,13.07,3.85.78.22,1.53.53,2.46.87l-1.61,4.2c6.47,3.37,13.39,4.8,20.86,5.4-.63,1.39-1.05,2.31-1.85,4.09,5.83,1.3,11.3,2.45,16.73,3.78,1.19.29-1.06,2.09.08,2.69,2.71,1.44,7,.87,9.85,1.85s2.2,1,4.92,2.83c3.83,2.58,15.6,2.75,20.51,4.13,1.85.51,4.22.6,6,1.41l2.07-3a81,81,0,0,0-3.07-8.37q-4.38-8.76-9.21-17.29c-.88-1.53-2.62-2.55-3.83-3.92a8.52,8.52,0,0,1-1.22-2.36c-1.7-4.07-3.23-8.21-5.13-12.18-1.15-2.41-3.28-2.39-5.67-.73-.44-1.07-.72-1.93-1.12-2.72-2.43-4.79-4.64-9.7-7.45-14.24-.9-1.46-3.39-1.92-5.45-2.2-2.25-3.8-4.27-7.73-6.78-11.37-4.47-6.51-2.81-4.11-6-3.64-.64.1-1.66-1.24-2.2-2.15-2.6-4.31-5.21-9-10.05-10.87l-2.3,3.32c-3.63-7.45-7.4-14.68-14.56-19.57l-3.38,4.88c-2.63-7.62-6.75-14.72-14.12-19.09-1.57,2.66-2.76,5-4.32,7.62-4.29-6.33-8.35-12.25-15.81-15-.74,3.4-1.39,6.35-2.14,9.8a35.57,35.57,0,0,0-19.28-14c-.58,2.71-1,4.78-1.38,6.41L36,155.65l-1.58,4.64A217.71,217.71,0,0,0,0,148.05L24.92,173.2c-.76.48-2.34,3.27-3.28,3.87,3,2.68,6.21,5.21,14.06,11.37l-6.21,4.24c3.19,4.26,7.59,6,12.69,7.81-1.64,1.4-3,2.55-4.85,4.08,5,6,11.08,10.6,19,11.93-1.86,2.69-3.41,4.93-5.16,7.44,5.84,5.53,13.1,6.47,20.35,8.69l-3.31,4.78c5.53,6,13.83,6.05,21.7,8.08-1,1.69-1.87,3.25-2.82,4.95C91.09,254.86,96.75,254,101.79,255.1Z"/>
        </g>
        <g>
          <path class="weed_icon-cls-1" d="M210.29,295.53l0-.12-.1.16Z"/>
          <path class="weed_icon-cls-1" d="M274.36,328.52c.37-1.12.69-2.17,1.07-3.28,4.12,2.7,7.55,6.4,12.49,6.44.31-1.35.55-2.36.8-3.45,3.95,2.35,7.34,5.23,12.21,5.6.42-1.82.79-3.43,1.23-5.36,3.82,3,8.41,3.84,13.11,3.63,0-1.43-.11-2.53-.16-3.84,2.91,1.54,5.48,2.82,8.7,2.51-.23-1.62-.42-3-.63-4.52,6,1,8.42,1.42,10.85,1.67-.12-.68.49-2.52.39-3.06l21.48.91a132.2,132.2,0,0,0-19.57-10.46l1.45-2.6-11.17-4.43,2.32-3.24a21.58,21.58,0,0,0-14.14-3l3.52-5c-4.27-2.24-8.59-1.65-13.18-1,.55-1.78,1.1-3.26,1.66-5.05-5-1.52-9.85-.47-14.35,1.46.32-1.38.53-2.28.81-3.51-5.12-1.22-9.91,0-14.73,1.45.22-1,.37-1.64.55-2.38-2.83-1.41-6-.67-9-.07-.63.12-1.65.21-1.87-.12-1.08-1.62.68-1.85-4.08-1.2-2.66.36-5.25,1.06-7.87,1.6-1-.81-2.19-1.74-3.21-1.54-3.2.59-6.31,1.6-9.44,2.46-.53.15-1,.37-1.68.61-.24-1.74-1.1-2.71-2.65-2.25-2.56.77-5,1.78-7.57,2.68a4.82,4.82,0,0,1-1.55.41,17,17,0,0,0-3.33-.11q-5.81,1.31-11.53,2.93a50.3,50.3,0,0,0-5,2l-.49,2.16a26,26,0,0,1,3.07,2.09c2.62,1.65,7.51,6.86,10.24,7.53,1.93.48,1.64.15,3.28,1.05s3.1,3,4.85,3.67c.73.27.63-1.48,1.24-1.06,2.82,1.89,5.57,3.88,8.53,6,.48-1.09.72-1.65,1.09-2.5A32.41,32.41,0,0,0,253,321.6l1.23-2.44c.54.28,1,.49,1.4.74,2.35,1.45,4.62,3,7.07,4.31a8.39,8.39,0,0,0,3.2,1.1c0-.21.26-1.29.3-1.51C268.78,325.63,270.71,328.51,274.36,328.52Z"/>
        </g>
        <g>
          <path class="weed_icon-cls-1" d="M196.55,297.65v.14l.06-.19Z"/>
          <path class="weed_icon-cls-1" d="M120.91,282.35c-.06,1.27-.08,2.44-.14,3.7-5-1.58-9.65-4.39-14.76-3,.08,1.49.13,2.6.19,3.79-4.76-1.27-9.09-3.25-14.22-2.2.1,2,.19,3.75.29,5.88-4.8-2-9.78-1.51-14.56.07.47,1.47.85,2.58,1.28,3.92-3.44-.74-6.47-1.31-9.69-.05.7,1.6,1.32,3,2,4.48-6.45.7-9.1,1-11.67,1.44.32.66.23,2.74.48,3.26L37.69,309A142.25,142.25,0,0,0,60.9,314c-.18.75-.38,1.63-.73,3.1L73,318.46c-.37,1-.83,2.31-1.44,4A23.16,23.16,0,0,0,87,321.39c-.78,2.16-1.44,4-2.19,6.14,5.06,1.06,9.33-.81,13.87-2.83-.05,2-.19,3.69-.23,5.69,5.57.12,10.28-2.39,14.35-5.69.07,1.52.12,2.51.19,3.86,5.63-.24,10.2-2.94,14.76-5.8,0,1.05.09,1.8.13,2.62,3.32.62,6.37-1.06,9.28-2.55.62-.31,1.64-.7,2-.43,1.59,1.36-.15,2.11,4.55.05,2.64-1.15,5.1-2.62,7.65-3.94,1.24.55,2.77,1.15,3.76.65,3.12-1.54,6-3.49,9-5.29.5-.31.94-.68,1.55-1.12.75,1.73,1.92,2.48,3.39,1.55,2.41-1.54,4.67-3.31,7-5a5.62,5.62,0,0,1,1.48-.88c1.14-.34,2.45-.31,3.47-.85q5.59-3,11-6.38a51.85,51.85,0,0,0,4.57-3.57l-.12-2.35a27,27,0,0,1-3.77-1.27c-3.19-.93-9.75-4.88-12.75-4.77-2.13.07-1.74.32-3.69-.13s-4.08-2.23-6.07-2.36c-.83-.06-.21,1.7-1,1.45-3.45-1.13-6.87-2.37-10.53-3.66-.17,1.26-.26,1.91-.39,2.9a34.55,34.55,0,0,0-13.37-4.19c-.21,1.09-.37,1.91-.55,2.87-.63-.13-1.15-.22-1.65-.36-2.85-.81-5.66-1.79-8.55-2.37a8.93,8.93,0,0,0-3.62-.21c0,.23.11,1.41.13,1.64C127.51,283.71,124.67,281.31,120.91,282.35Z"/>
        </g>
        <g>
          <path class="weed_icon-cls-1" d="M200.72,300.35l.05,0-.09,0Z"/>
          <path class="weed_icon-cls-1" d="M219.42,331.63c.46-.38.88-.75,1.34-1.12,1.05,2.26,1.53,4.76,3.64,6.1l1.26-1.27c1.08,2.07,1.76,4.21,3.76,5.66l2-2A9.68,9.68,0,0,0,236,344.1l1-1.7a7.54,7.54,0,0,0,3.07,3.4l.93-2.11c2.3,2,3.24,2.87,4.22,3.62.13-.32.88-.95,1-1.21l9,6.13a66.13,66.13,0,0,0-5.61-9.72l1.32-.73-3.61-4.89,1.86-.77a10.94,10.94,0,0,0-5.28-5.05l2.84-1.19c-1.24-2.1-3.25-3-5.4-3.94.71-.62,1.34-1.11,2.06-1.73a10.38,10.38,0,0,0-6.55-3.2l1.28-1.29c-1.87-1.89-4.26-2.63-6.71-3.31l.87-.88c-.84-1.36-2.39-1.89-3.84-2.43-.3-.12-.76-.35-.77-.55,0-1,.79-.62-1.43-1.61-1.24-.55-2.54-.94-3.81-1.41-.2-.61-.48-1.33-1-1.53-1.52-.59-3.13-1-4.71-1.46-.26-.07-.54-.11-.88-.18.36-.82.25-1.46-.54-1.68-1.3-.35-2.64-.58-4-.87a2.73,2.73,0,0,1-.78-.23,7.62,7.62,0,0,0-1.4-.94c-1.89-.66-3.81-1.27-5.73-1.83a26.42,26.42,0,0,0-2.7-.46l-.79.79a13.83,13.83,0,0,1,.76,1.72c.69,1.41,1.4,5,2.39,6,.7.72.66.5,1.13,1.33s.51,2.13,1.1,2.87c.24.31.66-.47.82-.12.7,1.56,1.35,3.15,2.07,4.84l1.13-.79a16.13,16.13,0,0,0,2.79,6l1.18-.72c.15.27.29.48.4.69.62,1.25,1.17,2.55,1.88,3.74a4.31,4.31,0,0,0,1.08,1.33c.08-.08.46-.48.53-.57C217.8,328.9,217.86,330.65,219.42,331.63Z"/>
        </g>
        <g>
          <path class="weed_icon-cls-1" d="M202.24,302.16l-.08,0,0,.05Z"/>
          <path class="weed_icon-cls-1" d="M184,328.14l.5.61a4.33,4.33,0,0,0,1.16-1.26c.79-1.15,1.42-2.41,2.12-3.61.12-.22.27-.42.44-.67l1.13.79a16.26,16.26,0,0,0,3.17-5.81c.36.3.61.49,1.08.86.82-1.64,1.57-3.18,2.37-4.7.18-.33.55.47.81.18.63-.7.78-2,1.28-2.8s.47-.58,1.21-1.25c1.06-1,2-4.45,2.76-5.81a14.69,14.69,0,0,1,.87-1.67l-.73-.83a24.35,24.35,0,0,0-2.72.28c-2,.44-3.91.92-5.84,1.46a8.38,8.38,0,0,0-1.46.85,2.53,2.53,0,0,1-.79.18c-1.34.21-2.68.35-4,.62-.8.16-.95.8-.64,1.64-.35.05-.63.07-.89.13-1.61.36-3.24.66-4.8,1.15-.5.16-.82.87-1.06,1.46-1.3.39-2.62.7-3.89,1.17-2.28.85-1.44.53-1.53,1.52,0,.19-.5.4-.81.49-1.48.45-3.06.88-4,2.18l.82.94c-2.49.52-4.92,1.11-6.91,2.87.42.48.72.84,1.2,1.37a10.44,10.44,0,0,0-6.74,2.78c.67.67,1.27,1.2,1.94,1.86-2.2.8-4.27,1.57-5.63,3.59l2.75,1.37a10.9,10.9,0,0,0-5.59,4.7l1.81.89-3.92,4.65,1.27.81a67.08,67.08,0,0,0-6.22,9.34l9.36-5.54c.08.26.79.94.9,1.27,1-.7,2-1.47,4.44-3.35.26.73.51,1.4.8,2.17a7.48,7.48,0,0,0,3.27-3.2l.85,1.75a9.68,9.68,0,0,0,5-4.75l1.83,2.09c2.09-1.33,2.9-3.42,4.11-5.41l1.18,1.34c2.19-1.2,2.83-3.67,4-5.86l1.26,1.21C183.16,331.31,183.34,329.56,184,328.14Z"/>
        </g>
        <path class="weed_icon-cls-1" d="M198.76,291.64s3.32,46-2.15,67.41A60.36,60.36,0,0,0,203.45,348c2.7-5.88,2.64-54.29,2.64-54.29Z"/>
        <rect class="weed_icon-cls-1" x="186.83" y="274.1" width="30.15" height="38.19" transform="matrix(0.03, -1, 1, 0.03, -97.57, 485.65)"/>
      </g>
    </g>
  </g>
</svg>
